<?xml version="1.0" encoding="UTF-8" standalone="no"?>
<!DOCTYPE svg PUBLIC "-//W3C//DTD SVG 1.1//EN"
 "http://www.w3.org/Graphics/SVG/1.1/DTD/svg11.dtd">
<!-- Generated by graphviz version 2.50.0 (20211204.2007)
 -->
<!-- Title: C:/Users/themo/OneDrive/Documents/GitHub/interpreter/src/tokenizer/include/AbstractTokenizer.h Pages: 1 -->
<svg width="208pt" height="218pt"
 viewBox="0.00 0.00 208.00 218.00" xmlns="http://www.w3.org/2000/svg" xmlns:xlink="http://www.w3.org/1999/xlink">
<g id="graph0" class="graph" transform="scale(1 1) rotate(0) translate(4 214)">
<title>C:/Users/themo/OneDrive/Documents/GitHub/interpreter/src/tokenizer/include/AbstractTokenizer.h</title>
<!-- Node1 -->
<g id="node1" class="node">
<title>Node1</title>
<g id="a_node1"><a xlink:title=" ">
<polygon fill="#bfbfbf" stroke="black" points="0,-168.5 0,-209.5 200,-209.5 200,-168.5 0,-168.5"/>
<text text-anchor="start" x="8" y="-197.5" font-family="Helvetica,sans-Serif" font-size="10.00">C:/Users/themo/OneDrive</text>
<text text-anchor="start" x="8" y="-186.5" font-family="Helvetica,sans-Serif" font-size="10.00">/Documents/GitHub/interpreter</text>
<text text-anchor="middle" x="100" y="-175.5" font-family="Helvetica,sans-Serif" font-size="10.00">/src/tokenizer/include/AbstractTokenizer.h</text>
</a>
</g>
</g>
<!-- Node2 -->
<g id="node2" class="node">
<title>Node2</title>
<g id="a_node2"><a xlink:href="_tokenizer_interface_8h.html" target="_top" xlink:title=" ">
<polygon fill="none" stroke="black" points="28.5,-112.5 28.5,-131.5 171.5,-131.5 171.5,-112.5 28.5,-112.5"/>
<text text-anchor="middle" x="100" y="-119.5" font-family="Helvetica,sans-Serif" font-size="10.00">Interface/TokenizerInterface.h</text>
</a>
</g>
</g>
<!-- Node1&#45;&gt;Node2 -->
<g id="edge1" class="edge">
<title>Node1&#45;&gt;Node2</title>
<path fill="none" stroke="midnightblue" d="M100,-168.5C100,-160.07 100,-150.24 100,-141.87"/>
<polygon fill="midnightblue" stroke="midnightblue" points="103.5,-141.65 100,-131.65 96.5,-141.65 103.5,-141.65"/>
</g>
<!-- Node3 -->
<g id="node3" class="node">
<title>Node3</title>
<g id="a_node3"><a xlink:href="_token_8h.html" target="_top" xlink:title=" ">
<polygon fill="none" stroke="black" points="101.5,-56.5 101.5,-75.5 152.5,-75.5 152.5,-56.5 101.5,-56.5"/>
<text text-anchor="middle" x="127" y="-63.5" font-family="Helvetica,sans-Serif" font-size="10.00">Token.h</text>
</a>
</g>
</g>
<!-- Node2&#45;&gt;Node3 -->
<g id="edge2" class="edge">
<title>Node2&#45;&gt;Node3</title>
<path fill="none" stroke="midnightblue" d="M104.46,-112.08C108.15,-104.69 113.52,-93.95 118.09,-84.81"/>
<polygon fill="midnightblue" stroke="midnightblue" points="121.28,-86.26 122.62,-75.75 115.02,-83.13 121.28,-86.26"/>
</g>
<!-- Node4 -->
<g id="node4" class="node">
<title>Node4</title>
<g id="a_node4"><a xlink:title=" ">
<polygon fill="none" stroke="#bfbfbf" points="53.5,-0.5 53.5,-19.5 94.5,-19.5 94.5,-0.5 53.5,-0.5"/>
<text text-anchor="middle" x="74" y="-7.5" font-family="Helvetica,sans-Serif" font-size="10.00">string</text>
</a>
</g>
</g>
<!-- Node2&#45;&gt;Node4 -->
<g id="edge5" class="edge">
<title>Node2&#45;&gt;Node4</title>
<path fill="none" stroke="midnightblue" d="M97.96,-112.37C93.76,-94.62 84.08,-53.67 78.4,-29.6"/>
<polygon fill="midnightblue" stroke="midnightblue" points="81.74,-28.52 76.03,-19.59 74.92,-30.13 81.74,-28.52"/>
</g>
<!-- Node3&#45;&gt;Node4 -->
<g id="edge3" class="edge">
<title>Node3&#45;&gt;Node4</title>
<path fill="none" stroke="midnightblue" d="M118.25,-56.08C110.53,-48.22 99.1,-36.57 89.78,-27.08"/>
<polygon fill="midnightblue" stroke="midnightblue" points="92.09,-24.44 82.59,-19.75 87.1,-29.34 92.09,-24.44"/>
</g>
<!-- Node5 -->
<g id="node5" class="node">
<title>Node5</title>
<g id="a_node5"><a xlink:title=" ">
<polygon fill="none" stroke="#bfbfbf" points="112.5,-0.5 112.5,-19.5 141.5,-19.5 141.5,-0.5 112.5,-0.5"/>
<text text-anchor="middle" x="127" y="-7.5" font-family="Helvetica,sans-Serif" font-size="10.00">list</text>
</a>
</g>
</g>
<!-- Node3&#45;&gt;Node5 -->
<g id="edge4" class="edge">
<title>Node3&#45;&gt;Node5</title>
<path fill="none" stroke="midnightblue" d="M127,-56.08C127,-49.01 127,-38.86 127,-29.99"/>
<polygon fill="midnightblue" stroke="midnightblue" points="130.5,-29.75 127,-19.75 123.5,-29.75 130.5,-29.75"/>
</g>
</g>
</svg>
