<?xml version="1.0" encoding="UTF-8" standalone="no"?>
<!DOCTYPE svg PUBLIC "-//W3C//DTD SVG 1.1//EN"
 "http://www.w3.org/Graphics/SVG/1.1/DTD/svg11.dtd">
<!-- Generated by graphviz version 2.50.0 (20211204.2007)
 -->
<!-- Title: AbstractExpression.h Pages: 1 -->
<svg width="648pt" height="263pt"
 viewBox="0.00 0.00 648.00 263.00" xmlns="http://www.w3.org/2000/svg" xmlns:xlink="http://www.w3.org/1999/xlink">
<g id="graph0" class="graph" transform="scale(1 1) rotate(0) translate(4 259)">
<title>AbstractExpression.h</title>
<!-- Node1 -->
<g id="node1" class="node">
<title>Node1</title>
<g id="a_node1"><a xlink:title=" ">
<polygon fill="#bfbfbf" stroke="black" points="312.5,-235.5 312.5,-254.5 422.5,-254.5 422.5,-235.5 312.5,-235.5"/>
<text text-anchor="middle" x="367.5" y="-242.5" font-family="Helvetica,sans-Serif" font-size="10.00">AbstractExpression.h</text>
</a>
</g>
</g>
<!-- Node2 -->
<g id="node2" class="node">
<title>Node2</title>
<g id="a_node2"><a xlink:href="_expression_interface_8h.html" target="_top" xlink:title=" ">
<polygon fill="none" stroke="black" points="251,-168.5 251,-198.5 388,-198.5 388,-168.5 251,-168.5"/>
<text text-anchor="start" x="259" y="-186.5" font-family="Helvetica,sans-Serif" font-size="10.00">Parser/Expression/Interface</text>
<text text-anchor="middle" x="319.5" y="-175.5" font-family="Helvetica,sans-Serif" font-size="10.00">/ExpressionInterface.h</text>
</a>
</g>
</g>
<!-- Node1&#45;&gt;Node2 -->
<g id="edge1" class="edge">
<title>Node1&#45;&gt;Node2</title>
<path fill="none" stroke="midnightblue" d="M360.62,-235.48C354.55,-227.94 345.42,-216.63 337.3,-206.57"/>
<polygon fill="midnightblue" stroke="midnightblue" points="339.82,-204.11 330.81,-198.52 334.37,-208.5 339.82,-204.11"/>
</g>
<!-- Node15 -->
<g id="node15" class="node">
<title>Node15</title>
<g id="a_node15"><a xlink:href="_token_8h.html" target="_top" xlink:title=" ">
<polygon fill="none" stroke="black" points="367.5,-112.5 367.5,-131.5 463.5,-131.5 463.5,-112.5 367.5,-112.5"/>
<text text-anchor="middle" x="415.5" y="-119.5" font-family="Helvetica,sans-Serif" font-size="10.00">Tokenizer/Token.h</text>
</a>
</g>
</g>
<!-- Node1&#45;&gt;Node15 -->
<g id="edge14" class="edge">
<title>Node1&#45;&gt;Node15</title>
<path fill="none" stroke="midnightblue" d="M374.72,-235.25C381.54,-226.56 391.58,-212.6 397.5,-199 405.59,-180.39 410.38,-157.56 412.95,-141.81"/>
<polygon fill="midnightblue" stroke="midnightblue" points="416.44,-142.16 414.45,-131.75 409.52,-141.13 416.44,-142.16"/>
</g>
<!-- Node3 -->
<g id="node3" class="node">
<title>Node3</title>
<g id="a_node3"><a xlink:href="_context_8h.html" target="_top" xlink:title=" ">
<polygon fill="none" stroke="black" points="290,-112.5 290,-131.5 349,-131.5 349,-112.5 290,-112.5"/>
<text text-anchor="middle" x="319.5" y="-119.5" font-family="Helvetica,sans-Serif" font-size="10.00">Context.h</text>
</a>
</g>
</g>
<!-- Node2&#45;&gt;Node3 -->
<g id="edge2" class="edge">
<title>Node2&#45;&gt;Node3</title>
<path fill="none" stroke="midnightblue" d="M319.5,-168.4C319.5,-160.47 319.5,-150.46 319.5,-141.86"/>
<polygon fill="midnightblue" stroke="midnightblue" points="323,-141.66 319.5,-131.66 316,-141.66 323,-141.66"/>
</g>
<!-- Node4 -->
<g id="node4" class="node">
<title>Node4</title>
<g id="a_node4"><a xlink:href="stdafx_8h.html" target="_top" xlink:title=" ">
<polygon fill="none" stroke="black" points="342,-56.5 342,-75.5 393,-75.5 393,-56.5 342,-56.5"/>
<text text-anchor="middle" x="367.5" y="-63.5" font-family="Helvetica,sans-Serif" font-size="10.00">stdafx.h</text>
</a>
</g>
</g>
<!-- Node3&#45;&gt;Node4 -->
<g id="edge3" class="edge">
<title>Node3&#45;&gt;Node4</title>
<path fill="none" stroke="midnightblue" d="M327.43,-112.08C334.35,-104.3 344.57,-92.8 352.95,-83.37"/>
<polygon fill="midnightblue" stroke="midnightblue" points="355.69,-85.55 359.72,-75.75 350.46,-80.9 355.69,-85.55"/>
</g>
<!-- Node5 -->
<g id="node5" class="node">
<title>Node5</title>
<g id="a_node5"><a xlink:href="_preprocessor_8h.html" target="_top" xlink:title=" ">
<polygon fill="none" stroke="black" points="0,-0.5 0,-19.5 83,-19.5 83,-0.5 0,-0.5"/>
<text text-anchor="middle" x="41.5" y="-7.5" font-family="Helvetica,sans-Serif" font-size="10.00">Preprocessor.h</text>
</a>
</g>
</g>
<!-- Node4&#45;&gt;Node5 -->
<g id="edge4" class="edge">
<title>Node4&#45;&gt;Node5</title>
<path fill="none" stroke="midnightblue" d="M341.7,-60.89C294.59,-53.36 191.24,-36.72 93.31,-20.12"/>
<polygon fill="midnightblue" stroke="midnightblue" points="93.69,-16.63 83.24,-18.41 92.51,-23.54 93.69,-16.63"/>
</g>
<!-- Node6 -->
<g id="node6" class="node">
<title>Node6</title>
<g id="a_node6"><a xlink:title=" ">
<polygon fill="none" stroke="#bfbfbf" points="101.5,-0.5 101.5,-19.5 153.5,-19.5 153.5,-0.5 101.5,-0.5"/>
<text text-anchor="middle" x="127.5" y="-7.5" font-family="Helvetica,sans-Serif" font-size="10.00">memory</text>
</a>
</g>
</g>
<!-- Node4&#45;&gt;Node6 -->
<g id="edge5" class="edge">
<title>Node4&#45;&gt;Node6</title>
<path fill="none" stroke="midnightblue" d="M341.87,-59.68C304.74,-51.91 233.6,-36.77 163.7,-20.23"/>
<polygon fill="midnightblue" stroke="midnightblue" points="164.39,-16.79 153.85,-17.88 162.77,-23.6 164.39,-16.79"/>
</g>
<!-- Node7 -->
<g id="node7" class="node">
<title>Node7</title>
<g id="a_node7"><a xlink:title=" ">
<polygon fill="none" stroke="#bfbfbf" points="172,-0.5 172,-19.5 221,-19.5 221,-0.5 172,-0.5"/>
<text text-anchor="middle" x="196.5" y="-7.5" font-family="Helvetica,sans-Serif" font-size="10.00">cassert</text>
</a>
</g>
</g>
<!-- Node4&#45;&gt;Node7 -->
<g id="edge6" class="edge">
<title>Node4&#45;&gt;Node7</title>
<path fill="none" stroke="midnightblue" d="M341.9,-56.92C312.35,-47.58 263.61,-32.19 230.8,-21.83"/>
<polygon fill="midnightblue" stroke="midnightblue" points="231.75,-18.46 221.16,-18.79 229.65,-25.14 231.75,-18.46"/>
</g>
<!-- Node8 -->
<g id="node8" class="node">
<title>Node8</title>
<g id="a_node8"><a xlink:title=" ">
<polygon fill="none" stroke="#bfbfbf" points="239.5,-0.5 239.5,-19.5 293.5,-19.5 293.5,-0.5 239.5,-0.5"/>
<text text-anchor="middle" x="266.5" y="-7.5" font-family="Helvetica,sans-Serif" font-size="10.00">iostream</text>
</a>
</g>
</g>
<!-- Node4&#45;&gt;Node8 -->
<g id="edge7" class="edge">
<title>Node4&#45;&gt;Node8</title>
<path fill="none" stroke="midnightblue" d="M351.27,-56.32C335.15,-47.7 310.2,-34.36 291.54,-24.39"/>
<polygon fill="midnightblue" stroke="midnightblue" points="293.16,-21.28 282.69,-19.65 289.86,-27.46 293.16,-21.28"/>
</g>
<!-- Node9 -->
<g id="node9" class="node">
<title>Node9</title>
<g id="a_node9"><a xlink:title=" ">
<polygon fill="none" stroke="#bfbfbf" points="312,-0.5 312,-19.5 361,-19.5 361,-0.5 312,-0.5"/>
<text text-anchor="middle" x="336.5" y="-7.5" font-family="Helvetica,sans-Serif" font-size="10.00">fstream</text>
</a>
</g>
</g>
<!-- Node4&#45;&gt;Node9 -->
<g id="edge8" class="edge">
<title>Node4&#45;&gt;Node9</title>
<path fill="none" stroke="midnightblue" d="M362.38,-56.08C358.09,-48.61 351.84,-37.72 346.56,-28.52"/>
<polygon fill="midnightblue" stroke="midnightblue" points="349.54,-26.68 341.52,-19.75 343.47,-30.17 349.54,-26.68"/>
</g>
<!-- Node10 -->
<g id="node10" class="node">
<title>Node10</title>
<g id="a_node10"><a xlink:title=" ">
<polygon fill="none" stroke="#bfbfbf" points="379,-0.5 379,-19.5 420,-19.5 420,-0.5 379,-0.5"/>
<text text-anchor="middle" x="399.5" y="-7.5" font-family="Helvetica,sans-Serif" font-size="10.00">string</text>
</a>
</g>
</g>
<!-- Node4&#45;&gt;Node10 -->
<g id="edge9" class="edge">
<title>Node4&#45;&gt;Node10</title>
<path fill="none" stroke="midnightblue" d="M372.78,-56.08C377.21,-48.61 383.66,-37.72 389.12,-28.52"/>
<polygon fill="midnightblue" stroke="midnightblue" points="392.23,-30.14 394.31,-19.75 386.21,-26.57 392.23,-30.14"/>
</g>
<!-- Node11 -->
<g id="node11" class="node">
<title>Node11</title>
<g id="a_node11"><a xlink:title=" ">
<polygon fill="none" stroke="#bfbfbf" points="438,-0.5 438,-19.5 479,-19.5 479,-0.5 438,-0.5"/>
<text text-anchor="middle" x="458.5" y="-7.5" font-family="Helvetica,sans-Serif" font-size="10.00">stack</text>
</a>
</g>
</g>
<!-- Node4&#45;&gt;Node11 -->
<g id="edge10" class="edge">
<title>Node4&#45;&gt;Node11</title>
<path fill="none" stroke="midnightblue" d="M382.12,-56.32C396.45,-47.82 418.51,-34.73 435.25,-24.8"/>
<polygon fill="midnightblue" stroke="midnightblue" points="437.1,-27.77 443.92,-19.65 433.53,-21.75 437.1,-27.77"/>
</g>
<!-- Node12 -->
<g id="node12" class="node">
<title>Node12</title>
<g id="a_node12"><a xlink:title=" ">
<polygon fill="none" stroke="#bfbfbf" points="497,-0.5 497,-19.5 540,-19.5 540,-0.5 497,-0.5"/>
<text text-anchor="middle" x="518.5" y="-7.5" font-family="Helvetica,sans-Serif" font-size="10.00">queue</text>
</a>
</g>
</g>
<!-- Node4&#45;&gt;Node12 -->
<g id="edge11" class="edge">
<title>Node4&#45;&gt;Node12</title>
<path fill="none" stroke="midnightblue" d="M391.43,-56.44C417.31,-47.19 458.7,-32.39 487.16,-22.21"/>
<polygon fill="midnightblue" stroke="midnightblue" points="488.41,-25.48 496.65,-18.82 486.05,-18.89 488.41,-25.48"/>
</g>
<!-- Node13 -->
<g id="node13" class="node">
<title>Node13</title>
<g id="a_node13"><a xlink:title=" ">
<polygon fill="none" stroke="#bfbfbf" points="558,-0.5 558,-19.5 587,-19.5 587,-0.5 558,-0.5"/>
<text text-anchor="middle" x="572.5" y="-7.5" font-family="Helvetica,sans-Serif" font-size="10.00">list</text>
</a>
</g>
</g>
<!-- Node4&#45;&gt;Node13 -->
<g id="edge12" class="edge">
<title>Node4&#45;&gt;Node13</title>
<path fill="none" stroke="midnightblue" d="M393.11,-59.77C426.81,-52.66 487.97,-38.94 547.9,-20.24"/>
<polygon fill="midnightblue" stroke="midnightblue" points="549.03,-23.55 557.51,-17.19 546.92,-16.88 549.03,-23.55"/>
</g>
<!-- Node14 -->
<g id="node14" class="node">
<title>Node14</title>
<g id="a_node14"><a xlink:title=" ">
<polygon fill="none" stroke="#bfbfbf" points="605,-0.5 605,-19.5 640,-19.5 640,-0.5 605,-0.5"/>
<text text-anchor="middle" x="622.5" y="-7.5" font-family="Helvetica,sans-Serif" font-size="10.00">map</text>
</a>
</g>
</g>
<!-- Node4&#45;&gt;Node14 -->
<g id="edge13" class="edge">
<title>Node4&#45;&gt;Node14</title>
<path fill="none" stroke="midnightblue" d="M393.18,-61.15C434.07,-54.77 516.61,-40.84 594.95,-20.13"/>
<polygon fill="midnightblue" stroke="midnightblue" points="596.23,-23.41 604.98,-17.44 594.42,-16.65 596.23,-23.41"/>
</g>
<!-- Node15&#45;&gt;Node4 -->
<g id="edge15" class="edge">
<title>Node15&#45;&gt;Node4</title>
<path fill="none" stroke="midnightblue" d="M407.57,-112.08C400.65,-104.3 390.43,-92.8 382.05,-83.37"/>
<polygon fill="midnightblue" stroke="midnightblue" points="384.54,-80.9 375.28,-75.75 379.31,-85.55 384.54,-80.9"/>
</g>
</g>
</svg>
