<?xml version="1.0" encoding="UTF-8" standalone="no"?>
<!DOCTYPE svg PUBLIC "-//W3C//DTD SVG 1.1//EN"
 "http://www.w3.org/Graphics/SVG/1.1/DTD/svg11.dtd">
<!-- Generated by graphviz version 2.50.0 (20211204.2007)
 -->
<!-- Title: C:/Users/themo/OneDrive/Documents/GitHub/interpreter/src/tokenizer/include/AbstractTokenizer.h Pages: 1 -->
<svg width="408pt" height="206pt"
 viewBox="0.00 0.00 408.00 206.00" xmlns="http://www.w3.org/2000/svg" xmlns:xlink="http://www.w3.org/1999/xlink">
<g id="graph0" class="graph" transform="scale(1 1) rotate(0) translate(4 202)">
<title>C:/Users/themo/OneDrive/Documents/GitHub/interpreter/src/tokenizer/include/AbstractTokenizer.h</title>
<!-- Node1 -->
<g id="node1" class="node">
<title>Node1</title>
<g id="a_node1"><a xlink:title=" ">
<polygon fill="#bfbfbf" stroke="black" points="101,-156.5 101,-197.5 301,-197.5 301,-156.5 101,-156.5"/>
<text text-anchor="start" x="109" y="-185.5" font-family="Helvetica,sans-Serif" font-size="10.00">C:/Users/themo/OneDrive</text>
<text text-anchor="start" x="109" y="-174.5" font-family="Helvetica,sans-Serif" font-size="10.00">/Documents/GitHub/interpreter</text>
<text text-anchor="middle" x="201" y="-163.5" font-family="Helvetica,sans-Serif" font-size="10.00">/src/tokenizer/include/AbstractTokenizer.h</text>
</a>
</g>
</g>
<!-- Node2 -->
<g id="node2" class="node">
<title>Node2</title>
<g id="a_node2"><a xlink:href="_stream_tokenizer_8h.html" target="_top" xlink:title=" ">
<polygon fill="none" stroke="black" points="0,-78.5 0,-119.5 194,-119.5 194,-78.5 0,-78.5"/>
<text text-anchor="start" x="8" y="-107.5" font-family="Helvetica,sans-Serif" font-size="10.00">C:/Users/themo/OneDrive</text>
<text text-anchor="start" x="8" y="-96.5" font-family="Helvetica,sans-Serif" font-size="10.00">/Documents/GitHub/interpreter</text>
<text text-anchor="middle" x="97" y="-85.5" font-family="Helvetica,sans-Serif" font-size="10.00">/src/tokenizer/include/StreamTokenizer.h</text>
</a>
</g>
</g>
<!-- Node1&#45;&gt;Node2 -->
<g id="edge1" class="edge">
<title>Node1&#45;&gt;Node2</title>
<path fill="none" stroke="midnightblue" d="M165.9,-150.35C152.11,-140.27 136.54,-128.89 123.69,-119.51"/>
<polygon fill="midnightblue" stroke="midnightblue" points="164.08,-153.35 174.22,-156.43 168.21,-147.7 164.08,-153.35"/>
</g>
<!-- Node4 -->
<g id="node4" class="node">
<title>Node4</title>
<g id="a_node4"><a xlink:href="_string_tokenizer_8h.html" target="_top" xlink:title=" ">
<polygon fill="none" stroke="black" points="212,-78.5 212,-119.5 400,-119.5 400,-78.5 212,-78.5"/>
<text text-anchor="start" x="220" y="-107.5" font-family="Helvetica,sans-Serif" font-size="10.00">C:/Users/themo/OneDrive</text>
<text text-anchor="start" x="220" y="-96.5" font-family="Helvetica,sans-Serif" font-size="10.00">/Documents/GitHub/interpreter</text>
<text text-anchor="middle" x="306" y="-85.5" font-family="Helvetica,sans-Serif" font-size="10.00">/src/tokenizer/include/StringTokenizer.h</text>
</a>
</g>
</g>
<!-- Node1&#45;&gt;Node4 -->
<g id="edge3" class="edge">
<title>Node1&#45;&gt;Node4</title>
<path fill="none" stroke="midnightblue" d="M236.44,-150.35C250.36,-140.27 266.08,-128.89 279.05,-119.51"/>
<polygon fill="midnightblue" stroke="midnightblue" points="234.09,-147.73 228.04,-156.43 238.19,-153.4 234.09,-147.73"/>
</g>
<!-- Node3 -->
<g id="node3" class="node">
<title>Node3</title>
<g id="a_node3"><a xlink:href="_client_8h.html" target="_top" xlink:title=" ">
<polygon fill="none" stroke="black" points="126.5,-0.5 126.5,-41.5 275.5,-41.5 275.5,-0.5 126.5,-0.5"/>
<text text-anchor="start" x="134.5" y="-29.5" font-family="Helvetica,sans-Serif" font-size="10.00">C:/Users/themo/OneDrive</text>
<text text-anchor="start" x="134.5" y="-18.5" font-family="Helvetica,sans-Serif" font-size="10.00">/Documents/GitHub/interpreter</text>
<text text-anchor="middle" x="201" y="-7.5" font-family="Helvetica,sans-Serif" font-size="10.00">/src/client/include/Client.h</text>
</a>
</g>
</g>
<!-- Node2&#45;&gt;Node3 -->
<g id="edge2" class="edge">
<title>Node2&#45;&gt;Node3</title>
<path fill="none" stroke="midnightblue" d="M132.1,-72.35C145.89,-62.27 161.46,-50.89 174.31,-41.51"/>
<polygon fill="midnightblue" stroke="midnightblue" points="129.79,-69.7 123.78,-78.43 133.92,-75.35 129.79,-69.7"/>
</g>
<!-- Node4&#45;&gt;Node3 -->
<g id="edge4" class="edge">
<title>Node4&#45;&gt;Node3</title>
<path fill="none" stroke="midnightblue" d="M270.56,-72.35C256.64,-62.27 240.92,-50.89 227.95,-41.51"/>
<polygon fill="midnightblue" stroke="midnightblue" points="268.81,-75.4 278.96,-78.43 272.91,-69.73 268.81,-75.4"/>
</g>
</g>
</svg>
