<?xml version="1.0" encoding="UTF-8" standalone="no"?>
<!DOCTYPE svg PUBLIC "-//W3C//DTD SVG 1.1//EN"
 "http://www.w3.org/Graphics/SVG/1.1/DTD/svg11.dtd">
<!-- Generated by graphviz version 2.50.0 (20211204.2007)
 -->
<!-- Title: AdditionExpression.h Pages: 1 -->
<!--zoomable 397 -->
<svg id="main" version="1.1" xmlns="http://www.w3.org/2000/svg" xmlns:xlink="http://www.w3.org/1999/xlink" xml:space="preserve" onload="init(evt)">
<style type="text/css"><![CDATA[
.edge:hover path { stroke: red; }
.edge:hover polygon { stroke: red; fill: red; }
]]></style>
<script type="text/javascript"><![CDATA[
var edges = document.getElementsByTagName('g');
if (edges && edges.length) {
  for (var i=0;i<edges.length;i++) {
    if (edges[i].id.substr(0,4)=='edge') {
      edges[i].setAttribute('class','edge');
    }
  }
}
]]></script>
        <defs>
                <circle id="rim" cx="0" cy="0" r="7"/>
                <circle id="rim2" cx="0" cy="0" r="3.5"/>
                <g id="zoomPlus">
                        <use xlink:href="#rim" fill="#404040">
                                <set attributeName="fill" to="#808080" begin="zoomplus.mouseover" end="zoomplus.mouseout"/>
                        </use>
                        <path d="M-4,0h8M0,-4v8" fill="none" stroke="white" stroke-width="1.5" pointer-events="none"/>
                </g>
                <g id="zoomMin">
                        <use xlink:href="#rim" fill="#404040">
                                <set attributeName="fill" to="#808080" begin="zoomminus.mouseover" end="zoomminus.mouseout"/>
                        </use>
                        <path d="M-4,0h8" fill="none" stroke="white" stroke-width="1.5" pointer-events="none"/>
                </g>
                <g id="dirArrow">
                        <path fill="none" stroke="white" stroke-width="1.5" d="M0,-3.0v7 M-2.5,-0.5L0,-3.0L2.5,-0.5"/>
                </g>
               <g id="resetDef">
                       <use xlink:href="#rim2" fill="#404040">
                               <set attributeName="fill" to="#808080" begin="reset.mouseover" end="reset.mouseout"/>
                       </use>
               </g>
        </defs>

<script type="text/javascript">
var viewWidth = 648;
var viewHeight = 397;
var sectionId = 'dynsection-0';
</script>
<script xlink:href="svgpan.js"/>
<svg id="graph" class="graph">
<g id="viewport">
<title>AdditionExpression.h</title>
<!-- Node1 -->
<g id="node1" class="node">
<title>Node1</title>
<g id="a_node1"><a xlink:title=" ">
<polygon fill="#bfbfbf" stroke="black" points="313,-369.5 313,-388.5 422,-388.5 422,-369.5 313,-369.5"/>
<text text-anchor="middle" x="367.5" y="-376.5" font-family="Helvetica,sans-Serif" font-size="10.00">AdditionExpression.h</text>
</a>
</g>
</g>
<!-- Node2 -->
<g id="node2" class="node">
<title>Node2</title>
<g id="a_node2"><a xlink:href="_operator_expression_8h.html" target="_top" xlink:title=" ">
<polygon fill="none" stroke="black" points="299,-302.5 299,-332.5 436,-332.5 436,-302.5 299,-302.5"/>
<text text-anchor="start" x="307" y="-320.5" font-family="Helvetica,sans-Serif" font-size="10.00">Parser/Expression/Operator</text>
<text text-anchor="middle" x="367.5" y="-309.5" font-family="Helvetica,sans-Serif" font-size="10.00">/OperatorExpression.h</text>
</a>
</g>
</g>
<!-- Node1&#45;&gt;Node2 -->
<g id="edge1" class="edge">
<title>Node1&#45;&gt;Node2</title>
<path fill="none" stroke="midnightblue" d="M367.5,-369.48C367.5,-362.47 367.5,-352.19 367.5,-342.7"/>
<polygon fill="midnightblue" stroke="midnightblue" points="371,-342.52 367.5,-332.52 364,-342.52 371,-342.52"/>
</g>
<!-- Node3 -->
<g id="node3" class="node">
<title>Node3</title>
<g id="a_node3"><a xlink:href="_abstract_expression_8h.html" target="_top" xlink:title=" ">
<polygon fill="none" stroke="black" points="299,-235.5 299,-265.5 436,-265.5 436,-235.5 299,-235.5"/>
<text text-anchor="start" x="307" y="-253.5" font-family="Helvetica,sans-Serif" font-size="10.00">Parser/Expression/Abstract</text>
<text text-anchor="middle" x="367.5" y="-242.5" font-family="Helvetica,sans-Serif" font-size="10.00">Expression.h</text>
</a>
</g>
</g>
<!-- Node2&#45;&gt;Node3 -->
<g id="edge2" class="edge">
<title>Node2&#45;&gt;Node3</title>
<path fill="none" stroke="midnightblue" d="M367.5,-302.4C367.5,-294.64 367.5,-284.81 367.5,-275.86"/>
<polygon fill="midnightblue" stroke="midnightblue" points="371,-275.58 367.5,-265.58 364,-275.58 371,-275.58"/>
</g>
<!-- Node4 -->
<g id="node4" class="node">
<title>Node4</title>
<g id="a_node4"><a xlink:href="_expression_interface_8h.html" target="_top" xlink:title=" ">
<polygon fill="none" stroke="black" points="251,-168.5 251,-198.5 388,-198.5 388,-168.5 251,-168.5"/>
<text text-anchor="start" x="259" y="-186.5" font-family="Helvetica,sans-Serif" font-size="10.00">Parser/Expression/Interface</text>
<text text-anchor="middle" x="319.5" y="-175.5" font-family="Helvetica,sans-Serif" font-size="10.00">/ExpressionInterface.h</text>
</a>
</g>
</g>
<!-- Node3&#45;&gt;Node4 -->
<g id="edge3" class="edge">
<title>Node3&#45;&gt;Node4</title>
<path fill="none" stroke="midnightblue" d="M357.08,-235.4C350.92,-227.05 342.97,-216.29 335.98,-206.81"/>
<polygon fill="midnightblue" stroke="midnightblue" points="338.65,-204.54 329.89,-198.58 333.02,-208.7 338.65,-204.54"/>
</g>
<!-- Node17 -->
<g id="node17" class="node">
<title>Node17</title>
<g id="a_node17"><a xlink:href="_token_8h.html" target="_top" xlink:title=" ">
<polygon fill="none" stroke="black" points="367.5,-112.5 367.5,-131.5 463.5,-131.5 463.5,-112.5 367.5,-112.5"/>
<text text-anchor="middle" x="415.5" y="-119.5" font-family="Helvetica,sans-Serif" font-size="10.00">Tokenizer/Token.h</text>
</a>
</g>
</g>
<!-- Node3&#45;&gt;Node17 -->
<g id="edge16" class="edge">
<title>Node3&#45;&gt;Node17</title>
<path fill="none" stroke="midnightblue" d="M377.67,-235.09C384.16,-225.31 392.3,-211.86 397.5,-199 405.11,-180.19 409.97,-157.39 412.7,-141.7"/>
<polygon fill="midnightblue" stroke="midnightblue" points="416.18,-142.13 414.32,-131.7 409.27,-141.01 416.18,-142.13"/>
</g>
<!-- Node5 -->
<g id="node5" class="node">
<title>Node5</title>
<g id="a_node5"><a xlink:href="_context_8h.html" target="_top" xlink:title=" ">
<polygon fill="none" stroke="black" points="290,-112.5 290,-131.5 349,-131.5 349,-112.5 290,-112.5"/>
<text text-anchor="middle" x="319.5" y="-119.5" font-family="Helvetica,sans-Serif" font-size="10.00">Context.h</text>
</a>
</g>
</g>
<!-- Node4&#45;&gt;Node5 -->
<g id="edge4" class="edge">
<title>Node4&#45;&gt;Node5</title>
<path fill="none" stroke="midnightblue" d="M319.5,-168.4C319.5,-160.47 319.5,-150.46 319.5,-141.86"/>
<polygon fill="midnightblue" stroke="midnightblue" points="323,-141.66 319.5,-131.66 316,-141.66 323,-141.66"/>
</g>
<!-- Node6 -->
<g id="node6" class="node">
<title>Node6</title>
<g id="a_node6"><a xlink:href="stdafx_8h.html" target="_top" xlink:title=" ">
<polygon fill="none" stroke="black" points="342,-56.5 342,-75.5 393,-75.5 393,-56.5 342,-56.5"/>
<text text-anchor="middle" x="367.5" y="-63.5" font-family="Helvetica,sans-Serif" font-size="10.00">stdafx.h</text>
</a>
</g>
</g>
<!-- Node5&#45;&gt;Node6 -->
<g id="edge5" class="edge">
<title>Node5&#45;&gt;Node6</title>
<path fill="none" stroke="midnightblue" d="M327.43,-112.08C334.35,-104.3 344.57,-92.8 352.95,-83.37"/>
<polygon fill="midnightblue" stroke="midnightblue" points="355.69,-85.55 359.72,-75.75 350.46,-80.9 355.69,-85.55"/>
</g>
<!-- Node7 -->
<g id="node7" class="node">
<title>Node7</title>
<g id="a_node7"><a xlink:href="_preprocessor_8h.html" target="_top" xlink:title=" ">
<polygon fill="none" stroke="black" points="0,-0.5 0,-19.5 83,-19.5 83,-0.5 0,-0.5"/>
<text text-anchor="middle" x="41.5" y="-7.5" font-family="Helvetica,sans-Serif" font-size="10.00">Preprocessor.h</text>
</a>
</g>
</g>
<!-- Node6&#45;&gt;Node7 -->
<g id="edge6" class="edge">
<title>Node6&#45;&gt;Node7</title>
<path fill="none" stroke="midnightblue" d="M341.7,-60.89C294.59,-53.36 191.24,-36.72 93.31,-20.12"/>
<polygon fill="midnightblue" stroke="midnightblue" points="93.69,-16.63 83.24,-18.41 92.51,-23.54 93.69,-16.63"/>
</g>
<!-- Node8 -->
<g id="node8" class="node">
<title>Node8</title>
<g id="a_node8"><a xlink:title=" ">
<polygon fill="none" stroke="#bfbfbf" points="101.5,-0.5 101.5,-19.5 153.5,-19.5 153.5,-0.5 101.5,-0.5"/>
<text text-anchor="middle" x="127.5" y="-7.5" font-family="Helvetica,sans-Serif" font-size="10.00">memory</text>
</a>
</g>
</g>
<!-- Node6&#45;&gt;Node8 -->
<g id="edge7" class="edge">
<title>Node6&#45;&gt;Node8</title>
<path fill="none" stroke="midnightblue" d="M341.87,-59.68C304.74,-51.91 233.6,-36.77 163.7,-20.23"/>
<polygon fill="midnightblue" stroke="midnightblue" points="164.39,-16.79 153.85,-17.88 162.77,-23.6 164.39,-16.79"/>
</g>
<!-- Node9 -->
<g id="node9" class="node">
<title>Node9</title>
<g id="a_node9"><a xlink:title=" ">
<polygon fill="none" stroke="#bfbfbf" points="172,-0.5 172,-19.5 221,-19.5 221,-0.5 172,-0.5"/>
<text text-anchor="middle" x="196.5" y="-7.5" font-family="Helvetica,sans-Serif" font-size="10.00">cassert</text>
</a>
</g>
</g>
<!-- Node6&#45;&gt;Node9 -->
<g id="edge8" class="edge">
<title>Node6&#45;&gt;Node9</title>
<path fill="none" stroke="midnightblue" d="M341.9,-56.92C312.35,-47.58 263.61,-32.19 230.8,-21.83"/>
<polygon fill="midnightblue" stroke="midnightblue" points="231.75,-18.46 221.16,-18.79 229.65,-25.14 231.75,-18.46"/>
</g>
<!-- Node10 -->
<g id="node10" class="node">
<title>Node10</title>
<g id="a_node10"><a xlink:title=" ">
<polygon fill="none" stroke="#bfbfbf" points="239.5,-0.5 239.5,-19.5 293.5,-19.5 293.5,-0.5 239.5,-0.5"/>
<text text-anchor="middle" x="266.5" y="-7.5" font-family="Helvetica,sans-Serif" font-size="10.00">iostream</text>
</a>
</g>
</g>
<!-- Node6&#45;&gt;Node10 -->
<g id="edge9" class="edge">
<title>Node6&#45;&gt;Node10</title>
<path fill="none" stroke="midnightblue" d="M351.27,-56.32C335.15,-47.7 310.2,-34.36 291.54,-24.39"/>
<polygon fill="midnightblue" stroke="midnightblue" points="293.16,-21.28 282.69,-19.65 289.86,-27.46 293.16,-21.28"/>
</g>
<!-- Node11 -->
<g id="node11" class="node">
<title>Node11</title>
<g id="a_node11"><a xlink:title=" ">
<polygon fill="none" stroke="#bfbfbf" points="312,-0.5 312,-19.5 361,-19.5 361,-0.5 312,-0.5"/>
<text text-anchor="middle" x="336.5" y="-7.5" font-family="Helvetica,sans-Serif" font-size="10.00">fstream</text>
</a>
</g>
</g>
<!-- Node6&#45;&gt;Node11 -->
<g id="edge10" class="edge">
<title>Node6&#45;&gt;Node11</title>
<path fill="none" stroke="midnightblue" d="M362.38,-56.08C358.09,-48.61 351.84,-37.72 346.56,-28.52"/>
<polygon fill="midnightblue" stroke="midnightblue" points="349.54,-26.68 341.52,-19.75 343.47,-30.17 349.54,-26.68"/>
</g>
<!-- Node12 -->
<g id="node12" class="node">
<title>Node12</title>
<g id="a_node12"><a xlink:title=" ">
<polygon fill="none" stroke="#bfbfbf" points="379,-0.5 379,-19.5 420,-19.5 420,-0.5 379,-0.5"/>
<text text-anchor="middle" x="399.5" y="-7.5" font-family="Helvetica,sans-Serif" font-size="10.00">string</text>
</a>
</g>
</g>
<!-- Node6&#45;&gt;Node12 -->
<g id="edge11" class="edge">
<title>Node6&#45;&gt;Node12</title>
<path fill="none" stroke="midnightblue" d="M372.78,-56.08C377.21,-48.61 383.66,-37.72 389.12,-28.52"/>
<polygon fill="midnightblue" stroke="midnightblue" points="392.23,-30.14 394.31,-19.75 386.21,-26.57 392.23,-30.14"/>
</g>
<!-- Node13 -->
<g id="node13" class="node">
<title>Node13</title>
<g id="a_node13"><a xlink:title=" ">
<polygon fill="none" stroke="#bfbfbf" points="438,-0.5 438,-19.5 479,-19.5 479,-0.5 438,-0.5"/>
<text text-anchor="middle" x="458.5" y="-7.5" font-family="Helvetica,sans-Serif" font-size="10.00">stack</text>
</a>
</g>
</g>
<!-- Node6&#45;&gt;Node13 -->
<g id="edge12" class="edge">
<title>Node6&#45;&gt;Node13</title>
<path fill="none" stroke="midnightblue" d="M382.12,-56.32C396.45,-47.82 418.51,-34.73 435.25,-24.8"/>
<polygon fill="midnightblue" stroke="midnightblue" points="437.1,-27.77 443.92,-19.65 433.53,-21.75 437.1,-27.77"/>
</g>
<!-- Node14 -->
<g id="node14" class="node">
<title>Node14</title>
<g id="a_node14"><a xlink:title=" ">
<polygon fill="none" stroke="#bfbfbf" points="497,-0.5 497,-19.5 540,-19.5 540,-0.5 497,-0.5"/>
<text text-anchor="middle" x="518.5" y="-7.5" font-family="Helvetica,sans-Serif" font-size="10.00">queue</text>
</a>
</g>
</g>
<!-- Node6&#45;&gt;Node14 -->
<g id="edge13" class="edge">
<title>Node6&#45;&gt;Node14</title>
<path fill="none" stroke="midnightblue" d="M391.43,-56.44C417.31,-47.19 458.7,-32.39 487.16,-22.21"/>
<polygon fill="midnightblue" stroke="midnightblue" points="488.41,-25.48 496.65,-18.82 486.05,-18.89 488.41,-25.48"/>
</g>
<!-- Node15 -->
<g id="node15" class="node">
<title>Node15</title>
<g id="a_node15"><a xlink:title=" ">
<polygon fill="none" stroke="#bfbfbf" points="558,-0.5 558,-19.5 587,-19.5 587,-0.5 558,-0.5"/>
<text text-anchor="middle" x="572.5" y="-7.5" font-family="Helvetica,sans-Serif" font-size="10.00">list</text>
</a>
</g>
</g>
<!-- Node6&#45;&gt;Node15 -->
<g id="edge14" class="edge">
<title>Node6&#45;&gt;Node15</title>
<path fill="none" stroke="midnightblue" d="M393.11,-59.77C426.81,-52.66 487.97,-38.94 547.9,-20.24"/>
<polygon fill="midnightblue" stroke="midnightblue" points="549.03,-23.55 557.51,-17.19 546.92,-16.88 549.03,-23.55"/>
</g>
<!-- Node16 -->
<g id="node16" class="node">
<title>Node16</title>
<g id="a_node16"><a xlink:title=" ">
<polygon fill="none" stroke="#bfbfbf" points="605,-0.5 605,-19.5 640,-19.5 640,-0.5 605,-0.5"/>
<text text-anchor="middle" x="622.5" y="-7.5" font-family="Helvetica,sans-Serif" font-size="10.00">map</text>
</a>
</g>
</g>
<!-- Node6&#45;&gt;Node16 -->
<g id="edge15" class="edge">
<title>Node6&#45;&gt;Node16</title>
<path fill="none" stroke="midnightblue" d="M393.18,-61.15C434.07,-54.77 516.61,-40.84 594.95,-20.13"/>
<polygon fill="midnightblue" stroke="midnightblue" points="596.23,-23.41 604.98,-17.44 594.42,-16.65 596.23,-23.41"/>
</g>
<!-- Node17&#45;&gt;Node6 -->
<g id="edge17" class="edge">
<title>Node17&#45;&gt;Node6</title>
<path fill="none" stroke="midnightblue" d="M407.57,-112.08C400.65,-104.3 390.43,-92.8 382.05,-83.37"/>
<polygon fill="midnightblue" stroke="midnightblue" points="384.54,-80.9 375.28,-75.75 379.31,-85.55 384.54,-80.9"/>
</g>
</g>
</svg>
        <g id="navigator" transform="translate(0 0)" fill="#404254">
                <rect fill="#f2f5e9" fill-opacity="0.5" stroke="#606060" stroke-width=".5" x="0" y="0" width="60" height="60"/>
                <use id="zoomplus" xlink:href="#zoomPlus" x="17" y="9" onmousedown="handleZoom(evt,'in')"/>
                <use id="zoomminus" xlink:href="#zoomMin" x="42" y="9" onmousedown="handleZoom(evt,'out')"/>
                <use id="reset" xlink:href="#resetDef" x="30" y="36" onmousedown="handleReset()"/>
                <g id="arrowUp" xlink:href="#dirArrow" transform="translate(30 24)" onmousedown="handlePan(0,-1)">
                  <use xlink:href="#rim" fill="#404040">
                        <set attributeName="fill" to="#808080" begin="arrowUp.mouseover" end="arrowUp.mouseout"/>
                  </use>
                  <path fill="none" stroke="white" stroke-width="1.5" d="M0,-3.0v7 M-2.5,-0.5L0,-3.0L2.5,-0.5"/>
                </g>
                <g id="arrowRight" xlink:href="#dirArrow" transform="rotate(90) translate(36 -43)" onmousedown="handlePan(1,0)">
                  <use xlink:href="#rim" fill="#404040">
                        <set attributeName="fill" to="#808080" begin="arrowRight.mouseover" end="arrowRight.mouseout"/>
                  </use>
                  <path fill="none" stroke="white" stroke-width="1.5" d="M0,-3.0v7 M-2.5,-0.5L0,-3.0L2.5,-0.5"/>
                </g>
                <g id="arrowDown" xlink:href="#dirArrow" transform="rotate(180) translate(-30 -48)" onmousedown="handlePan(0,1)">
                  <use xlink:href="#rim" fill="#404040">
                        <set attributeName="fill" to="#808080" begin="arrowDown.mouseover" end="arrowDown.mouseout"/>
                  </use>
                  <path fill="none" stroke="white" stroke-width="1.5" d="M0,-3.0v7 M-2.5,-0.5L0,-3.0L2.5,-0.5"/>
                </g>
                <g id="arrowLeft" xlink:href="#dirArrow" transform="rotate(270) translate(-36 17)" onmousedown="handlePan(-1,0)">
                  <use xlink:href="#rim" fill="#404040">
                        <set attributeName="fill" to="#808080" begin="arrowLeft.mouseover" end="arrowLeft.mouseout"/>
                  </use>
                  <path fill="none" stroke="white" stroke-width="1.5" d="M0,-3.0v7 M-2.5,-0.5L0,-3.0L2.5,-0.5"/>
                </g>
        </g>
        <svg viewBox="0 0 15 15" width="100%" height="30px" preserveAspectRatio="xMaxYMin meet">
         <g id="arrow_out" transform="scale(0.3 0.3)">
          <a xlink:href="_addition_expression_8h__incl_org.svg" target="_base">
           <rect id="button" ry="5" rx="5" y="6" x="6" height="38" width="38"
                fill="#f2f5e9" fill-opacity="0.5" stroke="#606060" stroke-width="1.0"/>
           <path id="arrow"
             d="M 11.500037,31.436501 C 11.940474,20.09759 22.043105,11.32322 32.158766,21.979434 L 37.068811,17.246167 C 37.068811,17.246167 37.088388,32 37.088388,32 L 22.160133,31.978069 C 22.160133,31.978069 26.997745,27.140456 26.997745,27.140456 C 18.528582,18.264221 13.291696,25.230495 11.500037,31.436501 z"
             style="fill:#404040;"/>
          </a>
         </g>
        </svg>
</svg>
