<?xml version="1.0" encoding="UTF-8" standalone="no"?>
<!DOCTYPE svg PUBLIC "-//W3C//DTD SVG 1.1//EN"
 "http://www.w3.org/Graphics/SVG/1.1/DTD/svg11.dtd">
<!-- Generated by graphviz version 2.50.0 (20211204.2007)
 -->
<!-- Title: Client.h Pages: 1 -->
<svg width="697pt" height="330pt"
 viewBox="0.00 0.00 697.35 330.00" xmlns="http://www.w3.org/2000/svg" xmlns:xlink="http://www.w3.org/1999/xlink">
<g id="graph0" class="graph" transform="scale(1 1) rotate(0) translate(4 326)">
<title>Client.h</title>
<!-- Node1 -->
<g id="node1" class="node">
<title>Node1</title>
<g id="a_node1"><a xlink:title=" ">
<polygon fill="#bfbfbf" stroke="black" points="405.5,-302.5 405.5,-321.5 455.5,-321.5 455.5,-302.5 405.5,-302.5"/>
<text text-anchor="middle" x="430.5" y="-309.5" font-family="Helvetica,sans-Serif" font-size="10.00">Client.h</text>
</a>
</g>
</g>
<!-- Node2 -->
<g id="node2" class="node">
<title>Node2</title>
<g id="a_node2"><a xlink:href="stdafx_8h.html" target="_top" xlink:title=" ">
<polygon fill="none" stroke="black" points="342,-56.5 342,-75.5 393,-75.5 393,-56.5 342,-56.5"/>
<text text-anchor="middle" x="367.5" y="-63.5" font-family="Helvetica,sans-Serif" font-size="10.00">stdafx.h</text>
</a>
</g>
</g>
<!-- Node1&#45;&gt;Node2 -->
<g id="edge1" class="edge">
<title>Node1&#45;&gt;Node2</title>
<path fill="none" stroke="midnightblue" d="M405.26,-309.59C376.82,-306.5 331.79,-296.72 310.5,-266 269.93,-207.45 326.35,-120.28 353.89,-83.9"/>
<polygon fill="midnightblue" stroke="midnightblue" points="356.82,-85.83 360.2,-75.79 351.29,-81.54 356.82,-85.83"/>
</g>
<!-- Node13 -->
<g id="node13" class="node">
<title>Node13</title>
<g id="a_node13"><a xlink:href="_tokenizer_interface_8h.html" target="_top" xlink:title=" ">
<polygon fill="none" stroke="black" points="320,-235.5 320,-265.5 427,-265.5 427,-235.5 320,-235.5"/>
<text text-anchor="start" x="328" y="-253.5" font-family="Helvetica,sans-Serif" font-size="10.00">Tokenizer/Interface</text>
<text text-anchor="middle" x="373.5" y="-242.5" font-family="Helvetica,sans-Serif" font-size="10.00">/TokenizerInterface.h</text>
</a>
</g>
</g>
<!-- Node1&#45;&gt;Node13 -->
<g id="edge12" class="edge">
<title>Node1&#45;&gt;Node13</title>
<path fill="none" stroke="midnightblue" d="M422.33,-302.48C414.97,-294.79 403.84,-283.17 394.06,-272.96"/>
<polygon fill="midnightblue" stroke="midnightblue" points="396.38,-270.32 386.93,-265.52 391.32,-275.17 396.38,-270.32"/>
</g>
<!-- Node15 -->
<g id="node15" class="node">
<title>Node15</title>
<g id="a_node15"><a xlink:href="_parser_8h.html" target="_top" xlink:title=" ">
<polygon fill="none" stroke="black" points="446,-241 446,-260 531,-260 531,-241 446,-241"/>
<text text-anchor="middle" x="488.5" y="-248" font-family="Helvetica,sans-Serif" font-size="10.00">Parser/Parser.h</text>
</a>
</g>
</g>
<!-- Node1&#45;&gt;Node15 -->
<g id="edge15" class="edge">
<title>Node1&#45;&gt;Node15</title>
<path fill="none" stroke="midnightblue" d="M438.81,-302.48C447.68,-293.37 461.95,-278.74 472.92,-267.48"/>
<polygon fill="midnightblue" stroke="midnightblue" points="475.73,-269.61 480.21,-260.01 470.72,-264.73 475.73,-269.61"/>
</g>
<!-- Node17 -->
<g id="node17" class="node">
<title>Node17</title>
<g id="a_node17"><a xlink:href="_context_8h.html" target="_top" xlink:title=" ">
<polygon fill="none" stroke="black" points="524,-112.5 524,-131.5 583,-131.5 583,-112.5 524,-112.5"/>
<text text-anchor="middle" x="553.5" y="-119.5" font-family="Helvetica,sans-Serif" font-size="10.00">Context.h</text>
</a>
</g>
</g>
<!-- Node1&#45;&gt;Node17 -->
<g id="edge22" class="edge">
<title>Node1&#45;&gt;Node17</title>
<path fill="none" stroke="midnightblue" d="M455.7,-308.71C508.98,-302.34 632.36,-279.19 683.5,-199 690.91,-187.38 691.49,-179.22 683.5,-168 663.24,-139.55 623.7,-128.92 593.52,-125.03"/>
<polygon fill="midnightblue" stroke="midnightblue" points="593.6,-121.52 583.28,-123.92 592.84,-128.48 593.6,-121.52"/>
</g>
<!-- Node3 -->
<g id="node3" class="node">
<title>Node3</title>
<g id="a_node3"><a xlink:href="_preprocessor_8h.html" target="_top" xlink:title=" ">
<polygon fill="none" stroke="black" points="0,-0.5 0,-19.5 83,-19.5 83,-0.5 0,-0.5"/>
<text text-anchor="middle" x="41.5" y="-7.5" font-family="Helvetica,sans-Serif" font-size="10.00">Preprocessor.h</text>
</a>
</g>
</g>
<!-- Node2&#45;&gt;Node3 -->
<g id="edge2" class="edge">
<title>Node2&#45;&gt;Node3</title>
<path fill="none" stroke="midnightblue" d="M341.7,-60.89C294.59,-53.36 191.24,-36.72 93.31,-20.12"/>
<polygon fill="midnightblue" stroke="midnightblue" points="93.69,-16.63 83.24,-18.41 92.51,-23.54 93.69,-16.63"/>
</g>
<!-- Node4 -->
<g id="node4" class="node">
<title>Node4</title>
<g id="a_node4"><a xlink:title=" ">
<polygon fill="none" stroke="#bfbfbf" points="101.5,-0.5 101.5,-19.5 153.5,-19.5 153.5,-0.5 101.5,-0.5"/>
<text text-anchor="middle" x="127.5" y="-7.5" font-family="Helvetica,sans-Serif" font-size="10.00">memory</text>
</a>
</g>
</g>
<!-- Node2&#45;&gt;Node4 -->
<g id="edge3" class="edge">
<title>Node2&#45;&gt;Node4</title>
<path fill="none" stroke="midnightblue" d="M341.87,-59.68C304.74,-51.91 233.6,-36.77 163.7,-20.23"/>
<polygon fill="midnightblue" stroke="midnightblue" points="164.39,-16.79 153.85,-17.88 162.77,-23.6 164.39,-16.79"/>
</g>
<!-- Node5 -->
<g id="node5" class="node">
<title>Node5</title>
<g id="a_node5"><a xlink:title=" ">
<polygon fill="none" stroke="#bfbfbf" points="172,-0.5 172,-19.5 221,-19.5 221,-0.5 172,-0.5"/>
<text text-anchor="middle" x="196.5" y="-7.5" font-family="Helvetica,sans-Serif" font-size="10.00">cassert</text>
</a>
</g>
</g>
<!-- Node2&#45;&gt;Node5 -->
<g id="edge4" class="edge">
<title>Node2&#45;&gt;Node5</title>
<path fill="none" stroke="midnightblue" d="M341.9,-56.92C312.35,-47.58 263.61,-32.19 230.8,-21.83"/>
<polygon fill="midnightblue" stroke="midnightblue" points="231.75,-18.46 221.16,-18.79 229.65,-25.14 231.75,-18.46"/>
</g>
<!-- Node6 -->
<g id="node6" class="node">
<title>Node6</title>
<g id="a_node6"><a xlink:title=" ">
<polygon fill="none" stroke="#bfbfbf" points="239.5,-0.5 239.5,-19.5 293.5,-19.5 293.5,-0.5 239.5,-0.5"/>
<text text-anchor="middle" x="266.5" y="-7.5" font-family="Helvetica,sans-Serif" font-size="10.00">iostream</text>
</a>
</g>
</g>
<!-- Node2&#45;&gt;Node6 -->
<g id="edge5" class="edge">
<title>Node2&#45;&gt;Node6</title>
<path fill="none" stroke="midnightblue" d="M351.27,-56.32C335.15,-47.7 310.2,-34.36 291.54,-24.39"/>
<polygon fill="midnightblue" stroke="midnightblue" points="293.16,-21.28 282.69,-19.65 289.86,-27.46 293.16,-21.28"/>
</g>
<!-- Node7 -->
<g id="node7" class="node">
<title>Node7</title>
<g id="a_node7"><a xlink:title=" ">
<polygon fill="none" stroke="#bfbfbf" points="312,-0.5 312,-19.5 361,-19.5 361,-0.5 312,-0.5"/>
<text text-anchor="middle" x="336.5" y="-7.5" font-family="Helvetica,sans-Serif" font-size="10.00">fstream</text>
</a>
</g>
</g>
<!-- Node2&#45;&gt;Node7 -->
<g id="edge6" class="edge">
<title>Node2&#45;&gt;Node7</title>
<path fill="none" stroke="midnightblue" d="M362.38,-56.08C358.09,-48.61 351.84,-37.72 346.56,-28.52"/>
<polygon fill="midnightblue" stroke="midnightblue" points="349.54,-26.68 341.52,-19.75 343.47,-30.17 349.54,-26.68"/>
</g>
<!-- Node8 -->
<g id="node8" class="node">
<title>Node8</title>
<g id="a_node8"><a xlink:title=" ">
<polygon fill="none" stroke="#bfbfbf" points="379,-0.5 379,-19.5 420,-19.5 420,-0.5 379,-0.5"/>
<text text-anchor="middle" x="399.5" y="-7.5" font-family="Helvetica,sans-Serif" font-size="10.00">string</text>
</a>
</g>
</g>
<!-- Node2&#45;&gt;Node8 -->
<g id="edge7" class="edge">
<title>Node2&#45;&gt;Node8</title>
<path fill="none" stroke="midnightblue" d="M372.78,-56.08C377.21,-48.61 383.66,-37.72 389.12,-28.52"/>
<polygon fill="midnightblue" stroke="midnightblue" points="392.23,-30.14 394.31,-19.75 386.21,-26.57 392.23,-30.14"/>
</g>
<!-- Node9 -->
<g id="node9" class="node">
<title>Node9</title>
<g id="a_node9"><a xlink:title=" ">
<polygon fill="none" stroke="#bfbfbf" points="438,-0.5 438,-19.5 479,-19.5 479,-0.5 438,-0.5"/>
<text text-anchor="middle" x="458.5" y="-7.5" font-family="Helvetica,sans-Serif" font-size="10.00">stack</text>
</a>
</g>
</g>
<!-- Node2&#45;&gt;Node9 -->
<g id="edge8" class="edge">
<title>Node2&#45;&gt;Node9</title>
<path fill="none" stroke="midnightblue" d="M382.12,-56.32C396.45,-47.82 418.51,-34.73 435.25,-24.8"/>
<polygon fill="midnightblue" stroke="midnightblue" points="437.1,-27.77 443.92,-19.65 433.53,-21.75 437.1,-27.77"/>
</g>
<!-- Node10 -->
<g id="node10" class="node">
<title>Node10</title>
<g id="a_node10"><a xlink:title=" ">
<polygon fill="none" stroke="#bfbfbf" points="497,-0.5 497,-19.5 540,-19.5 540,-0.5 497,-0.5"/>
<text text-anchor="middle" x="518.5" y="-7.5" font-family="Helvetica,sans-Serif" font-size="10.00">queue</text>
</a>
</g>
</g>
<!-- Node2&#45;&gt;Node10 -->
<g id="edge9" class="edge">
<title>Node2&#45;&gt;Node10</title>
<path fill="none" stroke="midnightblue" d="M391.43,-56.44C417.31,-47.19 458.7,-32.39 487.16,-22.21"/>
<polygon fill="midnightblue" stroke="midnightblue" points="488.41,-25.48 496.65,-18.82 486.05,-18.89 488.41,-25.48"/>
</g>
<!-- Node11 -->
<g id="node11" class="node">
<title>Node11</title>
<g id="a_node11"><a xlink:title=" ">
<polygon fill="none" stroke="#bfbfbf" points="558,-0.5 558,-19.5 587,-19.5 587,-0.5 558,-0.5"/>
<text text-anchor="middle" x="572.5" y="-7.5" font-family="Helvetica,sans-Serif" font-size="10.00">list</text>
</a>
</g>
</g>
<!-- Node2&#45;&gt;Node11 -->
<g id="edge10" class="edge">
<title>Node2&#45;&gt;Node11</title>
<path fill="none" stroke="midnightblue" d="M393.23,-59.58C426.77,-52.31 487.36,-38.46 548.12,-19.82"/>
<polygon fill="midnightblue" stroke="midnightblue" points="549.36,-23.1 557.87,-16.79 547.28,-16.42 549.36,-23.1"/>
</g>
<!-- Node12 -->
<g id="node12" class="node">
<title>Node12</title>
<g id="a_node12"><a xlink:title=" ">
<polygon fill="none" stroke="#bfbfbf" points="605,-0.5 605,-19.5 640,-19.5 640,-0.5 605,-0.5"/>
<text text-anchor="middle" x="622.5" y="-7.5" font-family="Helvetica,sans-Serif" font-size="10.00">map</text>
</a>
</g>
</g>
<!-- Node2&#45;&gt;Node12 -->
<g id="edge11" class="edge">
<title>Node2&#45;&gt;Node12</title>
<path fill="none" stroke="midnightblue" d="M393.04,-61.05C433.72,-54.52 515.84,-40.39 594.77,-19.9"/>
<polygon fill="midnightblue" stroke="midnightblue" points="596.1,-23.16 604.88,-17.23 594.32,-16.4 596.1,-23.16"/>
</g>
<!-- Node14 -->
<g id="node14" class="node">
<title>Node14</title>
<g id="a_node14"><a xlink:href="_token_8h.html" target="_top" xlink:title=" ">
<polygon fill="none" stroke="black" points="319.5,-174 319.5,-193 415.5,-193 415.5,-174 319.5,-174"/>
<text text-anchor="middle" x="367.5" y="-181" font-family="Helvetica,sans-Serif" font-size="10.00">Tokenizer/Token.h</text>
</a>
</g>
</g>
<!-- Node13&#45;&gt;Node14 -->
<g id="edge13" class="edge">
<title>Node13&#45;&gt;Node14</title>
<path fill="none" stroke="midnightblue" d="M372.2,-235.4C371.33,-225.96 370.17,-213.45 369.23,-203.19"/>
<polygon fill="midnightblue" stroke="midnightblue" points="372.71,-202.83 368.3,-193.19 365.74,-203.47 372.71,-202.83"/>
</g>
<!-- Node14&#45;&gt;Node2 -->
<g id="edge14" class="edge">
<title>Node14&#45;&gt;Node2</title>
<path fill="none" stroke="midnightblue" d="M367.5,-173.82C367.5,-155.26 367.5,-111.34 367.5,-85.97"/>
<polygon fill="midnightblue" stroke="midnightblue" points="371,-85.78 367.5,-75.78 364,-85.78 371,-85.78"/>
</g>
<!-- Node15&#45;&gt;Node14 -->
<g id="edge21" class="edge">
<title>Node15&#45;&gt;Node14</title>
<path fill="none" stroke="midnightblue" d="M472.18,-240.73C451.68,-229.72 416.3,-210.71 392.41,-197.88"/>
<polygon fill="midnightblue" stroke="midnightblue" points="394.03,-194.78 383.56,-193.13 390.71,-200.94 394.03,-194.78"/>
</g>
<!-- Node16 -->
<g id="node16" class="node">
<title>Node16</title>
<g id="a_node16"><a xlink:href="_statement_interface_8h.html" target="_top" xlink:title=" ">
<polygon fill="none" stroke="black" points="433.5,-168.5 433.5,-198.5 543.5,-198.5 543.5,-168.5 433.5,-168.5"/>
<text text-anchor="start" x="441.5" y="-186.5" font-family="Helvetica,sans-Serif" font-size="10.00">Statement/Interface</text>
<text text-anchor="middle" x="488.5" y="-175.5" font-family="Helvetica,sans-Serif" font-size="10.00">/StatementInterface.h</text>
</a>
</g>
</g>
<!-- Node15&#45;&gt;Node16 -->
<g id="edge16" class="edge">
<title>Node15&#45;&gt;Node16</title>
<path fill="none" stroke="midnightblue" d="M488.5,-240.73C488.5,-232.54 488.5,-219.92 488.5,-208.71"/>
<polygon fill="midnightblue" stroke="midnightblue" points="492,-208.59 488.5,-198.59 485,-208.59 492,-208.59"/>
</g>
<!-- Node18 -->
<g id="node18" class="node">
<title>Node18</title>
<g id="a_node18"><a xlink:href="_expression_interface_8h.html" target="_top" xlink:title=" ">
<polygon fill="none" stroke="black" points="562,-168.5 562,-198.5 675,-198.5 675,-168.5 562,-168.5"/>
<text text-anchor="start" x="570" y="-186.5" font-family="Helvetica,sans-Serif" font-size="10.00">Expression/Interface</text>
<text text-anchor="middle" x="618.5" y="-175.5" font-family="Helvetica,sans-Serif" font-size="10.00">/ExpressionInterface.h</text>
</a>
</g>
</g>
<!-- Node15&#45;&gt;Node18 -->
<g id="edge19" class="edge">
<title>Node15&#45;&gt;Node18</title>
<path fill="none" stroke="midnightblue" d="M505.76,-240.87C524.87,-231.31 556.25,-215.63 581.05,-203.22"/>
<polygon fill="midnightblue" stroke="midnightblue" points="582.82,-206.25 590.2,-198.65 579.69,-199.99 582.82,-206.25"/>
</g>
<!-- Node16&#45;&gt;Node17 -->
<g id="edge17" class="edge">
<title>Node16&#45;&gt;Node17</title>
<path fill="none" stroke="midnightblue" d="M503.9,-168.4C513.74,-159.4 526.49,-147.72 536.61,-138.47"/>
<polygon fill="midnightblue" stroke="midnightblue" points="539.03,-140.99 544.04,-131.66 534.3,-135.83 539.03,-140.99"/>
</g>
<!-- Node17&#45;&gt;Node2 -->
<g id="edge18" class="edge">
<title>Node17&#45;&gt;Node2</title>
<path fill="none" stroke="midnightblue" d="M524.03,-112.44C491.21,-102.92 438.18,-87.52 403.07,-77.33"/>
<polygon fill="midnightblue" stroke="midnightblue" points="403.82,-73.9 393.24,-74.47 401.87,-80.62 403.82,-73.9"/>
</g>
<!-- Node18&#45;&gt;Node17 -->
<g id="edge20" class="edge">
<title>Node18&#45;&gt;Node17</title>
<path fill="none" stroke="midnightblue" d="M603.1,-168.4C593.26,-159.4 580.51,-147.72 570.39,-138.47"/>
<polygon fill="midnightblue" stroke="midnightblue" points="572.7,-135.83 562.96,-131.66 567.97,-140.99 572.7,-135.83"/>
</g>
</g>
</svg>
