<?xml version="1.0" encoding="UTF-8" standalone="no"?>
<!DOCTYPE svg PUBLIC "-//W3C//DTD SVG 1.1//EN"
 "http://www.w3.org/Graphics/SVG/1.1/DTD/svg11.dtd">
<!-- Generated by graphviz version 2.50.0 (20211204.2007)
 -->
<!-- Title: C:/Users/themo/OneDrive/Documents/GitHub/interpreter/src/client/include/Client.h Pages: 1 -->
<!--zoomable 330 -->
<svg id="main" version="1.1" xmlns="http://www.w3.org/2000/svg" xmlns:xlink="http://www.w3.org/1999/xlink" xml:space="preserve" onload="init(evt)">
<style type="text/css"><![CDATA[
.edge:hover path { stroke: red; }
.edge:hover polygon { stroke: red; fill: red; }
]]></style>
<script type="text/javascript"><![CDATA[
var edges = document.getElementsByTagName('g');
if (edges && edges.length) {
  for (var i=0;i<edges.length;i++) {
    if (edges[i].id.substr(0,4)=='edge') {
      edges[i].setAttribute('class','edge');
    }
  }
}
]]></script>
        <defs>
                <circle id="rim" cx="0" cy="0" r="7"/>
                <circle id="rim2" cx="0" cy="0" r="3.5"/>
                <g id="zoomPlus">
                        <use xlink:href="#rim" fill="#404040">
                                <set attributeName="fill" to="#808080" begin="zoomplus.mouseover" end="zoomplus.mouseout"/>
                        </use>
                        <path d="M-4,0h8M0,-4v8" fill="none" stroke="white" stroke-width="1.5" pointer-events="none"/>
                </g>
                <g id="zoomMin">
                        <use xlink:href="#rim" fill="#404040">
                                <set attributeName="fill" to="#808080" begin="zoomminus.mouseover" end="zoomminus.mouseout"/>
                        </use>
                        <path d="M-4,0h8" fill="none" stroke="white" stroke-width="1.5" pointer-events="none"/>
                </g>
                <g id="dirArrow">
                        <path fill="none" stroke="white" stroke-width="1.5" d="M0,-3.0v7 M-2.5,-0.5L0,-3.0L2.5,-0.5"/>
                </g>
               <g id="resetDef">
                       <use xlink:href="#rim2" fill="#404040">
                               <set attributeName="fill" to="#808080" begin="reset.mouseover" end="reset.mouseout"/>
                       </use>
               </g>
        </defs>

<script type="text/javascript">
var viewWidth = 920;
var viewHeight = 330;
var sectionId = 'dynsection-0';
</script>
<script xlink:href="svgpan.js"/>
<svg id="graph" class="graph">
<g id="viewport">
<title>C:/Users/themo/OneDrive/Documents/GitHub/interpreter/src/client/include/Client.h</title>
<!-- Node1 -->
<g id="node1" class="node">
<title>Node1</title>
<g id="a_node1"><a xlink:title=" ">
<polygon fill="#bfbfbf" stroke="black" points="370,-280.5 370,-321.5 519,-321.5 519,-280.5 370,-280.5"/>
<text text-anchor="start" x="378" y="-309.5" font-family="Helvetica,sans-Serif" font-size="10.00">C:/Users/themo/OneDrive</text>
<text text-anchor="start" x="378" y="-298.5" font-family="Helvetica,sans-Serif" font-size="10.00">/Documents/GitHub/interpreter</text>
<text text-anchor="middle" x="444.5" y="-287.5" font-family="Helvetica,sans-Serif" font-size="10.00">/src/client/include/Client.h</text>
</a>
</g>
</g>
<!-- Node2 -->
<g id="node2" class="node">
<title>Node2</title>
<g id="a_node2"><a xlink:title=" ">
<polygon fill="none" stroke="#bfbfbf" points="0,-224.5 0,-243.5 83,-243.5 83,-224.5 0,-224.5"/>
<text text-anchor="middle" x="41.5" y="-231.5" font-family="Helvetica,sans-Serif" font-size="10.00">Preprocessor.h</text>
</a>
</g>
</g>
<!-- Node1&#45;&gt;Node2 -->
<g id="edge1" class="edge">
<title>Node1&#45;&gt;Node2</title>
<path fill="none" stroke="midnightblue" d="M369.93,-288.51C300.94,-277.8 195.24,-261.16 93.4,-244.13"/>
<polygon fill="midnightblue" stroke="midnightblue" points="93.68,-240.63 83.24,-242.42 92.52,-247.53 93.68,-240.63"/>
</g>
<!-- Node3 -->
<g id="node3" class="node">
<title>Node3</title>
<g id="a_node3"><a xlink:href="_stream_tokenizer_8h.html" target="_top" xlink:title=" ">
<polygon fill="none" stroke="black" points="211.5,-224.5 211.5,-243.5 309.5,-243.5 309.5,-224.5 211.5,-224.5"/>
<text text-anchor="middle" x="260.5" y="-231.5" font-family="Helvetica,sans-Serif" font-size="10.00">StreamTokenizer.h</text>
</a>
</g>
</g>
<!-- Node1&#45;&gt;Node3 -->
<g id="edge2" class="edge">
<title>Node1&#45;&gt;Node3</title>
<path fill="none" stroke="midnightblue" d="M389.29,-280.5C358.51,-269.62 321.14,-256.42 294.6,-247.05"/>
<polygon fill="midnightblue" stroke="midnightblue" points="295.59,-243.68 284.99,-243.65 293.26,-250.28 295.59,-243.68"/>
</g>
<!-- Node6 -->
<g id="node6" class="node">
<title>Node6</title>
<g id="a_node6"><a xlink:href="_token_8h.html" target="_top" xlink:title=" ">
<polygon fill="none" stroke="black" points="358,-56.5 358,-75.5 409,-75.5 409,-56.5 358,-56.5"/>
<text text-anchor="middle" x="383.5" y="-63.5" font-family="Helvetica,sans-Serif" font-size="10.00">Token.h</text>
</a>
</g>
</g>
<!-- Node1&#45;&gt;Node6 -->
<g id="edge12" class="edge">
<title>Node1&#45;&gt;Node6</title>
<path fill="none" stroke="midnightblue" d="M434.85,-280.34C429.87,-269.73 423.93,-256.32 419.5,-244 402.03,-195.39 397.41,-182.87 388.5,-132 385.81,-116.65 384.57,-99.01 383.99,-85.99"/>
<polygon fill="midnightblue" stroke="midnightblue" points="387.49,-85.77 383.64,-75.9 380.49,-86.02 387.49,-85.77"/>
</g>
<!-- Node8 -->
<g id="node8" class="node">
<title>Node8</title>
<g id="a_node8"><a xlink:title=" ">
<polygon fill="none" stroke="#bfbfbf" points="639,-0.5 639,-19.5 668,-19.5 668,-0.5 639,-0.5"/>
<text text-anchor="middle" x="653.5" y="-7.5" font-family="Helvetica,sans-Serif" font-size="10.00">list</text>
</a>
</g>
</g>
<!-- Node1&#45;&gt;Node8 -->
<g id="edge26" class="edge">
<title>Node1&#45;&gt;Node8</title>
<path fill="none" stroke="midnightblue" d="M519.22,-286.89C612.94,-268.27 761.5,-230.62 761.5,-179 761.5,-179 761.5,-179 761.5,-121 761.5,-73.22 708.97,-38.58 677.18,-22"/>
<polygon fill="midnightblue" stroke="midnightblue" points="678.57,-18.78 668.07,-17.43 675.44,-25.04 678.57,-18.78"/>
</g>
<!-- Node10 -->
<g id="node10" class="node">
<title>Node10</title>
<g id="a_node10"><a xlink:href="_string_tokenizer_8h.html" target="_top" xlink:title=" ">
<polygon fill="none" stroke="black" points="101.5,-224.5 101.5,-243.5 193.5,-243.5 193.5,-224.5 101.5,-224.5"/>
<text text-anchor="middle" x="147.5" y="-231.5" font-family="Helvetica,sans-Serif" font-size="10.00">StringTokenizer.h</text>
</a>
</g>
</g>
<!-- Node1&#45;&gt;Node10 -->
<g id="edge10" class="edge">
<title>Node1&#45;&gt;Node10</title>
<path fill="none" stroke="midnightblue" d="M369.94,-283.68C315.67,-271.8 243.71,-256.06 196.54,-245.73"/>
<polygon fill="midnightblue" stroke="midnightblue" points="197.09,-242.27 186.57,-243.55 195.59,-249.11 197.09,-242.27"/>
</g>
<!-- Node11 -->
<g id="node11" class="node">
<title>Node11</title>
<g id="a_node11"><a xlink:href="_context_8h.html" target="_top" xlink:title=" ">
<polygon fill="none" stroke="black" points="464,-112.5 464,-131.5 523,-131.5 523,-112.5 464,-112.5"/>
<text text-anchor="middle" x="493.5" y="-119.5" font-family="Helvetica,sans-Serif" font-size="10.00">Context.h</text>
</a>
</g>
</g>
<!-- Node1&#45;&gt;Node11 -->
<g id="edge13" class="edge">
<title>Node1&#45;&gt;Node11</title>
<path fill="none" stroke="midnightblue" d="M436.53,-280.43C426.91,-253.54 414.14,-204.36 432.5,-168 439.31,-154.52 452.27,-144.08 464.5,-136.67"/>
<polygon fill="midnightblue" stroke="midnightblue" points="466.57,-139.52 473.59,-131.59 463.16,-133.41 466.57,-139.52"/>
</g>
<!-- Node13 -->
<g id="node13" class="node">
<title>Node13</title>
<g id="a_node13"><a xlink:href="_parser_8h.html" target="_top" xlink:title=" ">
<polygon fill="none" stroke="black" points="522,-224.5 522,-243.5 575,-243.5 575,-224.5 522,-224.5"/>
<text text-anchor="middle" x="548.5" y="-231.5" font-family="Helvetica,sans-Serif" font-size="10.00">Parser.h</text>
</a>
</g>
</g>
<!-- Node1&#45;&gt;Node13 -->
<g id="edge16" class="edge">
<title>Node1&#45;&gt;Node13</title>
<path fill="none" stroke="midnightblue" d="M475.7,-280.5C491.8,-270.44 511.08,-258.38 525.76,-249.21"/>
<polygon fill="midnightblue" stroke="midnightblue" points="528.03,-251.92 534.66,-243.65 524.32,-245.98 528.03,-251.92"/>
</g>
<!-- Node15 -->
<g id="node15" class="node">
<title>Node15</title>
<g id="a_node15"><a xlink:title=" ">
<polygon fill="none" stroke="#bfbfbf" points="681.5,-168.5 681.5,-187.5 733.5,-187.5 733.5,-168.5 681.5,-168.5"/>
<text text-anchor="middle" x="707.5" y="-175.5" font-family="Helvetica,sans-Serif" font-size="10.00">memory</text>
</a>
</g>
</g>
<!-- Node1&#45;&gt;Node15 -->
<g id="edge23" class="edge">
<title>Node1&#45;&gt;Node15</title>
<path fill="none" stroke="midnightblue" d="M497.25,-280.42C523.72,-270.21 556.11,-257.14 584.5,-244 619.72,-227.71 659.18,-206.26 683.69,-192.55"/>
<polygon fill="midnightblue" stroke="midnightblue" points="685.61,-195.48 692.61,-187.53 682.18,-189.38 685.61,-195.48"/>
</g>
<!-- Node16 -->
<g id="node16" class="node">
<title>Node16</title>
<g id="a_node16"><a xlink:title=" ">
<polygon fill="none" stroke="#bfbfbf" points="790,-224.5 790,-243.5 839,-243.5 839,-224.5 790,-224.5"/>
<text text-anchor="middle" x="814.5" y="-231.5" font-family="Helvetica,sans-Serif" font-size="10.00">cassert</text>
</a>
</g>
</g>
<!-- Node1&#45;&gt;Node16 -->
<g id="edge24" class="edge">
<title>Node1&#45;&gt;Node16</title>
<path fill="none" stroke="midnightblue" d="M519.01,-288.69C586.24,-278.17 687.77,-261.53 775.5,-244 776.95,-243.71 778.42,-243.41 779.91,-243.09"/>
<polygon fill="midnightblue" stroke="midnightblue" points="780.77,-246.49 789.79,-240.93 779.27,-239.65 780.77,-246.49"/>
</g>
<!-- Node17 -->
<g id="node17" class="node">
<title>Node17</title>
<g id="a_node17"><a xlink:title=" ">
<polygon fill="none" stroke="#bfbfbf" points="857.5,-224.5 857.5,-243.5 911.5,-243.5 911.5,-224.5 857.5,-224.5"/>
<text text-anchor="middle" x="884.5" y="-231.5" font-family="Helvetica,sans-Serif" font-size="10.00">iostream</text>
</a>
</g>
</g>
<!-- Node1&#45;&gt;Node17 -->
<g id="edge25" class="edge">
<title>Node1&#45;&gt;Node17</title>
<path fill="none" stroke="midnightblue" d="M519.36,-292.06C598.53,-283.11 727.22,-267 847.33,-244.05"/>
<polygon fill="midnightblue" stroke="midnightblue" points="848.29,-247.43 857.44,-242.09 846.96,-240.55 848.29,-247.43"/>
</g>
<!-- Node4 -->
<g id="node4" class="node">
<title>Node4</title>
<g id="a_node4"><a xlink:href="_abstract_tokenizer_8h.html" target="_top" xlink:title=" ">
<polygon fill="none" stroke="black" points="125.5,-168.5 125.5,-187.5 229.5,-187.5 229.5,-168.5 125.5,-168.5"/>
<text text-anchor="middle" x="177.5" y="-175.5" font-family="Helvetica,sans-Serif" font-size="10.00">AbstractTokenizer.h</text>
</a>
</g>
</g>
<!-- Node3&#45;&gt;Node4 -->
<g id="edge3" class="edge">
<title>Node3&#45;&gt;Node4</title>
<path fill="none" stroke="midnightblue" d="M247.16,-224.32C234.34,-215.98 214.72,-203.21 199.56,-193.35"/>
<polygon fill="midnightblue" stroke="midnightblue" points="201.09,-190.17 190.8,-187.65 197.28,-196.04 201.09,-190.17"/>
</g>
<!-- Node9 -->
<g id="node9" class="node">
<title>Node9</title>
<g id="a_node9"><a xlink:title=" ">
<polygon fill="none" stroke="#bfbfbf" points="248,-168.5 248,-187.5 297,-187.5 297,-168.5 248,-168.5"/>
<text text-anchor="middle" x="272.5" y="-175.5" font-family="Helvetica,sans-Serif" font-size="10.00">fstream</text>
</a>
</g>
</g>
<!-- Node3&#45;&gt;Node9 -->
<g id="edge9" class="edge">
<title>Node3&#45;&gt;Node9</title>
<path fill="none" stroke="midnightblue" d="M262.48,-224.08C264.07,-216.93 266.36,-206.64 268.35,-197.69"/>
<polygon fill="midnightblue" stroke="midnightblue" points="271.8,-198.27 270.56,-187.75 264.97,-196.75 271.8,-198.27"/>
</g>
<!-- Node5 -->
<g id="node5" class="node">
<title>Node5</title>
<g id="a_node5"><a xlink:href="_tokenizer_interface_8h.html" target="_top" xlink:title=" ">
<polygon fill="none" stroke="black" points="166,-112.5 166,-131.5 309,-131.5 309,-112.5 166,-112.5"/>
<text text-anchor="middle" x="237.5" y="-119.5" font-family="Helvetica,sans-Serif" font-size="10.00">Interface/TokenizerInterface.h</text>
</a>
</g>
</g>
<!-- Node4&#45;&gt;Node5 -->
<g id="edge4" class="edge">
<title>Node4&#45;&gt;Node5</title>
<path fill="none" stroke="midnightblue" d="M187.14,-168.32C196.01,-160.34 209.37,-148.31 220.11,-138.65"/>
<polygon fill="midnightblue" stroke="midnightblue" points="222.59,-141.13 227.68,-131.83 217.91,-135.92 222.59,-141.13"/>
</g>
<!-- Node5&#45;&gt;Node6 -->
<g id="edge5" class="edge">
<title>Node5&#45;&gt;Node6</title>
<path fill="none" stroke="midnightblue" d="M260.63,-112.44C284.98,-103.44 323.51,-89.19 350.92,-79.05"/>
<polygon fill="midnightblue" stroke="midnightblue" points="352.31,-82.27 360.47,-75.52 349.88,-75.7 352.31,-82.27"/>
</g>
<!-- Node7 -->
<g id="node7" class="node">
<title>Node7</title>
<g id="a_node7"><a xlink:title=" ">
<polygon fill="none" stroke="#bfbfbf" points="363,-0.5 363,-19.5 404,-19.5 404,-0.5 363,-0.5"/>
<text text-anchor="middle" x="383.5" y="-7.5" font-family="Helvetica,sans-Serif" font-size="10.00">string</text>
</a>
</g>
</g>
<!-- Node5&#45;&gt;Node7 -->
<g id="edge8" class="edge">
<title>Node5&#45;&gt;Node7</title>
<path fill="none" stroke="midnightblue" d="M248.96,-112.37C273.8,-93.65 332.86,-49.15 363.81,-25.83"/>
<polygon fill="midnightblue" stroke="midnightblue" points="366.22,-28.4 372.1,-19.59 362,-22.81 366.22,-28.4"/>
</g>
<!-- Node6&#45;&gt;Node7 -->
<g id="edge6" class="edge">
<title>Node6&#45;&gt;Node7</title>
<path fill="none" stroke="midnightblue" d="M383.5,-56.08C383.5,-49.01 383.5,-38.86 383.5,-29.99"/>
<polygon fill="midnightblue" stroke="midnightblue" points="387,-29.75 383.5,-19.75 380,-29.75 387,-29.75"/>
</g>
<!-- Node6&#45;&gt;Node8 -->
<g id="edge7" class="edge">
<title>Node6&#45;&gt;Node8</title>
<path fill="none" stroke="midnightblue" d="M409.39,-59.82C461.4,-49.42 577.97,-26.11 628.9,-15.92"/>
<polygon fill="midnightblue" stroke="midnightblue" points="629.88,-19.29 639,-13.9 628.5,-12.43 629.88,-19.29"/>
</g>
<!-- Node10&#45;&gt;Node4 -->
<g id="edge11" class="edge">
<title>Node10&#45;&gt;Node4</title>
<path fill="none" stroke="midnightblue" d="M152.45,-224.08C156.6,-216.61 162.65,-205.72 167.77,-196.52"/>
<polygon fill="midnightblue" stroke="midnightblue" points="170.84,-198.19 172.64,-187.75 164.72,-194.79 170.84,-198.19"/>
</g>
<!-- Node11&#45;&gt;Node7 -->
<g id="edge15" class="edge">
<title>Node11&#45;&gt;Node7</title>
<path fill="none" stroke="midnightblue" d="M484.87,-112.37C466.39,-93.89 422.79,-50.29 399.24,-26.74"/>
<polygon fill="midnightblue" stroke="midnightblue" points="401.64,-24.19 392.09,-19.59 396.69,-29.14 401.64,-24.19"/>
</g>
<!-- Node12 -->
<g id="node12" class="node">
<title>Node12</title>
<g id="a_node12"><a xlink:title=" ">
<polygon fill="none" stroke="#bfbfbf" points="523,-56.5 523,-75.5 564,-75.5 564,-56.5 523,-56.5"/>
<text text-anchor="middle" x="543.5" y="-63.5" font-family="Helvetica,sans-Serif" font-size="10.00">stack</text>
</a>
</g>
</g>
<!-- Node11&#45;&gt;Node12 -->
<g id="edge14" class="edge">
<title>Node11&#45;&gt;Node12</title>
<path fill="none" stroke="midnightblue" d="M501.76,-112.08C508.96,-104.3 519.61,-92.8 528.35,-83.37"/>
<polygon fill="midnightblue" stroke="midnightblue" points="531.17,-85.47 535.4,-75.75 526.03,-80.71 531.17,-85.47"/>
</g>
<!-- Node13&#45;&gt;Node6 -->
<g id="edge19" class="edge">
<title>Node13&#45;&gt;Node6</title>
<path fill="none" stroke="midnightblue" d="M521.7,-228.9C495.79,-223.63 456.96,-212.11 432.5,-188 403.67,-159.59 391.22,-111.94 386.32,-85.71"/>
<polygon fill="midnightblue" stroke="midnightblue" points="389.73,-84.89 384.62,-75.61 382.83,-86.05 389.73,-84.89"/>
</g>
<!-- Node13&#45;&gt;Node8 -->
<g id="edge22" class="edge">
<title>Node13&#45;&gt;Node8</title>
<path fill="none" stroke="midnightblue" d="M567.04,-224.39C581.34,-216.8 600.48,-204.4 611.5,-188 645.07,-138.06 651.93,-64.41 653.25,-30.01"/>
<polygon fill="midnightblue" stroke="midnightblue" points="656.76,-29.67 653.52,-19.58 649.76,-29.48 656.76,-29.67"/>
</g>
<!-- Node13&#45;&gt;Node12 -->
<g id="edge21" class="edge">
<title>Node13&#45;&gt;Node12</title>
<path fill="none" stroke="midnightblue" d="M562.87,-224.33C574.38,-216.47 589.69,-203.72 596.5,-188 600.03,-179.84 598.63,-176.63 596.5,-168 588.64,-136.11 568.72,-103.15 555.66,-83.89"/>
<polygon fill="midnightblue" stroke="midnightblue" points="558.48,-81.8 549.89,-75.6 552.73,-85.8 558.48,-81.8"/>
</g>
<!-- Node14 -->
<g id="node14" class="node">
<title>Node14</title>
<g id="a_node14"><a xlink:href="_statement_interface_8h.html" target="_top" xlink:title=" ">
<polygon fill="none" stroke="black" points="441.5,-168.5 441.5,-187.5 587.5,-187.5 587.5,-168.5 441.5,-168.5"/>
<text text-anchor="middle" x="514.5" y="-175.5" font-family="Helvetica,sans-Serif" font-size="10.00">Interface/StatementInterface.h</text>
</a>
</g>
</g>
<!-- Node13&#45;&gt;Node14 -->
<g id="edge17" class="edge">
<title>Node13&#45;&gt;Node14</title>
<path fill="none" stroke="midnightblue" d="M542.89,-224.08C538.13,-216.53 531.18,-205.49 525.35,-196.23"/>
<polygon fill="midnightblue" stroke="midnightblue" points="528.3,-194.35 520.01,-187.75 522.38,-198.08 528.3,-194.35"/>
</g>
<!-- Node13&#45;&gt;Node15 -->
<g id="edge20" class="edge">
<title>Node13&#45;&gt;Node15</title>
<path fill="none" stroke="midnightblue" d="M573.69,-224.44C600.44,-215.36 642.9,-200.94 672.81,-190.78"/>
<polygon fill="midnightblue" stroke="midnightblue" points="674.08,-194.05 682.42,-187.52 671.83,-187.42 674.08,-194.05"/>
</g>
<!-- Node14&#45;&gt;Node11 -->
<g id="edge18" class="edge">
<title>Node14&#45;&gt;Node11</title>
<path fill="none" stroke="midnightblue" d="M511.03,-168.08C508.19,-160.77 504.07,-150.18 500.54,-141.1"/>
<polygon fill="midnightblue" stroke="midnightblue" points="503.79,-139.8 496.9,-131.75 497.27,-142.34 503.79,-139.8"/>
</g>
</g>
</svg>
        <g id="navigator" transform="translate(0 0)" fill="#404254">
                <rect fill="#f2f5e9" fill-opacity="0.5" stroke="#606060" stroke-width=".5" x="0" y="0" width="60" height="60"/>
                <use id="zoomplus" xlink:href="#zoomPlus" x="17" y="9" onmousedown="handleZoom(evt,'in')"/>
                <use id="zoomminus" xlink:href="#zoomMin" x="42" y="9" onmousedown="handleZoom(evt,'out')"/>
                <use id="reset" xlink:href="#resetDef" x="30" y="36" onmousedown="handleReset()"/>
                <g id="arrowUp" xlink:href="#dirArrow" transform="translate(30 24)" onmousedown="handlePan(0,-1)">
                  <use xlink:href="#rim" fill="#404040">
                        <set attributeName="fill" to="#808080" begin="arrowUp.mouseover" end="arrowUp.mouseout"/>
                  </use>
                  <path fill="none" stroke="white" stroke-width="1.5" d="M0,-3.0v7 M-2.5,-0.5L0,-3.0L2.5,-0.5"/>
                </g>
                <g id="arrowRight" xlink:href="#dirArrow" transform="rotate(90) translate(36 -43)" onmousedown="handlePan(1,0)">
                  <use xlink:href="#rim" fill="#404040">
                        <set attributeName="fill" to="#808080" begin="arrowRight.mouseover" end="arrowRight.mouseout"/>
                  </use>
                  <path fill="none" stroke="white" stroke-width="1.5" d="M0,-3.0v7 M-2.5,-0.5L0,-3.0L2.5,-0.5"/>
                </g>
                <g id="arrowDown" xlink:href="#dirArrow" transform="rotate(180) translate(-30 -48)" onmousedown="handlePan(0,1)">
                  <use xlink:href="#rim" fill="#404040">
                        <set attributeName="fill" to="#808080" begin="arrowDown.mouseover" end="arrowDown.mouseout"/>
                  </use>
                  <path fill="none" stroke="white" stroke-width="1.5" d="M0,-3.0v7 M-2.5,-0.5L0,-3.0L2.5,-0.5"/>
                </g>
                <g id="arrowLeft" xlink:href="#dirArrow" transform="rotate(270) translate(-36 17)" onmousedown="handlePan(-1,0)">
                  <use xlink:href="#rim" fill="#404040">
                        <set attributeName="fill" to="#808080" begin="arrowLeft.mouseover" end="arrowLeft.mouseout"/>
                  </use>
                  <path fill="none" stroke="white" stroke-width="1.5" d="M0,-3.0v7 M-2.5,-0.5L0,-3.0L2.5,-0.5"/>
                </g>
        </g>
        <svg viewBox="0 0 15 15" width="100%" height="30px" preserveAspectRatio="xMaxYMin meet">
         <g id="arrow_out" transform="scale(0.3 0.3)">
          <a xlink:href="_client_8h__incl_org.svg" target="_base">
           <rect id="button" ry="5" rx="5" y="6" x="6" height="38" width="38"
                fill="#f2f5e9" fill-opacity="0.5" stroke="#606060" stroke-width="1.0"/>
           <path id="arrow"
             d="M 11.500037,31.436501 C 11.940474,20.09759 22.043105,11.32322 32.158766,21.979434 L 37.068811,17.246167 C 37.068811,17.246167 37.088388,32 37.088388,32 L 22.160133,31.978069 C 22.160133,31.978069 26.997745,27.140456 26.997745,27.140456 C 18.528582,18.264221 13.291696,25.230495 11.500037,31.436501 z"
             style="fill:#404040;"/>
          </a>
         </g>
        </svg>
</svg>
