<?xml version="1.0" encoding="UTF-8" standalone="no"?>
<!DOCTYPE svg PUBLIC "-//W3C//DTD SVG 1.1//EN"
 "http://www.w3.org/Graphics/SVG/1.1/DTD/svg11.dtd">
<!-- Generated by graphviz version 2.50.0 (20211204.2007)
 -->
<!-- Title: C:/Users/themo/OneDrive/Documents/GitHub/interpreter/src/client/include/Context.h Pages: 1 -->
<svg width="620pt" height="295pt"
 viewBox="0.00 0.00 619.50 295.00" xmlns="http://www.w3.org/2000/svg" xmlns:xlink="http://www.w3.org/1999/xlink">
<g id="graph0" class="graph" transform="scale(1 1) rotate(0) translate(4 291)">
<title>C:/Users/themo/OneDrive/Documents/GitHub/interpreter/src/client/include/Context.h</title>
<!-- Node1 -->
<g id="node1" class="node">
<title>Node1</title>
<g id="a_node1"><a xlink:title=" ">
<polygon fill="#bfbfbf" stroke="black" points="0,-245.5 0,-286.5 149,-286.5 149,-245.5 0,-245.5"/>
<text text-anchor="start" x="8" y="-274.5" font-family="Helvetica,sans-Serif" font-size="10.00">C:/Users/themo/OneDrive</text>
<text text-anchor="start" x="8" y="-263.5" font-family="Helvetica,sans-Serif" font-size="10.00">/Documents/GitHub/interpreter</text>
<text text-anchor="middle" x="74.5" y="-252.5" font-family="Helvetica,sans-Serif" font-size="10.00">/src/client/include/Context.h</text>
</a>
</g>
</g>
<!-- Node2 -->
<g id="node2" class="node">
<title>Node2</title>
<g id="a_node2"><a xlink:href="_client_8h.html" target="_top" xlink:title=" ">
<polygon fill="none" stroke="black" points="0,-0.5 0,-41.5 149,-41.5 149,-0.5 0,-0.5"/>
<text text-anchor="start" x="8" y="-29.5" font-family="Helvetica,sans-Serif" font-size="10.00">C:/Users/themo/OneDrive</text>
<text text-anchor="start" x="8" y="-18.5" font-family="Helvetica,sans-Serif" font-size="10.00">/Documents/GitHub/interpreter</text>
<text text-anchor="middle" x="74.5" y="-7.5" font-family="Helvetica,sans-Serif" font-size="10.00">/src/client/include/Client.h</text>
</a>
</g>
</g>
<!-- Node1&#45;&gt;Node2 -->
<g id="edge1" class="edge">
<title>Node1&#45;&gt;Node2</title>
<path fill="none" stroke="midnightblue" d="M61.8,-235.69C47.47,-198.58 27.93,-132.85 42.5,-78 45.95,-65.01 53.2,-51.9 59.92,-41.63"/>
<polygon fill="midnightblue" stroke="midnightblue" points="58.71,-237.38 65.68,-245.37 65.21,-234.78 58.71,-237.38"/>
</g>
<!-- Node3 -->
<g id="node3" class="node">
<title>Node3</title>
<g id="a_node3"><a xlink:href="_statement_interface_8h.html" target="_top" xlink:title=" ">
<polygon fill="none" stroke="black" points="145,-156.5 145,-208.5 294,-208.5 294,-156.5 145,-156.5"/>
<text text-anchor="start" x="153" y="-196.5" font-family="Helvetica,sans-Serif" font-size="10.00">C:/Users/themo/OneDrive</text>
<text text-anchor="start" x="153" y="-185.5" font-family="Helvetica,sans-Serif" font-size="10.00">/Documents/GitHub/interpreter</text>
<text text-anchor="start" x="153" y="-174.5" font-family="Helvetica,sans-Serif" font-size="10.00">/src/parser/include/Interface</text>
<text text-anchor="middle" x="219.5" y="-163.5" font-family="Helvetica,sans-Serif" font-size="10.00">/StatementInterface.h</text>
</a>
</g>
</g>
<!-- Node1&#45;&gt;Node3 -->
<g id="edge2" class="edge">
<title>Node1&#45;&gt;Node3</title>
<path fill="none" stroke="midnightblue" d="M118.31,-240.38C136.21,-230.31 156.9,-218.69 174.89,-208.58"/>
<polygon fill="midnightblue" stroke="midnightblue" points="116.23,-237.53 109.23,-245.48 119.66,-243.63 116.23,-237.53"/>
</g>
<!-- Node4 -->
<g id="node4" class="node">
<title>Node4</title>
<g id="a_node4"><a xlink:href="_parser_8h.html" target="_top" xlink:title=" ">
<polygon fill="none" stroke="black" points="52,-78.5 52,-119.5 201,-119.5 201,-78.5 52,-78.5"/>
<text text-anchor="start" x="60" y="-107.5" font-family="Helvetica,sans-Serif" font-size="10.00">C:/Users/themo/OneDrive</text>
<text text-anchor="start" x="60" y="-96.5" font-family="Helvetica,sans-Serif" font-size="10.00">/Documents/GitHub/interpreter</text>
<text text-anchor="middle" x="126.5" y="-85.5" font-family="Helvetica,sans-Serif" font-size="10.00">/src/parser/include/Parser.h</text>
</a>
</g>
</g>
<!-- Node3&#45;&gt;Node4 -->
<g id="edge3" class="edge">
<title>Node3&#45;&gt;Node4</title>
<path fill="none" stroke="midnightblue" d="M183.06,-149.57C171.58,-139.5 159.24,-128.69 149.02,-119.73"/>
<polygon fill="midnightblue" stroke="midnightblue" points="181.01,-152.42 190.84,-156.38 185.62,-147.16 181.01,-152.42"/>
</g>
<!-- Node5 -->
<g id="node5" class="node">
<title>Node5</title>
<g id="a_node5"><a xlink:href="_printing_statement_8h.html" target="_top" xlink:title=" ">
<polygon fill="none" stroke="black" points="219.5,-78.5 219.5,-119.5 405.5,-119.5 405.5,-78.5 219.5,-78.5"/>
<text text-anchor="start" x="227.5" y="-107.5" font-family="Helvetica,sans-Serif" font-size="10.00">C:/Users/themo/OneDrive</text>
<text text-anchor="start" x="227.5" y="-96.5" font-family="Helvetica,sans-Serif" font-size="10.00">/Documents/GitHub/interpreter</text>
<text text-anchor="middle" x="312.5" y="-85.5" font-family="Helvetica,sans-Serif" font-size="10.00">/src/parser/include/PrintingStatement.h</text>
</a>
</g>
</g>
<!-- Node3&#45;&gt;Node5 -->
<g id="edge5" class="edge">
<title>Node3&#45;&gt;Node5</title>
<path fill="none" stroke="midnightblue" d="M255.94,-149.57C267.42,-139.5 279.76,-128.69 289.98,-119.73"/>
<polygon fill="midnightblue" stroke="midnightblue" points="253.38,-147.16 248.16,-156.38 257.99,-152.42 253.38,-147.16"/>
</g>
<!-- Node6 -->
<g id="node6" class="node">
<title>Node6</title>
<g id="a_node6"><a xlink:href="_variable_statement_8h.html" target="_top" xlink:title=" ">
<polygon fill="none" stroke="black" points="423.5,-78.5 423.5,-119.5 611.5,-119.5 611.5,-78.5 423.5,-78.5"/>
<text text-anchor="start" x="431.5" y="-107.5" font-family="Helvetica,sans-Serif" font-size="10.00">C:/Users/themo/OneDrive</text>
<text text-anchor="start" x="431.5" y="-96.5" font-family="Helvetica,sans-Serif" font-size="10.00">/Documents/GitHub/interpreter</text>
<text text-anchor="middle" x="517.5" y="-85.5" font-family="Helvetica,sans-Serif" font-size="10.00">/src/parser/include/VariableStatement.h</text>
</a>
</g>
</g>
<!-- Node3&#45;&gt;Node6 -->
<g id="edge6" class="edge">
<title>Node3&#45;&gt;Node6</title>
<path fill="none" stroke="midnightblue" d="M304.01,-158.39C348.83,-146.13 403.3,-131.23 446,-119.56"/>
<polygon fill="midnightblue" stroke="midnightblue" points="303.04,-155.03 294.31,-161.04 304.88,-161.78 303.04,-155.03"/>
</g>
<!-- Node4&#45;&gt;Node2 -->
<g id="edge4" class="edge">
<title>Node4&#45;&gt;Node2</title>
<path fill="none" stroke="midnightblue" d="M107.37,-70.05C100.89,-60.57 93.78,-50.18 87.85,-41.51"/>
<polygon fill="midnightblue" stroke="midnightblue" points="104.57,-72.15 113.11,-78.43 110.35,-68.2 104.57,-72.15"/>
</g>
</g>
</svg>
