<?xml version="1.0" encoding="UTF-8" standalone="no"?>
<!DOCTYPE svg PUBLIC "-//W3C//DTD SVG 1.1//EN"
 "http://www.w3.org/Graphics/SVG/1.1/DTD/svg11.dtd">
<!-- Generated by graphviz version 2.50.0 (20211204.2007)
 -->
<!-- Title: Context.h Pages: 1 -->
<svg width="1001pt" height="252pt"
 viewBox="0.00 0.00 1001.00 252.00" xmlns="http://www.w3.org/2000/svg" xmlns:xlink="http://www.w3.org/1999/xlink">
<g id="graph0" class="graph" transform="scale(1 1) rotate(0) translate(4 248)">
<title>Context.h</title>
<!-- Node1 -->
<g id="node1" class="node">
<title>Node1</title>
<g id="a_node1"><a xlink:title=" ">
<polygon fill="#bfbfbf" stroke="black" points="739,-224.5 739,-243.5 798,-243.5 798,-224.5 739,-224.5"/>
<text text-anchor="middle" x="768.5" y="-231.5" font-family="Helvetica,sans-Serif" font-size="10.00">Context.h</text>
</a>
</g>
</g>
<!-- Node2 -->
<g id="node2" class="node">
<title>Node2</title>
<g id="a_node2"><a xlink:href="_client_8h.html" target="_top" xlink:title=" ">
<polygon fill="none" stroke="black" points="660.5,-56.5 660.5,-75.5 710.5,-75.5 710.5,-56.5 660.5,-56.5"/>
<text text-anchor="middle" x="685.5" y="-63.5" font-family="Helvetica,sans-Serif" font-size="10.00">Client.h</text>
</a>
</g>
</g>
<!-- Node1&#45;&gt;Node2 -->
<g id="edge1" class="edge">
<title>Node1&#45;&gt;Node2</title>
<path fill="none" stroke="midnightblue" d="M739.71,-219.48C726.91,-211.99 712.88,-201.45 704.5,-188 681.69,-151.36 683.11,-96.74 684.67,-75.7"/>
<polygon fill="midnightblue" stroke="midnightblue" points="738.25,-222.67 748.71,-224.39 741.61,-216.52 738.25,-222.67"/>
</g>
<!-- Node3 -->
<g id="node3" class="node">
<title>Node3</title>
<g id="a_node3"><a xlink:href="_expression_interface_8h.html" target="_top" xlink:title=" ">
<polygon fill="none" stroke="black" points="713.5,-168.5 713.5,-187.5 823.5,-187.5 823.5,-168.5 713.5,-168.5"/>
<text text-anchor="middle" x="768.5" y="-175.5" font-family="Helvetica,sans-Serif" font-size="10.00">ExpressionInterface.h</text>
</a>
</g>
</g>
<!-- Node1&#45;&gt;Node3 -->
<g id="edge2" class="edge">
<title>Node1&#45;&gt;Node3</title>
<path fill="none" stroke="midnightblue" d="M768.5,-213.8C768.5,-204.91 768.5,-194.78 768.5,-187.75"/>
<polygon fill="midnightblue" stroke="midnightblue" points="765,-214.08 768.5,-224.08 772,-214.08 765,-214.08"/>
</g>
<!-- Node16 -->
<g id="node16" class="node">
<title>Node16</title>
<g id="a_node16"><a xlink:href="_statement_interface_8h.html" target="_top" xlink:title=" ">
<polygon fill="none" stroke="black" points="842,-168.5 842,-187.5 949,-187.5 949,-168.5 842,-168.5"/>
<text text-anchor="middle" x="895.5" y="-175.5" font-family="Helvetica,sans-Serif" font-size="10.00">StatementInterface.h</text>
</a>
</g>
</g>
<!-- Node1&#45;&gt;Node16 -->
<g id="edge21" class="edge">
<title>Node1&#45;&gt;Node16</title>
<path fill="none" stroke="midnightblue" d="M797.89,-220.5C821.7,-210.38 854.61,-196.39 875.47,-187.52"/>
<polygon fill="midnightblue" stroke="midnightblue" points="796.46,-217.31 788.62,-224.44 799.2,-223.75 796.46,-217.31"/>
</g>
<!-- Node4 -->
<g id="node4" class="node">
<title>Node4</title>
<g id="a_node4"><a xlink:href="_abstract_expression_8h.html" target="_top" xlink:title=" ">
<polygon fill="none" stroke="black" points="491.5,-112.5 491.5,-131.5 601.5,-131.5 601.5,-112.5 491.5,-112.5"/>
<text text-anchor="middle" x="546.5" y="-119.5" font-family="Helvetica,sans-Serif" font-size="10.00">AbstractExpression.h</text>
</a>
</g>
</g>
<!-- Node3&#45;&gt;Node4 -->
<g id="edge3" class="edge">
<title>Node3&#45;&gt;Node4</title>
<path fill="none" stroke="midnightblue" d="M723.38,-166.02C681.44,-155.82 619.85,-140.84 581.51,-131.52"/>
<polygon fill="midnightblue" stroke="midnightblue" points="722.78,-169.48 733.32,-168.44 724.43,-162.68 722.78,-169.48"/>
</g>
<!-- Node13 -->
<g id="node13" class="node">
<title>Node13</title>
<g id="a_node13"><a xlink:href="_parser_8h.html" target="_top" xlink:title=" ">
<polygon fill="none" stroke="black" points="726,-112.5 726,-131.5 779,-131.5 779,-112.5 726,-112.5"/>
<text text-anchor="middle" x="752.5" y="-119.5" font-family="Helvetica,sans-Serif" font-size="10.00">Parser.h</text>
</a>
</g>
</g>
<!-- Node3&#45;&gt;Node13 -->
<g id="edge13" class="edge">
<title>Node3&#45;&gt;Node13</title>
<path fill="none" stroke="midnightblue" d="M762.99,-158.4C760.31,-149.36 757.22,-138.94 755.09,-131.75"/>
<polygon fill="midnightblue" stroke="midnightblue" points="759.66,-159.49 765.86,-168.08 766.37,-157.5 759.66,-159.49"/>
</g>
<!-- Node14 -->
<g id="node14" class="node">
<title>Node14</title>
<g id="a_node14"><a xlink:href="_printing_statement_8h.html" target="_top" xlink:title=" ">
<polygon fill="none" stroke="black" points="767,-56.5 767,-75.5 870,-75.5 870,-56.5 767,-56.5"/>
<text text-anchor="middle" x="818.5" y="-63.5" font-family="Helvetica,sans-Serif" font-size="10.00">PrintingStatement.h</text>
</a>
</g>
</g>
<!-- Node3&#45;&gt;Node14 -->
<g id="edge19" class="edge">
<title>Node3&#45;&gt;Node14</title>
<path fill="none" stroke="midnightblue" d="M776.68,-159C787.59,-135 806.47,-93.47 814.59,-75.59"/>
<polygon fill="midnightblue" stroke="midnightblue" points="773.38,-157.82 772.42,-168.37 779.75,-160.71 773.38,-157.82"/>
</g>
<!-- Node15 -->
<g id="node15" class="node">
<title>Node15</title>
<g id="a_node15"><a xlink:href="_variable_statement_8h.html" target="_top" xlink:title=" ">
<polygon fill="none" stroke="black" points="888,-56.5 888,-75.5 993,-75.5 993,-56.5 888,-56.5"/>
<text text-anchor="middle" x="940.5" y="-63.5" font-family="Helvetica,sans-Serif" font-size="10.00">VariableStatement.h</text>
</a>
</g>
</g>
<!-- Node3&#45;&gt;Node15 -->
<g id="edge20" class="edge">
<title>Node3&#45;&gt;Node15</title>
<path fill="none" stroke="midnightblue" d="M789.09,-162.53C808.36,-149.11 838.08,-128.74 864.5,-112 885.35,-98.78 910.04,-84.39 925.48,-75.53"/>
<polygon fill="midnightblue" stroke="midnightblue" points="786.96,-159.75 780.77,-168.34 790.97,-165.48 786.96,-159.75"/>
</g>
<!-- Node5 -->
<g id="node5" class="node">
<title>Node5</title>
<g id="a_node5"><a xlink:href="_identifier_expression_8h.html" target="_top" xlink:title=" ">
<polygon fill="none" stroke="black" points="532.5,-56.5 532.5,-75.5 642.5,-75.5 642.5,-56.5 532.5,-56.5"/>
<text text-anchor="middle" x="587.5" y="-63.5" font-family="Helvetica,sans-Serif" font-size="10.00">IdentifierExpression.h</text>
</a>
</g>
</g>
<!-- Node4&#45;&gt;Node5 -->
<g id="edge4" class="edge">
<title>Node4&#45;&gt;Node5</title>
<path fill="none" stroke="midnightblue" d="M559.52,-103.86C566.62,-94.5 575.1,-83.33 580.86,-75.75"/>
<polygon fill="midnightblue" stroke="midnightblue" points="556.53,-102 553.27,-112.08 562.11,-106.24 556.53,-102"/>
</g>
<!-- Node6 -->
<g id="node6" class="node">
<title>Node6</title>
<g id="a_node6"><a xlink:href="_number_expression_8h.html" target="_top" xlink:title=" ">
<polygon fill="none" stroke="black" points="665,-0.5 665,-19.5 772,-19.5 772,-0.5 665,-0.5"/>
<text text-anchor="middle" x="718.5" y="-7.5" font-family="Helvetica,sans-Serif" font-size="10.00">NumberExpression.h</text>
</a>
</g>
</g>
<!-- Node4&#45;&gt;Node6 -->
<g id="edge5" class="edge">
<title>Node4&#45;&gt;Node6</title>
<path fill="none" stroke="midnightblue" d="M532.04,-103.83C522.05,-89.77 512.37,-69.99 523.5,-56 532.5,-44.68 612.28,-29.05 666.96,-19.5"/>
<polygon fill="midnightblue" stroke="midnightblue" points="529.57,-106.34 538.45,-112.12 535.11,-102.06 529.57,-106.34"/>
</g>
<!-- Node7 -->
<g id="node7" class="node">
<title>Node7</title>
<g id="a_node7"><a xlink:href="_operator_expression_8h.html" target="_top" xlink:title=" ">
<polygon fill="none" stroke="black" points="365,-56.5 365,-75.5 476,-75.5 476,-56.5 365,-56.5"/>
<text text-anchor="middle" x="420.5" y="-63.5" font-family="Helvetica,sans-Serif" font-size="10.00">OperatorExpression.h</text>
</a>
</g>
</g>
<!-- Node4&#45;&gt;Node7 -->
<g id="edge6" class="edge">
<title>Node4&#45;&gt;Node7</title>
<path fill="none" stroke="midnightblue" d="M517.34,-108.5C493.72,-98.38 461.07,-84.39 440.37,-75.52"/>
<polygon fill="midnightblue" stroke="midnightblue" points="515.96,-111.72 526.53,-112.44 518.72,-105.29 515.96,-111.72"/>
</g>
<!-- Node7&#45;&gt;Node6 -->
<g id="edge11" class="edge">
<title>Node7&#45;&gt;Node6</title>
<path fill="none" stroke="midnightblue" d="M477.89,-54.6C534.21,-44.4 619.06,-29.02 671.5,-19.52"/>
<polygon fill="midnightblue" stroke="midnightblue" points="476.93,-51.22 467.72,-56.44 478.18,-58.1 476.93,-51.22"/>
</g>
<!-- Node8 -->
<g id="node8" class="node">
<title>Node8</title>
<g id="a_node8"><a xlink:href="_addition_expression_8h.html" target="_top" xlink:title=" ">
<polygon fill="none" stroke="black" points="0,-0.5 0,-19.5 109,-19.5 109,-0.5 0,-0.5"/>
<text text-anchor="middle" x="54.5" y="-7.5" font-family="Helvetica,sans-Serif" font-size="10.00">AdditionExpression.h</text>
</a>
</g>
</g>
<!-- Node7&#45;&gt;Node8 -->
<g id="edge7" class="edge">
<title>Node7&#45;&gt;Node8</title>
<path fill="none" stroke="midnightblue" d="M354.86,-55.32C284.7,-44.96 174.72,-28.74 109.11,-19.06"/>
<polygon fill="midnightblue" stroke="midnightblue" points="354.51,-58.8 364.91,-56.8 355.53,-51.88 354.51,-58.8"/>
</g>
<!-- Node9 -->
<g id="node9" class="node">
<title>Node9</title>
<g id="a_node9"><a xlink:href="_division_expression_8h.html" target="_top" xlink:title=" ">
<polygon fill="none" stroke="black" points="127,-0.5 127,-19.5 234,-19.5 234,-0.5 127,-0.5"/>
<text text-anchor="middle" x="180.5" y="-7.5" font-family="Helvetica,sans-Serif" font-size="10.00">DivisionExpression.h</text>
</a>
</g>
</g>
<!-- Node7&#45;&gt;Node9 -->
<g id="edge8" class="edge">
<title>Node7&#45;&gt;Node9</title>
<path fill="none" stroke="midnightblue" d="M372.58,-54.22C327.23,-44.01 260.06,-28.9 218.35,-19.52"/>
<polygon fill="midnightblue" stroke="midnightblue" points="371.95,-57.66 382.47,-56.44 373.48,-50.83 371.95,-57.66"/>
</g>
<!-- Node10 -->
<g id="node10" class="node">
<title>Node10</title>
<g id="a_node10"><a xlink:href="_modulo_expression_8h.html" target="_top" xlink:title=" ">
<polygon fill="none" stroke="black" points="252,-0.5 252,-19.5 357,-19.5 357,-0.5 252,-0.5"/>
<text text-anchor="middle" x="304.5" y="-7.5" font-family="Helvetica,sans-Serif" font-size="10.00">ModuloExpression.h</text>
</a>
</g>
</g>
<!-- Node7&#45;&gt;Node10 -->
<g id="edge9" class="edge">
<title>Node7&#45;&gt;Node10</title>
<path fill="none" stroke="midnightblue" d="M392.78,-52.1C371.11,-42.01 341.6,-28.27 322.79,-19.52"/>
<polygon fill="midnightblue" stroke="midnightblue" points="391.58,-55.4 402.12,-56.44 394.53,-49.05 391.58,-55.4"/>
</g>
<!-- Node11 -->
<g id="node11" class="node">
<title>Node11</title>
<g id="a_node11"><a xlink:href="_multiplication_expression_8h.html" target="_top" xlink:title=" ">
<polygon fill="none" stroke="black" points="375,-0.5 375,-19.5 506,-19.5 506,-0.5 375,-0.5"/>
<text text-anchor="middle" x="440.5" y="-7.5" font-family="Helvetica,sans-Serif" font-size="10.00">MultiplicationExpression.h</text>
</a>
</g>
</g>
<!-- Node7&#45;&gt;Node11 -->
<g id="edge10" class="edge">
<title>Node7&#45;&gt;Node11</title>
<path fill="none" stroke="midnightblue" d="M427.28,-46.69C430.65,-37.59 434.57,-27.01 437.26,-19.75"/>
<polygon fill="midnightblue" stroke="midnightblue" points="423.99,-45.49 423.8,-56.08 430.56,-47.92 423.99,-45.49"/>
</g>
<!-- Node12 -->
<g id="node12" class="node">
<title>Node12</title>
<g id="a_node12"><a xlink:href="_subtraction_expression_8h.html" target="_top" xlink:title=" ">
<polygon fill="none" stroke="black" points="524,-0.5 524,-19.5 647,-19.5 647,-0.5 524,-0.5"/>
<text text-anchor="middle" x="585.5" y="-7.5" font-family="Helvetica,sans-Serif" font-size="10.00">SubtractionExpression.h</text>
</a>
</g>
</g>
<!-- Node7&#45;&gt;Node12 -->
<g id="edge12" class="edge">
<title>Node7&#45;&gt;Node12</title>
<path fill="none" stroke="midnightblue" d="M456.24,-53.3C487.33,-43.13 531.65,-28.62 559.48,-19.52"/>
<polygon fill="midnightblue" stroke="midnightblue" points="455.06,-50.01 446.64,-56.44 457.24,-56.66 455.06,-50.01"/>
</g>
<!-- Node13&#45;&gt;Node2 -->
<g id="edge14" class="edge">
<title>Node13&#45;&gt;Node2</title>
<path fill="none" stroke="midnightblue" d="M733.67,-105.82C721.66,-96.15 706.53,-83.95 696.46,-75.83"/>
<polygon fill="midnightblue" stroke="midnightblue" points="731.75,-108.77 741.74,-112.32 736.15,-103.32 731.75,-108.77"/>
</g>
<!-- Node13&#45;&gt;Node5 -->
<g id="edge15" class="edge">
<title>Node13&#45;&gt;Node5</title>
<path fill="none" stroke="midnightblue" d="M716.76,-109.3C685.67,-99.13 641.35,-84.62 613.52,-75.52"/>
<polygon fill="midnightblue" stroke="midnightblue" points="715.76,-112.66 726.36,-112.44 717.94,-106.01 715.76,-112.66"/>
</g>
<!-- Node13&#45;&gt;Node6 -->
<g id="edge16" class="edge">
<title>Node13&#45;&gt;Node6</title>
<path fill="none" stroke="midnightblue" d="M746.84,-102.67C739.4,-78.62 726.66,-37.39 721.16,-19.59"/>
<polygon fill="midnightblue" stroke="midnightblue" points="743.54,-103.85 749.83,-112.37 750.22,-101.78 743.54,-103.85"/>
</g>
<!-- Node13&#45;&gt;Node14 -->
<g id="edge17" class="edge">
<title>Node13&#45;&gt;Node14</title>
<path fill="none" stroke="midnightblue" d="M771.05,-105.82C782.88,-96.15 797.79,-83.95 807.7,-75.83"/>
<polygon fill="midnightblue" stroke="midnightblue" points="768.63,-103.28 763.1,-112.32 773.06,-108.7 768.63,-103.28"/>
</g>
<!-- Node13&#45;&gt;Node15 -->
<g id="edge18" class="edge">
<title>Node13&#45;&gt;Node15</title>
<path fill="none" stroke="midnightblue" d="M788.99,-110.52C824.46,-100.33 877.68,-85.04 910.69,-75.56"/>
<polygon fill="midnightblue" stroke="midnightblue" points="787.68,-107.25 779.04,-113.38 789.61,-113.98 787.68,-107.25"/>
</g>
<!-- Node16&#45;&gt;Node13 -->
<g id="edge25" class="edge">
<title>Node16&#45;&gt;Node13</title>
<path fill="none" stroke="midnightblue" d="M863.47,-164.91C836.59,-154.75 798.86,-140.51 775.05,-131.52"/>
<polygon fill="midnightblue" stroke="midnightblue" points="862.25,-168.19 872.84,-168.44 864.72,-161.64 862.25,-168.19"/>
</g>
<!-- Node17 -->
<g id="node17" class="node">
<title>Node17</title>
<g id="a_node17"><a xlink:href="_abstract_statement_8h.html" target="_top" xlink:title=" ">
<polygon fill="none" stroke="black" points="874,-112.5 874,-131.5 981,-131.5 981,-112.5 874,-112.5"/>
<text text-anchor="middle" x="927.5" y="-119.5" font-family="Helvetica,sans-Serif" font-size="10.00">AbstractStatement.h</text>
</a>
</g>
</g>
<!-- Node16&#45;&gt;Node17 -->
<g id="edge22" class="edge">
<title>Node16&#45;&gt;Node17</title>
<path fill="none" stroke="midnightblue" d="M906,-159.27C911.47,-150.05 917.92,-139.17 922.31,-131.75"/>
<polygon fill="midnightblue" stroke="midnightblue" points="902.87,-157.7 900.78,-168.08 908.89,-161.26 902.87,-157.7"/>
</g>
<!-- Node17&#45;&gt;Node14 -->
<g id="edge23" class="edge">
<title>Node17&#45;&gt;Node14</title>
<path fill="none" stroke="midnightblue" d="M900.98,-107.86C880.77,-97.85 853.51,-84.35 835.97,-75.65"/>
<polygon fill="midnightblue" stroke="midnightblue" points="899.47,-111.02 909.99,-112.32 902.58,-104.75 899.47,-111.02"/>
</g>
<!-- Node17&#45;&gt;Node15 -->
<g id="edge24" class="edge">
<title>Node17&#45;&gt;Node15</title>
<path fill="none" stroke="midnightblue" d="M932.05,-102.1C934.21,-93.14 936.68,-82.86 938.39,-75.75"/>
<polygon fill="midnightblue" stroke="midnightblue" points="928.58,-101.54 929.65,-112.08 935.39,-103.18 928.58,-101.54"/>
</g>
</g>
</svg>
