<?xml version="1.0" encoding="UTF-8" standalone="no"?>
<!DOCTYPE svg PUBLIC "-//W3C//DTD SVG 1.1//EN"
 "http://www.w3.org/Graphics/SVG/1.1/DTD/svg11.dtd">
<!-- Generated by graphviz version 2.50.0 (20211204.2007)
 -->
<!-- Title: ExpressionInterface.h Pages: 1 -->
<svg width="1049pt" height="196pt"
 viewBox="0.00 0.00 1049.00 196.00" xmlns="http://www.w3.org/2000/svg" xmlns:xlink="http://www.w3.org/1999/xlink">
<g id="graph0" class="graph" transform="scale(1 1) rotate(0) translate(4 192)">
<title>ExpressionInterface.h</title>
<!-- Node1 -->
<g id="node1" class="node">
<title>Node1</title>
<g id="a_node1"><a xlink:title=" ">
<polygon fill="#bfbfbf" stroke="black" points="753.5,-168.5 753.5,-187.5 863.5,-187.5 863.5,-168.5 753.5,-168.5"/>
<text text-anchor="middle" x="808.5" y="-175.5" font-family="Helvetica,sans-Serif" font-size="10.00">ExpressionInterface.h</text>
</a>
</g>
</g>
<!-- Node2 -->
<g id="node2" class="node">
<title>Node2</title>
<g id="a_node2"><a xlink:href="_abstract_expression_8h.html" target="_top" xlink:title=" ">
<polygon fill="none" stroke="black" points="539.5,-112.5 539.5,-131.5 649.5,-131.5 649.5,-112.5 539.5,-112.5"/>
<text text-anchor="middle" x="594.5" y="-119.5" font-family="Helvetica,sans-Serif" font-size="10.00">AbstractExpression.h</text>
</a>
</g>
</g>
<!-- Node1&#45;&gt;Node2 -->
<g id="edge1" class="edge">
<title>Node1&#45;&gt;Node2</title>
<path fill="none" stroke="midnightblue" d="M764.74,-165.96C724.33,-155.76 665.13,-140.82 628.25,-131.52"/>
<polygon fill="midnightblue" stroke="midnightblue" points="764.04,-169.39 774.59,-168.44 765.75,-162.6 764.04,-169.39"/>
</g>
<!-- Node11 -->
<g id="node11" class="node">
<title>Node11</title>
<g id="a_node11"><a xlink:href="_parser_8h.html" target="_top" xlink:title=" ">
<polygon fill="none" stroke="black" points="755,-112.5 755,-131.5 808,-131.5 808,-112.5 755,-112.5"/>
<text text-anchor="middle" x="781.5" y="-119.5" font-family="Helvetica,sans-Serif" font-size="10.00">Parser.h</text>
</a>
</g>
</g>
<!-- Node1&#45;&gt;Node11 -->
<g id="edge11" class="edge">
<title>Node1&#45;&gt;Node11</title>
<path fill="none" stroke="midnightblue" d="M799.49,-158.98C794.91,-149.82 789.55,-139.09 785.88,-131.75"/>
<polygon fill="midnightblue" stroke="midnightblue" points="796.44,-160.7 804.04,-168.08 802.7,-157.57 796.44,-160.7"/>
</g>
<!-- Node13 -->
<g id="node13" class="node">
<title>Node13</title>
<g id="a_node13"><a xlink:href="_printing_statement_8h.html" target="_top" xlink:title=" ">
<polygon fill="none" stroke="black" points="815,-56.5 815,-75.5 918,-75.5 918,-56.5 815,-56.5"/>
<text text-anchor="middle" x="866.5" y="-63.5" font-family="Helvetica,sans-Serif" font-size="10.00">PrintingStatement.h</text>
</a>
</g>
</g>
<!-- Node1&#45;&gt;Node13 -->
<g id="edge17" class="edge">
<title>Node1&#45;&gt;Node13</title>
<path fill="none" stroke="midnightblue" d="M817.82,-159.32C830.45,-135.37 852.5,-93.55 861.97,-75.59"/>
<polygon fill="midnightblue" stroke="midnightblue" points="814.62,-157.89 813.05,-168.37 820.81,-161.16 814.62,-157.89"/>
</g>
<!-- Node14 -->
<g id="node14" class="node">
<title>Node14</title>
<g id="a_node14"><a xlink:href="_variable_statement_8h.html" target="_top" xlink:title=" ">
<polygon fill="none" stroke="black" points="936,-56.5 936,-75.5 1041,-75.5 1041,-56.5 936,-56.5"/>
<text text-anchor="middle" x="988.5" y="-63.5" font-family="Helvetica,sans-Serif" font-size="10.00">VariableStatement.h</text>
</a>
</g>
</g>
<!-- Node1&#45;&gt;Node14 -->
<g id="edge18" class="edge">
<title>Node1&#45;&gt;Node14</title>
<path fill="none" stroke="midnightblue" d="M831.39,-163.01C869.18,-139.92 943.48,-94.51 974.44,-75.59"/>
<polygon fill="midnightblue" stroke="midnightblue" points="829.33,-160.17 822.62,-168.37 832.98,-166.14 829.33,-160.17"/>
</g>
<!-- Node3 -->
<g id="node3" class="node">
<title>Node3</title>
<g id="a_node3"><a xlink:href="_identifier_expression_8h.html" target="_top" xlink:title=" ">
<polygon fill="none" stroke="black" points="580.5,-56.5 580.5,-75.5 690.5,-75.5 690.5,-56.5 580.5,-56.5"/>
<text text-anchor="middle" x="635.5" y="-63.5" font-family="Helvetica,sans-Serif" font-size="10.00">IdentifierExpression.h</text>
</a>
</g>
</g>
<!-- Node2&#45;&gt;Node3 -->
<g id="edge2" class="edge">
<title>Node2&#45;&gt;Node3</title>
<path fill="none" stroke="midnightblue" d="M607.52,-103.86C614.62,-94.5 623.1,-83.33 628.86,-75.75"/>
<polygon fill="midnightblue" stroke="midnightblue" points="604.53,-102 601.27,-112.08 610.11,-106.24 604.53,-102"/>
</g>
<!-- Node4 -->
<g id="node4" class="node">
<title>Node4</title>
<g id="a_node4"><a xlink:href="_number_expression_8h.html" target="_top" xlink:title=" ">
<polygon fill="none" stroke="black" points="665,-0.5 665,-19.5 772,-19.5 772,-0.5 665,-0.5"/>
<text text-anchor="middle" x="718.5" y="-7.5" font-family="Helvetica,sans-Serif" font-size="10.00">NumberExpression.h</text>
</a>
</g>
</g>
<!-- Node2&#45;&gt;Node4 -->
<g id="edge3" class="edge">
<title>Node2&#45;&gt;Node4</title>
<path fill="none" stroke="midnightblue" d="M580.3,-104.02C570.46,-90.08 560.87,-70.37 571.5,-56 583.36,-39.96 631.5,-27.31 669.5,-19.56"/>
<polygon fill="midnightblue" stroke="midnightblue" points="577.74,-106.43 586.6,-112.24 583.29,-102.17 577.74,-106.43"/>
</g>
<!-- Node5 -->
<g id="node5" class="node">
<title>Node5</title>
<g id="a_node5"><a xlink:href="_operator_expression_8h.html" target="_top" xlink:title=" ">
<polygon fill="none" stroke="black" points="385,-56.5 385,-75.5 496,-75.5 496,-56.5 385,-56.5"/>
<text text-anchor="middle" x="440.5" y="-63.5" font-family="Helvetica,sans-Serif" font-size="10.00">OperatorExpression.h</text>
</a>
</g>
</g>
<!-- Node2&#45;&gt;Node5 -->
<g id="edge4" class="edge">
<title>Node2&#45;&gt;Node5</title>
<path fill="none" stroke="midnightblue" d="M560.39,-109.04C531.41,-98.88 490.54,-84.55 464.79,-75.52"/>
<polygon fill="midnightblue" stroke="midnightblue" points="559.5,-112.44 570.1,-112.44 561.82,-105.83 559.5,-112.44"/>
</g>
<!-- Node5&#45;&gt;Node4 -->
<g id="edge9" class="edge">
<title>Node5&#45;&gt;Node4</title>
<path fill="none" stroke="midnightblue" d="M494.69,-54.47C547.23,-44.27 625.94,-28.98 674.66,-19.52"/>
<polygon fill="midnightblue" stroke="midnightblue" points="493.7,-51.1 484.55,-56.44 495.03,-57.97 493.7,-51.1"/>
</g>
<!-- Node6 -->
<g id="node6" class="node">
<title>Node6</title>
<g id="a_node6"><a xlink:href="_addition_expression_8h.html" target="_top" xlink:title=" ">
<polygon fill="none" stroke="black" points="0,-0.5 0,-19.5 109,-19.5 109,-0.5 0,-0.5"/>
<text text-anchor="middle" x="54.5" y="-7.5" font-family="Helvetica,sans-Serif" font-size="10.00">AdditionExpression.h</text>
</a>
</g>
</g>
<!-- Node5&#45;&gt;Node6 -->
<g id="edge5" class="edge">
<title>Node5&#45;&gt;Node6</title>
<path fill="none" stroke="midnightblue" d="M374.62,-55.89C309.34,-46.85 206.5,-32.56 117.5,-20 114.76,-19.61 111.96,-19.22 109.13,-18.82"/>
<polygon fill="midnightblue" stroke="midnightblue" points="374.38,-59.39 384.76,-57.29 375.34,-52.46 374.38,-59.39"/>
</g>
<!-- Node7 -->
<g id="node7" class="node">
<title>Node7</title>
<g id="a_node7"><a xlink:href="_division_expression_8h.html" target="_top" xlink:title=" ">
<polygon fill="none" stroke="black" points="127,-0.5 127,-19.5 234,-19.5 234,-0.5 127,-0.5"/>
<text text-anchor="middle" x="180.5" y="-7.5" font-family="Helvetica,sans-Serif" font-size="10.00">DivisionExpression.h</text>
</a>
</g>
</g>
<!-- Node5&#45;&gt;Node7 -->
<g id="edge6" class="edge">
<title>Node5&#45;&gt;Node7</title>
<path fill="none" stroke="midnightblue" d="M389.51,-54.41C340.37,-44.2 266.97,-28.96 221.51,-19.52"/>
<polygon fill="midnightblue" stroke="midnightblue" points="388.8,-57.84 399.3,-56.44 390.22,-50.98 388.8,-57.84"/>
</g>
<!-- Node8 -->
<g id="node8" class="node">
<title>Node8</title>
<g id="a_node8"><a xlink:href="_modulo_expression_8h.html" target="_top" xlink:title=" ">
<polygon fill="none" stroke="black" points="252,-0.5 252,-19.5 357,-19.5 357,-0.5 252,-0.5"/>
<text text-anchor="middle" x="304.5" y="-7.5" font-family="Helvetica,sans-Serif" font-size="10.00">ModuloExpression.h</text>
</a>
</g>
</g>
<!-- Node5&#45;&gt;Node8 -->
<g id="edge7" class="edge">
<title>Node5&#45;&gt;Node8</title>
<path fill="none" stroke="midnightblue" d="M409.37,-52.64C383.84,-42.5 348.39,-28.43 325.95,-19.52"/>
<polygon fill="midnightblue" stroke="midnightblue" points="408.36,-56.01 418.95,-56.44 410.95,-49.5 408.36,-56.01"/>
</g>
<!-- Node9 -->
<g id="node9" class="node">
<title>Node9</title>
<g id="a_node9"><a xlink:href="_multiplication_expression_8h.html" target="_top" xlink:title=" ">
<polygon fill="none" stroke="black" points="375,-0.5 375,-19.5 506,-19.5 506,-0.5 375,-0.5"/>
<text text-anchor="middle" x="440.5" y="-7.5" font-family="Helvetica,sans-Serif" font-size="10.00">MultiplicationExpression.h</text>
</a>
</g>
</g>
<!-- Node5&#45;&gt;Node9 -->
<g id="edge8" class="edge">
<title>Node5&#45;&gt;Node9</title>
<path fill="none" stroke="midnightblue" d="M440.5,-45.8C440.5,-36.91 440.5,-26.78 440.5,-19.75"/>
<polygon fill="midnightblue" stroke="midnightblue" points="437,-46.08 440.5,-56.08 444,-46.08 437,-46.08"/>
</g>
<!-- Node10 -->
<g id="node10" class="node">
<title>Node10</title>
<g id="a_node10"><a xlink:href="_subtraction_expression_8h.html" target="_top" xlink:title=" ">
<polygon fill="none" stroke="black" points="524,-0.5 524,-19.5 647,-19.5 647,-0.5 524,-0.5"/>
<text text-anchor="middle" x="585.5" y="-7.5" font-family="Helvetica,sans-Serif" font-size="10.00">SubtractionExpression.h</text>
</a>
</g>
</g>
<!-- Node5&#45;&gt;Node10 -->
<g id="edge10" class="edge">
<title>Node5&#45;&gt;Node10</title>
<path fill="none" stroke="midnightblue" d="M472.98,-52.91C500.24,-42.75 538.49,-28.51 562.63,-19.52"/>
<polygon fill="midnightblue" stroke="midnightblue" points="471.63,-49.67 463.48,-56.44 474.07,-56.23 471.63,-49.67"/>
</g>
<!-- Node11&#45;&gt;Node3 -->
<g id="edge13" class="edge">
<title>Node11&#45;&gt;Node3</title>
<path fill="none" stroke="midnightblue" d="M748.8,-108.91C721.35,-98.75 682.83,-84.51 658.53,-75.52"/>
<polygon fill="midnightblue" stroke="midnightblue" points="747.77,-112.26 758.37,-112.44 750.2,-105.69 747.77,-112.26"/>
</g>
<!-- Node11&#45;&gt;Node4 -->
<g id="edge14" class="edge">
<title>Node11&#45;&gt;Node4</title>
<path fill="none" stroke="midnightblue" d="M762.58,-105.55C753.85,-97.54 744,-87.12 737.5,-76 726.7,-57.53 721.65,-32.47 719.64,-19.52"/>
<polygon fill="midnightblue" stroke="midnightblue" points="760.33,-108.23 770.16,-112.18 764.93,-102.96 760.33,-108.23"/>
</g>
<!-- Node12 -->
<g id="node12" class="node">
<title>Node12</title>
<g id="a_node12"><a xlink:href="_client_8h.html" target="_top" xlink:title=" ">
<polygon fill="none" stroke="black" points="746.5,-56.5 746.5,-75.5 796.5,-75.5 796.5,-56.5 746.5,-56.5"/>
<text text-anchor="middle" x="771.5" y="-63.5" font-family="Helvetica,sans-Serif" font-size="10.00">Client.h</text>
</a>
</g>
</g>
<!-- Node11&#45;&gt;Node12 -->
<g id="edge12" class="edge">
<title>Node11&#45;&gt;Node12</title>
<path fill="none" stroke="midnightblue" d="M778,-102.1C776.34,-93.14 774.44,-82.86 773.12,-75.75"/>
<polygon fill="midnightblue" stroke="midnightblue" points="774.59,-102.89 779.85,-112.08 781.47,-101.61 774.59,-102.89"/>
</g>
<!-- Node11&#45;&gt;Node13 -->
<g id="edge15" class="edge">
<title>Node11&#45;&gt;Node13</title>
<path fill="none" stroke="midnightblue" d="M803.69,-106.9C819.28,-97 839.63,-84.07 852.88,-75.65"/>
<polygon fill="midnightblue" stroke="midnightblue" points="801.72,-104.01 795.16,-112.32 805.47,-109.92 801.72,-104.01"/>
</g>
<!-- Node11&#45;&gt;Node14 -->
<g id="edge16" class="edge">
<title>Node11&#45;&gt;Node14</title>
<path fill="none" stroke="midnightblue" d="M818.03,-111.47C857.06,-101.29 918.35,-85.3 955.83,-75.52"/>
<polygon fill="midnightblue" stroke="midnightblue" points="816.93,-108.14 808.14,-114.05 818.7,-114.91 816.93,-108.14"/>
</g>
</g>
</svg>
