<?xml version="1.0" encoding="UTF-8" standalone="no"?>
<!DOCTYPE svg PUBLIC "-//W3C//DTD SVG 1.1//EN"
 "http://www.w3.org/Graphics/SVG/1.1/DTD/svg11.dtd">
<!-- Generated by graphviz version 2.50.0 (20211204.2007)
 -->
<!-- Title: C:/Users/themo/OneDrive/Documents/GitHub/interpreter/src/parser/include/Parser.h Pages: 1 -->
<svg width="350pt" height="218pt"
 viewBox="0.00 0.00 350.35 218.00" xmlns="http://www.w3.org/2000/svg" xmlns:xlink="http://www.w3.org/1999/xlink">
<g id="graph0" class="graph" transform="scale(1 1) rotate(0) translate(4 214)">
<title>C:/Users/themo/OneDrive/Documents/GitHub/interpreter/src/parser/include/Parser.h</title>
<!-- Node1 -->
<g id="node1" class="node">
<title>Node1</title>
<g id="a_node1"><a xlink:title=" ">
<polygon fill="#bfbfbf" stroke="black" points="133.85,-168.5 133.85,-209.5 282.85,-209.5 282.85,-168.5 133.85,-168.5"/>
<text text-anchor="start" x="141.85" y="-197.5" font-family="Helvetica,sans-Serif" font-size="10.00">C:/Users/themo/OneDrive</text>
<text text-anchor="start" x="141.85" y="-186.5" font-family="Helvetica,sans-Serif" font-size="10.00">/Documents/GitHub/interpreter</text>
<text text-anchor="middle" x="208.35" y="-175.5" font-family="Helvetica,sans-Serif" font-size="10.00">/src/parser/include/Parser.h</text>
</a>
</g>
</g>
<!-- Node2 -->
<g id="node2" class="node">
<title>Node2</title>
<g id="a_node2"><a xlink:href="_statement_interface_8h.html" target="_top" xlink:title=" ">
<polygon fill="none" stroke="black" points="18.35,-112.5 18.35,-131.5 164.35,-131.5 164.35,-112.5 18.35,-112.5"/>
<text text-anchor="middle" x="91.35" y="-119.5" font-family="Helvetica,sans-Serif" font-size="10.00">Interface/StatementInterface.h</text>
</a>
</g>
</g>
<!-- Node1&#45;&gt;Node2 -->
<g id="edge1" class="edge">
<title>Node1&#45;&gt;Node2</title>
<path fill="none" stroke="midnightblue" d="M173.24,-168.5C154.79,-158.24 132.61,-145.93 115.99,-136.69"/>
<polygon fill="midnightblue" stroke="midnightblue" points="117.36,-133.45 106.92,-131.65 113.96,-139.57 117.36,-133.45"/>
</g>
<!-- Node4 -->
<g id="node4" class="node">
<title>Node4</title>
<g id="a_node4"><a xlink:title=" ">
<polygon fill="none" stroke="#bfbfbf" points="27.85,-0.5 27.85,-19.5 68.85,-19.5 68.85,-0.5 27.85,-0.5"/>
<text text-anchor="middle" x="48.35" y="-7.5" font-family="Helvetica,sans-Serif" font-size="10.00">stack</text>
</a>
</g>
</g>
<!-- Node1&#45;&gt;Node4 -->
<g id="edge9" class="edge">
<title>Node1&#45;&gt;Node4</title>
<path fill="none" stroke="midnightblue" d="M133.73,-176.56C83.86,-167.22 24.68,-152.24 9.35,-132 -14.86,-100.03 14.94,-52.49 34.28,-27.59"/>
<polygon fill="midnightblue" stroke="midnightblue" points="37.24,-29.48 40.81,-19.51 31.8,-25.08 37.24,-29.48"/>
</g>
<!-- Node6 -->
<g id="node6" class="node">
<title>Node6</title>
<g id="a_node6"><a xlink:href="_token_8h.html" target="_top" xlink:title=" ">
<polygon fill="none" stroke="black" points="182.85,-112.5 182.85,-131.5 233.85,-131.5 233.85,-112.5 182.85,-112.5"/>
<text text-anchor="middle" x="208.35" y="-119.5" font-family="Helvetica,sans-Serif" font-size="10.00">Token.h</text>
</a>
</g>
</g>
<!-- Node1&#45;&gt;Node6 -->
<g id="edge5" class="edge">
<title>Node1&#45;&gt;Node6</title>
<path fill="none" stroke="midnightblue" d="M208.35,-168.5C208.35,-160.07 208.35,-150.24 208.35,-141.87"/>
<polygon fill="midnightblue" stroke="midnightblue" points="211.85,-141.65 208.35,-131.65 204.85,-141.65 211.85,-141.65"/>
</g>
<!-- Node7 -->
<g id="node7" class="node">
<title>Node7</title>
<g id="a_node7"><a xlink:title=" ">
<polygon fill="none" stroke="#bfbfbf" points="218.85,-56.5 218.85,-75.5 247.85,-75.5 247.85,-56.5 218.85,-56.5"/>
<text text-anchor="middle" x="233.35" y="-63.5" font-family="Helvetica,sans-Serif" font-size="10.00">list</text>
</a>
</g>
</g>
<!-- Node1&#45;&gt;Node7 -->
<g id="edge10" class="edge">
<title>Node1&#45;&gt;Node7</title>
<path fill="none" stroke="midnightblue" d="M224.46,-168.32C231.76,-158.14 239.59,-145.11 243.35,-132 247.77,-116.57 244.32,-98.47 240.31,-85.3"/>
<polygon fill="midnightblue" stroke="midnightblue" points="243.52,-83.89 236.97,-75.56 236.9,-86.16 243.52,-83.89"/>
</g>
<!-- Node8 -->
<g id="node8" class="node">
<title>Node8</title>
<g id="a_node8"><a xlink:title=" ">
<polygon fill="none" stroke="#bfbfbf" points="290.35,-112.5 290.35,-131.5 342.35,-131.5 342.35,-112.5 290.35,-112.5"/>
<text text-anchor="middle" x="316.35" y="-119.5" font-family="Helvetica,sans-Serif" font-size="10.00">memory</text>
</a>
</g>
</g>
<!-- Node1&#45;&gt;Node8 -->
<g id="edge8" class="edge">
<title>Node1&#45;&gt;Node8</title>
<path fill="none" stroke="midnightblue" d="M240.75,-168.5C257.63,-158.34 277.88,-146.16 293.17,-136.95"/>
<polygon fill="midnightblue" stroke="midnightblue" points="295.21,-139.81 301.97,-131.65 291.6,-133.81 295.21,-139.81"/>
</g>
<!-- Node3 -->
<g id="node3" class="node">
<title>Node3</title>
<g id="a_node3"><a xlink:href="_context_8h.html" target="_top" xlink:title=" ">
<polygon fill="none" stroke="black" points="61.85,-56.5 61.85,-75.5 120.85,-75.5 120.85,-56.5 61.85,-56.5"/>
<text text-anchor="middle" x="91.35" y="-63.5" font-family="Helvetica,sans-Serif" font-size="10.00">Context.h</text>
</a>
</g>
</g>
<!-- Node2&#45;&gt;Node3 -->
<g id="edge2" class="edge">
<title>Node2&#45;&gt;Node3</title>
<path fill="none" stroke="midnightblue" d="M91.35,-112.08C91.35,-105.01 91.35,-94.86 91.35,-85.99"/>
<polygon fill="midnightblue" stroke="midnightblue" points="94.85,-85.75 91.35,-75.75 87.85,-85.75 94.85,-85.75"/>
</g>
<!-- Node3&#45;&gt;Node4 -->
<g id="edge3" class="edge">
<title>Node3&#45;&gt;Node4</title>
<path fill="none" stroke="midnightblue" d="M84.25,-56.08C78.11,-48.38 69.08,-37.03 61.61,-27.65"/>
<polygon fill="midnightblue" stroke="midnightblue" points="64.28,-25.39 55.32,-19.75 58.81,-29.75 64.28,-25.39"/>
</g>
<!-- Node5 -->
<g id="node5" class="node">
<title>Node5</title>
<g id="a_node5"><a xlink:title=" ">
<polygon fill="none" stroke="#bfbfbf" points="107.85,-0.5 107.85,-19.5 148.85,-19.5 148.85,-0.5 107.85,-0.5"/>
<text text-anchor="middle" x="128.35" y="-7.5" font-family="Helvetica,sans-Serif" font-size="10.00">string</text>
</a>
</g>
</g>
<!-- Node3&#45;&gt;Node5 -->
<g id="edge4" class="edge">
<title>Node3&#45;&gt;Node5</title>
<path fill="none" stroke="midnightblue" d="M97.46,-56.08C102.63,-48.53 110.19,-37.49 116.54,-28.23"/>
<polygon fill="midnightblue" stroke="midnightblue" points="119.59,-29.98 122.35,-19.75 113.81,-26.02 119.59,-29.98"/>
</g>
<!-- Node6&#45;&gt;Node5 -->
<g id="edge6" class="edge">
<title>Node6&#45;&gt;Node5</title>
<path fill="none" stroke="midnightblue" d="M202.07,-112.37C188.87,-94.22 158.02,-51.8 140.7,-27.99"/>
<polygon fill="midnightblue" stroke="midnightblue" points="143.31,-25.62 134.6,-19.59 137.65,-29.74 143.31,-25.62"/>
</g>
<!-- Node6&#45;&gt;Node7 -->
<g id="edge7" class="edge">
<title>Node6&#45;&gt;Node7</title>
<path fill="none" stroke="midnightblue" d="M212.48,-112.08C215.86,-104.77 220.76,-94.18 224.97,-85.1"/>
<polygon fill="midnightblue" stroke="midnightblue" points="228.27,-86.3 229.3,-75.75 221.92,-83.36 228.27,-86.3"/>
</g>
</g>
</svg>
