<?xml version="1.0" encoding="UTF-8" standalone="no"?>
<!DOCTYPE svg PUBLIC "-//W3C//DTD SVG 1.1//EN"
 "http://www.w3.org/Graphics/SVG/1.1/DTD/svg11.dtd">
<!-- Generated by graphviz version 2.50.0 (20211204.2007)
 -->
<!-- Title: Parser.h Pages: 1 -->
<svg width="556pt" height="84pt"
 viewBox="0.00 0.00 555.50 84.00" xmlns="http://www.w3.org/2000/svg" xmlns:xlink="http://www.w3.org/1999/xlink">
<g id="graph0" class="graph" transform="scale(1 1) rotate(0) translate(4 80)">
<title>Parser.h</title>
<!-- Node1 -->
<g id="node1" class="node">
<title>Node1</title>
<g id="a_node1"><a xlink:title=" ">
<polygon fill="#bfbfbf" stroke="black" points="223.5,-56.5 223.5,-75.5 276.5,-75.5 276.5,-56.5 223.5,-56.5"/>
<text text-anchor="middle" x="250" y="-63.5" font-family="Helvetica,sans-Serif" font-size="10.00">Parser.h</text>
</a>
</g>
</g>
<!-- Node2 -->
<g id="node2" class="node">
<title>Node2</title>
<g id="a_node2"><a xlink:href="_client_8h.html" target="_top" xlink:title=" ">
<polygon fill="none" stroke="black" points="0,-0.5 0,-19.5 50,-19.5 50,-0.5 0,-0.5"/>
<text text-anchor="middle" x="25" y="-7.5" font-family="Helvetica,sans-Serif" font-size="10.00">Client.h</text>
</a>
</g>
</g>
<!-- Node1&#45;&gt;Node2 -->
<g id="edge1" class="edge">
<title>Node1&#45;&gt;Node2</title>
<path fill="none" stroke="midnightblue" d="M213.16,-56.64C174.64,-47.82 112.47,-33.37 59,-20 56.16,-19.29 53.18,-18.53 50.23,-17.76"/>
<polygon fill="midnightblue" stroke="midnightblue" points="212.84,-60.15 223.37,-58.97 214.4,-53.33 212.84,-60.15"/>
</g>
<!-- Node3 -->
<g id="node3" class="node">
<title>Node3</title>
<g id="a_node3"><a xlink:href="_identifier_expression_8h.html" target="_top" xlink:title=" ">
<polygon fill="none" stroke="black" points="68,-0.5 68,-19.5 178,-19.5 178,-0.5 68,-0.5"/>
<text text-anchor="middle" x="123" y="-7.5" font-family="Helvetica,sans-Serif" font-size="10.00">IdentifierExpression.h</text>
</a>
</g>
</g>
<!-- Node1&#45;&gt;Node3 -->
<g id="edge2" class="edge">
<title>Node1&#45;&gt;Node3</title>
<path fill="none" stroke="midnightblue" d="M220.61,-52.5C196.8,-42.38 163.89,-28.39 143.03,-19.52"/>
<polygon fill="midnightblue" stroke="midnightblue" points="219.3,-55.75 229.88,-56.44 222.04,-49.31 219.3,-55.75"/>
</g>
<!-- Node4 -->
<g id="node4" class="node">
<title>Node4</title>
<g id="a_node4"><a xlink:href="_number_expression_8h.html" target="_top" xlink:title=" ">
<polygon fill="none" stroke="black" points="196.5,-0.5 196.5,-19.5 303.5,-19.5 303.5,-0.5 196.5,-0.5"/>
<text text-anchor="middle" x="250" y="-7.5" font-family="Helvetica,sans-Serif" font-size="10.00">NumberExpression.h</text>
</a>
</g>
</g>
<!-- Node1&#45;&gt;Node4 -->
<g id="edge3" class="edge">
<title>Node1&#45;&gt;Node4</title>
<path fill="none" stroke="midnightblue" d="M250,-45.8C250,-36.91 250,-26.78 250,-19.75"/>
<polygon fill="midnightblue" stroke="midnightblue" points="246.5,-46.08 250,-56.08 253.5,-46.08 246.5,-46.08"/>
</g>
<!-- Node5 -->
<g id="node5" class="node">
<title>Node5</title>
<g id="a_node5"><a xlink:href="_printing_statement_8h.html" target="_top" xlink:title=" ">
<polygon fill="none" stroke="black" points="321.5,-0.5 321.5,-19.5 424.5,-19.5 424.5,-0.5 321.5,-0.5"/>
<text text-anchor="middle" x="373" y="-7.5" font-family="Helvetica,sans-Serif" font-size="10.00">PrintingStatement.h</text>
</a>
</g>
</g>
<!-- Node1&#45;&gt;Node5 -->
<g id="edge4" class="edge">
<title>Node1&#45;&gt;Node5</title>
<path fill="none" stroke="midnightblue" d="M278.77,-52.37C301.81,-42.26 333.48,-28.35 353.6,-19.52"/>
<polygon fill="midnightblue" stroke="midnightblue" points="277.24,-49.22 269.49,-56.44 280.05,-55.63 277.24,-49.22"/>
</g>
<!-- Node6 -->
<g id="node6" class="node">
<title>Node6</title>
<g id="a_node6"><a xlink:href="_variable_statement_8h.html" target="_top" xlink:title=" ">
<polygon fill="none" stroke="black" points="442.5,-0.5 442.5,-19.5 547.5,-19.5 547.5,-0.5 442.5,-0.5"/>
<text text-anchor="middle" x="495" y="-7.5" font-family="Helvetica,sans-Serif" font-size="10.00">VariableStatement.h</text>
</a>
</g>
</g>
<!-- Node1&#45;&gt;Node6 -->
<g id="edge5" class="edge">
<title>Node1&#45;&gt;Node6</title>
<path fill="none" stroke="midnightblue" d="M286.74,-56.9C332.35,-46.85 409.8,-29.78 456.3,-19.53"/>
<polygon fill="midnightblue" stroke="midnightblue" points="285.7,-53.55 276.69,-59.12 287.2,-60.38 285.7,-53.55"/>
</g>
</g>
</svg>
