<?xml version="1.0" encoding="UTF-8" standalone="no"?>
<!DOCTYPE svg PUBLIC "-//W3C//DTD SVG 1.1//EN"
 "http://www.w3.org/Graphics/SVG/1.1/DTD/svg11.dtd">
<!-- Generated by graphviz version 2.50.0 (20211204.2007)
 -->
<!-- Title: PrintingStatement.h Pages: 1 -->
<svg width="648pt" height="330pt"
 viewBox="0.00 0.00 648.00 330.00" xmlns="http://www.w3.org/2000/svg" xmlns:xlink="http://www.w3.org/1999/xlink">
<g id="graph0" class="graph" transform="scale(1 1) rotate(0) translate(4 326)">
<title>PrintingStatement.h</title>
<!-- Node1 -->
<g id="node1" class="node">
<title>Node1</title>
<g id="a_node1"><a xlink:title=" ">
<polygon fill="#bfbfbf" stroke="black" points="267,-302.5 267,-321.5 370,-321.5 370,-302.5 267,-302.5"/>
<text text-anchor="middle" x="318.5" y="-309.5" font-family="Helvetica,sans-Serif" font-size="10.00">PrintingStatement.h</text>
</a>
</g>
</g>
<!-- Node2 -->
<g id="node2" class="node">
<title>Node2</title>
<g id="a_node2"><a xlink:href="_abstract_statement_8h.html" target="_top" xlink:title=" ">
<polygon fill="none" stroke="black" points="316,-235.5 316,-265.5 449,-265.5 449,-235.5 316,-235.5"/>
<text text-anchor="start" x="324" y="-253.5" font-family="Helvetica,sans-Serif" font-size="10.00">Parser/Statement/Abstract</text>
<text text-anchor="middle" x="382.5" y="-242.5" font-family="Helvetica,sans-Serif" font-size="10.00">Statement.h</text>
</a>
</g>
</g>
<!-- Node1&#45;&gt;Node2 -->
<g id="edge1" class="edge">
<title>Node1&#45;&gt;Node2</title>
<path fill="none" stroke="midnightblue" d="M327.67,-302.48C336.09,-294.64 348.92,-282.71 360.06,-272.37"/>
<polygon fill="midnightblue" stroke="midnightblue" points="362.48,-274.9 367.42,-265.52 357.71,-269.77 362.48,-274.9"/>
</g>
<!-- Node16 -->
<g id="node16" class="node">
<title>Node16</title>
<g id="a_node16"><a xlink:href="_token_8h.html" target="_top" xlink:title=" ">
<polygon fill="none" stroke="black" points="429.5,-174 429.5,-193 525.5,-193 525.5,-174 429.5,-174"/>
<text text-anchor="middle" x="477.5" y="-181" font-family="Helvetica,sans-Serif" font-size="10.00">Tokenizer/Token.h</text>
</a>
</g>
</g>
<!-- Node1&#45;&gt;Node16 -->
<g id="edge19" class="edge">
<title>Node1&#45;&gt;Node16</title>
<path fill="none" stroke="midnightblue" d="M370.17,-306.83C399.99,-301.72 435.93,-290.5 458.5,-266 474.15,-249.01 477.69,-221.69 478.13,-203.42"/>
<polygon fill="midnightblue" stroke="midnightblue" points="481.62,-203.37 478.08,-193.39 474.63,-203.4 481.62,-203.37"/>
</g>
<!-- Node17 -->
<g id="node17" class="node">
<title>Node17</title>
<g id="a_node17"><a xlink:href="_expression_interface_8h.html" target="_top" xlink:title=" ">
<polygon fill="none" stroke="black" points="110,-168.5 110,-198.5 247,-198.5 247,-168.5 110,-168.5"/>
<text text-anchor="start" x="118" y="-186.5" font-family="Helvetica,sans-Serif" font-size="10.00">Parser/Expression/Interface</text>
<text text-anchor="middle" x="178.5" y="-175.5" font-family="Helvetica,sans-Serif" font-size="10.00">/ExpressionInterface.h</text>
</a>
</g>
</g>
<!-- Node1&#45;&gt;Node17 -->
<g id="edge17" class="edge">
<title>Node1&#45;&gt;Node17</title>
<path fill="none" stroke="midnightblue" d="M270.72,-302.45C247.58,-296.02 221.07,-284.94 203.5,-266 189.01,-250.38 182.91,-226.56 180.35,-208.7"/>
<polygon fill="midnightblue" stroke="midnightblue" points="183.82,-208.25 179.19,-198.73 176.87,-209.06 183.82,-208.25"/>
</g>
<!-- Node18 -->
<g id="node18" class="node">
<title>Node18</title>
<g id="a_node18"><a xlink:href="_parser_8h.html" target="_top" xlink:title=" ">
<polygon fill="none" stroke="black" points="213,-241 213,-260 298,-260 298,-241 213,-241"/>
<text text-anchor="middle" x="255.5" y="-248" font-family="Helvetica,sans-Serif" font-size="10.00">Parser/Parser.h</text>
</a>
</g>
</g>
<!-- Node1&#45;&gt;Node18 -->
<g id="edge20" class="edge">
<title>Node1&#45;&gt;Node18</title>
<path fill="none" stroke="midnightblue" d="M309.47,-302.48C299.74,-293.28 284.04,-278.46 272.08,-267.16"/>
<polygon fill="midnightblue" stroke="midnightblue" points="274.18,-264.33 264.51,-260.01 269.38,-269.42 274.18,-264.33"/>
</g>
<!-- Node3 -->
<g id="node3" class="node">
<title>Node3</title>
<g id="a_node3"><a xlink:href="_statement_interface_8h.html" target="_top" xlink:title=" ">
<polygon fill="none" stroke="black" points="265.5,-174 265.5,-193 411.5,-193 411.5,-174 265.5,-174"/>
<text text-anchor="middle" x="338.5" y="-181" font-family="Helvetica,sans-Serif" font-size="10.00">Interface/StatementInterface.h</text>
</a>
</g>
</g>
<!-- Node2&#45;&gt;Node3 -->
<g id="edge2" class="edge">
<title>Node2&#45;&gt;Node3</title>
<path fill="none" stroke="midnightblue" d="M372.95,-235.4C366.23,-225.46 357.19,-212.11 350.06,-201.57"/>
<polygon fill="midnightblue" stroke="midnightblue" points="352.89,-199.51 344.39,-193.19 347.09,-203.44 352.89,-199.51"/>
</g>
<!-- Node2&#45;&gt;Node16 -->
<g id="edge15" class="edge">
<title>Node2&#45;&gt;Node16</title>
<path fill="none" stroke="midnightblue" d="M403.11,-235.4C418.9,-224.6 440.59,-209.76 456.47,-198.89"/>
<polygon fill="midnightblue" stroke="midnightblue" points="458.79,-201.54 465.07,-193.01 454.84,-195.77 458.79,-201.54"/>
</g>
<!-- Node4 -->
<g id="node4" class="node">
<title>Node4</title>
<g id="a_node4"><a xlink:href="_context_8h.html" target="_top" xlink:title=" ">
<polygon fill="none" stroke="black" points="309,-112.5 309,-131.5 368,-131.5 368,-112.5 309,-112.5"/>
<text text-anchor="middle" x="338.5" y="-119.5" font-family="Helvetica,sans-Serif" font-size="10.00">Context.h</text>
</a>
</g>
</g>
<!-- Node3&#45;&gt;Node4 -->
<g id="edge3" class="edge">
<title>Node3&#45;&gt;Node4</title>
<path fill="none" stroke="midnightblue" d="M338.5,-173.98C338.5,-165.58 338.5,-152.48 338.5,-141.66"/>
<polygon fill="midnightblue" stroke="midnightblue" points="342,-141.51 338.5,-131.51 335,-141.51 342,-141.51"/>
</g>
<!-- Node5 -->
<g id="node5" class="node">
<title>Node5</title>
<g id="a_node5"><a xlink:href="stdafx_8h.html" target="_top" xlink:title=" ">
<polygon fill="none" stroke="black" points="342,-56.5 342,-75.5 393,-75.5 393,-56.5 342,-56.5"/>
<text text-anchor="middle" x="367.5" y="-63.5" font-family="Helvetica,sans-Serif" font-size="10.00">stdafx.h</text>
</a>
</g>
</g>
<!-- Node4&#45;&gt;Node5 -->
<g id="edge4" class="edge">
<title>Node4&#45;&gt;Node5</title>
<path fill="none" stroke="midnightblue" d="M343.29,-112.08C347.26,-104.69 353.03,-93.95 357.93,-84.81"/>
<polygon fill="midnightblue" stroke="midnightblue" points="361.15,-86.22 362.8,-75.75 354.99,-82.91 361.15,-86.22"/>
</g>
<!-- Node6 -->
<g id="node6" class="node">
<title>Node6</title>
<g id="a_node6"><a xlink:href="_preprocessor_8h.html" target="_top" xlink:title=" ">
<polygon fill="none" stroke="black" points="0,-0.5 0,-19.5 83,-19.5 83,-0.5 0,-0.5"/>
<text text-anchor="middle" x="41.5" y="-7.5" font-family="Helvetica,sans-Serif" font-size="10.00">Preprocessor.h</text>
</a>
</g>
</g>
<!-- Node5&#45;&gt;Node6 -->
<g id="edge5" class="edge">
<title>Node5&#45;&gt;Node6</title>
<path fill="none" stroke="midnightblue" d="M341.7,-60.89C294.59,-53.36 191.24,-36.72 93.31,-20.12"/>
<polygon fill="midnightblue" stroke="midnightblue" points="93.69,-16.63 83.24,-18.41 92.51,-23.54 93.69,-16.63"/>
</g>
<!-- Node7 -->
<g id="node7" class="node">
<title>Node7</title>
<g id="a_node7"><a xlink:title=" ">
<polygon fill="none" stroke="#bfbfbf" points="101.5,-0.5 101.5,-19.5 153.5,-19.5 153.5,-0.5 101.5,-0.5"/>
<text text-anchor="middle" x="127.5" y="-7.5" font-family="Helvetica,sans-Serif" font-size="10.00">memory</text>
</a>
</g>
</g>
<!-- Node5&#45;&gt;Node7 -->
<g id="edge6" class="edge">
<title>Node5&#45;&gt;Node7</title>
<path fill="none" stroke="midnightblue" d="M341.87,-59.68C304.74,-51.91 233.6,-36.77 163.7,-20.23"/>
<polygon fill="midnightblue" stroke="midnightblue" points="164.39,-16.79 153.85,-17.88 162.77,-23.6 164.39,-16.79"/>
</g>
<!-- Node8 -->
<g id="node8" class="node">
<title>Node8</title>
<g id="a_node8"><a xlink:title=" ">
<polygon fill="none" stroke="#bfbfbf" points="172,-0.5 172,-19.5 221,-19.5 221,-0.5 172,-0.5"/>
<text text-anchor="middle" x="196.5" y="-7.5" font-family="Helvetica,sans-Serif" font-size="10.00">cassert</text>
</a>
</g>
</g>
<!-- Node5&#45;&gt;Node8 -->
<g id="edge7" class="edge">
<title>Node5&#45;&gt;Node8</title>
<path fill="none" stroke="midnightblue" d="M341.9,-56.92C312.35,-47.58 263.61,-32.19 230.8,-21.83"/>
<polygon fill="midnightblue" stroke="midnightblue" points="231.75,-18.46 221.16,-18.79 229.65,-25.14 231.75,-18.46"/>
</g>
<!-- Node9 -->
<g id="node9" class="node">
<title>Node9</title>
<g id="a_node9"><a xlink:title=" ">
<polygon fill="none" stroke="#bfbfbf" points="239.5,-0.5 239.5,-19.5 293.5,-19.5 293.5,-0.5 239.5,-0.5"/>
<text text-anchor="middle" x="266.5" y="-7.5" font-family="Helvetica,sans-Serif" font-size="10.00">iostream</text>
</a>
</g>
</g>
<!-- Node5&#45;&gt;Node9 -->
<g id="edge8" class="edge">
<title>Node5&#45;&gt;Node9</title>
<path fill="none" stroke="midnightblue" d="M351.27,-56.32C335.15,-47.7 310.2,-34.36 291.54,-24.39"/>
<polygon fill="midnightblue" stroke="midnightblue" points="293.16,-21.28 282.69,-19.65 289.86,-27.46 293.16,-21.28"/>
</g>
<!-- Node10 -->
<g id="node10" class="node">
<title>Node10</title>
<g id="a_node10"><a xlink:title=" ">
<polygon fill="none" stroke="#bfbfbf" points="312,-0.5 312,-19.5 361,-19.5 361,-0.5 312,-0.5"/>
<text text-anchor="middle" x="336.5" y="-7.5" font-family="Helvetica,sans-Serif" font-size="10.00">fstream</text>
</a>
</g>
</g>
<!-- Node5&#45;&gt;Node10 -->
<g id="edge9" class="edge">
<title>Node5&#45;&gt;Node10</title>
<path fill="none" stroke="midnightblue" d="M362.38,-56.08C358.09,-48.61 351.84,-37.72 346.56,-28.52"/>
<polygon fill="midnightblue" stroke="midnightblue" points="349.54,-26.68 341.52,-19.75 343.47,-30.17 349.54,-26.68"/>
</g>
<!-- Node11 -->
<g id="node11" class="node">
<title>Node11</title>
<g id="a_node11"><a xlink:title=" ">
<polygon fill="none" stroke="#bfbfbf" points="379,-0.5 379,-19.5 420,-19.5 420,-0.5 379,-0.5"/>
<text text-anchor="middle" x="399.5" y="-7.5" font-family="Helvetica,sans-Serif" font-size="10.00">string</text>
</a>
</g>
</g>
<!-- Node5&#45;&gt;Node11 -->
<g id="edge10" class="edge">
<title>Node5&#45;&gt;Node11</title>
<path fill="none" stroke="midnightblue" d="M372.78,-56.08C377.21,-48.61 383.66,-37.72 389.12,-28.52"/>
<polygon fill="midnightblue" stroke="midnightblue" points="392.23,-30.14 394.31,-19.75 386.21,-26.57 392.23,-30.14"/>
</g>
<!-- Node12 -->
<g id="node12" class="node">
<title>Node12</title>
<g id="a_node12"><a xlink:title=" ">
<polygon fill="none" stroke="#bfbfbf" points="438,-0.5 438,-19.5 479,-19.5 479,-0.5 438,-0.5"/>
<text text-anchor="middle" x="458.5" y="-7.5" font-family="Helvetica,sans-Serif" font-size="10.00">stack</text>
</a>
</g>
</g>
<!-- Node5&#45;&gt;Node12 -->
<g id="edge11" class="edge">
<title>Node5&#45;&gt;Node12</title>
<path fill="none" stroke="midnightblue" d="M382.12,-56.32C396.45,-47.82 418.51,-34.73 435.25,-24.8"/>
<polygon fill="midnightblue" stroke="midnightblue" points="437.1,-27.77 443.92,-19.65 433.53,-21.75 437.1,-27.77"/>
</g>
<!-- Node13 -->
<g id="node13" class="node">
<title>Node13</title>
<g id="a_node13"><a xlink:title=" ">
<polygon fill="none" stroke="#bfbfbf" points="497,-0.5 497,-19.5 540,-19.5 540,-0.5 497,-0.5"/>
<text text-anchor="middle" x="518.5" y="-7.5" font-family="Helvetica,sans-Serif" font-size="10.00">queue</text>
</a>
</g>
</g>
<!-- Node5&#45;&gt;Node13 -->
<g id="edge12" class="edge">
<title>Node5&#45;&gt;Node13</title>
<path fill="none" stroke="midnightblue" d="M391.43,-56.44C417.31,-47.19 458.7,-32.39 487.16,-22.21"/>
<polygon fill="midnightblue" stroke="midnightblue" points="488.41,-25.48 496.65,-18.82 486.05,-18.89 488.41,-25.48"/>
</g>
<!-- Node14 -->
<g id="node14" class="node">
<title>Node14</title>
<g id="a_node14"><a xlink:title=" ">
<polygon fill="none" stroke="#bfbfbf" points="558,-0.5 558,-19.5 587,-19.5 587,-0.5 558,-0.5"/>
<text text-anchor="middle" x="572.5" y="-7.5" font-family="Helvetica,sans-Serif" font-size="10.00">list</text>
</a>
</g>
</g>
<!-- Node5&#45;&gt;Node14 -->
<g id="edge13" class="edge">
<title>Node5&#45;&gt;Node14</title>
<path fill="none" stroke="midnightblue" d="M393.11,-59.77C426.81,-52.66 487.97,-38.94 547.9,-20.24"/>
<polygon fill="midnightblue" stroke="midnightblue" points="549.03,-23.55 557.51,-17.19 546.92,-16.88 549.03,-23.55"/>
</g>
<!-- Node15 -->
<g id="node15" class="node">
<title>Node15</title>
<g id="a_node15"><a xlink:title=" ">
<polygon fill="none" stroke="#bfbfbf" points="605,-0.5 605,-19.5 640,-19.5 640,-0.5 605,-0.5"/>
<text text-anchor="middle" x="622.5" y="-7.5" font-family="Helvetica,sans-Serif" font-size="10.00">map</text>
</a>
</g>
</g>
<!-- Node5&#45;&gt;Node15 -->
<g id="edge14" class="edge">
<title>Node5&#45;&gt;Node15</title>
<path fill="none" stroke="midnightblue" d="M393.18,-61.15C434.07,-54.77 516.61,-40.84 594.95,-20.13"/>
<polygon fill="midnightblue" stroke="midnightblue" points="596.23,-23.41 604.98,-17.44 594.42,-16.65 596.23,-23.41"/>
</g>
<!-- Node16&#45;&gt;Node5 -->
<g id="edge16" class="edge">
<title>Node16&#45;&gt;Node5</title>
<path fill="none" stroke="midnightblue" d="M469.23,-173.82C450.92,-154.59 406.68,-108.14 383.03,-83.31"/>
<polygon fill="midnightblue" stroke="midnightblue" points="385.29,-80.61 375.86,-75.78 380.23,-85.44 385.29,-80.61"/>
</g>
<!-- Node17&#45;&gt;Node4 -->
<g id="edge18" class="edge">
<title>Node17&#45;&gt;Node4</title>
<path fill="none" stroke="midnightblue" d="M216.42,-168.4C243.62,-158.28 279.9,-144.79 305.83,-135.15"/>
<polygon fill="midnightblue" stroke="midnightblue" points="307.07,-138.42 315.22,-131.66 304.63,-131.86 307.07,-138.42"/>
</g>
<!-- Node18&#45;&gt;Node3 -->
<g id="edge21" class="edge">
<title>Node18&#45;&gt;Node3</title>
<path fill="none" stroke="midnightblue" d="M266.69,-240.73C280.13,-230.21 302.9,-212.38 319.2,-199.62"/>
<polygon fill="midnightblue" stroke="midnightblue" points="321.77,-202.05 327.48,-193.13 317.45,-196.54 321.77,-202.05"/>
</g>
<!-- Node18&#45;&gt;Node16 -->
<g id="edge23" class="edge">
<title>Node18&#45;&gt;Node16</title>
<path fill="none" stroke="midnightblue" d="M284.98,-240.87C324.48,-229.3 394.68,-208.75 438.52,-195.91"/>
<polygon fill="midnightblue" stroke="midnightblue" points="439.64,-199.23 448.25,-193.06 437.67,-192.51 439.64,-199.23"/>
</g>
<!-- Node18&#45;&gt;Node17 -->
<g id="edge22" class="edge">
<title>Node18&#45;&gt;Node17</title>
<path fill="none" stroke="midnightblue" d="M245.12,-240.73C234.41,-231.7 217.32,-217.27 203.14,-205.3"/>
<polygon fill="midnightblue" stroke="midnightblue" points="205.09,-202.37 195.19,-198.59 200.57,-207.71 205.09,-202.37"/>
</g>
</g>
</svg>
