<?xml version="1.0" encoding="UTF-8" standalone="no"?>
<!DOCTYPE svg PUBLIC "-//W3C//DTD SVG 1.1//EN"
 "http://www.w3.org/Graphics/SVG/1.1/DTD/svg11.dtd">
<!-- Generated by graphviz version 2.50.0 (20211204.2007)
 -->
<!-- Title: StatementInterface.h Pages: 1 -->
<svg width="556pt" height="140pt"
 viewBox="0.00 0.00 556.00 140.00" xmlns="http://www.w3.org/2000/svg" xmlns:xlink="http://www.w3.org/1999/xlink">
<g id="graph0" class="graph" transform="scale(1 1) rotate(0) translate(4 136)">
<title>StatementInterface.h</title>
<!-- Node1 -->
<g id="node1" class="node">
<title>Node1</title>
<g id="a_node1"><a xlink:title=" ">
<polygon fill="#bfbfbf" stroke="black" points="167,-112.5 167,-131.5 274,-131.5 274,-112.5 167,-112.5"/>
<text text-anchor="middle" x="220.5" y="-119.5" font-family="Helvetica,sans-Serif" font-size="10.00">StatementInterface.h</text>
</a>
</g>
</g>
<!-- Node2 -->
<g id="node2" class="node">
<title>Node2</title>
<g id="a_node2"><a xlink:href="_abstract_statement_8h.html" target="_top" xlink:title=" ">
<polygon fill="none" stroke="black" points="118,-56.5 118,-75.5 225,-75.5 225,-56.5 118,-56.5"/>
<text text-anchor="middle" x="171.5" y="-63.5" font-family="Helvetica,sans-Serif" font-size="10.00">AbstractStatement.h</text>
</a>
</g>
</g>
<!-- Node1&#45;&gt;Node2 -->
<g id="edge1" class="edge">
<title>Node1&#45;&gt;Node2</title>
<path fill="none" stroke="midnightblue" d="M205.47,-104.43C196.88,-94.97 186.46,-83.48 179.44,-75.75"/>
<polygon fill="midnightblue" stroke="midnightblue" points="203.1,-107.03 212.41,-112.08 208.28,-102.33 203.1,-107.03"/>
</g>
<!-- Node5 -->
<g id="node5" class="node">
<title>Node5</title>
<g id="a_node5"><a xlink:href="_parser_8h.html" target="_top" xlink:title=" ">
<polygon fill="none" stroke="black" points="243,-56.5 243,-75.5 296,-75.5 296,-56.5 243,-56.5"/>
<text text-anchor="middle" x="269.5" y="-63.5" font-family="Helvetica,sans-Serif" font-size="10.00">Parser.h</text>
</a>
</g>
</g>
<!-- Node1&#45;&gt;Node5 -->
<g id="edge4" class="edge">
<title>Node1&#45;&gt;Node5</title>
<path fill="none" stroke="midnightblue" d="M235.53,-104.43C244.12,-94.97 254.54,-83.48 261.56,-75.75"/>
<polygon fill="midnightblue" stroke="midnightblue" points="232.72,-102.33 228.59,-112.08 237.9,-107.03 232.72,-102.33"/>
</g>
<!-- Node3 -->
<g id="node3" class="node">
<title>Node3</title>
<g id="a_node3"><a xlink:href="_printing_statement_8h.html" target="_top" xlink:title=" ">
<polygon fill="none" stroke="black" points="123,-0.5 123,-19.5 226,-19.5 226,-0.5 123,-0.5"/>
<text text-anchor="middle" x="174.5" y="-7.5" font-family="Helvetica,sans-Serif" font-size="10.00">PrintingStatement.h</text>
</a>
</g>
</g>
<!-- Node2&#45;&gt;Node3 -->
<g id="edge2" class="edge">
<title>Node2&#45;&gt;Node3</title>
<path fill="none" stroke="midnightblue" d="M172.57,-45.8C173.06,-36.91 173.62,-26.78 174.01,-19.75"/>
<polygon fill="midnightblue" stroke="midnightblue" points="169.06,-45.9 172,-56.08 176.04,-46.29 169.06,-45.9"/>
</g>
<!-- Node4 -->
<g id="node4" class="node">
<title>Node4</title>
<g id="a_node4"><a xlink:href="_variable_statement_8h.html" target="_top" xlink:title=" ">
<polygon fill="none" stroke="black" points="0,-0.5 0,-19.5 105,-19.5 105,-0.5 0,-0.5"/>
<text text-anchor="middle" x="52.5" y="-7.5" font-family="Helvetica,sans-Serif" font-size="10.00">VariableStatement.h</text>
</a>
</g>
</g>
<!-- Node2&#45;&gt;Node4 -->
<g id="edge3" class="edge">
<title>Node2&#45;&gt;Node4</title>
<path fill="none" stroke="midnightblue" d="M143.36,-52.23C121.1,-42.13 90.64,-28.31 71.27,-19.52"/>
<polygon fill="midnightblue" stroke="midnightblue" points="142.09,-55.5 152.64,-56.44 144.98,-49.12 142.09,-55.5"/>
</g>
<!-- Node5&#45;&gt;Node3 -->
<g id="edge8" class="edge">
<title>Node5&#45;&gt;Node3</title>
<path fill="none" stroke="midnightblue" d="M245.18,-51.18C227.7,-41.24 204.67,-28.15 189.73,-19.65"/>
<polygon fill="midnightblue" stroke="midnightblue" points="243.81,-54.43 254.24,-56.32 247.27,-48.34 243.81,-54.43"/>
</g>
<!-- Node5&#45;&gt;Node4 -->
<g id="edge9" class="edge">
<title>Node5&#45;&gt;Node4</title>
<path fill="none" stroke="midnightblue" d="M232.88,-55.85C176.04,-41.68 121.28,-28.08 86.87,-19.53"/>
<polygon fill="midnightblue" stroke="midnightblue" points="232.21,-59.29 242.76,-58.31 233.91,-52.5 232.21,-59.29"/>
</g>
<!-- Node6 -->
<g id="node6" class="node">
<title>Node6</title>
<g id="a_node6"><a xlink:href="_client_8h.html" target="_top" xlink:title=" ">
<polygon fill="none" stroke="black" points="244.5,-0.5 244.5,-19.5 294.5,-19.5 294.5,-0.5 244.5,-0.5"/>
<text text-anchor="middle" x="269.5" y="-7.5" font-family="Helvetica,sans-Serif" font-size="10.00">Client.h</text>
</a>
</g>
</g>
<!-- Node5&#45;&gt;Node6 -->
<g id="edge5" class="edge">
<title>Node5&#45;&gt;Node6</title>
<path fill="none" stroke="midnightblue" d="M269.5,-45.8C269.5,-36.91 269.5,-26.78 269.5,-19.75"/>
<polygon fill="midnightblue" stroke="midnightblue" points="266,-46.08 269.5,-56.08 273,-46.08 266,-46.08"/>
</g>
<!-- Node7 -->
<g id="node7" class="node">
<title>Node7</title>
<g id="a_node7"><a xlink:href="_identifier_expression_8h.html" target="_top" xlink:title=" ">
<polygon fill="none" stroke="black" points="312.5,-0.5 312.5,-19.5 422.5,-19.5 422.5,-0.5 312.5,-0.5"/>
<text text-anchor="middle" x="367.5" y="-7.5" font-family="Helvetica,sans-Serif" font-size="10.00">IdentifierExpression.h</text>
</a>
</g>
</g>
<!-- Node5&#45;&gt;Node7 -->
<g id="edge6" class="edge">
<title>Node5&#45;&gt;Node7</title>
<path fill="none" stroke="midnightblue" d="M294.09,-51.45C312.18,-41.48 336.23,-28.23 351.79,-19.65"/>
<polygon fill="midnightblue" stroke="midnightblue" points="292.31,-48.43 285.25,-56.32 295.69,-54.56 292.31,-48.43"/>
</g>
<!-- Node8 -->
<g id="node8" class="node">
<title>Node8</title>
<g id="a_node8"><a xlink:href="_number_expression_8h.html" target="_top" xlink:title=" ">
<polygon fill="none" stroke="black" points="441,-0.5 441,-19.5 548,-19.5 548,-0.5 441,-0.5"/>
<text text-anchor="middle" x="494.5" y="-7.5" font-family="Helvetica,sans-Serif" font-size="10.00">NumberExpression.h</text>
</a>
</g>
</g>
<!-- Node5&#45;&gt;Node8 -->
<g id="edge7" class="edge">
<title>Node5&#45;&gt;Node8</title>
<path fill="none" stroke="midnightblue" d="M306.06,-56.23C348.26,-46.1 417.2,-29.55 458.96,-19.53"/>
<polygon fill="midnightblue" stroke="midnightblue" points="305.1,-52.86 296.19,-58.59 306.73,-59.66 305.1,-52.86"/>
</g>
</g>
</svg>
