<?xml version="1.0" encoding="UTF-8" standalone="no"?>
<!DOCTYPE svg PUBLIC "-//W3C//DTD SVG 1.1//EN"
 "http://www.w3.org/Graphics/SVG/1.1/DTD/svg11.dtd">
<!-- Generated by graphviz version 2.50.0 (20211204.2007)
 -->
<!-- Title: C:/Users/themo/OneDrive/Documents/GitHub/interpreter/src/parser/include/Interface/StatementInterface.h Pages: 1 -->
<svg width="568pt" height="217pt"
 viewBox="0.00 0.00 567.50 217.00" xmlns="http://www.w3.org/2000/svg" xmlns:xlink="http://www.w3.org/1999/xlink">
<g id="graph0" class="graph" transform="scale(1 1) rotate(0) translate(4 213)">
<title>C:/Users/themo/OneDrive/Documents/GitHub/interpreter/src/parser/include/Interface/StatementInterface.h</title>
<!-- Node1 -->
<g id="node1" class="node">
<title>Node1</title>
<g id="a_node1"><a xlink:title=" ">
<polygon fill="#bfbfbf" stroke="black" points="186,-156.5 186,-208.5 335,-208.5 335,-156.5 186,-156.5"/>
<text text-anchor="start" x="194" y="-196.5" font-family="Helvetica,sans-Serif" font-size="10.00">C:/Users/themo/OneDrive</text>
<text text-anchor="start" x="194" y="-185.5" font-family="Helvetica,sans-Serif" font-size="10.00">/Documents/GitHub/interpreter</text>
<text text-anchor="start" x="194" y="-174.5" font-family="Helvetica,sans-Serif" font-size="10.00">/src/parser/include/Interface</text>
<text text-anchor="middle" x="260.5" y="-163.5" font-family="Helvetica,sans-Serif" font-size="10.00">/StatementInterface.h</text>
</a>
</g>
</g>
<!-- Node2 -->
<g id="node2" class="node">
<title>Node2</title>
<g id="a_node2"><a xlink:href="_parser_8h.html" target="_top" xlink:title=" ">
<polygon fill="none" stroke="black" points="0,-78.5 0,-119.5 149,-119.5 149,-78.5 0,-78.5"/>
<text text-anchor="start" x="8" y="-107.5" font-family="Helvetica,sans-Serif" font-size="10.00">C:/Users/themo/OneDrive</text>
<text text-anchor="start" x="8" y="-96.5" font-family="Helvetica,sans-Serif" font-size="10.00">/Documents/GitHub/interpreter</text>
<text text-anchor="middle" x="74.5" y="-85.5" font-family="Helvetica,sans-Serif" font-size="10.00">/src/parser/include/Parser.h</text>
</a>
</g>
</g>
<!-- Node1&#45;&gt;Node2 -->
<g id="edge1" class="edge">
<title>Node1&#45;&gt;Node2</title>
<path fill="none" stroke="midnightblue" d="M194.04,-152.38C169.15,-141.47 141.5,-129.36 119.06,-119.52"/>
<polygon fill="midnightblue" stroke="midnightblue" points="192.87,-155.69 203.43,-156.49 195.68,-149.27 192.87,-155.69"/>
</g>
<!-- Node4 -->
<g id="node4" class="node">
<title>Node4</title>
<g id="a_node4"><a xlink:href="_printing_statement_8h.html" target="_top" xlink:title=" ">
<polygon fill="none" stroke="black" points="167.5,-78.5 167.5,-119.5 353.5,-119.5 353.5,-78.5 167.5,-78.5"/>
<text text-anchor="start" x="175.5" y="-107.5" font-family="Helvetica,sans-Serif" font-size="10.00">C:/Users/themo/OneDrive</text>
<text text-anchor="start" x="175.5" y="-96.5" font-family="Helvetica,sans-Serif" font-size="10.00">/Documents/GitHub/interpreter</text>
<text text-anchor="middle" x="260.5" y="-85.5" font-family="Helvetica,sans-Serif" font-size="10.00">/src/parser/include/PrintingStatement.h</text>
</a>
</g>
</g>
<!-- Node1&#45;&gt;Node4 -->
<g id="edge3" class="edge">
<title>Node1&#45;&gt;Node4</title>
<path fill="none" stroke="midnightblue" d="M260.5,-146.15C260.5,-137.05 260.5,-127.6 260.5,-119.63"/>
<polygon fill="midnightblue" stroke="midnightblue" points="257,-146.16 260.5,-156.16 264,-146.16 257,-146.16"/>
</g>
<!-- Node5 -->
<g id="node5" class="node">
<title>Node5</title>
<g id="a_node5"><a xlink:href="_variable_statement_8h.html" target="_top" xlink:title=" ">
<polygon fill="none" stroke="black" points="371.5,-78.5 371.5,-119.5 559.5,-119.5 559.5,-78.5 371.5,-78.5"/>
<text text-anchor="start" x="379.5" y="-107.5" font-family="Helvetica,sans-Serif" font-size="10.00">C:/Users/themo/OneDrive</text>
<text text-anchor="start" x="379.5" y="-96.5" font-family="Helvetica,sans-Serif" font-size="10.00">/Documents/GitHub/interpreter</text>
<text text-anchor="middle" x="465.5" y="-85.5" font-family="Helvetica,sans-Serif" font-size="10.00">/src/parser/include/VariableStatement.h</text>
</a>
</g>
</g>
<!-- Node1&#45;&gt;Node5 -->
<g id="edge4" class="edge">
<title>Node1&#45;&gt;Node5</title>
<path fill="none" stroke="midnightblue" d="M333.02,-152.67C360.64,-141.69 391.44,-129.44 416.39,-119.52"/>
<polygon fill="midnightblue" stroke="midnightblue" points="331.4,-149.55 323.4,-156.49 333.99,-156.05 331.4,-149.55"/>
</g>
<!-- Node3 -->
<g id="node3" class="node">
<title>Node3</title>
<g id="a_node3"><a xlink:href="_client_8h.html" target="_top" xlink:title=" ">
<polygon fill="none" stroke="black" points="0,-0.5 0,-41.5 149,-41.5 149,-0.5 0,-0.5"/>
<text text-anchor="start" x="8" y="-29.5" font-family="Helvetica,sans-Serif" font-size="10.00">C:/Users/themo/OneDrive</text>
<text text-anchor="start" x="8" y="-18.5" font-family="Helvetica,sans-Serif" font-size="10.00">/Documents/GitHub/interpreter</text>
<text text-anchor="middle" x="74.5" y="-7.5" font-family="Helvetica,sans-Serif" font-size="10.00">/src/client/include/Client.h</text>
</a>
</g>
</g>
<!-- Node2&#45;&gt;Node3 -->
<g id="edge2" class="edge">
<title>Node2&#45;&gt;Node3</title>
<path fill="none" stroke="midnightblue" d="M74.5,-68.3C74.5,-59.3 74.5,-49.65 74.5,-41.51"/>
<polygon fill="midnightblue" stroke="midnightblue" points="71,-68.43 74.5,-78.43 78,-68.43 71,-68.43"/>
</g>
</g>
</svg>
