<?xml version="1.0" encoding="UTF-8" standalone="no"?>
<!DOCTYPE svg PUBLIC "-//W3C//DTD SVG 1.1//EN"
 "http://www.w3.org/Graphics/SVG/1.1/DTD/svg11.dtd">
<!-- Generated by graphviz version 2.50.0 (20211204.2007)
 -->
<!-- Title: C:/Users/themo/OneDrive/Documents/GitHub/interpreter/src/tokenizer/include/Interface/TokenizerInterface.h Pages: 1 -->
<svg width="157pt" height="173pt"
 viewBox="0.00 0.00 157.00 173.00" xmlns="http://www.w3.org/2000/svg" xmlns:xlink="http://www.w3.org/1999/xlink">
<g id="graph0" class="graph" transform="scale(1 1) rotate(0) translate(4 169)">
<title>C:/Users/themo/OneDrive/Documents/GitHub/interpreter/src/tokenizer/include/Interface/TokenizerInterface.h</title>
<!-- Node1 -->
<g id="node1" class="node">
<title>Node1</title>
<g id="a_node1"><a xlink:title=" ">
<polygon fill="#bfbfbf" stroke="black" points="0,-112.5 0,-164.5 149,-164.5 149,-112.5 0,-112.5"/>
<text text-anchor="start" x="8" y="-152.5" font-family="Helvetica,sans-Serif" font-size="10.00">C:/Users/themo/OneDrive</text>
<text text-anchor="start" x="8" y="-141.5" font-family="Helvetica,sans-Serif" font-size="10.00">/Documents/GitHub/interpreter</text>
<text text-anchor="start" x="8" y="-130.5" font-family="Helvetica,sans-Serif" font-size="10.00">/src/tokenizer/include/Interface</text>
<text text-anchor="middle" x="74.5" y="-119.5" font-family="Helvetica,sans-Serif" font-size="10.00">/TokenizerInterface.h</text>
</a>
</g>
</g>
<!-- Node2 -->
<g id="node2" class="node">
<title>Node2</title>
<g id="a_node2"><a xlink:href="_token_8h.html" target="_top" xlink:title=" ">
<polygon fill="none" stroke="black" points="76,-56.5 76,-75.5 127,-75.5 127,-56.5 76,-56.5"/>
<text text-anchor="middle" x="101.5" y="-63.5" font-family="Helvetica,sans-Serif" font-size="10.00">Token.h</text>
</a>
</g>
</g>
<!-- Node1&#45;&gt;Node2 -->
<g id="edge1" class="edge">
<title>Node1&#45;&gt;Node2</title>
<path fill="none" stroke="midnightblue" d="M84.1,-112.45C87.55,-103.43 91.37,-93.44 94.56,-85.13"/>
<polygon fill="midnightblue" stroke="midnightblue" points="97.86,-86.29 98.17,-75.7 91.32,-83.78 97.86,-86.29"/>
</g>
<!-- Node3 -->
<g id="node3" class="node">
<title>Node3</title>
<g id="a_node3"><a xlink:title=" ">
<polygon fill="none" stroke="#bfbfbf" points="28,-0.5 28,-19.5 69,-19.5 69,-0.5 28,-0.5"/>
<text text-anchor="middle" x="48.5" y="-7.5" font-family="Helvetica,sans-Serif" font-size="10.00">string</text>
</a>
</g>
</g>
<!-- Node1&#45;&gt;Node3 -->
<g id="edge4" class="edge">
<title>Node1&#45;&gt;Node3</title>
<path fill="none" stroke="midnightblue" d="M69.3,-112.2C64.28,-87.77 56.79,-51.34 52.3,-29.5"/>
<polygon fill="midnightblue" stroke="midnightblue" points="55.7,-28.64 50.26,-19.55 48.84,-30.05 55.7,-28.64"/>
</g>
<!-- Node2&#45;&gt;Node3 -->
<g id="edge2" class="edge">
<title>Node2&#45;&gt;Node3</title>
<path fill="none" stroke="midnightblue" d="M92.75,-56.08C85.03,-48.22 73.6,-36.57 64.28,-27.08"/>
<polygon fill="midnightblue" stroke="midnightblue" points="66.59,-24.44 57.09,-19.75 61.6,-29.34 66.59,-24.44"/>
</g>
<!-- Node4 -->
<g id="node4" class="node">
<title>Node4</title>
<g id="a_node4"><a xlink:title=" ">
<polygon fill="none" stroke="#bfbfbf" points="87,-0.5 87,-19.5 116,-19.5 116,-0.5 87,-0.5"/>
<text text-anchor="middle" x="101.5" y="-7.5" font-family="Helvetica,sans-Serif" font-size="10.00">list</text>
</a>
</g>
</g>
<!-- Node2&#45;&gt;Node4 -->
<g id="edge3" class="edge">
<title>Node2&#45;&gt;Node4</title>
<path fill="none" stroke="midnightblue" d="M101.5,-56.08C101.5,-49.01 101.5,-38.86 101.5,-29.99"/>
<polygon fill="midnightblue" stroke="midnightblue" points="105,-29.75 101.5,-19.75 98,-29.75 105,-29.75"/>
</g>
</g>
</svg>
