<?xml version="1.0" encoding="UTF-8" standalone="no"?>
<!DOCTYPE svg PUBLIC "-//W3C//DTD SVG 1.1//EN"
 "http://www.w3.org/Graphics/SVG/1.1/DTD/svg11.dtd">
<!-- Generated by graphviz version 2.50.0 (20211204.2007)
 -->
<!-- Title: Token.h Pages: 1 -->
<!--zoomable 196 -->
<svg id="main" version="1.1" xmlns="http://www.w3.org/2000/svg" xmlns:xlink="http://www.w3.org/1999/xlink" xml:space="preserve" onload="init(evt)">
<style type="text/css"><![CDATA[
.edge:hover path { stroke: red; }
.edge:hover polygon { stroke: red; fill: red; }
]]></style>
<script type="text/javascript"><![CDATA[
var edges = document.getElementsByTagName('g');
if (edges && edges.length) {
  for (var i=0;i<edges.length;i++) {
    if (edges[i].id.substr(0,4)=='edge') {
      edges[i].setAttribute('class','edge');
    }
  }
}
]]></script>
        <defs>
                <circle id="rim" cx="0" cy="0" r="7"/>
                <circle id="rim2" cx="0" cy="0" r="3.5"/>
                <g id="zoomPlus">
                        <use xlink:href="#rim" fill="#404040">
                                <set attributeName="fill" to="#808080" begin="zoomplus.mouseover" end="zoomplus.mouseout"/>
                        </use>
                        <path d="M-4,0h8M0,-4v8" fill="none" stroke="white" stroke-width="1.5" pointer-events="none"/>
                </g>
                <g id="zoomMin">
                        <use xlink:href="#rim" fill="#404040">
                                <set attributeName="fill" to="#808080" begin="zoomminus.mouseover" end="zoomminus.mouseout"/>
                        </use>
                        <path d="M-4,0h8" fill="none" stroke="white" stroke-width="1.5" pointer-events="none"/>
                </g>
                <g id="dirArrow">
                        <path fill="none" stroke="white" stroke-width="1.5" d="M0,-3.0v7 M-2.5,-0.5L0,-3.0L2.5,-0.5"/>
                </g>
               <g id="resetDef">
                       <use xlink:href="#rim2" fill="#404040">
                               <set attributeName="fill" to="#808080" begin="reset.mouseover" end="reset.mouseout"/>
                       </use>
               </g>
        </defs>

<script type="text/javascript">
var viewWidth = 1261;
var viewHeight = 196;
var sectionId = 'dynsection-1';
</script>
<script xlink:href="svgpan.js"/>
<svg id="graph" class="graph">
<g id="viewport">
<title>Token.h</title>
<!-- Node1 -->
<g id="node1" class="node">
<title>Node1</title>
<g id="a_node1"><a xlink:title=" ">
<polygon fill="#bfbfbf" stroke="black" points="772,-168.5 772,-187.5 823,-187.5 823,-168.5 772,-168.5"/>
<text text-anchor="middle" x="797.5" y="-175.5" font-family="Helvetica,sans-Serif" font-size="10.00">Token.h</text>
</a>
</g>
</g>
<!-- Node2 -->
<g id="node2" class="node">
<title>Node2</title>
<g id="a_node2"><a xlink:href="_abstract_expression_8h.html" target="_top" xlink:title=" ">
<polygon fill="none" stroke="black" points="509.5,-112.5 509.5,-131.5 619.5,-131.5 619.5,-112.5 509.5,-112.5"/>
<text text-anchor="middle" x="564.5" y="-119.5" font-family="Helvetica,sans-Serif" font-size="10.00">AbstractExpression.h</text>
</a>
</g>
</g>
<!-- Node1&#45;&gt;Node2 -->
<g id="edge1" class="edge">
<title>Node1&#45;&gt;Node2</title>
<path fill="none" stroke="midnightblue" d="M761.84,-168.74C718.45,-158.68 645.56,-141.79 601.55,-131.59"/>
<polygon fill="midnightblue" stroke="midnightblue" points="761.14,-172.17 771.67,-171.01 762.72,-165.35 761.14,-172.17"/>
</g>
<!-- Node3 -->
<g id="node3" class="node">
<title>Node3</title>
<g id="a_node3"><a xlink:href="_identifier_expression_8h.html" target="_top" xlink:title=" ">
<polygon fill="none" stroke="black" points="580.5,-56.5 580.5,-75.5 690.5,-75.5 690.5,-56.5 580.5,-56.5"/>
<text text-anchor="middle" x="635.5" y="-63.5" font-family="Helvetica,sans-Serif" font-size="10.00">IdentifierExpression.h</text>
</a>
</g>
</g>
<!-- Node1&#45;&gt;Node3 -->
<g id="edge14" class="edge">
<title>Node1&#45;&gt;Node3</title>
<path fill="none" stroke="midnightblue" d="M765.8,-164.53C747.18,-156.52 723.62,-145.17 704.5,-132 679.83,-115.01 655.36,-89.33 643.28,-75.9"/>
<polygon fill="midnightblue" stroke="midnightblue" points="764.47,-167.77 775.04,-168.41 767.17,-161.31 764.47,-167.77"/>
</g>
<!-- Node4 -->
<g id="node4" class="node">
<title>Node4</title>
<g id="a_node4"><a xlink:href="_number_expression_8h.html" target="_top" xlink:title=" ">
<polygon fill="none" stroke="black" points="665,-0.5 665,-19.5 772,-19.5 772,-0.5 665,-0.5"/>
<text text-anchor="middle" x="718.5" y="-7.5" font-family="Helvetica,sans-Serif" font-size="10.00">NumberExpression.h</text>
</a>
</g>
</g>
<!-- Node1&#45;&gt;Node4 -->
<g id="edge15" class="edge">
<title>Node1&#45;&gt;Node4</title>
<path fill="none" stroke="midnightblue" d="M787.01,-159.59C782,-151.25 775.92,-141.12 770.5,-132 755.73,-107.17 748.97,-102.51 737.5,-76 729.09,-56.58 723.12,-32.33 720.31,-19.65"/>
<polygon fill="midnightblue" stroke="midnightblue" points="784.15,-161.62 792.3,-168.39 790.15,-158.01 784.15,-161.62"/>
</g>
<!-- Node11 -->
<g id="node11" class="node">
<title>Node11</title>
<g id="a_node11"><a xlink:href="_abstract_statement_8h.html" target="_top" xlink:title=" ">
<polygon fill="none" stroke="black" points="785,-112.5 785,-131.5 892,-131.5 892,-112.5 785,-112.5"/>
<text text-anchor="middle" x="838.5" y="-119.5" font-family="Helvetica,sans-Serif" font-size="10.00">AbstractStatement.h</text>
</a>
</g>
</g>
<!-- Node1&#45;&gt;Node11 -->
<g id="edge11" class="edge">
<title>Node1&#45;&gt;Node11</title>
<path fill="none" stroke="midnightblue" d="M810.52,-159.86C817.62,-150.5 826.1,-139.33 831.86,-131.75"/>
<polygon fill="midnightblue" stroke="midnightblue" points="807.53,-158 804.27,-168.08 813.11,-162.24 807.53,-158"/>
</g>
<!-- Node12 -->
<g id="node12" class="node">
<title>Node12</title>
<g id="a_node12"><a xlink:href="_printing_statement_8h.html" target="_top" xlink:title=" ">
<polygon fill="none" stroke="black" points="747,-56.5 747,-75.5 850,-75.5 850,-56.5 747,-56.5"/>
<text text-anchor="middle" x="798.5" y="-63.5" font-family="Helvetica,sans-Serif" font-size="10.00">PrintingStatement.h</text>
</a>
</g>
</g>
<!-- Node1&#45;&gt;Node12 -->
<g id="edge22" class="edge">
<title>Node1&#45;&gt;Node12</title>
<path fill="none" stroke="midnightblue" d="M785.92,-159.55C778.73,-146.61 771.54,-128.43 775.5,-112 778.74,-98.52 786.75,-84.54 792.4,-75.81"/>
<polygon fill="midnightblue" stroke="midnightblue" points="783.06,-161.58 791.24,-168.32 789.04,-157.95 783.06,-161.58"/>
</g>
<!-- Node13 -->
<g id="node13" class="node">
<title>Node13</title>
<g id="a_node13"><a xlink:href="_variable_statement_8h.html" target="_top" xlink:title=" ">
<polygon fill="none" stroke="black" points="868,-56.5 868,-75.5 973,-75.5 973,-56.5 868,-56.5"/>
<text text-anchor="middle" x="920.5" y="-63.5" font-family="Helvetica,sans-Serif" font-size="10.00">VariableStatement.h</text>
</a>
</g>
</g>
<!-- Node1&#45;&gt;Node13 -->
<g id="edge28" class="edge">
<title>Node1&#45;&gt;Node13</title>
<path fill="none" stroke="midnightblue" d="M833.45,-172.85C879.32,-166.74 954.75,-153.63 971.5,-132 987.22,-111.7 956.02,-88.01 935.83,-75.59"/>
<polygon fill="midnightblue" stroke="midnightblue" points="832.78,-169.41 823.31,-174.16 833.67,-176.35 832.78,-169.41"/>
</g>
<!-- Node14 -->
<g id="node14" class="node">
<title>Node14</title>
<g id="a_node14"><a xlink:href="_parser_8h.html" target="_top" xlink:title=" ">
<polygon fill="none" stroke="black" points="910,-112.5 910,-131.5 963,-131.5 963,-112.5 910,-112.5"/>
<text text-anchor="middle" x="936.5" y="-119.5" font-family="Helvetica,sans-Serif" font-size="10.00">Parser.h</text>
</a>
</g>
</g>
<!-- Node1&#45;&gt;Node14 -->
<g id="edge16" class="edge">
<title>Node1&#45;&gt;Node14</title>
<path fill="none" stroke="midnightblue" d="M828.98,-164.77C855.09,-154.63 891.54,-140.47 914.58,-131.52"/>
<polygon fill="midnightblue" stroke="midnightblue" points="827.58,-161.56 819.52,-168.44 830.11,-168.08 827.58,-161.56"/>
</g>
<!-- Node16 -->
<g id="node16" class="node">
<title>Node16</title>
<g id="a_node16"><a xlink:href="_tokenizer_interface_8h.html" target="_top" xlink:title=" ">
<polygon fill="none" stroke="black" points="1019.5,-112.5 1019.5,-131.5 1123.5,-131.5 1123.5,-112.5 1019.5,-112.5"/>
<text text-anchor="middle" x="1071.5" y="-119.5" font-family="Helvetica,sans-Serif" font-size="10.00">TokenizerInterface.h</text>
</a>
</g>
</g>
<!-- Node1&#45;&gt;Node16 -->
<g id="edge23" class="edge">
<title>Node1&#45;&gt;Node16</title>
<path fill="none" stroke="midnightblue" d="M833.32,-169.94C883.42,-160.07 974.31,-142.15 1028.16,-131.54"/>
<polygon fill="midnightblue" stroke="midnightblue" points="832.41,-166.55 823.28,-171.92 833.77,-173.42 832.41,-166.55"/>
</g>
<!-- Node2&#45;&gt;Node3 -->
<g id="edge2" class="edge">
<title>Node2&#45;&gt;Node3</title>
<path fill="none" stroke="midnightblue" d="M584.09,-106.1C596.87,-96.38 613.11,-84.03 623.89,-75.83"/>
<polygon fill="midnightblue" stroke="midnightblue" points="581.75,-103.48 575.91,-112.32 585.99,-109.06 581.75,-103.48"/>
</g>
<!-- Node2&#45;&gt;Node4 -->
<g id="edge3" class="edge">
<title>Node2&#45;&gt;Node4</title>
<path fill="none" stroke="midnightblue" d="M561.4,-102.15C560.16,-87.91 561,-68.7 571.5,-56 584.42,-40.36 633.82,-27.43 671.83,-19.5"/>
<polygon fill="midnightblue" stroke="midnightblue" points="557.96,-102.81 562.69,-112.29 564.9,-101.93 557.96,-102.81"/>
</g>
<!-- Node5 -->
<g id="node5" class="node">
<title>Node5</title>
<g id="a_node5"><a xlink:href="_operator_expression_8h.html" target="_top" xlink:title=" ">
<polygon fill="none" stroke="black" points="413,-56.5 413,-75.5 524,-75.5 524,-56.5 413,-56.5"/>
<text text-anchor="middle" x="468.5" y="-63.5" font-family="Helvetica,sans-Serif" font-size="10.00">OperatorExpression.h</text>
</a>
</g>
</g>
<!-- Node2&#45;&gt;Node5 -->
<g id="edge4" class="edge">
<title>Node2&#45;&gt;Node5</title>
<path fill="none" stroke="midnightblue" d="M539.93,-107.18C522.26,-97.24 498.99,-84.15 483.89,-75.65"/>
<polygon fill="midnightblue" stroke="midnightblue" points="538.64,-110.47 549.08,-112.32 542.08,-104.37 538.64,-110.47"/>
</g>
<!-- Node5&#45;&gt;Node4 -->
<g id="edge9" class="edge">
<title>Node5&#45;&gt;Node4</title>
<path fill="none" stroke="midnightblue" d="M518.12,-54.28C565.37,-44.08 635.54,-28.92 679.07,-19.52"/>
<polygon fill="midnightblue" stroke="midnightblue" points="517.15,-50.91 508.11,-56.44 518.63,-57.75 517.15,-50.91"/>
</g>
<!-- Node6 -->
<g id="node6" class="node">
<title>Node6</title>
<g id="a_node6"><a xlink:href="_addition_expression_8h.html" target="_top" xlink:title=" ">
<polygon fill="none" stroke="black" points="290,-0.5 290,-19.5 399,-19.5 399,-0.5 290,-0.5"/>
<text text-anchor="middle" x="344.5" y="-7.5" font-family="Helvetica,sans-Serif" font-size="10.00">AdditionExpression.h</text>
</a>
</g>
</g>
<!-- Node5&#45;&gt;Node6 -->
<g id="edge5" class="edge">
<title>Node5&#45;&gt;Node6</title>
<path fill="none" stroke="midnightblue" d="M439.49,-52.37C416.27,-42.26 384.34,-28.35 364.06,-19.52"/>
<polygon fill="midnightblue" stroke="midnightblue" points="438.29,-55.66 448.85,-56.44 441.08,-49.24 438.29,-55.66"/>
</g>
<!-- Node7 -->
<g id="node7" class="node">
<title>Node7</title>
<g id="a_node7"><a xlink:href="_division_expression_8h.html" target="_top" xlink:title=" ">
<polygon fill="none" stroke="black" points="417,-0.5 417,-19.5 524,-19.5 524,-0.5 417,-0.5"/>
<text text-anchor="middle" x="470.5" y="-7.5" font-family="Helvetica,sans-Serif" font-size="10.00">DivisionExpression.h</text>
</a>
</g>
</g>
<!-- Node5&#45;&gt;Node7 -->
<g id="edge6" class="edge">
<title>Node5&#45;&gt;Node7</title>
<path fill="none" stroke="midnightblue" d="M469.21,-45.8C469.54,-36.91 469.92,-26.78 470.18,-19.75"/>
<polygon fill="midnightblue" stroke="midnightblue" points="465.7,-45.96 468.83,-56.08 472.7,-46.22 465.7,-45.96"/>
</g>
<!-- Node8 -->
<g id="node8" class="node">
<title>Node8</title>
<g id="a_node8"><a xlink:href="_modulo_expression_8h.html" target="_top" xlink:title=" ">
<polygon fill="none" stroke="black" points="542,-0.5 542,-19.5 647,-19.5 647,-0.5 542,-0.5"/>
<text text-anchor="middle" x="594.5" y="-7.5" font-family="Helvetica,sans-Serif" font-size="10.00">ModuloExpression.h</text>
</a>
</g>
</g>
<!-- Node5&#45;&gt;Node8 -->
<g id="edge7" class="edge">
<title>Node5&#45;&gt;Node8</title>
<path fill="none" stroke="midnightblue" d="M497.66,-52.5C521.28,-42.38 553.93,-28.39 574.63,-19.52"/>
<polygon fill="midnightblue" stroke="midnightblue" points="496.28,-49.29 488.47,-56.44 499.04,-55.72 496.28,-49.29"/>
</g>
<!-- Node9 -->
<g id="node9" class="node">
<title>Node9</title>
<g id="a_node9"><a xlink:href="_multiplication_expression_8h.html" target="_top" xlink:title=" ">
<polygon fill="none" stroke="black" points="0,-0.5 0,-19.5 131,-19.5 131,-0.5 0,-0.5"/>
<text text-anchor="middle" x="65.5" y="-7.5" font-family="Helvetica,sans-Serif" font-size="10.00">MultiplicationExpression.h</text>
</a>
</g>
</g>
<!-- Node5&#45;&gt;Node9 -->
<g id="edge8" class="edge">
<title>Node5&#45;&gt;Node9</title>
<path fill="none" stroke="midnightblue" d="M402.54,-56.16C326.92,-46.03 203.82,-29.53 129.17,-19.53"/>
<polygon fill="midnightblue" stroke="midnightblue" points="402.51,-59.69 412.89,-57.55 403.44,-52.75 402.51,-59.69"/>
</g>
<!-- Node10 -->
<g id="node10" class="node">
<title>Node10</title>
<g id="a_node10"><a xlink:href="_subtraction_expression_8h.html" target="_top" xlink:title=" ">
<polygon fill="none" stroke="black" points="149,-0.5 149,-19.5 272,-19.5 272,-0.5 149,-0.5"/>
<text text-anchor="middle" x="210.5" y="-7.5" font-family="Helvetica,sans-Serif" font-size="10.00">SubtractionExpression.h</text>
</a>
</g>
</g>
<!-- Node5&#45;&gt;Node10 -->
<g id="edge10" class="edge">
<title>Node5&#45;&gt;Node10</title>
<path fill="none" stroke="midnightblue" d="M417.6,-54.35C368.84,-44.14 296.21,-28.94 251.19,-19.52"/>
<polygon fill="midnightblue" stroke="midnightblue" points="417.11,-57.82 427.62,-56.44 418.55,-50.97 417.11,-57.82"/>
</g>
<!-- Node11&#45;&gt;Node12 -->
<g id="edge12" class="edge">
<title>Node11&#45;&gt;Node12</title>
<path fill="none" stroke="midnightblue" d="M825.8,-103.86C818.87,-94.5 810.59,-83.33 804.98,-75.75"/>
<polygon fill="midnightblue" stroke="midnightblue" points="823.13,-106.13 831.89,-112.08 828.75,-101.96 823.13,-106.13"/>
</g>
<!-- Node11&#45;&gt;Node13 -->
<g id="edge13" class="edge">
<title>Node11&#45;&gt;Node13</title>
<path fill="none" stroke="midnightblue" d="M860.33,-106.62C875.31,-96.76 894.7,-83.99 907.36,-75.65"/>
<polygon fill="midnightblue" stroke="midnightblue" points="858.1,-103.9 851.67,-112.32 861.95,-109.75 858.1,-103.9"/>
</g>
<!-- Node14&#45;&gt;Node3 -->
<g id="edge18" class="edge">
<title>Node14&#45;&gt;Node3</title>
<path fill="none" stroke="midnightblue" d="M899.78,-111.99C821.49,-95.77 742.1,-82.94 690.55,-75.09"/>
<polygon fill="midnightblue" stroke="midnightblue" points="899.31,-115.47 909.82,-114.09 900.74,-108.61 899.31,-115.47"/>
</g>
<!-- Node14&#45;&gt;Node4 -->
<g id="edge19" class="edge">
<title>Node14&#45;&gt;Node4</title>
<path fill="none" stroke="midnightblue" d="M958.21,-106.37C975.69,-92.8 995.26,-72.32 981.5,-56 955.26,-24.88 841.09,-15.28 772.09,-12.32"/>
<polygon fill="midnightblue" stroke="midnightblue" points="955.94,-103.69 949.95,-112.42 960.08,-109.33 955.94,-103.69"/>
</g>
<!-- Node14&#45;&gt;Node12 -->
<g id="edge20" class="edge">
<title>Node14&#45;&gt;Node12</title>
<path fill="none" stroke="midnightblue" d="M905.25,-108.77C879.33,-98.63 843.14,-84.47 820.26,-75.52"/>
<polygon fill="midnightblue" stroke="midnightblue" points="904.05,-112.06 914.63,-112.44 906.6,-105.54 904.05,-112.06"/>
</g>
<!-- Node14&#45;&gt;Node13 -->
<g id="edge21" class="edge">
<title>Node14&#45;&gt;Node13</title>
<path fill="none" stroke="midnightblue" d="M930.99,-102.4C928.31,-93.36 925.22,-82.94 923.09,-75.75"/>
<polygon fill="midnightblue" stroke="midnightblue" points="927.66,-103.49 933.86,-112.08 934.37,-101.5 927.66,-103.49"/>
</g>
<!-- Node15 -->
<g id="node15" class="node">
<title>Node15</title>
<g id="a_node15"><a xlink:href="_client_8h.html" target="_top" xlink:title=" ">
<polygon fill="none" stroke="black" points="1029.5,-56.5 1029.5,-75.5 1079.5,-75.5 1079.5,-56.5 1029.5,-56.5"/>
<text text-anchor="middle" x="1054.5" y="-63.5" font-family="Helvetica,sans-Serif" font-size="10.00">Client.h</text>
</a>
</g>
</g>
<!-- Node14&#45;&gt;Node15 -->
<g id="edge17" class="edge">
<title>Node14&#45;&gt;Node15</title>
<path fill="none" stroke="midnightblue" d="M964.4,-108.23C986.47,-98.13 1016.68,-84.31 1035.89,-75.52"/>
<polygon fill="midnightblue" stroke="midnightblue" points="962.83,-105.1 955.2,-112.44 965.75,-111.46 962.83,-105.1"/>
</g>
<!-- Node16&#45;&gt;Node15 -->
<g id="edge27" class="edge">
<title>Node16&#45;&gt;Node15</title>
<path fill="none" stroke="midnightblue" d="M1065.64,-102.4C1062.8,-93.36 1059.52,-82.94 1057.25,-75.75"/>
<polygon fill="midnightblue" stroke="midnightblue" points="1062.35,-103.6 1068.69,-112.08 1069.03,-101.49 1062.35,-103.6"/>
</g>
<!-- Node17 -->
<g id="node17" class="node">
<title>Node17</title>
<g id="a_node17"><a xlink:href="_abstract_tokenizer_8h.html" target="_top" xlink:title=" ">
<polygon fill="none" stroke="black" points="1097.5,-56.5 1097.5,-75.5 1201.5,-75.5 1201.5,-56.5 1097.5,-56.5"/>
<text text-anchor="middle" x="1149.5" y="-63.5" font-family="Helvetica,sans-Serif" font-size="10.00">AbstractTokenizer.h</text>
</a>
</g>
</g>
<!-- Node16&#45;&gt;Node17 -->
<g id="edge24" class="edge">
<title>Node16&#45;&gt;Node17</title>
<path fill="none" stroke="midnightblue" d="M1092.27,-106.62C1106.52,-96.76 1124.96,-83.99 1137,-75.65"/>
<polygon fill="midnightblue" stroke="midnightblue" points="1090.26,-103.75 1084.03,-112.32 1094.25,-109.51 1090.26,-103.75"/>
</g>
<!-- Node18 -->
<g id="node18" class="node">
<title>Node18</title>
<g id="a_node18"><a xlink:href="_stream_tokenizer_8h.html" target="_top" xlink:title=" ">
<polygon fill="none" stroke="black" points="1044.5,-0.5 1044.5,-19.5 1142.5,-19.5 1142.5,-0.5 1044.5,-0.5"/>
<text text-anchor="middle" x="1093.5" y="-7.5" font-family="Helvetica,sans-Serif" font-size="10.00">StreamTokenizer.h</text>
</a>
</g>
</g>
<!-- Node17&#45;&gt;Node18 -->
<g id="edge25" class="edge">
<title>Node17&#45;&gt;Node18</title>
<path fill="none" stroke="midnightblue" d="M1133.17,-49.25C1123.24,-39.67 1110.91,-27.79 1102.66,-19.83"/>
<polygon fill="midnightblue" stroke="midnightblue" points="1130.87,-51.9 1140.5,-56.32 1135.73,-46.86 1130.87,-51.9"/>
</g>
<!-- Node19 -->
<g id="node19" class="node">
<title>Node19</title>
<g id="a_node19"><a xlink:href="_string_tokenizer_8h.html" target="_top" xlink:title=" ">
<polygon fill="none" stroke="black" points="1160.5,-0.5 1160.5,-19.5 1252.5,-19.5 1252.5,-0.5 1160.5,-0.5"/>
<text text-anchor="middle" x="1206.5" y="-7.5" font-family="Helvetica,sans-Serif" font-size="10.00">StringTokenizer.h</text>
</a>
</g>
</g>
<!-- Node17&#45;&gt;Node19 -->
<g id="edge26" class="edge">
<title>Node17&#45;&gt;Node19</title>
<path fill="none" stroke="midnightblue" d="M1166.12,-49.25C1176.23,-39.67 1188.78,-27.79 1197.18,-19.83"/>
<polygon fill="midnightblue" stroke="midnightblue" points="1163.51,-46.91 1158.66,-56.32 1168.32,-51.99 1163.51,-46.91"/>
</g>
</g>
</svg>
        <g id="navigator" transform="translate(0 0)" fill="#404254">
                <rect fill="#f2f5e9" fill-opacity="0.5" stroke="#606060" stroke-width=".5" x="0" y="0" width="60" height="60"/>
                <use id="zoomplus" xlink:href="#zoomPlus" x="17" y="9" onmousedown="handleZoom(evt,'in')"/>
                <use id="zoomminus" xlink:href="#zoomMin" x="42" y="9" onmousedown="handleZoom(evt,'out')"/>
                <use id="reset" xlink:href="#resetDef" x="30" y="36" onmousedown="handleReset()"/>
                <g id="arrowUp" xlink:href="#dirArrow" transform="translate(30 24)" onmousedown="handlePan(0,-1)">
                  <use xlink:href="#rim" fill="#404040">
                        <set attributeName="fill" to="#808080" begin="arrowUp.mouseover" end="arrowUp.mouseout"/>
                  </use>
                  <path fill="none" stroke="white" stroke-width="1.5" d="M0,-3.0v7 M-2.5,-0.5L0,-3.0L2.5,-0.5"/>
                </g>
                <g id="arrowRight" xlink:href="#dirArrow" transform="rotate(90) translate(36 -43)" onmousedown="handlePan(1,0)">
                  <use xlink:href="#rim" fill="#404040">
                        <set attributeName="fill" to="#808080" begin="arrowRight.mouseover" end="arrowRight.mouseout"/>
                  </use>
                  <path fill="none" stroke="white" stroke-width="1.5" d="M0,-3.0v7 M-2.5,-0.5L0,-3.0L2.5,-0.5"/>
                </g>
                <g id="arrowDown" xlink:href="#dirArrow" transform="rotate(180) translate(-30 -48)" onmousedown="handlePan(0,1)">
                  <use xlink:href="#rim" fill="#404040">
                        <set attributeName="fill" to="#808080" begin="arrowDown.mouseover" end="arrowDown.mouseout"/>
                  </use>
                  <path fill="none" stroke="white" stroke-width="1.5" d="M0,-3.0v7 M-2.5,-0.5L0,-3.0L2.5,-0.5"/>
                </g>
                <g id="arrowLeft" xlink:href="#dirArrow" transform="rotate(270) translate(-36 17)" onmousedown="handlePan(-1,0)">
                  <use xlink:href="#rim" fill="#404040">
                        <set attributeName="fill" to="#808080" begin="arrowLeft.mouseover" end="arrowLeft.mouseout"/>
                  </use>
                  <path fill="none" stroke="white" stroke-width="1.5" d="M0,-3.0v7 M-2.5,-0.5L0,-3.0L2.5,-0.5"/>
                </g>
        </g>
        <svg viewBox="0 0 15 15" width="100%" height="30px" preserveAspectRatio="xMaxYMin meet">
         <g id="arrow_out" transform="scale(0.3 0.3)">
          <a xlink:href="_token_8h__dep__incl_org.svg" target="_base">
           <rect id="button" ry="5" rx="5" y="6" x="6" height="38" width="38"
                fill="#f2f5e9" fill-opacity="0.5" stroke="#606060" stroke-width="1.0"/>
           <path id="arrow"
             d="M 11.500037,31.436501 C 11.940474,20.09759 22.043105,11.32322 32.158766,21.979434 L 37.068811,17.246167 C 37.068811,17.246167 37.088388,32 37.088388,32 L 22.160133,31.978069 C 22.160133,31.978069 26.997745,27.140456 26.997745,27.140456 C 18.528582,18.264221 13.291696,25.230495 11.500037,31.436501 z"
             style="fill:#404040;"/>
          </a>
         </g>
        </svg>
</svg>
