<?xml version="1.0" encoding="UTF-8" standalone="no"?>
<!DOCTYPE svg PUBLIC "-//W3C//DTD SVG 1.1//EN"
 "http://www.w3.org/Graphics/SVG/1.1/DTD/svg11.dtd">
<!-- Generated by graphviz version 2.50.0 (20211204.2007)
 -->
<!-- Title: C:/Users/themo/OneDrive/Documents/GitHub/interpreter/src/tokenizer/include/Token.h Pages: 1 -->
<svg width="627pt" height="373pt"
 viewBox="0.00 0.00 626.84 373.00" xmlns="http://www.w3.org/2000/svg" xmlns:xlink="http://www.w3.org/1999/xlink">
<g id="graph0" class="graph" transform="scale(1 1) rotate(0) translate(4 369)">
<title>C:/Users/themo/OneDrive/Documents/GitHub/interpreter/src/tokenizer/include/Token.h</title>
<!-- Node1 -->
<g id="node1" class="node">
<title>Node1</title>
<g id="a_node1"><a xlink:title=" ">
<polygon fill="#bfbfbf" stroke="black" points="77.84,-323.5 77.84,-364.5 226.84,-364.5 226.84,-323.5 77.84,-323.5"/>
<text text-anchor="start" x="85.84" y="-352.5" font-family="Helvetica,sans-Serif" font-size="10.00">C:/Users/themo/OneDrive</text>
<text text-anchor="start" x="85.84" y="-341.5" font-family="Helvetica,sans-Serif" font-size="10.00">/Documents/GitHub/interpreter</text>
<text text-anchor="middle" x="152.34" y="-330.5" font-family="Helvetica,sans-Serif" font-size="10.00">/src/tokenizer/include/Token.h</text>
</a>
</g>
</g>
<!-- Node2 -->
<g id="node2" class="node">
<title>Node2</title>
<g id="a_node2"><a xlink:href="_client_8h.html" target="_top" xlink:title=" ">
<polygon fill="none" stroke="black" points="83.84,-0.5 83.84,-41.5 232.84,-41.5 232.84,-0.5 83.84,-0.5"/>
<text text-anchor="start" x="91.84" y="-29.5" font-family="Helvetica,sans-Serif" font-size="10.00">C:/Users/themo/OneDrive</text>
<text text-anchor="start" x="91.84" y="-18.5" font-family="Helvetica,sans-Serif" font-size="10.00">/Documents/GitHub/interpreter</text>
<text text-anchor="middle" x="158.34" y="-7.5" font-family="Helvetica,sans-Serif" font-size="10.00">/src/client/include/Client.h</text>
</a>
</g>
</g>
<!-- Node1&#45;&gt;Node2 -->
<g id="edge1" class="edge">
<title>Node1&#45;&gt;Node2</title>
<path fill="none" stroke="midnightblue" d="M81.5,-318.89C65.87,-310.8 50.63,-300.34 39.34,-287 0.92,-241.63 -11.58,-210.42 12.34,-156 34.97,-104.5 88.25,-64.13 123.79,-41.67"/>
<polygon fill="midnightblue" stroke="midnightblue" points="80.19,-322.15 90.72,-323.38 83.26,-315.86 80.19,-322.15"/>
</g>
<!-- Node3 -->
<g id="node3" class="node">
<title>Node3</title>
<g id="a_node3"><a xlink:href="_parser_8h.html" target="_top" xlink:title=" ">
<polygon fill="none" stroke="black" points="21.84,-156.5 21.84,-197.5 170.84,-197.5 170.84,-156.5 21.84,-156.5"/>
<text text-anchor="start" x="29.84" y="-185.5" font-family="Helvetica,sans-Serif" font-size="10.00">C:/Users/themo/OneDrive</text>
<text text-anchor="start" x="29.84" y="-174.5" font-family="Helvetica,sans-Serif" font-size="10.00">/Documents/GitHub/interpreter</text>
<text text-anchor="middle" x="96.34" y="-163.5" font-family="Helvetica,sans-Serif" font-size="10.00">/src/parser/include/Parser.h</text>
</a>
</g>
</g>
<!-- Node1&#45;&gt;Node3 -->
<g id="edge2" class="edge">
<title>Node1&#45;&gt;Node3</title>
<path fill="none" stroke="midnightblue" d="M83.72,-318.56C70.42,-310.59 58.19,-300.26 50.34,-287 38.34,-266.73 42.4,-256.18 50.34,-234 55.26,-220.26 65.16,-207.47 74.53,-197.6"/>
<polygon fill="midnightblue" stroke="midnightblue" points="82.13,-321.69 92.58,-323.47 85.52,-315.56 82.13,-321.69"/>
</g>
<!-- Node4 -->
<g id="node4" class="node">
<title>Node4</title>
<g id="a_node4"><a xlink:href="_printing_statement_8h.html" target="_top" xlink:title=" ">
<polygon fill="none" stroke="black" points="59.34,-240 59.34,-281 245.34,-281 245.34,-240 59.34,-240"/>
<text text-anchor="start" x="67.34" y="-269" font-family="Helvetica,sans-Serif" font-size="10.00">C:/Users/themo/OneDrive</text>
<text text-anchor="start" x="67.34" y="-258" font-family="Helvetica,sans-Serif" font-size="10.00">/Documents/GitHub/interpreter</text>
<text text-anchor="middle" x="152.34" y="-247" font-family="Helvetica,sans-Serif" font-size="10.00">/src/parser/include/PrintingStatement.h</text>
</a>
</g>
</g>
<!-- Node1&#45;&gt;Node4 -->
<g id="edge4" class="edge">
<title>Node1&#45;&gt;Node4</title>
<path fill="none" stroke="midnightblue" d="M152.34,-313.06C152.34,-302.38 152.34,-290.63 152.34,-281.05"/>
<polygon fill="midnightblue" stroke="midnightblue" points="148.84,-313.27 152.34,-323.27 155.84,-313.27 148.84,-313.27"/>
</g>
<!-- Node5 -->
<g id="node5" class="node">
<title>Node5</title>
<g id="a_node5"><a xlink:href="_variable_statement_8h.html" target="_top" xlink:title=" ">
<polygon fill="none" stroke="black" points="263.34,-240 263.34,-281 451.34,-281 451.34,-240 263.34,-240"/>
<text text-anchor="start" x="271.34" y="-269" font-family="Helvetica,sans-Serif" font-size="10.00">C:/Users/themo/OneDrive</text>
<text text-anchor="start" x="271.34" y="-258" font-family="Helvetica,sans-Serif" font-size="10.00">/Documents/GitHub/interpreter</text>
<text text-anchor="middle" x="357.34" y="-247" font-family="Helvetica,sans-Serif" font-size="10.00">/src/parser/include/VariableStatement.h</text>
</a>
</g>
</g>
<!-- Node1&#45;&gt;Node5 -->
<g id="edge5" class="edge">
<title>Node1&#45;&gt;Node5</title>
<path fill="none" stroke="midnightblue" d="M210.78,-319.77C241.6,-307.51 278.98,-292.65 308.28,-281"/>
<polygon fill="midnightblue" stroke="midnightblue" points="209.44,-316.53 201.44,-323.48 212.03,-323.04 209.44,-316.53"/>
</g>
<!-- Node6 -->
<g id="node6" class="node">
<title>Node6</title>
<g id="a_node6"><a xlink:href="_tokenizer_interface_8h.html" target="_top" xlink:title=" ">
<polygon fill="none" stroke="black" points="469.84,-234.5 469.84,-286.5 618.84,-286.5 618.84,-234.5 469.84,-234.5"/>
<text text-anchor="start" x="477.84" y="-274.5" font-family="Helvetica,sans-Serif" font-size="10.00">C:/Users/themo/OneDrive</text>
<text text-anchor="start" x="477.84" y="-263.5" font-family="Helvetica,sans-Serif" font-size="10.00">/Documents/GitHub/interpreter</text>
<text text-anchor="start" x="477.84" y="-252.5" font-family="Helvetica,sans-Serif" font-size="10.00">/src/tokenizer/include/Interface</text>
<text text-anchor="middle" x="544.34" y="-241.5" font-family="Helvetica,sans-Serif" font-size="10.00">/TokenizerInterface.h</text>
</a>
</g>
</g>
<!-- Node1&#45;&gt;Node6 -->
<g id="edge6" class="edge">
<title>Node1&#45;&gt;Node6</title>
<path fill="none" stroke="midnightblue" d="M237.05,-330.29C299.23,-320.31 385.53,-305.09 460.34,-287 463.45,-286.25 466.61,-285.45 469.8,-284.61"/>
<polygon fill="midnightblue" stroke="midnightblue" points="236.22,-326.88 226.9,-331.91 237.32,-333.79 236.22,-326.88"/>
</g>
<!-- Node3&#45;&gt;Node2 -->
<g id="edge3" class="edge">
<title>Node3&#45;&gt;Node2</title>
<path fill="none" stroke="midnightblue" d="M98.5,-146.33C100.81,-126.32 105.56,-99.7 115.34,-78 121.33,-64.7 131.04,-51.66 139.72,-41.52"/>
<polygon fill="midnightblue" stroke="midnightblue" points="95,-146.12 97.48,-156.42 101.97,-146.82 95,-146.12"/>
</g>
<!-- Node7 -->
<g id="node7" class="node">
<title>Node7</title>
<g id="a_node7"><a xlink:href="_abstract_tokenizer_8h.html" target="_top" xlink:title=" ">
<polygon fill="none" stroke="black" points="330.34,-156.5 330.34,-197.5 530.34,-197.5 530.34,-156.5 330.34,-156.5"/>
<text text-anchor="start" x="338.34" y="-185.5" font-family="Helvetica,sans-Serif" font-size="10.00">C:/Users/themo/OneDrive</text>
<text text-anchor="start" x="338.34" y="-174.5" font-family="Helvetica,sans-Serif" font-size="10.00">/Documents/GitHub/interpreter</text>
<text text-anchor="middle" x="430.34" y="-163.5" font-family="Helvetica,sans-Serif" font-size="10.00">/src/tokenizer/include/AbstractTokenizer.h</text>
</a>
</g>
</g>
<!-- Node6&#45;&gt;Node7 -->
<g id="edge7" class="edge">
<title>Node6&#45;&gt;Node7</title>
<path fill="none" stroke="midnightblue" d="M500.89,-228.44C486.47,-218.13 470.83,-206.95 457.94,-197.73"/>
<polygon fill="midnightblue" stroke="midnightblue" points="499.03,-231.41 509.2,-234.38 503.1,-225.72 499.03,-231.41"/>
</g>
<!-- Node8 -->
<g id="node8" class="node">
<title>Node8</title>
<g id="a_node8"><a xlink:href="_stream_tokenizer_8h.html" target="_top" xlink:title=" ">
<polygon fill="none" stroke="black" points="124.34,-78.5 124.34,-119.5 318.34,-119.5 318.34,-78.5 124.34,-78.5"/>
<text text-anchor="start" x="132.34" y="-107.5" font-family="Helvetica,sans-Serif" font-size="10.00">C:/Users/themo/OneDrive</text>
<text text-anchor="start" x="132.34" y="-96.5" font-family="Helvetica,sans-Serif" font-size="10.00">/Documents/GitHub/interpreter</text>
<text text-anchor="middle" x="221.34" y="-85.5" font-family="Helvetica,sans-Serif" font-size="10.00">/src/tokenizer/include/StreamTokenizer.h</text>
</a>
</g>
</g>
<!-- Node7&#45;&gt;Node8 -->
<g id="edge8" class="edge">
<title>Node7&#45;&gt;Node8</title>
<path fill="none" stroke="midnightblue" d="M366.78,-152.89C337.44,-142.22 302.99,-129.69 274.98,-119.51"/>
<polygon fill="midnightblue" stroke="midnightblue" points="365.92,-156.3 376.51,-156.43 368.31,-149.72 365.92,-156.3"/>
</g>
<!-- Node9 -->
<g id="node9" class="node">
<title>Node9</title>
<g id="a_node9"><a xlink:href="_string_tokenizer_8h.html" target="_top" xlink:title=" ">
<polygon fill="none" stroke="black" points="336.34,-78.5 336.34,-119.5 524.34,-119.5 524.34,-78.5 336.34,-78.5"/>
<text text-anchor="start" x="344.34" y="-107.5" font-family="Helvetica,sans-Serif" font-size="10.00">C:/Users/themo/OneDrive</text>
<text text-anchor="start" x="344.34" y="-96.5" font-family="Helvetica,sans-Serif" font-size="10.00">/Documents/GitHub/interpreter</text>
<text text-anchor="middle" x="430.34" y="-85.5" font-family="Helvetica,sans-Serif" font-size="10.00">/src/tokenizer/include/StringTokenizer.h</text>
</a>
</g>
</g>
<!-- Node7&#45;&gt;Node9 -->
<g id="edge10" class="edge">
<title>Node7&#45;&gt;Node9</title>
<path fill="none" stroke="midnightblue" d="M430.34,-146.3C430.34,-137.3 430.34,-127.65 430.34,-119.51"/>
<polygon fill="midnightblue" stroke="midnightblue" points="426.84,-146.43 430.34,-156.43 433.84,-146.43 426.84,-146.43"/>
</g>
<!-- Node8&#45;&gt;Node2 -->
<g id="edge9" class="edge">
<title>Node8&#45;&gt;Node2</title>
<path fill="none" stroke="midnightblue" d="M198.65,-70.63C190.66,-60.99 181.85,-50.36 174.51,-41.51"/>
<polygon fill="midnightblue" stroke="midnightblue" points="196.04,-72.96 205.11,-78.43 201.43,-68.5 196.04,-72.96"/>
</g>
<!-- Node9&#45;&gt;Node2 -->
<g id="edge11" class="edge">
<title>Node9&#45;&gt;Node2</title>
<path fill="none" stroke="midnightblue" d="M350.59,-75.72C311.78,-64.87 265.55,-51.96 228.15,-41.51"/>
<polygon fill="midnightblue" stroke="midnightblue" points="349.72,-79.11 360.29,-78.43 351.6,-72.37 349.72,-79.11"/>
</g>
</g>
</svg>
