<?xml version="1.0" encoding="UTF-8" standalone="no"?>
<!DOCTYPE svg PUBLIC "-//W3C//DTD SVG 1.1//EN"
 "http://www.w3.org/Graphics/SVG/1.1/DTD/svg11.dtd">
<!-- Generated by graphviz version 2.50.0 (20211204.2007)
 -->
<!-- Title: C:/Users/themo/OneDrive/Documents/GitHub/interpreter/src/parser/include/VariableStatement.h Pages: 1 -->
<svg width="233pt" height="218pt"
 viewBox="0.00 0.00 233.00 218.00" xmlns="http://www.w3.org/2000/svg" xmlns:xlink="http://www.w3.org/1999/xlink">
<g id="graph0" class="graph" transform="scale(1 1) rotate(0) translate(4 214)">
<title>C:/Users/themo/OneDrive/Documents/GitHub/interpreter/src/parser/include/VariableStatement.h</title>
<!-- Node1 -->
<g id="node1" class="node">
<title>Node1</title>
<g id="a_node1"><a xlink:title=" ">
<polygon fill="#bfbfbf" stroke="black" points="37,-168.5 37,-209.5 225,-209.5 225,-168.5 37,-168.5"/>
<text text-anchor="start" x="45" y="-197.5" font-family="Helvetica,sans-Serif" font-size="10.00">C:/Users/themo/OneDrive</text>
<text text-anchor="start" x="45" y="-186.5" font-family="Helvetica,sans-Serif" font-size="10.00">/Documents/GitHub/interpreter</text>
<text text-anchor="middle" x="131" y="-175.5" font-family="Helvetica,sans-Serif" font-size="10.00">/src/parser/include/VariableStatement.h</text>
</a>
</g>
</g>
<!-- Node2 -->
<g id="node2" class="node">
<title>Node2</title>
<g id="a_node2"><a xlink:href="_statement_interface_8h.html" target="_top" xlink:title=" ">
<polygon fill="none" stroke="black" points="0,-112.5 0,-131.5 146,-131.5 146,-112.5 0,-112.5"/>
<text text-anchor="middle" x="73" y="-119.5" font-family="Helvetica,sans-Serif" font-size="10.00">Interface/StatementInterface.h</text>
</a>
</g>
</g>
<!-- Node1&#45;&gt;Node2 -->
<g id="edge1" class="edge">
<title>Node1&#45;&gt;Node2</title>
<path fill="none" stroke="midnightblue" d="M113.6,-168.5C105.3,-159.2 95.49,-148.21 87.6,-139.36"/>
<polygon fill="midnightblue" stroke="midnightblue" points="89.99,-136.78 80.72,-131.65 84.77,-141.44 89.99,-136.78"/>
</g>
<!-- Node6 -->
<g id="node6" class="node">
<title>Node6</title>
<g id="a_node6"><a xlink:href="_token_8h.html" target="_top" xlink:title=" ">
<polygon fill="none" stroke="black" points="164.5,-112.5 164.5,-131.5 215.5,-131.5 215.5,-112.5 164.5,-112.5"/>
<text text-anchor="middle" x="190" y="-119.5" font-family="Helvetica,sans-Serif" font-size="10.00">Token.h</text>
</a>
</g>
</g>
<!-- Node1&#45;&gt;Node6 -->
<g id="edge5" class="edge">
<title>Node1&#45;&gt;Node6</title>
<path fill="none" stroke="midnightblue" d="M148.7,-168.5C157.23,-159.11 167.32,-147.98 175.4,-139.08"/>
<polygon fill="midnightblue" stroke="midnightblue" points="178.02,-141.41 182.15,-131.65 172.83,-136.7 178.02,-141.41"/>
</g>
<!-- Node3 -->
<g id="node3" class="node">
<title>Node3</title>
<g id="a_node3"><a xlink:href="_context_8h.html" target="_top" xlink:title=" ">
<polygon fill="none" stroke="black" points="45.5,-56.5 45.5,-75.5 104.5,-75.5 104.5,-56.5 45.5,-56.5"/>
<text text-anchor="middle" x="75" y="-63.5" font-family="Helvetica,sans-Serif" font-size="10.00">Context.h</text>
</a>
</g>
</g>
<!-- Node2&#45;&gt;Node3 -->
<g id="edge2" class="edge">
<title>Node2&#45;&gt;Node3</title>
<path fill="none" stroke="midnightblue" d="M73.33,-112.08C73.59,-105.01 73.97,-94.86 74.3,-85.99"/>
<polygon fill="midnightblue" stroke="midnightblue" points="77.8,-85.87 74.68,-75.75 70.81,-85.61 77.8,-85.87"/>
</g>
<!-- Node4 -->
<g id="node4" class="node">
<title>Node4</title>
<g id="a_node4"><a xlink:title=" ">
<polygon fill="none" stroke="#bfbfbf" points="54.5,-0.5 54.5,-19.5 95.5,-19.5 95.5,-0.5 54.5,-0.5"/>
<text text-anchor="middle" x="75" y="-7.5" font-family="Helvetica,sans-Serif" font-size="10.00">stack</text>
</a>
</g>
</g>
<!-- Node3&#45;&gt;Node4 -->
<g id="edge3" class="edge">
<title>Node3&#45;&gt;Node4</title>
<path fill="none" stroke="midnightblue" d="M75,-56.08C75,-49.01 75,-38.86 75,-29.99"/>
<polygon fill="midnightblue" stroke="midnightblue" points="78.5,-29.75 75,-19.75 71.5,-29.75 78.5,-29.75"/>
</g>
<!-- Node5 -->
<g id="node5" class="node">
<title>Node5</title>
<g id="a_node5"><a xlink:title=" ">
<polygon fill="none" stroke="#bfbfbf" points="120.5,-0.5 120.5,-19.5 161.5,-19.5 161.5,-0.5 120.5,-0.5"/>
<text text-anchor="middle" x="141" y="-7.5" font-family="Helvetica,sans-Serif" font-size="10.00">string</text>
</a>
</g>
</g>
<!-- Node3&#45;&gt;Node5 -->
<g id="edge4" class="edge">
<title>Node3&#45;&gt;Node5</title>
<path fill="none" stroke="midnightblue" d="M85.6,-56.32C95.46,-48.26 110.35,-36.08 122.22,-26.37"/>
<polygon fill="midnightblue" stroke="midnightblue" points="124.68,-28.88 130.2,-19.83 120.25,-23.46 124.68,-28.88"/>
</g>
<!-- Node6&#45;&gt;Node5 -->
<g id="edge6" class="edge">
<title>Node6&#45;&gt;Node5</title>
<path fill="none" stroke="midnightblue" d="M185.35,-112.49C180.53,-103.52 172.88,-88.94 167,-76 159.93,-60.44 152.78,-42.36 147.77,-29.23"/>
<polygon fill="midnightblue" stroke="midnightblue" points="150.92,-27.64 144.12,-19.52 144.37,-30.11 150.92,-27.64"/>
</g>
<!-- Node7 -->
<g id="node7" class="node">
<title>Node7</title>
<g id="a_node7"><a xlink:title=" ">
<polygon fill="none" stroke="#bfbfbf" points="175.5,-56.5 175.5,-75.5 204.5,-75.5 204.5,-56.5 175.5,-56.5"/>
<text text-anchor="middle" x="190" y="-63.5" font-family="Helvetica,sans-Serif" font-size="10.00">list</text>
</a>
</g>
</g>
<!-- Node6&#45;&gt;Node7 -->
<g id="edge7" class="edge">
<title>Node6&#45;&gt;Node7</title>
<path fill="none" stroke="midnightblue" d="M190,-112.08C190,-105.01 190,-94.86 190,-85.99"/>
<polygon fill="midnightblue" stroke="midnightblue" points="193.5,-85.75 190,-75.75 186.5,-85.75 193.5,-85.75"/>
</g>
</g>
</svg>
