<?xml version="1.0" encoding="UTF-8" standalone="no"?>
<!DOCTYPE svg PUBLIC "-//W3C//DTD SVG 1.1//EN"
 "http://www.w3.org/Graphics/SVG/1.1/DTD/svg11.dtd">
<!-- Generated by graphviz version 2.50.0 (20211204.2007)
 -->
<!-- Title: Token Pages: 1 -->
<svg width="225pt" height="171pt"
 viewBox="0.00 0.00 225.00 171.00" xmlns="http://www.w3.org/2000/svg" xmlns:xlink="http://www.w3.org/1999/xlink">
<g id="graph0" class="graph" transform="scale(1 1) rotate(0) translate(4 167)">
<title>Token</title>
<!-- Node1 -->
<g id="node1" class="node">
<title>Node1</title>
<g id="a_node1"><a xlink:title=" ">
<polygon fill="#bfbfbf" stroke="black" points="72,-0.5 72,-57.5 115,-57.5 115,-0.5 72,-0.5"/>
<text text-anchor="middle" x="93.5" y="-45.5" font-family="Helvetica,sans-Serif" font-size="10.00">Token</text>
<polyline fill="none" stroke="black" points="72,-38.5 115,-38.5 "/>
<text text-anchor="middle" x="93.5" y="-26.5" font-family="Helvetica,sans-Serif" font-size="10.00"> </text>
<polyline fill="none" stroke="black" points="72,-19.5 115,-19.5 "/>
<text text-anchor="middle" x="93.5" y="-7.5" font-family="Helvetica,sans-Serif" font-size="10.00"> </text>
</a>
</g>
</g>
<!-- Node2 -->
<g id="node2" class="node">
<title>Node2</title>
<g id="a_node2"><a xlink:title=" ">
<polygon fill="none" stroke="#bfbfbf" points="0,-105.5 0,-162.5 29,-162.5 29,-105.5 0,-105.5"/>
<text text-anchor="middle" x="14.5" y="-150.5" font-family="Helvetica,sans-Serif" font-size="10.00">int</text>
<polyline fill="none" stroke="#bfbfbf" points="0,-143.5 29,-143.5 "/>
<text text-anchor="middle" x="14.5" y="-131.5" font-family="Helvetica,sans-Serif" font-size="10.00"> </text>
<polyline fill="none" stroke="#bfbfbf" points="0,-124.5 29,-124.5 "/>
<text text-anchor="middle" x="14.5" y="-112.5" font-family="Helvetica,sans-Serif" font-size="10.00"> </text>
</a>
</g>
</g>
<!-- Node2&#45;&gt;Node1 -->
<g id="edge1" class="edge">
<title>Node2&#45;&gt;Node1</title>
<path fill="none" stroke="#404040" d="M20.73,-105.37C23.82,-95.5 28.26,-84.69 34.5,-76 41.81,-65.82 51.99,-56.78 61.84,-49.47"/>
<polygon fill="none" stroke="#404040" points="62.01,-49.35 64.64,-42.64 71.85,-42.5 69.21,-49.21 62.01,-49.35"/>
<text text-anchor="middle" x="48.5" y="-79" font-family="Helvetica,sans-Serif" font-size="10.00"> +type</text>
</g>
<!-- Node3 -->
<g id="node3" class="node">
<title>Node3</title>
<g id="a_node3"><a xlink:title=" ">
<polygon fill="none" stroke="#bfbfbf" points="47,-105.5 47,-162.5 88,-162.5 88,-105.5 47,-105.5"/>
<text text-anchor="middle" x="67.5" y="-150.5" font-family="Helvetica,sans-Serif" font-size="10.00">string</text>
<polyline fill="none" stroke="#bfbfbf" points="47,-143.5 88,-143.5 "/>
<text text-anchor="middle" x="67.5" y="-131.5" font-family="Helvetica,sans-Serif" font-size="10.00"> </text>
<polyline fill="none" stroke="#bfbfbf" points="47,-124.5 88,-124.5 "/>
<text text-anchor="middle" x="67.5" y="-112.5" font-family="Helvetica,sans-Serif" font-size="10.00"> </text>
</a>
</g>
</g>
<!-- Node3&#45;&gt;Node1 -->
<g id="edge2" class="edge">
<title>Node3&#45;&gt;Node1</title>
<path fill="none" stroke="#404040" d="M66.02,-105.39C66.15,-95.93 67.02,-85.38 69.5,-76 70.1,-73.71 70.84,-71.41 71.66,-69.12"/>
<polygon fill="none" stroke="#404040" points="71.74,-68.94 70.42,-61.86 76.45,-57.91 77.77,-65 71.74,-68.94"/>
<text text-anchor="middle" x="84.5" y="-79" font-family="Helvetica,sans-Serif" font-size="10.00"> +word</text>
</g>
<!-- Node4 -->
<g id="node4" class="node">
<title>Node4</title>
<g id="a_node4"><a xlink:title=" ">
<polygon fill="none" stroke="#bfbfbf" points="106,-105.5 106,-162.5 141,-162.5 141,-105.5 106,-105.5"/>
<text text-anchor="middle" x="123.5" y="-150.5" font-family="Helvetica,sans-Serif" font-size="10.00">char</text>
<polyline fill="none" stroke="#bfbfbf" points="106,-143.5 141,-143.5 "/>
<text text-anchor="middle" x="123.5" y="-131.5" font-family="Helvetica,sans-Serif" font-size="10.00"> </text>
<polyline fill="none" stroke="#bfbfbf" points="106,-124.5 141,-124.5 "/>
<text text-anchor="middle" x="123.5" y="-112.5" font-family="Helvetica,sans-Serif" font-size="10.00"> </text>
</a>
</g>
</g>
<!-- Node4&#45;&gt;Node1 -->
<g id="edge3" class="edge">
<title>Node4&#45;&gt;Node1</title>
<path fill="none" stroke="#404040" d="M115.46,-105.4C112.23,-94.31 108.45,-81.33 104.95,-69.3"/>
<polygon fill="none" stroke="#404040" points="104.92,-69.2 99.4,-64.56 101.56,-57.68 107.08,-62.32 104.92,-69.2"/>
<text text-anchor="middle" x="133.5" y="-79" font-family="Helvetica,sans-Serif" font-size="10.00"> +character</text>
</g>
<!-- Node5 -->
<g id="node5" class="node">
<title>Node5</title>
<g id="a_node5"><a xlink:title=" ">
<polygon fill="none" stroke="#bfbfbf" points="172,-105.5 172,-162.5 217,-162.5 217,-105.5 172,-105.5"/>
<text text-anchor="middle" x="194.5" y="-150.5" font-family="Helvetica,sans-Serif" font-size="10.00">double</text>
<polyline fill="none" stroke="#bfbfbf" points="172,-143.5 217,-143.5 "/>
<text text-anchor="middle" x="194.5" y="-131.5" font-family="Helvetica,sans-Serif" font-size="10.00"> </text>
<polyline fill="none" stroke="#bfbfbf" points="172,-124.5 217,-124.5 "/>
<text text-anchor="middle" x="194.5" y="-112.5" font-family="Helvetica,sans-Serif" font-size="10.00"> </text>
</a>
</g>
</g>
<!-- Node5&#45;&gt;Node1 -->
<g id="edge4" class="edge">
<title>Node5&#45;&gt;Node1</title>
<path fill="none" stroke="#404040" d="M182.38,-105.45C177.18,-95.48 170.44,-84.58 162.5,-76 151.98,-64.65 138.13,-54.71 125.6,-47.01"/>
<polygon fill="none" stroke="#404040" points="125.4,-46.9 118.2,-47.32 115.04,-40.84 122.24,-40.42 125.4,-46.9"/>
<text text-anchor="middle" x="190.5" y="-79" font-family="Helvetica,sans-Serif" font-size="10.00"> +number</text>
</g>
</g>
</svg>
