<?xml version="1.0" encoding="UTF-8" standalone="no"?>
<!DOCTYPE svg PUBLIC "-//W3C//DTD SVG 1.1//EN"
 "http://www.w3.org/Graphics/SVG/1.1/DTD/svg11.dtd">
<!-- Generated by graphviz version 2.50.0 (20211204.2007)
 -->
<!-- Title: VariableStatement Pages: 1 -->
<svg width="127pt" height="276pt"
 viewBox="0.00 0.00 127.00 276.00" xmlns="http://www.w3.org/2000/svg" xmlns:xlink="http://www.w3.org/1999/xlink">
<g id="graph0" class="graph" transform="scale(1 1) rotate(0) translate(4 272)">
<title>VariableStatement</title>
<!-- Node1 -->
<g id="node1" class="node">
<title>Node1</title>
<g id="a_node1"><a xlink:title=" ">
<polygon fill="#bfbfbf" stroke="black" points="3.5,-0.5 3.5,-68.5 115.5,-68.5 115.5,-0.5 3.5,-0.5"/>
<text text-anchor="middle" x="59.5" y="-56.5" font-family="Helvetica,sans-Serif" font-size="10.00">VariableStatement</text>
<polyline fill="none" stroke="black" points="3.5,-49.5 115.5,-49.5 "/>
<text text-anchor="middle" x="59.5" y="-37.5" font-family="Helvetica,sans-Serif" font-size="10.00"> </text>
<polyline fill="none" stroke="black" points="3.5,-30.5 115.5,-30.5 "/>
<text text-anchor="start" x="11.5" y="-18.5" font-family="Helvetica,sans-Serif" font-size="10.00">+ VariableStatement()</text>
<text text-anchor="start" x="11.5" y="-7.5" font-family="Helvetica,sans-Serif" font-size="10.00">+ Interpret()</text>
</a>
</g>
</g>
<!-- Node2 -->
<g id="node2" class="node">
<title>Node2</title>
<g id="a_node2"><a xlink:href="class_abstract_statement.html" target="_top" xlink:title=" ">
<polygon fill="none" stroke="black" points="10.5,-105.5 10.5,-162.5 108.5,-162.5 108.5,-105.5 10.5,-105.5"/>
<text text-anchor="middle" x="59.5" y="-150.5" font-family="Helvetica,sans-Serif" font-size="10.00">AbstractStatement</text>
<polyline fill="none" stroke="black" points="10.5,-143.5 108.5,-143.5 "/>
<text text-anchor="middle" x="59.5" y="-131.5" font-family="Helvetica,sans-Serif" font-size="10.00"> </text>
<polyline fill="none" stroke="black" points="10.5,-124.5 108.5,-124.5 "/>
<text text-anchor="start" x="18.5" y="-112.5" font-family="Helvetica,sans-Serif" font-size="10.00"># Expect()</text>
</a>
</g>
</g>
<!-- Node2&#45;&gt;Node1 -->
<g id="edge1" class="edge">
<title>Node2&#45;&gt;Node1</title>
<path fill="none" stroke="midnightblue" d="M59.5,-95.06C59.5,-86.39 59.5,-77.24 59.5,-68.79"/>
<polygon fill="none" stroke="midnightblue" points="56,-95.32 59.5,-105.32 63,-95.32 56,-95.32"/>
</g>
<!-- Node3 -->
<g id="node3" class="node">
<title>Node3</title>
<g id="a_node3"><a xlink:href="class_statement_interface.html" target="_top" xlink:title=" ">
<polygon fill="none" stroke="black" points="0,-199.5 0,-267.5 119,-267.5 119,-199.5 0,-199.5"/>
<text text-anchor="middle" x="59.5" y="-255.5" font-family="Helvetica,sans-Serif" font-size="10.00">StatementInterface</text>
<polyline fill="none" stroke="black" points="0,-248.5 119,-248.5 "/>
<text text-anchor="middle" x="59.5" y="-236.5" font-family="Helvetica,sans-Serif" font-size="10.00"> </text>
<polyline fill="none" stroke="black" points="0,-229.5 119,-229.5 "/>
<text text-anchor="start" x="8" y="-217.5" font-family="Helvetica,sans-Serif" font-size="10.00">+ ~StatementInterface()</text>
<text text-anchor="start" x="8" y="-206.5" font-family="Helvetica,sans-Serif" font-size="10.00">+ Interpret()</text>
</a>
</g>
</g>
<!-- Node3&#45;&gt;Node2 -->
<g id="edge2" class="edge">
<title>Node3&#45;&gt;Node2</title>
<path fill="none" stroke="midnightblue" d="M59.5,-189.45C59.5,-180.4 59.5,-171.09 59.5,-162.78"/>
<polygon fill="none" stroke="midnightblue" points="56,-189.49 59.5,-199.49 63,-189.49 56,-189.49"/>
</g>
</g>
</svg>
