<?xml version="1.0" encoding="UTF-8" standalone="no"?>
<!DOCTYPE svg PUBLIC "-//W3C//DTD SVG 1.1//EN"
 "http://www.w3.org/Graphics/SVG/1.1/DTD/svg11.dtd">
<!-- Generated by graphviz version 2.50.0 (20211204.2007)
 -->
<!-- Title: StringTokenizer Pages: 1 -->
<svg width="309pt" height="398pt"
 viewBox="0.00 0.00 309.00 398.00" xmlns="http://www.w3.org/2000/svg" xmlns:xlink="http://www.w3.org/1999/xlink">
<g id="graph0" class="graph" transform="scale(1 1) rotate(0) translate(4 394)">
<title>StringTokenizer</title>
<!-- Node1 -->
<g id="node1" class="node">
<title>Node1</title>
<g id="a_node1"><a xlink:title=" ">
<polygon fill="#bfbfbf" stroke="black" points="102.5,-0.5 102.5,-79.5 201.5,-79.5 201.5,-0.5 102.5,-0.5"/>
<text text-anchor="middle" x="152" y="-67.5" font-family="Helvetica,sans-Serif" font-size="10.00">StringTokenizer</text>
<polyline fill="none" stroke="black" points="102.5,-60.5 201.5,-60.5 "/>
<text text-anchor="middle" x="152" y="-48.5" font-family="Helvetica,sans-Serif" font-size="10.00"> </text>
<polyline fill="none" stroke="black" points="102.5,-41.5 201.5,-41.5 "/>
<text text-anchor="start" x="110.5" y="-29.5" font-family="Helvetica,sans-Serif" font-size="10.00">+ StringTokenizer()</text>
<text text-anchor="start" x="110.5" y="-18.5" font-family="Helvetica,sans-Serif" font-size="10.00">+ HasNext()</text>
<text text-anchor="start" x="110.5" y="-7.5" font-family="Helvetica,sans-Serif" font-size="10.00">+ GetNext()</text>
</a>
</g>
</g>
<!-- Node2 -->
<g id="node2" class="node">
<title>Node2</title>
<g id="a_node2"><a xlink:href="class_abstract_tokenizer.html" target="_top" xlink:title=" ">
<polygon fill="none" stroke="black" points="94,-117.5 94,-262.5 210,-262.5 210,-117.5 94,-117.5"/>
<text text-anchor="middle" x="152" y="-250.5" font-family="Helvetica,sans-Serif" font-size="10.00">AbstractTokenizer</text>
<polyline fill="none" stroke="black" points="94,-243.5 210,-243.5 "/>
<text text-anchor="middle" x="152" y="-231.5" font-family="Helvetica,sans-Serif" font-size="10.00"> </text>
<polyline fill="none" stroke="black" points="94,-224.5 210,-224.5 "/>
<text text-anchor="start" x="102" y="-212.5" font-family="Helvetica,sans-Serif" font-size="10.00">+ AbstractTokenizer()</text>
<text text-anchor="start" x="102" y="-201.5" font-family="Helvetica,sans-Serif" font-size="10.00">+ ~AbstractTokenizer()</text>
<text text-anchor="start" x="102" y="-190.5" font-family="Helvetica,sans-Serif" font-size="10.00">+ HasNext()</text>
<text text-anchor="start" x="102" y="-179.5" font-family="Helvetica,sans-Serif" font-size="10.00">+ GetNext()</text>
<text text-anchor="start" x="102" y="-168.5" font-family="Helvetica,sans-Serif" font-size="10.00">+ Keywords()</text>
<text text-anchor="start" x="102" y="-157.5" font-family="Helvetica,sans-Serif" font-size="10.00"># IsKeyword()</text>
<text text-anchor="start" x="102" y="-146.5" font-family="Helvetica,sans-Serif" font-size="10.00"># IsDelim()</text>
<text text-anchor="start" x="102" y="-135.5" font-family="Helvetica,sans-Serif" font-size="10.00"># IsWord()</text>
<text text-anchor="start" x="102" y="-124.5" font-family="Helvetica,sans-Serif" font-size="10.00"># IsNumber()</text>
</a>
</g>
</g>
<!-- Node2&#45;&gt;Node1 -->
<g id="edge1" class="edge">
<title>Node2&#45;&gt;Node1</title>
<path fill="none" stroke="midnightblue" d="M152,-107.15C152,-97.58 152,-88.18 152,-79.61"/>
<polygon fill="none" stroke="midnightblue" points="148.5,-107.17 152,-117.17 155.5,-107.17 148.5,-107.17"/>
</g>
<!-- Node3 -->
<g id="node3" class="node">
<title>Node3</title>
<g id="a_node3"><a xlink:href="class_tokenizer_interface.html" target="_top" xlink:title=" ">
<polygon fill="none" stroke="black" points="0,-310.5 0,-389.5 116,-389.5 116,-310.5 0,-310.5"/>
<text text-anchor="middle" x="58" y="-377.5" font-family="Helvetica,sans-Serif" font-size="10.00">TokenizerInterface</text>
<polyline fill="none" stroke="black" points="0,-370.5 116,-370.5 "/>
<text text-anchor="middle" x="58" y="-358.5" font-family="Helvetica,sans-Serif" font-size="10.00"> </text>
<polyline fill="none" stroke="black" points="0,-351.5 116,-351.5 "/>
<text text-anchor="start" x="8" y="-339.5" font-family="Helvetica,sans-Serif" font-size="10.00">+ ~TokenizerInterface()</text>
<text text-anchor="start" x="8" y="-328.5" font-family="Helvetica,sans-Serif" font-size="10.00">+ HasNext()</text>
<text text-anchor="start" x="8" y="-317.5" font-family="Helvetica,sans-Serif" font-size="10.00">+ GetNext()</text>
</a>
</g>
</g>
<!-- Node3&#45;&gt;Node2 -->
<g id="edge2" class="edge">
<title>Node3&#45;&gt;Node2</title>
<path fill="none" stroke="midnightblue" d="M86.18,-301.63C93.5,-289.33 101.54,-275.81 109.42,-262.57"/>
<polygon fill="none" stroke="midnightblue" points="83.1,-299.97 80.99,-310.35 89.12,-303.54 83.1,-299.97"/>
</g>
<!-- Node4 -->
<g id="node4" class="node">
<title>Node4</title>
<g id="a_node4"><a xlink:title=" ">
<polygon fill="none" stroke="#bfbfbf" points="134.5,-321.5 134.5,-378.5 169.5,-378.5 169.5,-321.5 134.5,-321.5"/>
<text text-anchor="middle" x="152" y="-366.5" font-family="Helvetica,sans-Serif" font-size="10.00">char</text>
<polyline fill="none" stroke="#bfbfbf" points="134.5,-359.5 169.5,-359.5 "/>
<text text-anchor="middle" x="152" y="-347.5" font-family="Helvetica,sans-Serif" font-size="10.00"> </text>
<polyline fill="none" stroke="#bfbfbf" points="134.5,-340.5 169.5,-340.5 "/>
<text text-anchor="middle" x="152" y="-328.5" font-family="Helvetica,sans-Serif" font-size="10.00"> </text>
</a>
</g>
</g>
<!-- Node4&#45;&gt;Node2 -->
<g id="edge3" class="edge">
<title>Node4&#45;&gt;Node2</title>
<path fill="none" stroke="#404040" d="M152,-321.48C152,-308.32 152,-291.78 152,-274.94"/>
<polygon fill="none" stroke="#404040" points="152,-274.67 148,-268.67 152,-262.67 156,-268.67 152,-274.67"/>
<text text-anchor="middle" x="191.5" y="-284" font-family="Helvetica,sans-Serif" font-size="10.00"> #m_cCurrentChar</text>
</g>
<!-- Node5 -->
<g id="node5" class="node">
<title>Node5</title>
<g id="a_node5"><a xlink:title=" ">
<polygon fill="none" stroke="#bfbfbf" points="236.5,-321.5 236.5,-378.5 271.5,-378.5 271.5,-321.5 236.5,-321.5"/>
<text text-anchor="middle" x="254" y="-366.5" font-family="Helvetica,sans-Serif" font-size="10.00">list&lt;</text>
<polyline fill="none" stroke="#bfbfbf" points="236.5,-359.5 271.5,-359.5 "/>
<text text-anchor="middle" x="254" y="-347.5" font-family="Helvetica,sans-Serif" font-size="10.00"> </text>
<polyline fill="none" stroke="#bfbfbf" points="236.5,-340.5 271.5,-340.5 "/>
<text text-anchor="middle" x="254" y="-328.5" font-family="Helvetica,sans-Serif" font-size="10.00"> </text>
</a>
</g>
</g>
<!-- Node5&#45;&gt;Node2 -->
<g id="edge4" class="edge">
<title>Node5&#45;&gt;Node2</title>
<path fill="none" stroke="#404040" d="M247.87,-321.44C244.34,-308.63 239.15,-293.49 232,-281 227.75,-273.58 222.82,-266.23 217.53,-259.12"/>
<polygon fill="none" stroke="#404040" points="217.49,-259.07 210.65,-256.78 210.12,-249.59 216.96,-251.88 217.49,-259.07"/>
<text text-anchor="middle" x="269" y="-284" font-family="Helvetica,sans-Serif" font-size="10.00"> #m_keywords</text>
</g>
</g>
</svg>
