<?xml version="1.0" encoding="UTF-8" standalone="no"?>
<!DOCTYPE svg PUBLIC "-//W3C//DTD SVG 1.1//EN"
 "http://www.w3.org/Graphics/SVG/1.1/DTD/svg11.dtd">
<!-- Generated by graphviz version 2.50.0 (20211204.2007)
 -->
<!-- Title: IdentifierExpression Pages: 1 -->
<svg width="131pt" height="419pt"
 viewBox="0.00 0.00 131.00 419.00" xmlns="http://www.w3.org/2000/svg" xmlns:xlink="http://www.w3.org/1999/xlink">
<g id="graph0" class="graph" transform="scale(1 1) rotate(0) translate(4 415)">
<title>IdentifierExpression</title>
<!-- Node1 -->
<g id="node1" class="node">
<title>Node1</title>
<g id="a_node1"><a xlink:title=" ">
<polygon fill="#bfbfbf" stroke="black" points="3.5,-0.5 3.5,-68.5 119.5,-68.5 119.5,-0.5 3.5,-0.5"/>
<text text-anchor="middle" x="61.5" y="-56.5" font-family="Helvetica,sans-Serif" font-size="10.00">IdentifierExpression</text>
<polyline fill="none" stroke="black" points="3.5,-49.5 119.5,-49.5 "/>
<text text-anchor="middle" x="61.5" y="-37.5" font-family="Helvetica,sans-Serif" font-size="10.00"> </text>
<polyline fill="none" stroke="black" points="3.5,-30.5 119.5,-30.5 "/>
<text text-anchor="start" x="11.5" y="-18.5" font-family="Helvetica,sans-Serif" font-size="10.00">+ IdentifierExpression()</text>
<text text-anchor="start" x="11.5" y="-7.5" font-family="Helvetica,sans-Serif" font-size="10.00">+ Interpret()</text>
</a>
</g>
</g>
<!-- Node2 -->
<g id="node2" class="node">
<title>Node2</title>
<g id="a_node2"><a xlink:href="class_abstract_expression.html" target="_top" xlink:title=" ">
<polygon fill="none" stroke="black" points="3,-105.5 3,-250.5 120,-250.5 120,-105.5 3,-105.5"/>
<text text-anchor="middle" x="61.5" y="-238.5" font-family="Helvetica,sans-Serif" font-size="10.00">AbstractExpression</text>
<polyline fill="none" stroke="black" points="3,-231.5 120,-231.5 "/>
<text text-anchor="start" x="11" y="-219.5" font-family="Helvetica,sans-Serif" font-size="10.00"># m_iType</text>
<text text-anchor="start" x="11" y="-208.5" font-family="Helvetica,sans-Serif" font-size="10.00"># m_wsIdentifier</text>
<text text-anchor="start" x="11" y="-197.5" font-family="Helvetica,sans-Serif" font-size="10.00"># m_bBoolean</text>
<text text-anchor="start" x="11" y="-186.5" font-family="Helvetica,sans-Serif" font-size="10.00"># m_lNumber</text>
<polyline fill="none" stroke="black" points="3,-179.5 120,-179.5 "/>
<text text-anchor="start" x="11" y="-167.5" font-family="Helvetica,sans-Serif" font-size="10.00">+ AbstractExpression()</text>
<text text-anchor="start" x="11" y="-156.5" font-family="Helvetica,sans-Serif" font-size="10.00">+ SetType()</text>
<text text-anchor="start" x="11" y="-145.5" font-family="Helvetica,sans-Serif" font-size="10.00">+ GetType()</text>
<text text-anchor="start" x="11" y="-134.5" font-family="Helvetica,sans-Serif" font-size="10.00">+ GetIdentifier()</text>
<text text-anchor="start" x="11" y="-123.5" font-family="Helvetica,sans-Serif" font-size="10.00">+ GetBoolean()</text>
<text text-anchor="start" x="11" y="-112.5" font-family="Helvetica,sans-Serif" font-size="10.00">+ GetNumber()</text>
</a>
</g>
</g>
<!-- Node2&#45;&gt;Node1 -->
<g id="edge1" class="edge">
<title>Node2&#45;&gt;Node1</title>
<path fill="none" stroke="midnightblue" d="M61.5,-95.19C61.5,-85.83 61.5,-76.73 61.5,-68.58"/>
<polygon fill="none" stroke="midnightblue" points="58,-95.42 61.5,-105.42 65,-95.42 58,-95.42"/>
</g>
<!-- Node3 -->
<g id="node3" class="node">
<title>Node3</title>
<g id="a_node3"><a xlink:href="class_expression_interface.html" target="_top" xlink:title=" ">
<polygon fill="none" stroke="black" points="0,-287.5 0,-410.5 123,-410.5 123,-287.5 0,-287.5"/>
<text text-anchor="middle" x="61.5" y="-398.5" font-family="Helvetica,sans-Serif" font-size="10.00">ExpressionInterface</text>
<polyline fill="none" stroke="black" points="0,-391.5 123,-391.5 "/>
<text text-anchor="middle" x="61.5" y="-379.5" font-family="Helvetica,sans-Serif" font-size="10.00"> </text>
<polyline fill="none" stroke="black" points="0,-372.5 123,-372.5 "/>
<text text-anchor="start" x="8" y="-360.5" font-family="Helvetica,sans-Serif" font-size="10.00">+ ~ExpressionInterface()</text>
<text text-anchor="start" x="8" y="-349.5" font-family="Helvetica,sans-Serif" font-size="10.00">+ Interpret()</text>
<text text-anchor="start" x="8" y="-338.5" font-family="Helvetica,sans-Serif" font-size="10.00">+ SetType()</text>
<text text-anchor="start" x="8" y="-327.5" font-family="Helvetica,sans-Serif" font-size="10.00">+ GetType()</text>
<text text-anchor="start" x="8" y="-316.5" font-family="Helvetica,sans-Serif" font-size="10.00">+ GetIdentifier()</text>
<text text-anchor="start" x="8" y="-305.5" font-family="Helvetica,sans-Serif" font-size="10.00">+ GetBoolean()</text>
<text text-anchor="start" x="8" y="-294.5" font-family="Helvetica,sans-Serif" font-size="10.00">+ GetNumber()</text>
</a>
</g>
</g>
<!-- Node3&#45;&gt;Node2 -->
<g id="edge2" class="edge">
<title>Node3&#45;&gt;Node2</title>
<path fill="none" stroke="midnightblue" d="M61.5,-277.25C61.5,-268.46 61.5,-259.45 61.5,-250.64"/>
<polygon fill="none" stroke="midnightblue" points="58,-277.46 61.5,-287.46 65,-277.46 58,-277.46"/>
</g>
</g>
</svg>
