<?xml version="1.0" encoding="UTF-8" standalone="no"?>
<!DOCTYPE svg PUBLIC "-//W3C//DTD SVG 1.1//EN"
 "http://www.w3.org/Graphics/SVG/1.1/DTD/svg11.dtd">
<!-- Generated by graphviz version 2.50.0 (20211204.2007)
 -->
<!-- Title: MultiplicationExpression Pages: 1 -->
<svg width="145pt" height="557pt"
 viewBox="0.00 0.00 145.00 557.00" xmlns="http://www.w3.org/2000/svg" xmlns:xlink="http://www.w3.org/1999/xlink">
<g id="graph0" class="graph" transform="scale(1 1) rotate(0) translate(4 553)">
<title>MultiplicationExpression</title>
<!-- Node1 -->
<g id="node1" class="node">
<title>Node1</title>
<g id="a_node1"><a xlink:title=" ">
<polygon fill="#bfbfbf" stroke="black" points="0,-0.5 0,-68.5 137,-68.5 137,-0.5 0,-0.5"/>
<text text-anchor="middle" x="68.5" y="-56.5" font-family="Helvetica,sans-Serif" font-size="10.00">MultiplicationExpression</text>
<polyline fill="none" stroke="black" points="0,-49.5 137,-49.5 "/>
<text text-anchor="middle" x="68.5" y="-37.5" font-family="Helvetica,sans-Serif" font-size="10.00"> </text>
<polyline fill="none" stroke="black" points="0,-30.5 137,-30.5 "/>
<text text-anchor="start" x="8" y="-18.5" font-family="Helvetica,sans-Serif" font-size="10.00">+ MultiplicationExpression()</text>
<text text-anchor="start" x="8" y="-7.5" font-family="Helvetica,sans-Serif" font-size="10.00">+ DoInterpret()</text>
</a>
</g>
</g>
<!-- Node2 -->
<g id="node2" class="node">
<title>Node2</title>
<g id="a_node2"><a xlink:href="class_operator_expression.html" target="_top" xlink:title=" ">
<polygon fill="none" stroke="black" points="6.5,-105.5 6.5,-206.5 130.5,-206.5 130.5,-105.5 6.5,-105.5"/>
<text text-anchor="middle" x="68.5" y="-194.5" font-family="Helvetica,sans-Serif" font-size="10.00">OperatorExpression</text>
<polyline fill="none" stroke="black" points="6.5,-187.5 130.5,-187.5 "/>
<text text-anchor="start" x="14.5" y="-175.5" font-family="Helvetica,sans-Serif" font-size="10.00"># m_leftExpression</text>
<text text-anchor="start" x="14.5" y="-164.5" font-family="Helvetica,sans-Serif" font-size="10.00"># m_rightExpression</text>
<polyline fill="none" stroke="black" points="6.5,-157.5 130.5,-157.5 "/>
<text text-anchor="start" x="14.5" y="-145.5" font-family="Helvetica,sans-Serif" font-size="10.00">+ OperatorExpression()</text>
<text text-anchor="start" x="14.5" y="-134.5" font-family="Helvetica,sans-Serif" font-size="10.00">+ ~OperatorExpression()</text>
<text text-anchor="start" x="14.5" y="-123.5" font-family="Helvetica,sans-Serif" font-size="10.00">+ Interpret()</text>
<text text-anchor="start" x="14.5" y="-112.5" font-family="Helvetica,sans-Serif" font-size="10.00">+ DoInterpret()</text>
</a>
</g>
</g>
<!-- Node2&#45;&gt;Node1 -->
<g id="edge1" class="edge">
<title>Node2&#45;&gt;Node1</title>
<path fill="none" stroke="midnightblue" d="M68.5,-95.17C68.5,-86.11 68.5,-77.05 68.5,-68.83"/>
<polygon fill="none" stroke="midnightblue" points="65,-95.36 68.5,-105.36 72,-95.36 65,-95.36"/>
</g>
<!-- Node3 -->
<g id="node3" class="node">
<title>Node3</title>
<g id="a_node3"><a xlink:href="class_abstract_expression.html" target="_top" xlink:title=" ">
<polygon fill="none" stroke="black" points="10,-243.5 10,-388.5 127,-388.5 127,-243.5 10,-243.5"/>
<text text-anchor="middle" x="68.5" y="-376.5" font-family="Helvetica,sans-Serif" font-size="10.00">AbstractExpression</text>
<polyline fill="none" stroke="black" points="10,-369.5 127,-369.5 "/>
<text text-anchor="start" x="18" y="-357.5" font-family="Helvetica,sans-Serif" font-size="10.00"># m_iType</text>
<text text-anchor="start" x="18" y="-346.5" font-family="Helvetica,sans-Serif" font-size="10.00"># m_wsIdentifier</text>
<text text-anchor="start" x="18" y="-335.5" font-family="Helvetica,sans-Serif" font-size="10.00"># m_bBoolean</text>
<text text-anchor="start" x="18" y="-324.5" font-family="Helvetica,sans-Serif" font-size="10.00"># m_lNumber</text>
<polyline fill="none" stroke="black" points="10,-317.5 127,-317.5 "/>
<text text-anchor="start" x="18" y="-305.5" font-family="Helvetica,sans-Serif" font-size="10.00">+ AbstractExpression()</text>
<text text-anchor="start" x="18" y="-294.5" font-family="Helvetica,sans-Serif" font-size="10.00">+ SetType()</text>
<text text-anchor="start" x="18" y="-283.5" font-family="Helvetica,sans-Serif" font-size="10.00">+ GetType()</text>
<text text-anchor="start" x="18" y="-272.5" font-family="Helvetica,sans-Serif" font-size="10.00">+ GetIdentifier()</text>
<text text-anchor="start" x="18" y="-261.5" font-family="Helvetica,sans-Serif" font-size="10.00">+ GetBoolean()</text>
<text text-anchor="start" x="18" y="-250.5" font-family="Helvetica,sans-Serif" font-size="10.00">+ GetNumber()</text>
</a>
</g>
</g>
<!-- Node3&#45;&gt;Node2 -->
<g id="edge2" class="edge">
<title>Node3&#45;&gt;Node2</title>
<path fill="none" stroke="midnightblue" d="M68.5,-233.19C68.5,-224.14 68.5,-215.14 68.5,-206.67"/>
<polygon fill="none" stroke="midnightblue" points="65,-233.4 68.5,-243.4 72,-233.4 65,-233.4"/>
</g>
<!-- Node4 -->
<g id="node4" class="node">
<title>Node4</title>
<g id="a_node4"><a xlink:href="class_expression_interface.html" target="_top" xlink:title=" ">
<polygon fill="none" stroke="black" points="7,-425.5 7,-548.5 130,-548.5 130,-425.5 7,-425.5"/>
<text text-anchor="middle" x="68.5" y="-536.5" font-family="Helvetica,sans-Serif" font-size="10.00">ExpressionInterface</text>
<polyline fill="none" stroke="black" points="7,-529.5 130,-529.5 "/>
<text text-anchor="middle" x="68.5" y="-517.5" font-family="Helvetica,sans-Serif" font-size="10.00"> </text>
<polyline fill="none" stroke="black" points="7,-510.5 130,-510.5 "/>
<text text-anchor="start" x="15" y="-498.5" font-family="Helvetica,sans-Serif" font-size="10.00">+ ~ExpressionInterface()</text>
<text text-anchor="start" x="15" y="-487.5" font-family="Helvetica,sans-Serif" font-size="10.00">+ Interpret()</text>
<text text-anchor="start" x="15" y="-476.5" font-family="Helvetica,sans-Serif" font-size="10.00">+ SetType()</text>
<text text-anchor="start" x="15" y="-465.5" font-family="Helvetica,sans-Serif" font-size="10.00">+ GetType()</text>
<text text-anchor="start" x="15" y="-454.5" font-family="Helvetica,sans-Serif" font-size="10.00">+ GetIdentifier()</text>
<text text-anchor="start" x="15" y="-443.5" font-family="Helvetica,sans-Serif" font-size="10.00">+ GetBoolean()</text>
<text text-anchor="start" x="15" y="-432.5" font-family="Helvetica,sans-Serif" font-size="10.00">+ GetNumber()</text>
</a>
</g>
</g>
<!-- Node4&#45;&gt;Node3 -->
<g id="edge3" class="edge">
<title>Node4&#45;&gt;Node3</title>
<path fill="none" stroke="midnightblue" d="M68.5,-415.25C68.5,-406.46 68.5,-397.45 68.5,-388.64"/>
<polygon fill="none" stroke="midnightblue" points="65,-415.46 68.5,-425.46 72,-415.46 65,-415.46"/>
</g>
</g>
</svg>
