<?xml version="1.0" encoding="UTF-8" standalone="no"?>
<!DOCTYPE svg PUBLIC "-//W3C//DTD SVG 1.1//EN"
 "http://www.w3.org/Graphics/SVG/1.1/DTD/svg11.dtd">
<!-- Generated by graphviz version 2.50.0 (20211204.2007)
 -->
<!-- Title: AbstractTokenizer Pages: 1 -->
<svg width="230pt" height="342pt"
 viewBox="0.00 0.00 230.00 342.00" xmlns="http://www.w3.org/2000/svg" xmlns:xlink="http://www.w3.org/1999/xlink">
<g id="graph0" class="graph" transform="scale(1 1) rotate(0) translate(4 338)">
<title>AbstractTokenizer</title>
<!-- Node1 -->
<g id="node1" class="node">
<title>Node1</title>
<g id="a_node1"><a xlink:title=" ">
<polygon fill="#bfbfbf" stroke="black" points="54.5,-116.5 54.5,-217.5 170.5,-217.5 170.5,-116.5 54.5,-116.5"/>
<text text-anchor="middle" x="112.5" y="-205.5" font-family="Helvetica,sans-Serif" font-size="10.00">AbstractTokenizer</text>
<polyline fill="none" stroke="black" points="54.5,-198.5 170.5,-198.5 "/>
<text text-anchor="start" x="62.5" y="-186.5" font-family="Helvetica,sans-Serif" font-size="10.00"># m_cCurrentChar</text>
<polyline fill="none" stroke="black" points="54.5,-179.5 170.5,-179.5 "/>
<text text-anchor="start" x="62.5" y="-167.5" font-family="Helvetica,sans-Serif" font-size="10.00">+ AbstractTokenizer()</text>
<text text-anchor="start" x="62.5" y="-156.5" font-family="Helvetica,sans-Serif" font-size="10.00">+ ~AbstractTokenizer()</text>
<text text-anchor="start" x="62.5" y="-145.5" font-family="Helvetica,sans-Serif" font-size="10.00"># IsDelim()</text>
<text text-anchor="start" x="62.5" y="-134.5" font-family="Helvetica,sans-Serif" font-size="10.00"># IsWord()</text>
<text text-anchor="start" x="62.5" y="-123.5" font-family="Helvetica,sans-Serif" font-size="10.00"># IsNumber()</text>
</a>
</g>
</g>
<!-- Node3 -->
<g id="node3" class="node">
<title>Node3</title>
<g id="a_node3"><a xlink:href="class_stream_tokenizer.html" target="_top" xlink:title=" ">
<polygon fill="none" stroke="black" points="0,-0.5 0,-79.5 105,-79.5 105,-0.5 0,-0.5"/>
<text text-anchor="middle" x="52.5" y="-67.5" font-family="Helvetica,sans-Serif" font-size="10.00">StreamTokenizer</text>
<polyline fill="none" stroke="black" points="0,-60.5 105,-60.5 "/>
<text text-anchor="middle" x="52.5" y="-48.5" font-family="Helvetica,sans-Serif" font-size="10.00"> </text>
<polyline fill="none" stroke="black" points="0,-41.5 105,-41.5 "/>
<text text-anchor="start" x="8" y="-29.5" font-family="Helvetica,sans-Serif" font-size="10.00">+ StreamTokenizer()</text>
<text text-anchor="start" x="8" y="-18.5" font-family="Helvetica,sans-Serif" font-size="10.00">+ HasNext()</text>
<text text-anchor="start" x="8" y="-7.5" font-family="Helvetica,sans-Serif" font-size="10.00">+ GetNext()</text>
</a>
</g>
</g>
<!-- Node1&#45;&gt;Node3 -->
<g id="edge2" class="edge">
<title>Node1&#45;&gt;Node3</title>
<path fill="none" stroke="midnightblue" d="M84.21,-107.05C79.77,-97.8 75.28,-88.45 71.13,-79.81"/>
<polygon fill="none" stroke="midnightblue" points="81.13,-108.74 88.61,-116.24 87.44,-105.71 81.13,-108.74"/>
</g>
<!-- Node4 -->
<g id="node4" class="node">
<title>Node4</title>
<g id="a_node4"><a xlink:href="class_string_tokenizer.html" target="_top" xlink:title=" ">
<polygon fill="none" stroke="black" points="123,-0.5 123,-79.5 222,-79.5 222,-0.5 123,-0.5"/>
<text text-anchor="middle" x="172.5" y="-67.5" font-family="Helvetica,sans-Serif" font-size="10.00">StringTokenizer</text>
<polyline fill="none" stroke="black" points="123,-60.5 222,-60.5 "/>
<text text-anchor="middle" x="172.5" y="-48.5" font-family="Helvetica,sans-Serif" font-size="10.00"> </text>
<polyline fill="none" stroke="black" points="123,-41.5 222,-41.5 "/>
<text text-anchor="start" x="131" y="-29.5" font-family="Helvetica,sans-Serif" font-size="10.00">+ StringTokenizer()</text>
<text text-anchor="start" x="131" y="-18.5" font-family="Helvetica,sans-Serif" font-size="10.00">+ HasNext()</text>
<text text-anchor="start" x="131" y="-7.5" font-family="Helvetica,sans-Serif" font-size="10.00">+ GetNext()</text>
</a>
</g>
</g>
<!-- Node1&#45;&gt;Node4 -->
<g id="edge3" class="edge">
<title>Node1&#45;&gt;Node4</title>
<path fill="none" stroke="midnightblue" d="M140.79,-107.05C145.23,-97.8 149.72,-88.45 153.87,-79.81"/>
<polygon fill="none" stroke="midnightblue" points="137.56,-105.71 136.39,-116.24 143.87,-108.74 137.56,-105.71"/>
</g>
<!-- Node2 -->
<g id="node2" class="node">
<title>Node2</title>
<g id="a_node2"><a xlink:href="class_tokenizer_interface.html" target="_top" xlink:title=" ">
<polygon fill="none" stroke="black" points="54.5,-254.5 54.5,-333.5 170.5,-333.5 170.5,-254.5 54.5,-254.5"/>
<text text-anchor="middle" x="112.5" y="-321.5" font-family="Helvetica,sans-Serif" font-size="10.00">TokenizerInterface</text>
<polyline fill="none" stroke="black" points="54.5,-314.5 170.5,-314.5 "/>
<text text-anchor="middle" x="112.5" y="-302.5" font-family="Helvetica,sans-Serif" font-size="10.00"> </text>
<polyline fill="none" stroke="black" points="54.5,-295.5 170.5,-295.5 "/>
<text text-anchor="start" x="62.5" y="-283.5" font-family="Helvetica,sans-Serif" font-size="10.00">+ ~TokenizerInterface()</text>
<text text-anchor="start" x="62.5" y="-272.5" font-family="Helvetica,sans-Serif" font-size="10.00">+ HasNext()</text>
<text text-anchor="start" x="62.5" y="-261.5" font-family="Helvetica,sans-Serif" font-size="10.00">+ GetNext()</text>
</a>
</g>
</g>
<!-- Node2&#45;&gt;Node1 -->
<g id="edge1" class="edge">
<title>Node2&#45;&gt;Node1</title>
<path fill="none" stroke="midnightblue" d="M112.5,-244.41C112.5,-235.64 112.5,-226.49 112.5,-217.69"/>
<polygon fill="none" stroke="midnightblue" points="109,-244.48 112.5,-254.48 116,-244.48 109,-244.48"/>
</g>
</g>
</svg>
