<?xml version="1.0" encoding="UTF-8" standalone="no"?>
<!DOCTYPE svg PUBLIC "-//W3C//DTD SVG 1.1//EN"
 "http://www.w3.org/Graphics/SVG/1.1/DTD/svg11.dtd">
<!-- Generated by graphviz version 2.50.0 (20211204.2007)
 -->
<!-- Title: OperatorExpression Pages: 1 -->
<svg width="476pt" height="441pt"
 viewBox="0.00 0.00 475.50 441.00" xmlns="http://www.w3.org/2000/svg" xmlns:xlink="http://www.w3.org/1999/xlink">
<g id="graph0" class="graph" transform="scale(1 1) rotate(0) translate(4 437)">
<title>OperatorExpression</title>
<!-- Node1 -->
<g id="node1" class="node">
<title>Node1</title>
<g id="a_node1"><a xlink:title=" ">
<polygon fill="#bfbfbf" stroke="black" points="242.5,-0.5 242.5,-90.5 366.5,-90.5 366.5,-0.5 242.5,-0.5"/>
<text text-anchor="middle" x="304.5" y="-78.5" font-family="Helvetica,sans-Serif" font-size="10.00">OperatorExpression</text>
<polyline fill="none" stroke="black" points="242.5,-71.5 366.5,-71.5 "/>
<text text-anchor="middle" x="304.5" y="-59.5" font-family="Helvetica,sans-Serif" font-size="10.00"> </text>
<polyline fill="none" stroke="black" points="242.5,-52.5 366.5,-52.5 "/>
<text text-anchor="start" x="250.5" y="-40.5" font-family="Helvetica,sans-Serif" font-size="10.00">+ OperatorExpression()</text>
<text text-anchor="start" x="250.5" y="-29.5" font-family="Helvetica,sans-Serif" font-size="10.00">+ ~OperatorExpression()</text>
<text text-anchor="start" x="250.5" y="-18.5" font-family="Helvetica,sans-Serif" font-size="10.00">+ Interpret()</text>
<text text-anchor="start" x="250.5" y="-7.5" font-family="Helvetica,sans-Serif" font-size="10.00">+ DoInterpret()</text>
</a>
</g>
</g>
<!-- Node2 -->
<g id="node2" class="node">
<title>Node2</title>
<g id="a_node2"><a xlink:href="class_abstract_expression.html" target="_top" xlink:title=" ">
<polygon fill="none" stroke="black" points="166,-149.5 166,-261.5 283,-261.5 283,-149.5 166,-149.5"/>
<text text-anchor="middle" x="224.5" y="-249.5" font-family="Helvetica,sans-Serif" font-size="10.00">AbstractExpression</text>
<polyline fill="none" stroke="black" points="166,-242.5 283,-242.5 "/>
<text text-anchor="middle" x="224.5" y="-230.5" font-family="Helvetica,sans-Serif" font-size="10.00"> </text>
<polyline fill="none" stroke="black" points="166,-223.5 283,-223.5 "/>
<text text-anchor="start" x="174" y="-211.5" font-family="Helvetica,sans-Serif" font-size="10.00">+ AbstractExpression()</text>
<text text-anchor="start" x="174" y="-200.5" font-family="Helvetica,sans-Serif" font-size="10.00">+ SetType()</text>
<text text-anchor="start" x="174" y="-189.5" font-family="Helvetica,sans-Serif" font-size="10.00">+ GetType()</text>
<text text-anchor="start" x="174" y="-178.5" font-family="Helvetica,sans-Serif" font-size="10.00">+ GetIdentifier()</text>
<text text-anchor="start" x="174" y="-167.5" font-family="Helvetica,sans-Serif" font-size="10.00">+ GetBoolean()</text>
<text text-anchor="start" x="174" y="-156.5" font-family="Helvetica,sans-Serif" font-size="10.00">+ GetNumber()</text>
</a>
</g>
</g>
<!-- Node2&#45;&gt;Node1 -->
<g id="edge1" class="edge">
<title>Node2&#45;&gt;Node1</title>
<path fill="none" stroke="midnightblue" d="M257.11,-140.1C265.54,-123.44 274.43,-105.89 282.2,-90.54"/>
<polygon fill="none" stroke="midnightblue" points="253.87,-138.74 252.48,-149.24 260.12,-141.9 253.87,-138.74"/>
</g>
<!-- Node3 -->
<g id="node3" class="node">
<title>Node3</title>
<g id="a_node3"><a xlink:href="class_expression_interface.html" target="_top" xlink:title=" ">
<polygon fill="none" stroke="black" points="0,-309.5 0,-432.5 123,-432.5 123,-309.5 0,-309.5"/>
<text text-anchor="middle" x="61.5" y="-420.5" font-family="Helvetica,sans-Serif" font-size="10.00">ExpressionInterface</text>
<polyline fill="none" stroke="black" points="0,-413.5 123,-413.5 "/>
<text text-anchor="middle" x="61.5" y="-401.5" font-family="Helvetica,sans-Serif" font-size="10.00"> </text>
<polyline fill="none" stroke="black" points="0,-394.5 123,-394.5 "/>
<text text-anchor="start" x="8" y="-382.5" font-family="Helvetica,sans-Serif" font-size="10.00">+ ~ExpressionInterface()</text>
<text text-anchor="start" x="8" y="-371.5" font-family="Helvetica,sans-Serif" font-size="10.00">+ Interpret()</text>
<text text-anchor="start" x="8" y="-360.5" font-family="Helvetica,sans-Serif" font-size="10.00">+ SetType()</text>
<text text-anchor="start" x="8" y="-349.5" font-family="Helvetica,sans-Serif" font-size="10.00">+ GetType()</text>
<text text-anchor="start" x="8" y="-338.5" font-family="Helvetica,sans-Serif" font-size="10.00">+ GetIdentifier()</text>
<text text-anchor="start" x="8" y="-327.5" font-family="Helvetica,sans-Serif" font-size="10.00">+ GetBoolean()</text>
<text text-anchor="start" x="8" y="-316.5" font-family="Helvetica,sans-Serif" font-size="10.00">+ GetNumber()</text>
</a>
</g>
</g>
<!-- Node3&#45;&gt;Node2 -->
<g id="edge2" class="edge">
<title>Node3&#45;&gt;Node2</title>
<path fill="none" stroke="midnightblue" d="M129.52,-301.77C142.81,-288.44 156.6,-274.61 169.4,-261.76"/>
<polygon fill="none" stroke="midnightblue" points="126.78,-299.57 122.2,-309.12 131.73,-304.51 126.78,-299.57"/>
</g>
<!-- Node4 -->
<g id="node4" class="node">
<title>Node4</title>
<g id="a_node4"><a xlink:title=" ">
<polygon fill="none" stroke="#bfbfbf" points="141,-342.5 141,-399.5 170,-399.5 170,-342.5 141,-342.5"/>
<text text-anchor="middle" x="155.5" y="-387.5" font-family="Helvetica,sans-Serif" font-size="10.00">int</text>
<polyline fill="none" stroke="#bfbfbf" points="141,-380.5 170,-380.5 "/>
<text text-anchor="middle" x="155.5" y="-368.5" font-family="Helvetica,sans-Serif" font-size="10.00"> </text>
<polyline fill="none" stroke="#bfbfbf" points="141,-361.5 170,-361.5 "/>
<text text-anchor="middle" x="155.5" y="-349.5" font-family="Helvetica,sans-Serif" font-size="10.00"> </text>
</a>
</g>
</g>
<!-- Node4&#45;&gt;Node2 -->
<g id="edge3" class="edge">
<title>Node4&#45;&gt;Node2</title>
<path fill="none" stroke="#404040" d="M158.5,-342.38C161.16,-324.13 165.99,-299.98 174.5,-280 175.56,-277.52 176.7,-275.04 177.92,-272.56"/>
<polygon fill="none" stroke="#404040" points="178.01,-272.38 177.31,-265.21 183.66,-261.8 184.37,-268.97 178.01,-272.38"/>
<text text-anchor="middle" x="197.5" y="-283" font-family="Helvetica,sans-Serif" font-size="10.00"> #m_iType</text>
</g>
<!-- Node5 -->
<g id="node5" class="node">
<title>Node5</title>
<g id="a_node5"><a xlink:title=" ">
<polygon fill="none" stroke="#bfbfbf" points="204,-342.5 204,-399.5 245,-399.5 245,-342.5 204,-342.5"/>
<text text-anchor="middle" x="224.5" y="-387.5" font-family="Helvetica,sans-Serif" font-size="10.00">string</text>
<polyline fill="none" stroke="#bfbfbf" points="204,-380.5 245,-380.5 "/>
<text text-anchor="middle" x="224.5" y="-368.5" font-family="Helvetica,sans-Serif" font-size="10.00"> </text>
<polyline fill="none" stroke="#bfbfbf" points="204,-361.5 245,-361.5 "/>
<text text-anchor="middle" x="224.5" y="-349.5" font-family="Helvetica,sans-Serif" font-size="10.00"> </text>
</a>
</g>
</g>
<!-- Node5&#45;&gt;Node2 -->
<g id="edge4" class="edge">
<title>Node5&#45;&gt;Node2</title>
<path fill="none" stroke="#404040" d="M224.5,-342.26C224.5,-323.49 224.5,-297.83 224.5,-273.88"/>
<polygon fill="none" stroke="#404040" points="224.5,-273.55 220.5,-267.55 224.5,-261.55 228.5,-267.55 224.5,-273.55"/>
<text text-anchor="middle" x="259.5" y="-283" font-family="Helvetica,sans-Serif" font-size="10.00"> #m_wsIdentifier</text>
</g>
<!-- Node6 -->
<g id="node6" class="node">
<title>Node6</title>
<g id="a_node6"><a xlink:title=" ">
<polygon fill="none" stroke="#bfbfbf" points="300,-342.5 300,-399.5 335,-399.5 335,-342.5 300,-342.5"/>
<text text-anchor="middle" x="317.5" y="-387.5" font-family="Helvetica,sans-Serif" font-size="10.00">bool</text>
<polyline fill="none" stroke="#bfbfbf" points="300,-380.5 335,-380.5 "/>
<text text-anchor="middle" x="317.5" y="-368.5" font-family="Helvetica,sans-Serif" font-size="10.00"> </text>
<polyline fill="none" stroke="#bfbfbf" points="300,-361.5 335,-361.5 "/>
<text text-anchor="middle" x="317.5" y="-349.5" font-family="Helvetica,sans-Serif" font-size="10.00"> </text>
</a>
</g>
</g>
<!-- Node6&#45;&gt;Node2 -->
<g id="edge5" class="edge">
<title>Node6&#45;&gt;Node2</title>
<path fill="none" stroke="#404040" d="M314.56,-342.25C311.69,-323.72 306.14,-299.3 295.5,-280 293.91,-277.11 292.17,-274.26 290.33,-271.45"/>
<polygon fill="none" stroke="#404040" points="290.17,-271.23 283.43,-268.68 283.19,-261.47 289.93,-264.02 290.17,-271.23"/>
<text text-anchor="middle" x="332" y="-283" font-family="Helvetica,sans-Serif" font-size="10.00"> #m_bBoolean</text>
</g>
<!-- Node7 -->
<g id="node7" class="node">
<title>Node7</title>
<g id="a_node7"><a xlink:title=" ">
<polygon fill="none" stroke="#bfbfbf" points="386,-342.5 386,-399.5 421,-399.5 421,-342.5 386,-342.5"/>
<text text-anchor="middle" x="403.5" y="-387.5" font-family="Helvetica,sans-Serif" font-size="10.00">long</text>
<polyline fill="none" stroke="#bfbfbf" points="386,-380.5 421,-380.5 "/>
<text text-anchor="middle" x="403.5" y="-368.5" font-family="Helvetica,sans-Serif" font-size="10.00"> </text>
<polyline fill="none" stroke="#bfbfbf" points="386,-361.5 421,-361.5 "/>
<text text-anchor="middle" x="403.5" y="-349.5" font-family="Helvetica,sans-Serif" font-size="10.00"> </text>
</a>
</g>
</g>
<!-- Node7&#45;&gt;Node2 -->
<g id="edge6" class="edge">
<title>Node7&#45;&gt;Node2</title>
<path fill="none" stroke="#404040" d="M399.38,-342.49C394.93,-322.34 385.83,-295.85 367.5,-280 344.1,-259.77 326.87,-273.78 294.29,-261.76"/>
<polygon fill="none" stroke="#404040" points="294.13,-261.69 287.03,-262.94 283.15,-256.87 290.25,-255.62 294.13,-261.69"/>
<text text-anchor="middle" x="404.5" y="-283" font-family="Helvetica,sans-Serif" font-size="10.00"> #m_lNumber</text>
</g>
<!-- Node8 -->
<g id="node8" class="node">
<title>Node8</title>
<g id="a_node8"><a xlink:title=" ">
<polygon fill="none" stroke="#bfbfbf" points="301.5,-177 301.5,-234 467.5,-234 467.5,-177 301.5,-177"/>
<text text-anchor="middle" x="384.5" y="-222" font-family="Helvetica,sans-Serif" font-size="10.00">shared_ptr&lt; ExpressionInterface &gt;</text>
<polyline fill="none" stroke="#bfbfbf" points="301.5,-215 467.5,-215 "/>
<text text-anchor="middle" x="384.5" y="-203" font-family="Helvetica,sans-Serif" font-size="10.00"> </text>
<polyline fill="none" stroke="#bfbfbf" points="301.5,-196 467.5,-196 "/>
<text text-anchor="middle" x="384.5" y="-184" font-family="Helvetica,sans-Serif" font-size="10.00"> </text>
</a>
</g>
</g>
<!-- Node8&#45;&gt;Node1 -->
<g id="edge7" class="edge">
<title>Node8&#45;&gt;Node1</title>
<path fill="none" stroke="#404040" d="M370.57,-176.98C360.08,-156.26 345.35,-127.18 332.46,-101.72"/>
<polygon fill="none" stroke="#404040" points="332.3,-101.41 326.02,-97.86 326.88,-90.7 333.16,-94.25 332.3,-101.41"/>
<text text-anchor="middle" x="391" y="-123" font-family="Helvetica,sans-Serif" font-size="10.00"> #m_leftExpression</text>
<text text-anchor="middle" x="391" y="-112" font-family="Helvetica,sans-Serif" font-size="10.00">#m_rightExpression</text>
</g>
</g>
</svg>
