<?xml version="1.0" encoding="UTF-8" standalone="no"?>
<!DOCTYPE svg PUBLIC "-//W3C//DTD SVG 1.1//EN"
 "http://www.w3.org/Graphics/SVG/1.1/DTD/svg11.dtd">
<!-- Generated by graphviz version 2.50.0 (20211204.2007)
 -->
<!-- Title: SubtractionExpression Pages: 1 -->
<svg width="476pt" height="547pt"
 viewBox="0.00 0.00 475.50 547.00" xmlns="http://www.w3.org/2000/svg" xmlns:xlink="http://www.w3.org/1999/xlink">
<g id="graph0" class="graph" transform="scale(1 1) rotate(0) translate(4 543)">
<title>SubtractionExpression</title>
<!-- Node1 -->
<g id="node1" class="node">
<title>Node1</title>
<g id="a_node1"><a xlink:title=" ">
<polygon fill="#bfbfbf" stroke="black" points="239.5,-0.5 239.5,-68.5 369.5,-68.5 369.5,-0.5 239.5,-0.5"/>
<text text-anchor="middle" x="304.5" y="-56.5" font-family="Helvetica,sans-Serif" font-size="10.00">SubtractionExpression</text>
<polyline fill="none" stroke="black" points="239.5,-49.5 369.5,-49.5 "/>
<text text-anchor="middle" x="304.5" y="-37.5" font-family="Helvetica,sans-Serif" font-size="10.00"> </text>
<polyline fill="none" stroke="black" points="239.5,-30.5 369.5,-30.5 "/>
<text text-anchor="start" x="247.5" y="-18.5" font-family="Helvetica,sans-Serif" font-size="10.00">+ SubtractionExpression()</text>
<text text-anchor="start" x="247.5" y="-7.5" font-family="Helvetica,sans-Serif" font-size="10.00">+ DoInterpret()</text>
</a>
</g>
</g>
<!-- Node2 -->
<g id="node2" class="node">
<title>Node2</title>
<g id="a_node2"><a xlink:href="class_operator_expression.html" target="_top" xlink:title=" ">
<polygon fill="none" stroke="black" points="242.5,-106.5 242.5,-196.5 366.5,-196.5 366.5,-106.5 242.5,-106.5"/>
<text text-anchor="middle" x="304.5" y="-184.5" font-family="Helvetica,sans-Serif" font-size="10.00">OperatorExpression</text>
<polyline fill="none" stroke="black" points="242.5,-177.5 366.5,-177.5 "/>
<text text-anchor="middle" x="304.5" y="-165.5" font-family="Helvetica,sans-Serif" font-size="10.00"> </text>
<polyline fill="none" stroke="black" points="242.5,-158.5 366.5,-158.5 "/>
<text text-anchor="start" x="250.5" y="-146.5" font-family="Helvetica,sans-Serif" font-size="10.00">+ OperatorExpression()</text>
<text text-anchor="start" x="250.5" y="-135.5" font-family="Helvetica,sans-Serif" font-size="10.00">+ ~OperatorExpression()</text>
<text text-anchor="start" x="250.5" y="-124.5" font-family="Helvetica,sans-Serif" font-size="10.00">+ Interpret()</text>
<text text-anchor="start" x="250.5" y="-113.5" font-family="Helvetica,sans-Serif" font-size="10.00">+ DoInterpret()</text>
</a>
</g>
</g>
<!-- Node2&#45;&gt;Node1 -->
<g id="edge1" class="edge">
<title>Node2&#45;&gt;Node1</title>
<path fill="none" stroke="midnightblue" d="M304.5,-96.23C304.5,-86.8 304.5,-77.26 304.5,-68.62"/>
<polygon fill="none" stroke="midnightblue" points="301,-96.37 304.5,-106.37 308,-96.37 301,-96.37"/>
</g>
<!-- Node3 -->
<g id="node3" class="node">
<title>Node3</title>
<g id="a_node3"><a xlink:href="class_abstract_expression.html" target="_top" xlink:title=" ">
<polygon fill="none" stroke="black" points="166,-255.5 166,-367.5 283,-367.5 283,-255.5 166,-255.5"/>
<text text-anchor="middle" x="224.5" y="-355.5" font-family="Helvetica,sans-Serif" font-size="10.00">AbstractExpression</text>
<polyline fill="none" stroke="black" points="166,-348.5 283,-348.5 "/>
<text text-anchor="middle" x="224.5" y="-336.5" font-family="Helvetica,sans-Serif" font-size="10.00"> </text>
<polyline fill="none" stroke="black" points="166,-329.5 283,-329.5 "/>
<text text-anchor="start" x="174" y="-317.5" font-family="Helvetica,sans-Serif" font-size="10.00">+ AbstractExpression()</text>
<text text-anchor="start" x="174" y="-306.5" font-family="Helvetica,sans-Serif" font-size="10.00">+ SetType()</text>
<text text-anchor="start" x="174" y="-295.5" font-family="Helvetica,sans-Serif" font-size="10.00">+ GetType()</text>
<text text-anchor="start" x="174" y="-284.5" font-family="Helvetica,sans-Serif" font-size="10.00">+ GetIdentifier()</text>
<text text-anchor="start" x="174" y="-273.5" font-family="Helvetica,sans-Serif" font-size="10.00">+ GetBoolean()</text>
<text text-anchor="start" x="174" y="-262.5" font-family="Helvetica,sans-Serif" font-size="10.00">+ GetNumber()</text>
</a>
</g>
</g>
<!-- Node3&#45;&gt;Node2 -->
<g id="edge2" class="edge">
<title>Node3&#45;&gt;Node2</title>
<path fill="none" stroke="midnightblue" d="M257.11,-246.1C265.54,-229.44 274.43,-211.89 282.2,-196.54"/>
<polygon fill="none" stroke="midnightblue" points="253.87,-244.74 252.48,-255.24 260.12,-247.9 253.87,-244.74"/>
</g>
<!-- Node4 -->
<g id="node4" class="node">
<title>Node4</title>
<g id="a_node4"><a xlink:href="class_expression_interface.html" target="_top" xlink:title=" ">
<polygon fill="none" stroke="black" points="0,-415.5 0,-538.5 123,-538.5 123,-415.5 0,-415.5"/>
<text text-anchor="middle" x="61.5" y="-526.5" font-family="Helvetica,sans-Serif" font-size="10.00">ExpressionInterface</text>
<polyline fill="none" stroke="black" points="0,-519.5 123,-519.5 "/>
<text text-anchor="middle" x="61.5" y="-507.5" font-family="Helvetica,sans-Serif" font-size="10.00"> </text>
<polyline fill="none" stroke="black" points="0,-500.5 123,-500.5 "/>
<text text-anchor="start" x="8" y="-488.5" font-family="Helvetica,sans-Serif" font-size="10.00">+ ~ExpressionInterface()</text>
<text text-anchor="start" x="8" y="-477.5" font-family="Helvetica,sans-Serif" font-size="10.00">+ Interpret()</text>
<text text-anchor="start" x="8" y="-466.5" font-family="Helvetica,sans-Serif" font-size="10.00">+ SetType()</text>
<text text-anchor="start" x="8" y="-455.5" font-family="Helvetica,sans-Serif" font-size="10.00">+ GetType()</text>
<text text-anchor="start" x="8" y="-444.5" font-family="Helvetica,sans-Serif" font-size="10.00">+ GetIdentifier()</text>
<text text-anchor="start" x="8" y="-433.5" font-family="Helvetica,sans-Serif" font-size="10.00">+ GetBoolean()</text>
<text text-anchor="start" x="8" y="-422.5" font-family="Helvetica,sans-Serif" font-size="10.00">+ GetNumber()</text>
</a>
</g>
</g>
<!-- Node4&#45;&gt;Node3 -->
<g id="edge3" class="edge">
<title>Node4&#45;&gt;Node3</title>
<path fill="none" stroke="midnightblue" d="M129.52,-407.77C142.81,-394.44 156.6,-380.61 169.4,-367.76"/>
<polygon fill="none" stroke="midnightblue" points="126.78,-405.57 122.2,-415.12 131.73,-410.51 126.78,-405.57"/>
</g>
<!-- Node5 -->
<g id="node5" class="node">
<title>Node5</title>
<g id="a_node5"><a xlink:title=" ">
<polygon fill="none" stroke="#bfbfbf" points="141,-448.5 141,-505.5 170,-505.5 170,-448.5 141,-448.5"/>
<text text-anchor="middle" x="155.5" y="-493.5" font-family="Helvetica,sans-Serif" font-size="10.00">int</text>
<polyline fill="none" stroke="#bfbfbf" points="141,-486.5 170,-486.5 "/>
<text text-anchor="middle" x="155.5" y="-474.5" font-family="Helvetica,sans-Serif" font-size="10.00"> </text>
<polyline fill="none" stroke="#bfbfbf" points="141,-467.5 170,-467.5 "/>
<text text-anchor="middle" x="155.5" y="-455.5" font-family="Helvetica,sans-Serif" font-size="10.00"> </text>
</a>
</g>
</g>
<!-- Node5&#45;&gt;Node3 -->
<g id="edge4" class="edge">
<title>Node5&#45;&gt;Node3</title>
<path fill="none" stroke="#404040" d="M158.5,-448.38C161.16,-430.13 165.99,-405.98 174.5,-386 175.56,-383.52 176.7,-381.04 177.92,-378.56"/>
<polygon fill="none" stroke="#404040" points="178.01,-378.38 177.31,-371.21 183.66,-367.8 184.37,-374.97 178.01,-378.38"/>
<text text-anchor="middle" x="197.5" y="-389" font-family="Helvetica,sans-Serif" font-size="10.00"> #m_iType</text>
</g>
<!-- Node6 -->
<g id="node6" class="node">
<title>Node6</title>
<g id="a_node6"><a xlink:title=" ">
<polygon fill="none" stroke="#bfbfbf" points="204,-448.5 204,-505.5 245,-505.5 245,-448.5 204,-448.5"/>
<text text-anchor="middle" x="224.5" y="-493.5" font-family="Helvetica,sans-Serif" font-size="10.00">string</text>
<polyline fill="none" stroke="#bfbfbf" points="204,-486.5 245,-486.5 "/>
<text text-anchor="middle" x="224.5" y="-474.5" font-family="Helvetica,sans-Serif" font-size="10.00"> </text>
<polyline fill="none" stroke="#bfbfbf" points="204,-467.5 245,-467.5 "/>
<text text-anchor="middle" x="224.5" y="-455.5" font-family="Helvetica,sans-Serif" font-size="10.00"> </text>
</a>
</g>
</g>
<!-- Node6&#45;&gt;Node3 -->
<g id="edge5" class="edge">
<title>Node6&#45;&gt;Node3</title>
<path fill="none" stroke="#404040" d="M224.5,-448.26C224.5,-429.49 224.5,-403.83 224.5,-379.88"/>
<polygon fill="none" stroke="#404040" points="224.5,-379.55 220.5,-373.55 224.5,-367.55 228.5,-373.55 224.5,-379.55"/>
<text text-anchor="middle" x="259.5" y="-389" font-family="Helvetica,sans-Serif" font-size="10.00"> #m_wsIdentifier</text>
</g>
<!-- Node7 -->
<g id="node7" class="node">
<title>Node7</title>
<g id="a_node7"><a xlink:title=" ">
<polygon fill="none" stroke="#bfbfbf" points="300,-448.5 300,-505.5 335,-505.5 335,-448.5 300,-448.5"/>
<text text-anchor="middle" x="317.5" y="-493.5" font-family="Helvetica,sans-Serif" font-size="10.00">bool</text>
<polyline fill="none" stroke="#bfbfbf" points="300,-486.5 335,-486.5 "/>
<text text-anchor="middle" x="317.5" y="-474.5" font-family="Helvetica,sans-Serif" font-size="10.00"> </text>
<polyline fill="none" stroke="#bfbfbf" points="300,-467.5 335,-467.5 "/>
<text text-anchor="middle" x="317.5" y="-455.5" font-family="Helvetica,sans-Serif" font-size="10.00"> </text>
</a>
</g>
</g>
<!-- Node7&#45;&gt;Node3 -->
<g id="edge6" class="edge">
<title>Node7&#45;&gt;Node3</title>
<path fill="none" stroke="#404040" d="M314.56,-448.25C311.69,-429.72 306.14,-405.3 295.5,-386 293.91,-383.11 292.17,-380.26 290.33,-377.45"/>
<polygon fill="none" stroke="#404040" points="290.17,-377.23 283.43,-374.68 283.19,-367.47 289.93,-370.02 290.17,-377.23"/>
<text text-anchor="middle" x="332" y="-389" font-family="Helvetica,sans-Serif" font-size="10.00"> #m_bBoolean</text>
</g>
<!-- Node8 -->
<g id="node8" class="node">
<title>Node8</title>
<g id="a_node8"><a xlink:title=" ">
<polygon fill="none" stroke="#bfbfbf" points="386,-448.5 386,-505.5 421,-505.5 421,-448.5 386,-448.5"/>
<text text-anchor="middle" x="403.5" y="-493.5" font-family="Helvetica,sans-Serif" font-size="10.00">long</text>
<polyline fill="none" stroke="#bfbfbf" points="386,-486.5 421,-486.5 "/>
<text text-anchor="middle" x="403.5" y="-474.5" font-family="Helvetica,sans-Serif" font-size="10.00"> </text>
<polyline fill="none" stroke="#bfbfbf" points="386,-467.5 421,-467.5 "/>
<text text-anchor="middle" x="403.5" y="-455.5" font-family="Helvetica,sans-Serif" font-size="10.00"> </text>
</a>
</g>
</g>
<!-- Node8&#45;&gt;Node3 -->
<g id="edge7" class="edge">
<title>Node8&#45;&gt;Node3</title>
<path fill="none" stroke="#404040" d="M399.38,-448.49C394.93,-428.34 385.83,-401.85 367.5,-386 344.1,-365.77 326.87,-379.78 294.29,-367.76"/>
<polygon fill="none" stroke="#404040" points="294.13,-367.69 287.03,-368.94 283.15,-362.87 290.25,-361.62 294.13,-367.69"/>
<text text-anchor="middle" x="404.5" y="-389" font-family="Helvetica,sans-Serif" font-size="10.00"> #m_lNumber</text>
</g>
<!-- Node9 -->
<g id="node9" class="node">
<title>Node9</title>
<g id="a_node9"><a xlink:title=" ">
<polygon fill="none" stroke="#bfbfbf" points="301.5,-283 301.5,-340 467.5,-340 467.5,-283 301.5,-283"/>
<text text-anchor="middle" x="384.5" y="-328" font-family="Helvetica,sans-Serif" font-size="10.00">shared_ptr&lt; ExpressionInterface &gt;</text>
<polyline fill="none" stroke="#bfbfbf" points="301.5,-321 467.5,-321 "/>
<text text-anchor="middle" x="384.5" y="-309" font-family="Helvetica,sans-Serif" font-size="10.00"> </text>
<polyline fill="none" stroke="#bfbfbf" points="301.5,-302 467.5,-302 "/>
<text text-anchor="middle" x="384.5" y="-290" font-family="Helvetica,sans-Serif" font-size="10.00"> </text>
</a>
</g>
</g>
<!-- Node9&#45;&gt;Node2 -->
<g id="edge8" class="edge">
<title>Node9&#45;&gt;Node2</title>
<path fill="none" stroke="#404040" d="M370.57,-282.98C360.08,-262.26 345.35,-233.18 332.46,-207.72"/>
<polygon fill="none" stroke="#404040" points="332.3,-207.41 326.02,-203.86 326.88,-196.7 333.16,-200.25 332.3,-207.41"/>
<text text-anchor="middle" x="391" y="-229" font-family="Helvetica,sans-Serif" font-size="10.00"> #m_leftExpression</text>
<text text-anchor="middle" x="391" y="-218" font-family="Helvetica,sans-Serif" font-size="10.00">#m_rightExpression</text>
</g>
</g>
</svg>
