<?xml version="1.0" encoding="UTF-8" standalone="no"?>
<!DOCTYPE svg PUBLIC "-//W3C//DTD SVG 1.1//EN"
 "http://www.w3.org/Graphics/SVG/1.1/DTD/svg11.dtd">
<!-- Generated by graphviz version 2.50.0 (20211204.2007)
 -->
<!-- Title: SubstractionExpression Pages: 1 -->
<svg width="360pt" height="514pt"
 viewBox="0.00 0.00 359.50 514.00" xmlns="http://www.w3.org/2000/svg" xmlns:xlink="http://www.w3.org/1999/xlink">
<g id="graph0" class="graph" transform="scale(1 1) rotate(0) translate(4 510)">
<title>SubstractionExpression</title>
<!-- Node1 -->
<g id="node1" class="node">
<title>Node1</title>
<g id="a_node1"><a xlink:title=" ">
<polygon fill="#bfbfbf" stroke="black" points="121,-0.5 121,-68.5 256,-68.5 256,-0.5 121,-0.5"/>
<text text-anchor="middle" x="188.5" y="-56.5" font-family="Helvetica,sans-Serif" font-size="10.00">SubstractionExpression</text>
<polyline fill="none" stroke="black" points="121,-49.5 256,-49.5 "/>
<text text-anchor="middle" x="188.5" y="-37.5" font-family="Helvetica,sans-Serif" font-size="10.00"> </text>
<polyline fill="none" stroke="black" points="121,-30.5 256,-30.5 "/>
<text text-anchor="start" x="129" y="-18.5" font-family="Helvetica,sans-Serif" font-size="10.00">+ SubstractionExpression()</text>
<text text-anchor="start" x="129" y="-7.5" font-family="Helvetica,sans-Serif" font-size="10.00">+ DoInterpret()</text>
</a>
</g>
</g>
<!-- Node2 -->
<g id="node2" class="node">
<title>Node2</title>
<g id="a_node2"><a xlink:href="class_operator_expression.html" target="_top" xlink:title=" ">
<polygon fill="none" stroke="black" points="126.5,-106.5 126.5,-196.5 250.5,-196.5 250.5,-106.5 126.5,-106.5"/>
<text text-anchor="middle" x="188.5" y="-184.5" font-family="Helvetica,sans-Serif" font-size="10.00">OperatorExpression</text>
<polyline fill="none" stroke="black" points="126.5,-177.5 250.5,-177.5 "/>
<text text-anchor="middle" x="188.5" y="-165.5" font-family="Helvetica,sans-Serif" font-size="10.00"> </text>
<polyline fill="none" stroke="black" points="126.5,-158.5 250.5,-158.5 "/>
<text text-anchor="start" x="134.5" y="-146.5" font-family="Helvetica,sans-Serif" font-size="10.00">+ OperatorExpression()</text>
<text text-anchor="start" x="134.5" y="-135.5" font-family="Helvetica,sans-Serif" font-size="10.00">+ ~OperatorExpression()</text>
<text text-anchor="start" x="134.5" y="-124.5" font-family="Helvetica,sans-Serif" font-size="10.00">+ Interpret()</text>
<text text-anchor="start" x="134.5" y="-113.5" font-family="Helvetica,sans-Serif" font-size="10.00">+ DoInterpret()</text>
</a>
</g>
</g>
<!-- Node2&#45;&gt;Node1 -->
<g id="edge1" class="edge">
<title>Node2&#45;&gt;Node1</title>
<path fill="none" stroke="midnightblue" d="M188.5,-96.23C188.5,-86.8 188.5,-77.26 188.5,-68.62"/>
<polygon fill="none" stroke="midnightblue" points="185,-96.37 188.5,-106.37 192,-96.37 185,-96.37"/>
</g>
<!-- Node3 -->
<g id="node3" class="node">
<title>Node3</title>
<g id="a_node3"><a xlink:href="class_abstract_expression.html" target="_top" xlink:title=" ">
<polygon fill="none" stroke="black" points="50,-255.5 50,-356.5 167,-356.5 167,-255.5 50,-255.5"/>
<text text-anchor="middle" x="108.5" y="-344.5" font-family="Helvetica,sans-Serif" font-size="10.00">AbstractExpression</text>
<polyline fill="none" stroke="black" points="50,-337.5 167,-337.5 "/>
<text text-anchor="middle" x="108.5" y="-325.5" font-family="Helvetica,sans-Serif" font-size="10.00"> </text>
<polyline fill="none" stroke="black" points="50,-318.5 167,-318.5 "/>
<text text-anchor="start" x="58" y="-306.5" font-family="Helvetica,sans-Serif" font-size="10.00">+ AbstractExpression()</text>
<text text-anchor="start" x="58" y="-295.5" font-family="Helvetica,sans-Serif" font-size="10.00">+ SetType()</text>
<text text-anchor="start" x="58" y="-284.5" font-family="Helvetica,sans-Serif" font-size="10.00">+ GetType()</text>
<text text-anchor="start" x="58" y="-273.5" font-family="Helvetica,sans-Serif" font-size="10.00">+ SetOperator()</text>
<text text-anchor="start" x="58" y="-262.5" font-family="Helvetica,sans-Serif" font-size="10.00">+ GetOperator()</text>
</a>
</g>
</g>
<!-- Node3&#45;&gt;Node2 -->
<g id="edge2" class="edge">
<title>Node3&#45;&gt;Node2</title>
<path fill="none" stroke="midnightblue" d="M139.22,-246.44C147.9,-229.89 157.2,-212.16 165.35,-196.62"/>
<polygon fill="none" stroke="midnightblue" points="136.02,-245.01 134.47,-255.49 142.22,-248.26 136.02,-245.01"/>
</g>
<!-- Node4 -->
<g id="node4" class="node">
<title>Node4</title>
<g id="a_node4"><a xlink:href="class_expression_interface.html" target="_top" xlink:title=" ">
<polygon fill="none" stroke="black" points="0,-415.5 0,-505.5 123,-505.5 123,-415.5 0,-415.5"/>
<text text-anchor="middle" x="61.5" y="-493.5" font-family="Helvetica,sans-Serif" font-size="10.00">ExpressionInterface</text>
<polyline fill="none" stroke="black" points="0,-486.5 123,-486.5 "/>
<text text-anchor="middle" x="61.5" y="-474.5" font-family="Helvetica,sans-Serif" font-size="10.00"> </text>
<polyline fill="none" stroke="black" points="0,-467.5 123,-467.5 "/>
<text text-anchor="start" x="8" y="-455.5" font-family="Helvetica,sans-Serif" font-size="10.00">+ ~ExpressionInterface()</text>
<text text-anchor="start" x="8" y="-444.5" font-family="Helvetica,sans-Serif" font-size="10.00">+ Interpret()</text>
<text text-anchor="start" x="8" y="-433.5" font-family="Helvetica,sans-Serif" font-size="10.00">+ SetType()</text>
<text text-anchor="start" x="8" y="-422.5" font-family="Helvetica,sans-Serif" font-size="10.00">+ GetType()</text>
</a>
</g>
</g>
<!-- Node4&#45;&gt;Node3 -->
<g id="edge3" class="edge">
<title>Node4&#45;&gt;Node3</title>
<path fill="none" stroke="midnightblue" d="M78.09,-405.67C83.01,-389.71 88.37,-372.31 93.2,-356.64"/>
<polygon fill="none" stroke="midnightblue" points="74.69,-404.8 75.09,-415.39 81.38,-406.87 74.69,-404.8"/>
</g>
<!-- Node5 -->
<g id="node5" class="node">
<title>Node5</title>
<g id="a_node5"><a xlink:title=" ">
<polygon fill="none" stroke="#bfbfbf" points="141,-432 141,-489 170,-489 170,-432 141,-432"/>
<text text-anchor="middle" x="155.5" y="-477" font-family="Helvetica,sans-Serif" font-size="10.00">int</text>
<polyline fill="none" stroke="#bfbfbf" points="141,-470 170,-470 "/>
<text text-anchor="middle" x="155.5" y="-458" font-family="Helvetica,sans-Serif" font-size="10.00"> </text>
<polyline fill="none" stroke="#bfbfbf" points="141,-451 170,-451 "/>
<text text-anchor="middle" x="155.5" y="-439" font-family="Helvetica,sans-Serif" font-size="10.00"> </text>
</a>
</g>
</g>
<!-- Node5&#45;&gt;Node3 -->
<g id="edge4" class="edge">
<title>Node5&#45;&gt;Node3</title>
<path fill="none" stroke="#404040" d="M146.99,-431.88C141.52,-414.13 134.19,-390.34 127.39,-368.29"/>
<polygon fill="none" stroke="#404040" points="127.33,-368.08 121.74,-363.53 123.79,-356.61 129.38,-361.17 127.33,-368.08"/>
<text text-anchor="middle" x="167.5" y="-389" font-family="Helvetica,sans-Serif" font-size="10.00"> #m_iOperator</text>
<text text-anchor="middle" x="167.5" y="-378" font-family="Helvetica,sans-Serif" font-size="10.00">#m_iType</text>
</g>
<!-- Node6 -->
<g id="node6" class="node">
<title>Node6</title>
<g id="a_node6"><a xlink:title=" ">
<polygon fill="none" stroke="#bfbfbf" points="185.5,-277.5 185.5,-334.5 351.5,-334.5 351.5,-277.5 185.5,-277.5"/>
<text text-anchor="middle" x="268.5" y="-322.5" font-family="Helvetica,sans-Serif" font-size="10.00">shared_ptr&lt; ExpressionInterface &gt;</text>
<polyline fill="none" stroke="#bfbfbf" points="185.5,-315.5 351.5,-315.5 "/>
<text text-anchor="middle" x="268.5" y="-303.5" font-family="Helvetica,sans-Serif" font-size="10.00"> </text>
<polyline fill="none" stroke="#bfbfbf" points="185.5,-296.5 351.5,-296.5 "/>
<text text-anchor="middle" x="268.5" y="-284.5" font-family="Helvetica,sans-Serif" font-size="10.00"> </text>
</a>
</g>
</g>
<!-- Node6&#45;&gt;Node2 -->
<g id="edge5" class="edge">
<title>Node6&#45;&gt;Node2</title>
<path fill="none" stroke="#404040" d="M254.01,-277.38C243.78,-257.88 229.73,-231.1 217.26,-207.33"/>
<polygon fill="none" stroke="#404040" points="217.24,-207.29 210.91,-203.83 211.67,-196.66 218,-200.12 217.24,-207.29"/>
<text text-anchor="middle" x="275" y="-229" font-family="Helvetica,sans-Serif" font-size="10.00"> #m_leftExpression</text>
<text text-anchor="middle" x="275" y="-218" font-family="Helvetica,sans-Serif" font-size="10.00">#m_rightExpression</text>
</g>
</g>
</svg>
