<?xml version="1.0" encoding="UTF-8" standalone="no"?>
<!DOCTYPE svg PUBLIC "-//W3C//DTD SVG 1.1//EN"
 "http://www.w3.org/Graphics/SVG/1.1/DTD/svg11.dtd">
<!-- Generated by graphviz version 2.50.0 (20211204.2007)
 -->
<!-- Title: NumberExpression Pages: 1 -->
<svg width="441pt" height="398pt"
 viewBox="0.00 0.00 440.50 398.00" xmlns="http://www.w3.org/2000/svg" xmlns:xlink="http://www.w3.org/1999/xlink">
<g id="graph0" class="graph" transform="scale(1 1) rotate(0) translate(4 394)">
<title>NumberExpression</title>
<!-- Node1 -->
<g id="node1" class="node">
<title>Node1</title>
<g id="a_node1"><a xlink:title=" ">
<polygon fill="#bfbfbf" stroke="black" points="167.5,-0.5 167.5,-68.5 281.5,-68.5 281.5,-0.5 167.5,-0.5"/>
<text text-anchor="middle" x="224.5" y="-56.5" font-family="Helvetica,sans-Serif" font-size="10.00">NumberExpression</text>
<polyline fill="none" stroke="black" points="167.5,-49.5 281.5,-49.5 "/>
<text text-anchor="middle" x="224.5" y="-37.5" font-family="Helvetica,sans-Serif" font-size="10.00"> </text>
<polyline fill="none" stroke="black" points="167.5,-30.5 281.5,-30.5 "/>
<text text-anchor="start" x="175.5" y="-18.5" font-family="Helvetica,sans-Serif" font-size="10.00">+ NumberExpression()</text>
<text text-anchor="start" x="175.5" y="-7.5" font-family="Helvetica,sans-Serif" font-size="10.00">+ Interpret()</text>
</a>
</g>
</g>
<!-- Node2 -->
<g id="node2" class="node">
<title>Node2</title>
<g id="a_node2"><a xlink:href="class_abstract_expression.html" target="_top" xlink:title=" ">
<polygon fill="none" stroke="black" points="166,-106.5 166,-218.5 283,-218.5 283,-106.5 166,-106.5"/>
<text text-anchor="middle" x="224.5" y="-206.5" font-family="Helvetica,sans-Serif" font-size="10.00">AbstractExpression</text>
<polyline fill="none" stroke="black" points="166,-199.5 283,-199.5 "/>
<text text-anchor="middle" x="224.5" y="-187.5" font-family="Helvetica,sans-Serif" font-size="10.00"> </text>
<polyline fill="none" stroke="black" points="166,-180.5 283,-180.5 "/>
<text text-anchor="start" x="174" y="-168.5" font-family="Helvetica,sans-Serif" font-size="10.00">+ AbstractExpression()</text>
<text text-anchor="start" x="174" y="-157.5" font-family="Helvetica,sans-Serif" font-size="10.00">+ SetType()</text>
<text text-anchor="start" x="174" y="-146.5" font-family="Helvetica,sans-Serif" font-size="10.00">+ GetType()</text>
<text text-anchor="start" x="174" y="-135.5" font-family="Helvetica,sans-Serif" font-size="10.00">+ GetIdentifier()</text>
<text text-anchor="start" x="174" y="-124.5" font-family="Helvetica,sans-Serif" font-size="10.00">+ GetBoolean()</text>
<text text-anchor="start" x="174" y="-113.5" font-family="Helvetica,sans-Serif" font-size="10.00">+ GetNumber()</text>
</a>
</g>
</g>
<!-- Node2&#45;&gt;Node1 -->
<g id="edge1" class="edge">
<title>Node2&#45;&gt;Node1</title>
<path fill="none" stroke="midnightblue" d="M224.5,-95.96C224.5,-86.48 224.5,-77.08 224.5,-68.62"/>
<polygon fill="none" stroke="midnightblue" points="221,-96.23 224.5,-106.23 228,-96.23 221,-96.23"/>
</g>
<!-- Node3 -->
<g id="node3" class="node">
<title>Node3</title>
<g id="a_node3"><a xlink:href="class_expression_interface.html" target="_top" xlink:title=" ">
<polygon fill="none" stroke="black" points="0,-266.5 0,-389.5 123,-389.5 123,-266.5 0,-266.5"/>
<text text-anchor="middle" x="61.5" y="-377.5" font-family="Helvetica,sans-Serif" font-size="10.00">ExpressionInterface</text>
<polyline fill="none" stroke="black" points="0,-370.5 123,-370.5 "/>
<text text-anchor="middle" x="61.5" y="-358.5" font-family="Helvetica,sans-Serif" font-size="10.00"> </text>
<polyline fill="none" stroke="black" points="0,-351.5 123,-351.5 "/>
<text text-anchor="start" x="8" y="-339.5" font-family="Helvetica,sans-Serif" font-size="10.00">+ ~ExpressionInterface()</text>
<text text-anchor="start" x="8" y="-328.5" font-family="Helvetica,sans-Serif" font-size="10.00">+ Interpret()</text>
<text text-anchor="start" x="8" y="-317.5" font-family="Helvetica,sans-Serif" font-size="10.00">+ SetType()</text>
<text text-anchor="start" x="8" y="-306.5" font-family="Helvetica,sans-Serif" font-size="10.00">+ GetType()</text>
<text text-anchor="start" x="8" y="-295.5" font-family="Helvetica,sans-Serif" font-size="10.00">+ GetIdentifier()</text>
<text text-anchor="start" x="8" y="-284.5" font-family="Helvetica,sans-Serif" font-size="10.00">+ GetBoolean()</text>
<text text-anchor="start" x="8" y="-273.5" font-family="Helvetica,sans-Serif" font-size="10.00">+ GetNumber()</text>
</a>
</g>
</g>
<!-- Node3&#45;&gt;Node2 -->
<g id="edge2" class="edge">
<title>Node3&#45;&gt;Node2</title>
<path fill="none" stroke="midnightblue" d="M129.52,-258.77C142.81,-245.44 156.6,-231.61 169.4,-218.76"/>
<polygon fill="none" stroke="midnightblue" points="126.78,-256.57 122.2,-266.12 131.73,-261.51 126.78,-256.57"/>
</g>
<!-- Node4 -->
<g id="node4" class="node">
<title>Node4</title>
<g id="a_node4"><a xlink:title=" ">
<polygon fill="none" stroke="#bfbfbf" points="141,-299.5 141,-356.5 170,-356.5 170,-299.5 141,-299.5"/>
<text text-anchor="middle" x="155.5" y="-344.5" font-family="Helvetica,sans-Serif" font-size="10.00">int</text>
<polyline fill="none" stroke="#bfbfbf" points="141,-337.5 170,-337.5 "/>
<text text-anchor="middle" x="155.5" y="-325.5" font-family="Helvetica,sans-Serif" font-size="10.00"> </text>
<polyline fill="none" stroke="#bfbfbf" points="141,-318.5 170,-318.5 "/>
<text text-anchor="middle" x="155.5" y="-306.5" font-family="Helvetica,sans-Serif" font-size="10.00"> </text>
</a>
</g>
</g>
<!-- Node4&#45;&gt;Node2 -->
<g id="edge3" class="edge">
<title>Node4&#45;&gt;Node2</title>
<path fill="none" stroke="#404040" d="M158.5,-299.38C161.16,-281.13 165.99,-256.98 174.5,-237 175.56,-234.52 176.7,-232.04 177.92,-229.56"/>
<polygon fill="none" stroke="#404040" points="178.01,-229.38 177.31,-222.21 183.66,-218.8 184.37,-225.97 178.01,-229.38"/>
<text text-anchor="middle" x="197.5" y="-240" font-family="Helvetica,sans-Serif" font-size="10.00"> #m_iType</text>
</g>
<!-- Node5 -->
<g id="node5" class="node">
<title>Node5</title>
<g id="a_node5"><a xlink:title=" ">
<polygon fill="none" stroke="#bfbfbf" points="204,-299.5 204,-356.5 245,-356.5 245,-299.5 204,-299.5"/>
<text text-anchor="middle" x="224.5" y="-344.5" font-family="Helvetica,sans-Serif" font-size="10.00">string</text>
<polyline fill="none" stroke="#bfbfbf" points="204,-337.5 245,-337.5 "/>
<text text-anchor="middle" x="224.5" y="-325.5" font-family="Helvetica,sans-Serif" font-size="10.00"> </text>
<polyline fill="none" stroke="#bfbfbf" points="204,-318.5 245,-318.5 "/>
<text text-anchor="middle" x="224.5" y="-306.5" font-family="Helvetica,sans-Serif" font-size="10.00"> </text>
</a>
</g>
</g>
<!-- Node5&#45;&gt;Node2 -->
<g id="edge4" class="edge">
<title>Node5&#45;&gt;Node2</title>
<path fill="none" stroke="#404040" d="M224.5,-299.26C224.5,-280.49 224.5,-254.83 224.5,-230.88"/>
<polygon fill="none" stroke="#404040" points="224.5,-230.55 220.5,-224.55 224.5,-218.55 228.5,-224.55 224.5,-230.55"/>
<text text-anchor="middle" x="259.5" y="-240" font-family="Helvetica,sans-Serif" font-size="10.00"> #m_wsIdentifier</text>
</g>
<!-- Node6 -->
<g id="node6" class="node">
<title>Node6</title>
<g id="a_node6"><a xlink:title=" ">
<polygon fill="none" stroke="#bfbfbf" points="300,-299.5 300,-356.5 335,-356.5 335,-299.5 300,-299.5"/>
<text text-anchor="middle" x="317.5" y="-344.5" font-family="Helvetica,sans-Serif" font-size="10.00">bool</text>
<polyline fill="none" stroke="#bfbfbf" points="300,-337.5 335,-337.5 "/>
<text text-anchor="middle" x="317.5" y="-325.5" font-family="Helvetica,sans-Serif" font-size="10.00"> </text>
<polyline fill="none" stroke="#bfbfbf" points="300,-318.5 335,-318.5 "/>
<text text-anchor="middle" x="317.5" y="-306.5" font-family="Helvetica,sans-Serif" font-size="10.00"> </text>
</a>
</g>
</g>
<!-- Node6&#45;&gt;Node2 -->
<g id="edge5" class="edge">
<title>Node6&#45;&gt;Node2</title>
<path fill="none" stroke="#404040" d="M314.56,-299.25C311.69,-280.72 306.14,-256.3 295.5,-237 293.91,-234.11 292.17,-231.26 290.33,-228.45"/>
<polygon fill="none" stroke="#404040" points="290.17,-228.23 283.43,-225.68 283.19,-218.47 289.93,-221.02 290.17,-228.23"/>
<text text-anchor="middle" x="331" y="-240" font-family="Helvetica,sans-Serif" font-size="10.00"> #m_bBoolean</text>
</g>
<!-- Node7 -->
<g id="node7" class="node">
<title>Node7</title>
<g id="a_node7"><a xlink:title=" ">
<polygon fill="none" stroke="#bfbfbf" points="386,-299.5 386,-356.5 421,-356.5 421,-299.5 386,-299.5"/>
<text text-anchor="middle" x="403.5" y="-344.5" font-family="Helvetica,sans-Serif" font-size="10.00">long</text>
<polyline fill="none" stroke="#bfbfbf" points="386,-337.5 421,-337.5 "/>
<text text-anchor="middle" x="403.5" y="-325.5" font-family="Helvetica,sans-Serif" font-size="10.00"> </text>
<polyline fill="none" stroke="#bfbfbf" points="386,-318.5 421,-318.5 "/>
<text text-anchor="middle" x="403.5" y="-306.5" font-family="Helvetica,sans-Serif" font-size="10.00"> </text>
</a>
</g>
</g>
<!-- Node7&#45;&gt;Node2 -->
<g id="edge6" class="edge">
<title>Node7&#45;&gt;Node2</title>
<path fill="none" stroke="#404040" d="M397.55,-299.47C392.18,-280.08 382.59,-254.56 366.5,-237 346.9,-215.6 319.63,-199.43 294.22,-187.77"/>
<polygon fill="none" stroke="#404040" points="294.09,-187.71 286.99,-188.97 283.1,-182.89 290.2,-181.64 294.09,-187.71"/>
<text text-anchor="middle" x="403.5" y="-240" font-family="Helvetica,sans-Serif" font-size="10.00"> #m_lNumber</text>
</g>
</g>
</svg>
