<?xml version="1.0" encoding="UTF-8" standalone="no"?>
<!DOCTYPE svg PUBLIC "-//W3C//DTD SVG 1.1//EN"
 "http://www.w3.org/Graphics/SVG/1.1/DTD/svg11.dtd">
<!-- Generated by graphviz version 2.50.0 (20211204.2007)
 -->
<!-- Title: AbstractTokenizer Pages: 1 -->
<svg width="309pt" height="281pt"
 viewBox="0.00 0.00 309.00 281.00" xmlns="http://www.w3.org/2000/svg" xmlns:xlink="http://www.w3.org/1999/xlink">
<g id="graph0" class="graph" transform="scale(1 1) rotate(0) translate(4 277)">
<title>AbstractTokenizer</title>
<!-- Node1 -->
<g id="node1" class="node">
<title>Node1</title>
<g id="a_node1"><a xlink:title=" ">
<polygon fill="#bfbfbf" stroke="black" points="94,-0.5 94,-145.5 210,-145.5 210,-0.5 94,-0.5"/>
<text text-anchor="middle" x="152" y="-133.5" font-family="Helvetica,sans-Serif" font-size="10.00">AbstractTokenizer</text>
<polyline fill="none" stroke="black" points="94,-126.5 210,-126.5 "/>
<text text-anchor="middle" x="152" y="-114.5" font-family="Helvetica,sans-Serif" font-size="10.00"> </text>
<polyline fill="none" stroke="black" points="94,-107.5 210,-107.5 "/>
<text text-anchor="start" x="102" y="-95.5" font-family="Helvetica,sans-Serif" font-size="10.00">+ AbstractTokenizer()</text>
<text text-anchor="start" x="102" y="-84.5" font-family="Helvetica,sans-Serif" font-size="10.00">+ ~AbstractTokenizer()</text>
<text text-anchor="start" x="102" y="-73.5" font-family="Helvetica,sans-Serif" font-size="10.00">+ HasNext()</text>
<text text-anchor="start" x="102" y="-62.5" font-family="Helvetica,sans-Serif" font-size="10.00">+ GetNext()</text>
<text text-anchor="start" x="102" y="-51.5" font-family="Helvetica,sans-Serif" font-size="10.00">+ Keywords()</text>
<text text-anchor="start" x="102" y="-40.5" font-family="Helvetica,sans-Serif" font-size="10.00"># IsKeyword()</text>
<text text-anchor="start" x="102" y="-29.5" font-family="Helvetica,sans-Serif" font-size="10.00"># IsDelim()</text>
<text text-anchor="start" x="102" y="-18.5" font-family="Helvetica,sans-Serif" font-size="10.00"># IsWord()</text>
<text text-anchor="start" x="102" y="-7.5" font-family="Helvetica,sans-Serif" font-size="10.00"># IsNumber()</text>
</a>
</g>
</g>
<!-- Node2 -->
<g id="node2" class="node">
<title>Node2</title>
<g id="a_node2"><a xlink:href="class_tokenizer_interface.html" target="_top" xlink:title=" ">
<polygon fill="none" stroke="black" points="0,-193.5 0,-272.5 116,-272.5 116,-193.5 0,-193.5"/>
<text text-anchor="middle" x="58" y="-260.5" font-family="Helvetica,sans-Serif" font-size="10.00">TokenizerInterface</text>
<polyline fill="none" stroke="black" points="0,-253.5 116,-253.5 "/>
<text text-anchor="middle" x="58" y="-241.5" font-family="Helvetica,sans-Serif" font-size="10.00"> </text>
<polyline fill="none" stroke="black" points="0,-234.5 116,-234.5 "/>
<text text-anchor="start" x="8" y="-222.5" font-family="Helvetica,sans-Serif" font-size="10.00">+ ~TokenizerInterface()</text>
<text text-anchor="start" x="8" y="-211.5" font-family="Helvetica,sans-Serif" font-size="10.00">+ HasNext()</text>
<text text-anchor="start" x="8" y="-200.5" font-family="Helvetica,sans-Serif" font-size="10.00">+ GetNext()</text>
</a>
</g>
</g>
<!-- Node2&#45;&gt;Node1 -->
<g id="edge1" class="edge">
<title>Node2&#45;&gt;Node1</title>
<path fill="none" stroke="midnightblue" d="M86.18,-184.63C93.5,-172.33 101.54,-158.81 109.42,-145.57"/>
<polygon fill="none" stroke="midnightblue" points="83.1,-182.97 80.99,-193.35 89.12,-186.54 83.1,-182.97"/>
</g>
<!-- Node3 -->
<g id="node3" class="node">
<title>Node3</title>
<g id="a_node3"><a xlink:title=" ">
<polygon fill="none" stroke="#bfbfbf" points="134.5,-204.5 134.5,-261.5 169.5,-261.5 169.5,-204.5 134.5,-204.5"/>
<text text-anchor="middle" x="152" y="-249.5" font-family="Helvetica,sans-Serif" font-size="10.00">char</text>
<polyline fill="none" stroke="#bfbfbf" points="134.5,-242.5 169.5,-242.5 "/>
<text text-anchor="middle" x="152" y="-230.5" font-family="Helvetica,sans-Serif" font-size="10.00"> </text>
<polyline fill="none" stroke="#bfbfbf" points="134.5,-223.5 169.5,-223.5 "/>
<text text-anchor="middle" x="152" y="-211.5" font-family="Helvetica,sans-Serif" font-size="10.00"> </text>
</a>
</g>
</g>
<!-- Node3&#45;&gt;Node1 -->
<g id="edge2" class="edge">
<title>Node3&#45;&gt;Node1</title>
<path fill="none" stroke="#404040" d="M152,-204.48C152,-191.32 152,-174.78 152,-157.94"/>
<polygon fill="none" stroke="#404040" points="152,-157.67 148,-151.67 152,-145.67 156,-151.67 152,-157.67"/>
<text text-anchor="middle" x="191.5" y="-167" font-family="Helvetica,sans-Serif" font-size="10.00"> #m_cCurrentChar</text>
</g>
<!-- Node4 -->
<g id="node4" class="node">
<title>Node4</title>
<g id="a_node4"><a xlink:title=" ">
<polygon fill="none" stroke="#bfbfbf" points="236.5,-204.5 236.5,-261.5 271.5,-261.5 271.5,-204.5 236.5,-204.5"/>
<text text-anchor="middle" x="254" y="-249.5" font-family="Helvetica,sans-Serif" font-size="10.00">list&lt;</text>
<polyline fill="none" stroke="#bfbfbf" points="236.5,-242.5 271.5,-242.5 "/>
<text text-anchor="middle" x="254" y="-230.5" font-family="Helvetica,sans-Serif" font-size="10.00"> </text>
<polyline fill="none" stroke="#bfbfbf" points="236.5,-223.5 271.5,-223.5 "/>
<text text-anchor="middle" x="254" y="-211.5" font-family="Helvetica,sans-Serif" font-size="10.00"> </text>
</a>
</g>
</g>
<!-- Node4&#45;&gt;Node1 -->
<g id="edge3" class="edge">
<title>Node4&#45;&gt;Node1</title>
<path fill="none" stroke="#404040" d="M247.87,-204.44C244.34,-191.63 239.15,-176.49 232,-164 227.75,-156.58 222.82,-149.23 217.53,-142.12"/>
<polygon fill="none" stroke="#404040" points="217.49,-142.07 210.65,-139.78 210.12,-132.59 216.96,-134.88 217.49,-142.07"/>
<text text-anchor="middle" x="269" y="-167" font-family="Helvetica,sans-Serif" font-size="10.00"> #m_keywords</text>
</g>
</g>
</svg>
