<?xml version="1.0" encoding="UTF-8" standalone="no"?>
<!DOCTYPE svg PUBLIC "-//W3C//DTD SVG 1.1//EN"
 "http://www.w3.org/Graphics/SVG/1.1/DTD/svg11.dtd">
<!-- Generated by graphviz version 2.50.0 (20211204.2007)
 -->
<!-- Title: Context Pages: 1 -->
<svg width="155pt" height="171pt"
 viewBox="0.00 0.00 154.50 171.00" xmlns="http://www.w3.org/2000/svg" xmlns:xlink="http://www.w3.org/1999/xlink">
<g id="graph0" class="graph" transform="scale(1 1) rotate(0) translate(4 167)">
<title>Context</title>
<!-- Node1 -->
<g id="node1" class="node">
<title>Node1</title>
<g id="a_node1"><a xlink:title=" ">
<polygon fill="#bfbfbf" stroke="black" points="39.5,-0.5 39.5,-57.5 89.5,-57.5 89.5,-0.5 39.5,-0.5"/>
<text text-anchor="middle" x="64.5" y="-45.5" font-family="Helvetica,sans-Serif" font-size="10.00">Context</text>
<polyline fill="none" stroke="black" points="39.5,-38.5 89.5,-38.5 "/>
<text text-anchor="middle" x="64.5" y="-26.5" font-family="Helvetica,sans-Serif" font-size="10.00"> </text>
<polyline fill="none" stroke="black" points="39.5,-19.5 89.5,-19.5 "/>
<text text-anchor="middle" x="64.5" y="-7.5" font-family="Helvetica,sans-Serif" font-size="10.00"> </text>
</a>
</g>
</g>
<!-- Node2 -->
<g id="node2" class="node">
<title>Node2</title>
<g id="a_node2"><a xlink:title=" ">
<polygon fill="none" stroke="#bfbfbf" points="0,-105.5 0,-162.5 41,-162.5 41,-105.5 0,-105.5"/>
<text text-anchor="middle" x="20.5" y="-150.5" font-family="Helvetica,sans-Serif" font-size="10.00">map&lt;</text>
<polyline fill="none" stroke="#bfbfbf" points="0,-143.5 41,-143.5 "/>
<text text-anchor="middle" x="20.5" y="-131.5" font-family="Helvetica,sans-Serif" font-size="10.00"> </text>
<polyline fill="none" stroke="#bfbfbf" points="0,-124.5 41,-124.5 "/>
<text text-anchor="middle" x="20.5" y="-112.5" font-family="Helvetica,sans-Serif" font-size="10.00"> </text>
</a>
</g>
</g>
<!-- Node2&#45;&gt;Node1 -->
<g id="edge1" class="edge">
<title>Node2&#45;&gt;Node1</title>
<path fill="none" stroke="#404040" d="M17.02,-105.23C16.84,-95.66 17.82,-85.08 21.5,-76 23.85,-70.2 27.3,-64.69 31.24,-59.63"/>
<polygon fill="none" stroke="#404040" points="31.34,-59.52 32.3,-52.37 39.27,-50.51 38.31,-57.65 31.34,-59.52"/>
<text text-anchor="middle" x="54.5" y="-79" font-family="Helvetica,sans-Serif" font-size="10.00"> +m_lVariables</text>
</g>
<!-- Node3 -->
<g id="node3" class="node">
<title>Node3</title>
<g id="a_node3"><a xlink:title=" ">
<polygon fill="none" stroke="#bfbfbf" points="86,-105.5 86,-162.5 133,-162.5 133,-105.5 86,-105.5"/>
<text text-anchor="middle" x="109.5" y="-150.5" font-family="Helvetica,sans-Serif" font-size="10.00">stack&lt;</text>
<polyline fill="none" stroke="#bfbfbf" points="86,-143.5 133,-143.5 "/>
<text text-anchor="middle" x="109.5" y="-131.5" font-family="Helvetica,sans-Serif" font-size="10.00"> </text>
<polyline fill="none" stroke="#bfbfbf" points="86,-124.5 133,-124.5 "/>
<text text-anchor="middle" x="109.5" y="-112.5" font-family="Helvetica,sans-Serif" font-size="10.00"> </text>
</a>
</g>
</g>
<!-- Node3&#45;&gt;Node1 -->
<g id="edge2" class="edge">
<title>Node3&#45;&gt;Node1</title>
<path fill="none" stroke="#404040" d="M99.39,-105.24C95.82,-95.87 91.66,-85.41 87.5,-76 86.42,-73.54 85.27,-71.03 84.09,-68.51"/>
<polygon fill="none" stroke="#404040" points="84.01,-68.34 77.8,-64.67 78.8,-57.53 85.01,-61.2 84.01,-68.34"/>
<text text-anchor="middle" x="119" y="-79" font-family="Helvetica,sans-Serif" font-size="10.00"> +m_lValues</text>
</g>
</g>
</svg>
