<?xml version="1.0" encoding="UTF-8" standalone="no"?>
<!DOCTYPE svg PUBLIC "-//W3C//DTD SVG 1.1//EN"
 "http://www.w3.org/Graphics/SVG/1.1/DTD/svg11.dtd">
<!-- Generated by graphviz version 2.50.0 (20211204.2007)
 -->
<!-- Title: AdditionExpression Pages: 1 -->
<svg width="132pt" height="557pt"
 viewBox="0.00 0.00 132.00 557.00" xmlns="http://www.w3.org/2000/svg" xmlns:xlink="http://www.w3.org/1999/xlink">
<g id="graph0" class="graph" transform="scale(1 1) rotate(0) translate(4 553)">
<title>AdditionExpression</title>
<!-- Node1 -->
<g id="node1" class="node">
<title>Node1</title>
<g id="a_node1"><a xlink:title=" ">
<polygon fill="#bfbfbf" stroke="black" points="4,-0.5 4,-68.5 120,-68.5 120,-0.5 4,-0.5"/>
<text text-anchor="middle" x="62" y="-56.5" font-family="Helvetica,sans-Serif" font-size="10.00">AdditionExpression</text>
<polyline fill="none" stroke="black" points="4,-49.5 120,-49.5 "/>
<text text-anchor="middle" x="62" y="-37.5" font-family="Helvetica,sans-Serif" font-size="10.00"> </text>
<polyline fill="none" stroke="black" points="4,-30.5 120,-30.5 "/>
<text text-anchor="start" x="12" y="-18.5" font-family="Helvetica,sans-Serif" font-size="10.00">+ AdditionExpression()</text>
<text text-anchor="start" x="12" y="-7.5" font-family="Helvetica,sans-Serif" font-size="10.00">+ DoInterpret()</text>
</a>
</g>
</g>
<!-- Node2 -->
<g id="node2" class="node">
<title>Node2</title>
<g id="a_node2"><a xlink:href="class_operator_expression.html" target="_top" xlink:title=" ">
<polygon fill="none" stroke="black" points="0,-105.5 0,-206.5 124,-206.5 124,-105.5 0,-105.5"/>
<text text-anchor="middle" x="62" y="-194.5" font-family="Helvetica,sans-Serif" font-size="10.00">OperatorExpression</text>
<polyline fill="none" stroke="black" points="0,-187.5 124,-187.5 "/>
<text text-anchor="start" x="8" y="-175.5" font-family="Helvetica,sans-Serif" font-size="10.00"># m_leftExpression</text>
<text text-anchor="start" x="8" y="-164.5" font-family="Helvetica,sans-Serif" font-size="10.00"># m_rightExpression</text>
<polyline fill="none" stroke="black" points="0,-157.5 124,-157.5 "/>
<text text-anchor="start" x="8" y="-145.5" font-family="Helvetica,sans-Serif" font-size="10.00">+ OperatorExpression()</text>
<text text-anchor="start" x="8" y="-134.5" font-family="Helvetica,sans-Serif" font-size="10.00">+ ~OperatorExpression()</text>
<text text-anchor="start" x="8" y="-123.5" font-family="Helvetica,sans-Serif" font-size="10.00">+ Interpret()</text>
<text text-anchor="start" x="8" y="-112.5" font-family="Helvetica,sans-Serif" font-size="10.00">+ DoInterpret()</text>
</a>
</g>
</g>
<!-- Node2&#45;&gt;Node1 -->
<g id="edge1" class="edge">
<title>Node2&#45;&gt;Node1</title>
<path fill="none" stroke="midnightblue" d="M62,-95.17C62,-86.11 62,-77.05 62,-68.83"/>
<polygon fill="none" stroke="midnightblue" points="58.5,-95.36 62,-105.36 65.5,-95.36 58.5,-95.36"/>
</g>
<!-- Node3 -->
<g id="node3" class="node">
<title>Node3</title>
<g id="a_node3"><a xlink:href="class_abstract_expression.html" target="_top" xlink:title=" ">
<polygon fill="none" stroke="black" points="3.5,-243.5 3.5,-388.5 120.5,-388.5 120.5,-243.5 3.5,-243.5"/>
<text text-anchor="middle" x="62" y="-376.5" font-family="Helvetica,sans-Serif" font-size="10.00">AbstractExpression</text>
<polyline fill="none" stroke="black" points="3.5,-369.5 120.5,-369.5 "/>
<text text-anchor="start" x="11.5" y="-357.5" font-family="Helvetica,sans-Serif" font-size="10.00"># m_iType</text>
<text text-anchor="start" x="11.5" y="-346.5" font-family="Helvetica,sans-Serif" font-size="10.00"># m_wsIdentifier</text>
<text text-anchor="start" x="11.5" y="-335.5" font-family="Helvetica,sans-Serif" font-size="10.00"># m_bBoolean</text>
<text text-anchor="start" x="11.5" y="-324.5" font-family="Helvetica,sans-Serif" font-size="10.00"># m_lNumber</text>
<polyline fill="none" stroke="black" points="3.5,-317.5 120.5,-317.5 "/>
<text text-anchor="start" x="11.5" y="-305.5" font-family="Helvetica,sans-Serif" font-size="10.00">+ AbstractExpression()</text>
<text text-anchor="start" x="11.5" y="-294.5" font-family="Helvetica,sans-Serif" font-size="10.00">+ SetType()</text>
<text text-anchor="start" x="11.5" y="-283.5" font-family="Helvetica,sans-Serif" font-size="10.00">+ GetType()</text>
<text text-anchor="start" x="11.5" y="-272.5" font-family="Helvetica,sans-Serif" font-size="10.00">+ GetIdentifier()</text>
<text text-anchor="start" x="11.5" y="-261.5" font-family="Helvetica,sans-Serif" font-size="10.00">+ GetBoolean()</text>
<text text-anchor="start" x="11.5" y="-250.5" font-family="Helvetica,sans-Serif" font-size="10.00">+ GetNumber()</text>
</a>
</g>
</g>
<!-- Node3&#45;&gt;Node2 -->
<g id="edge2" class="edge">
<title>Node3&#45;&gt;Node2</title>
<path fill="none" stroke="midnightblue" d="M62,-233.19C62,-224.14 62,-215.14 62,-206.67"/>
<polygon fill="none" stroke="midnightblue" points="58.5,-233.4 62,-243.4 65.5,-233.4 58.5,-233.4"/>
</g>
<!-- Node4 -->
<g id="node4" class="node">
<title>Node4</title>
<g id="a_node4"><a xlink:href="class_expression_interface.html" target="_top" xlink:title=" ">
<polygon fill="none" stroke="black" points="0.5,-425.5 0.5,-548.5 123.5,-548.5 123.5,-425.5 0.5,-425.5"/>
<text text-anchor="middle" x="62" y="-536.5" font-family="Helvetica,sans-Serif" font-size="10.00">ExpressionInterface</text>
<polyline fill="none" stroke="black" points="0.5,-529.5 123.5,-529.5 "/>
<text text-anchor="middle" x="62" y="-517.5" font-family="Helvetica,sans-Serif" font-size="10.00"> </text>
<polyline fill="none" stroke="black" points="0.5,-510.5 123.5,-510.5 "/>
<text text-anchor="start" x="8.5" y="-498.5" font-family="Helvetica,sans-Serif" font-size="10.00">+ ~ExpressionInterface()</text>
<text text-anchor="start" x="8.5" y="-487.5" font-family="Helvetica,sans-Serif" font-size="10.00">+ Interpret()</text>
<text text-anchor="start" x="8.5" y="-476.5" font-family="Helvetica,sans-Serif" font-size="10.00">+ SetType()</text>
<text text-anchor="start" x="8.5" y="-465.5" font-family="Helvetica,sans-Serif" font-size="10.00">+ GetType()</text>
<text text-anchor="start" x="8.5" y="-454.5" font-family="Helvetica,sans-Serif" font-size="10.00">+ GetIdentifier()</text>
<text text-anchor="start" x="8.5" y="-443.5" font-family="Helvetica,sans-Serif" font-size="10.00">+ GetBoolean()</text>
<text text-anchor="start" x="8.5" y="-432.5" font-family="Helvetica,sans-Serif" font-size="10.00">+ GetNumber()</text>
</a>
</g>
</g>
<!-- Node4&#45;&gt;Node3 -->
<g id="edge3" class="edge">
<title>Node4&#45;&gt;Node3</title>
<path fill="none" stroke="midnightblue" d="M62,-415.25C62,-406.46 62,-397.45 62,-388.64"/>
<polygon fill="none" stroke="midnightblue" points="58.5,-415.46 62,-425.46 65.5,-415.46 58.5,-415.46"/>
</g>
</g>
</svg>
