<?xml version="1.0" encoding="UTF-8" standalone="no"?>
<!DOCTYPE svg PUBLIC "-//W3C//DTD SVG 1.1//EN"
 "http://www.w3.org/Graphics/SVG/1.1/DTD/svg11.dtd">
<!-- Generated by graphviz version 2.50.0 (20211204.2007)
 -->
<!-- Title: StatementInterface Pages: 1 -->
<svg width="248pt" height="182pt"
 viewBox="0.00 0.00 248.00 182.00" xmlns="http://www.w3.org/2000/svg" xmlns:xlink="http://www.w3.org/1999/xlink">
<g id="graph0" class="graph" transform="scale(1 1) rotate(0) translate(4 178)">
<title>StatementInterface</title>
<!-- Node1 -->
<g id="node1" class="node">
<title>Node1</title>
<g id="a_node1"><a xlink:title=" ">
<polygon fill="#bfbfbf" stroke="black" points="59.5,-105.5 59.5,-173.5 178.5,-173.5 178.5,-105.5 59.5,-105.5"/>
<text text-anchor="middle" x="119" y="-161.5" font-family="Helvetica,sans-Serif" font-size="10.00">StatementInterface</text>
<polyline fill="none" stroke="black" points="59.5,-154.5 178.5,-154.5 "/>
<text text-anchor="middle" x="119" y="-142.5" font-family="Helvetica,sans-Serif" font-size="10.00"> </text>
<polyline fill="none" stroke="black" points="59.5,-135.5 178.5,-135.5 "/>
<text text-anchor="start" x="67.5" y="-123.5" font-family="Helvetica,sans-Serif" font-size="10.00">+ ~StatementInterface()</text>
<text text-anchor="start" x="67.5" y="-112.5" font-family="Helvetica,sans-Serif" font-size="10.00">+ Interpret()</text>
</a>
</g>
</g>
<!-- Node2 -->
<g id="node2" class="node">
<title>Node2</title>
<g id="a_node2"><a xlink:href="class_printing_statement.html" target="_top" xlink:title=" ">
<polygon fill="none" stroke="black" points="0,-0.5 0,-68.5 110,-68.5 110,-0.5 0,-0.5"/>
<text text-anchor="middle" x="55" y="-56.5" font-family="Helvetica,sans-Serif" font-size="10.00">PrintingStatement</text>
<polyline fill="none" stroke="black" points="0,-49.5 110,-49.5 "/>
<text text-anchor="middle" x="55" y="-37.5" font-family="Helvetica,sans-Serif" font-size="10.00"> </text>
<polyline fill="none" stroke="black" points="0,-30.5 110,-30.5 "/>
<text text-anchor="start" x="8" y="-18.5" font-family="Helvetica,sans-Serif" font-size="10.00">+ PrintingStatement()</text>
<text text-anchor="start" x="8" y="-7.5" font-family="Helvetica,sans-Serif" font-size="10.00">+ Interpret()</text>
</a>
</g>
</g>
<!-- Node1&#45;&gt;Node2 -->
<g id="edge1" class="edge">
<title>Node1&#45;&gt;Node2</title>
<path fill="none" stroke="midnightblue" d="M92.95,-96.58C87.16,-87.26 81.1,-77.5 75.56,-68.59"/>
<polygon fill="none" stroke="midnightblue" points="90.15,-98.7 98.4,-105.34 96.09,-95 90.15,-98.7"/>
</g>
<!-- Node3 -->
<g id="node3" class="node">
<title>Node3</title>
<g id="a_node3"><a xlink:href="class_variable_statement.html" target="_top" xlink:title=" ">
<polygon fill="none" stroke="black" points="128,-0.5 128,-68.5 240,-68.5 240,-0.5 128,-0.5"/>
<text text-anchor="middle" x="184" y="-56.5" font-family="Helvetica,sans-Serif" font-size="10.00">VariableStatement</text>
<polyline fill="none" stroke="black" points="128,-49.5 240,-49.5 "/>
<text text-anchor="middle" x="184" y="-37.5" font-family="Helvetica,sans-Serif" font-size="10.00"> </text>
<polyline fill="none" stroke="black" points="128,-30.5 240,-30.5 "/>
<text text-anchor="start" x="136" y="-18.5" font-family="Helvetica,sans-Serif" font-size="10.00">+ VariableStatement()</text>
<text text-anchor="start" x="136" y="-7.5" font-family="Helvetica,sans-Serif" font-size="10.00">+ Interpret()</text>
</a>
</g>
</g>
<!-- Node1&#45;&gt;Node3 -->
<g id="edge2" class="edge">
<title>Node1&#45;&gt;Node3</title>
<path fill="none" stroke="midnightblue" d="M145.27,-96.87C151.21,-87.46 157.43,-77.6 163.12,-68.59"/>
<polygon fill="none" stroke="midnightblue" points="142.3,-95.02 139.92,-105.34 148.22,-98.75 142.3,-95.02"/>
</g>
</g>
</svg>
