<?xml version="1.0" encoding="UTF-8" standalone="no"?>
<!DOCTYPE svg PUBLIC "-//W3C//DTD SVG 1.1//EN"
 "http://www.w3.org/Graphics/SVG/1.1/DTD/svg11.dtd">
<!-- Generated by graphviz version 2.50.0 (20211204.2007)
 -->
<!-- Title: AbstractExpression Pages: 1 -->
<svg width="441pt" height="292pt"
 viewBox="0.00 0.00 440.50 292.00" xmlns="http://www.w3.org/2000/svg" xmlns:xlink="http://www.w3.org/1999/xlink">
<g id="graph0" class="graph" transform="scale(1 1) rotate(0) translate(4 288)">
<title>AbstractExpression</title>
<!-- Node1 -->
<g id="node1" class="node">
<title>Node1</title>
<g id="a_node1"><a xlink:title=" ">
<polygon fill="#bfbfbf" stroke="black" points="166,-0.5 166,-112.5 283,-112.5 283,-0.5 166,-0.5"/>
<text text-anchor="middle" x="224.5" y="-100.5" font-family="Helvetica,sans-Serif" font-size="10.00">AbstractExpression</text>
<polyline fill="none" stroke="black" points="166,-93.5 283,-93.5 "/>
<text text-anchor="middle" x="224.5" y="-81.5" font-family="Helvetica,sans-Serif" font-size="10.00"> </text>
<polyline fill="none" stroke="black" points="166,-74.5 283,-74.5 "/>
<text text-anchor="start" x="174" y="-62.5" font-family="Helvetica,sans-Serif" font-size="10.00">+ AbstractExpression()</text>
<text text-anchor="start" x="174" y="-51.5" font-family="Helvetica,sans-Serif" font-size="10.00">+ SetType()</text>
<text text-anchor="start" x="174" y="-40.5" font-family="Helvetica,sans-Serif" font-size="10.00">+ GetType()</text>
<text text-anchor="start" x="174" y="-29.5" font-family="Helvetica,sans-Serif" font-size="10.00">+ GetIdentifier()</text>
<text text-anchor="start" x="174" y="-18.5" font-family="Helvetica,sans-Serif" font-size="10.00">+ GetBoolean()</text>
<text text-anchor="start" x="174" y="-7.5" font-family="Helvetica,sans-Serif" font-size="10.00">+ GetNumber()</text>
</a>
</g>
</g>
<!-- Node2 -->
<g id="node2" class="node">
<title>Node2</title>
<g id="a_node2"><a xlink:href="class_expression_interface.html" target="_top" xlink:title=" ">
<polygon fill="none" stroke="black" points="0,-160.5 0,-283.5 123,-283.5 123,-160.5 0,-160.5"/>
<text text-anchor="middle" x="61.5" y="-271.5" font-family="Helvetica,sans-Serif" font-size="10.00">ExpressionInterface</text>
<polyline fill="none" stroke="black" points="0,-264.5 123,-264.5 "/>
<text text-anchor="middle" x="61.5" y="-252.5" font-family="Helvetica,sans-Serif" font-size="10.00"> </text>
<polyline fill="none" stroke="black" points="0,-245.5 123,-245.5 "/>
<text text-anchor="start" x="8" y="-233.5" font-family="Helvetica,sans-Serif" font-size="10.00">+ ~ExpressionInterface()</text>
<text text-anchor="start" x="8" y="-222.5" font-family="Helvetica,sans-Serif" font-size="10.00">+ Interpret()</text>
<text text-anchor="start" x="8" y="-211.5" font-family="Helvetica,sans-Serif" font-size="10.00">+ SetType()</text>
<text text-anchor="start" x="8" y="-200.5" font-family="Helvetica,sans-Serif" font-size="10.00">+ GetType()</text>
<text text-anchor="start" x="8" y="-189.5" font-family="Helvetica,sans-Serif" font-size="10.00">+ GetIdentifier()</text>
<text text-anchor="start" x="8" y="-178.5" font-family="Helvetica,sans-Serif" font-size="10.00">+ GetBoolean()</text>
<text text-anchor="start" x="8" y="-167.5" font-family="Helvetica,sans-Serif" font-size="10.00">+ GetNumber()</text>
</a>
</g>
</g>
<!-- Node2&#45;&gt;Node1 -->
<g id="edge1" class="edge">
<title>Node2&#45;&gt;Node1</title>
<path fill="none" stroke="midnightblue" d="M129.52,-152.77C142.81,-139.44 156.6,-125.61 169.4,-112.76"/>
<polygon fill="none" stroke="midnightblue" points="126.78,-150.57 122.2,-160.12 131.73,-155.51 126.78,-150.57"/>
</g>
<!-- Node3 -->
<g id="node3" class="node">
<title>Node3</title>
<g id="a_node3"><a xlink:title=" ">
<polygon fill="none" stroke="#bfbfbf" points="141,-193.5 141,-250.5 170,-250.5 170,-193.5 141,-193.5"/>
<text text-anchor="middle" x="155.5" y="-238.5" font-family="Helvetica,sans-Serif" font-size="10.00">int</text>
<polyline fill="none" stroke="#bfbfbf" points="141,-231.5 170,-231.5 "/>
<text text-anchor="middle" x="155.5" y="-219.5" font-family="Helvetica,sans-Serif" font-size="10.00"> </text>
<polyline fill="none" stroke="#bfbfbf" points="141,-212.5 170,-212.5 "/>
<text text-anchor="middle" x="155.5" y="-200.5" font-family="Helvetica,sans-Serif" font-size="10.00"> </text>
</a>
</g>
</g>
<!-- Node3&#45;&gt;Node1 -->
<g id="edge2" class="edge">
<title>Node3&#45;&gt;Node1</title>
<path fill="none" stroke="#404040" d="M158.5,-193.38C161.16,-175.13 165.99,-150.98 174.5,-131 175.56,-128.52 176.7,-126.04 177.92,-123.56"/>
<polygon fill="none" stroke="#404040" points="178.01,-123.38 177.31,-116.21 183.66,-112.8 184.37,-119.97 178.01,-123.38"/>
<text text-anchor="middle" x="197.5" y="-134" font-family="Helvetica,sans-Serif" font-size="10.00"> #m_iType</text>
</g>
<!-- Node4 -->
<g id="node4" class="node">
<title>Node4</title>
<g id="a_node4"><a xlink:title=" ">
<polygon fill="none" stroke="#bfbfbf" points="204,-193.5 204,-250.5 245,-250.5 245,-193.5 204,-193.5"/>
<text text-anchor="middle" x="224.5" y="-238.5" font-family="Helvetica,sans-Serif" font-size="10.00">string</text>
<polyline fill="none" stroke="#bfbfbf" points="204,-231.5 245,-231.5 "/>
<text text-anchor="middle" x="224.5" y="-219.5" font-family="Helvetica,sans-Serif" font-size="10.00"> </text>
<polyline fill="none" stroke="#bfbfbf" points="204,-212.5 245,-212.5 "/>
<text text-anchor="middle" x="224.5" y="-200.5" font-family="Helvetica,sans-Serif" font-size="10.00"> </text>
</a>
</g>
</g>
<!-- Node4&#45;&gt;Node1 -->
<g id="edge3" class="edge">
<title>Node4&#45;&gt;Node1</title>
<path fill="none" stroke="#404040" d="M224.5,-193.26C224.5,-174.49 224.5,-148.83 224.5,-124.88"/>
<polygon fill="none" stroke="#404040" points="224.5,-124.55 220.5,-118.55 224.5,-112.55 228.5,-118.55 224.5,-124.55"/>
<text text-anchor="middle" x="259.5" y="-134" font-family="Helvetica,sans-Serif" font-size="10.00"> #m_wsIdentifier</text>
</g>
<!-- Node5 -->
<g id="node5" class="node">
<title>Node5</title>
<g id="a_node5"><a xlink:title=" ">
<polygon fill="none" stroke="#bfbfbf" points="300,-193.5 300,-250.5 335,-250.5 335,-193.5 300,-193.5"/>
<text text-anchor="middle" x="317.5" y="-238.5" font-family="Helvetica,sans-Serif" font-size="10.00">bool</text>
<polyline fill="none" stroke="#bfbfbf" points="300,-231.5 335,-231.5 "/>
<text text-anchor="middle" x="317.5" y="-219.5" font-family="Helvetica,sans-Serif" font-size="10.00"> </text>
<polyline fill="none" stroke="#bfbfbf" points="300,-212.5 335,-212.5 "/>
<text text-anchor="middle" x="317.5" y="-200.5" font-family="Helvetica,sans-Serif" font-size="10.00"> </text>
</a>
</g>
</g>
<!-- Node5&#45;&gt;Node1 -->
<g id="edge4" class="edge">
<title>Node5&#45;&gt;Node1</title>
<path fill="none" stroke="#404040" d="M314.56,-193.25C311.69,-174.72 306.14,-150.3 295.5,-131 293.91,-128.11 292.17,-125.26 290.33,-122.45"/>
<polygon fill="none" stroke="#404040" points="290.17,-122.23 283.43,-119.68 283.19,-112.47 289.93,-115.02 290.17,-122.23"/>
<text text-anchor="middle" x="331" y="-134" font-family="Helvetica,sans-Serif" font-size="10.00"> #m_bBoolean</text>
</g>
<!-- Node6 -->
<g id="node6" class="node">
<title>Node6</title>
<g id="a_node6"><a xlink:title=" ">
<polygon fill="none" stroke="#bfbfbf" points="386,-193.5 386,-250.5 421,-250.5 421,-193.5 386,-193.5"/>
<text text-anchor="middle" x="403.5" y="-238.5" font-family="Helvetica,sans-Serif" font-size="10.00">long</text>
<polyline fill="none" stroke="#bfbfbf" points="386,-231.5 421,-231.5 "/>
<text text-anchor="middle" x="403.5" y="-219.5" font-family="Helvetica,sans-Serif" font-size="10.00"> </text>
<polyline fill="none" stroke="#bfbfbf" points="386,-212.5 421,-212.5 "/>
<text text-anchor="middle" x="403.5" y="-200.5" font-family="Helvetica,sans-Serif" font-size="10.00"> </text>
</a>
</g>
</g>
<!-- Node6&#45;&gt;Node1 -->
<g id="edge5" class="edge">
<title>Node6&#45;&gt;Node1</title>
<path fill="none" stroke="#404040" d="M397.55,-193.47C392.18,-174.08 382.59,-148.56 366.5,-131 346.9,-109.6 319.63,-93.43 294.22,-81.77"/>
<polygon fill="none" stroke="#404040" points="294.09,-81.71 286.99,-82.97 283.1,-76.89 290.2,-75.64 294.09,-81.71"/>
<text text-anchor="middle" x="403.5" y="-134" font-family="Helvetica,sans-Serif" font-size="10.00"> #m_lNumber</text>
</g>
</g>
</svg>
