<?xml version="1.0" encoding="UTF-8" standalone="no"?>
<!DOCTYPE svg PUBLIC "-//W3C//DTD SVG 1.1//EN"
 "http://www.w3.org/Graphics/SVG/1.1/DTD/svg11.dtd">
<!-- Generated by graphviz version 2.50.0 (20211204.2007)
 -->
<!-- Title: StreamTokenizer Pages: 1 -->
<svg width="218pt" height="354pt"
 viewBox="0.00 0.00 218.00 354.00" xmlns="http://www.w3.org/2000/svg" xmlns:xlink="http://www.w3.org/1999/xlink">
<g id="graph0" class="graph" transform="scale(1 1) rotate(0) translate(4 350)">
<title>StreamTokenizer</title>
<!-- Node1 -->
<g id="node1" class="node">
<title>Node1</title>
<g id="a_node1"><a xlink:title=" ">
<polygon fill="#bfbfbf" stroke="black" points="52.5,-0.5 52.5,-79.5 157.5,-79.5 157.5,-0.5 52.5,-0.5"/>
<text text-anchor="middle" x="105" y="-67.5" font-family="Helvetica,sans-Serif" font-size="10.00">StreamTokenizer</text>
<polyline fill="none" stroke="black" points="52.5,-60.5 157.5,-60.5 "/>
<text text-anchor="middle" x="105" y="-48.5" font-family="Helvetica,sans-Serif" font-size="10.00"> </text>
<polyline fill="none" stroke="black" points="52.5,-41.5 157.5,-41.5 "/>
<text text-anchor="start" x="60.5" y="-29.5" font-family="Helvetica,sans-Serif" font-size="10.00">+ StreamTokenizer()</text>
<text text-anchor="start" x="60.5" y="-18.5" font-family="Helvetica,sans-Serif" font-size="10.00">+ HasNext()</text>
<text text-anchor="start" x="60.5" y="-7.5" font-family="Helvetica,sans-Serif" font-size="10.00">+ GetNext()</text>
</a>
</g>
</g>
<!-- Node2 -->
<g id="node2" class="node">
<title>Node2</title>
<g id="a_node2"><a xlink:href="class_abstract_tokenizer.html" target="_top" xlink:title=" ">
<polygon fill="none" stroke="black" points="47,-117.5 47,-218.5 163,-218.5 163,-117.5 47,-117.5"/>
<text text-anchor="middle" x="105" y="-206.5" font-family="Helvetica,sans-Serif" font-size="10.00">AbstractTokenizer</text>
<polyline fill="none" stroke="black" points="47,-199.5 163,-199.5 "/>
<text text-anchor="middle" x="105" y="-187.5" font-family="Helvetica,sans-Serif" font-size="10.00"> </text>
<polyline fill="none" stroke="black" points="47,-180.5 163,-180.5 "/>
<text text-anchor="start" x="55" y="-168.5" font-family="Helvetica,sans-Serif" font-size="10.00">+ AbstractTokenizer()</text>
<text text-anchor="start" x="55" y="-157.5" font-family="Helvetica,sans-Serif" font-size="10.00">+ ~AbstractTokenizer()</text>
<text text-anchor="start" x="55" y="-146.5" font-family="Helvetica,sans-Serif" font-size="10.00"># IsDelim()</text>
<text text-anchor="start" x="55" y="-135.5" font-family="Helvetica,sans-Serif" font-size="10.00"># IsWord()</text>
<text text-anchor="start" x="55" y="-124.5" font-family="Helvetica,sans-Serif" font-size="10.00"># IsNumber()</text>
</a>
</g>
</g>
<!-- Node2&#45;&gt;Node1 -->
<g id="edge1" class="edge">
<title>Node2&#45;&gt;Node1</title>
<path fill="none" stroke="midnightblue" d="M105,-107.11C105,-97.74 105,-88.28 105,-79.56"/>
<polygon fill="none" stroke="midnightblue" points="101.5,-107.2 105,-117.2 108.5,-107.2 101.5,-107.2"/>
</g>
<!-- Node3 -->
<g id="node3" class="node">
<title>Node3</title>
<g id="a_node3"><a xlink:href="class_tokenizer_interface.html" target="_top" xlink:title=" ">
<polygon fill="none" stroke="black" points="0,-266.5 0,-345.5 116,-345.5 116,-266.5 0,-266.5"/>
<text text-anchor="middle" x="58" y="-333.5" font-family="Helvetica,sans-Serif" font-size="10.00">TokenizerInterface</text>
<polyline fill="none" stroke="black" points="0,-326.5 116,-326.5 "/>
<text text-anchor="middle" x="58" y="-314.5" font-family="Helvetica,sans-Serif" font-size="10.00"> </text>
<polyline fill="none" stroke="black" points="0,-307.5 116,-307.5 "/>
<text text-anchor="start" x="8" y="-295.5" font-family="Helvetica,sans-Serif" font-size="10.00">+ ~TokenizerInterface()</text>
<text text-anchor="start" x="8" y="-284.5" font-family="Helvetica,sans-Serif" font-size="10.00">+ HasNext()</text>
<text text-anchor="start" x="8" y="-273.5" font-family="Helvetica,sans-Serif" font-size="10.00">+ GetNext()</text>
</a>
</g>
</g>
<!-- Node3&#45;&gt;Node2 -->
<g id="edge2" class="edge">
<title>Node3&#45;&gt;Node2</title>
<path fill="none" stroke="midnightblue" d="M74.66,-256.78C78.91,-244.5 83.48,-231.27 87.75,-218.91"/>
<polygon fill="none" stroke="midnightblue" points="71.3,-255.8 71.34,-266.39 77.92,-258.08 71.3,-255.8"/>
</g>
<!-- Node4 -->
<g id="node4" class="node">
<title>Node4</title>
<g id="a_node4"><a xlink:title=" ">
<polygon fill="none" stroke="#bfbfbf" points="134.5,-277.5 134.5,-334.5 169.5,-334.5 169.5,-277.5 134.5,-277.5"/>
<text text-anchor="middle" x="152" y="-322.5" font-family="Helvetica,sans-Serif" font-size="10.00">char</text>
<polyline fill="none" stroke="#bfbfbf" points="134.5,-315.5 169.5,-315.5 "/>
<text text-anchor="middle" x="152" y="-303.5" font-family="Helvetica,sans-Serif" font-size="10.00"> </text>
<polyline fill="none" stroke="#bfbfbf" points="134.5,-296.5 169.5,-296.5 "/>
<text text-anchor="middle" x="152" y="-284.5" font-family="Helvetica,sans-Serif" font-size="10.00"> </text>
</a>
</g>
</g>
<!-- Node4&#45;&gt;Node2 -->
<g id="edge3" class="edge">
<title>Node4&#45;&gt;Node2</title>
<path fill="none" stroke="#404040" d="M142.49,-277.48C137.81,-263.93 131.96,-247 126.28,-230.58"/>
<polygon fill="none" stroke="#404040" points="126.12,-230.11 120.38,-225.74 122.2,-218.76 127.94,-223.13 126.12,-230.11"/>
<text text-anchor="middle" x="170.5" y="-240" font-family="Helvetica,sans-Serif" font-size="10.00"> #m_cCurrentChar</text>
</g>
</g>
</svg>
