<?xml version="1.0" encoding="UTF-8" standalone="no"?>
<!DOCTYPE svg PUBLIC "-//W3C//DTD SVG 1.1//EN"
 "http://www.w3.org/Graphics/SVG/1.1/DTD/svg11.dtd">
<!-- Generated by graphviz version 2.50.0 (20211204.2007)
 -->
<!-- Title: AbstractTokenizer Pages: 1 -->
<svg width="218pt" height="237pt"
 viewBox="0.00 0.00 218.00 237.00" xmlns="http://www.w3.org/2000/svg" xmlns:xlink="http://www.w3.org/1999/xlink">
<g id="graph0" class="graph" transform="scale(1 1) rotate(0) translate(4 233)">
<title>AbstractTokenizer</title>
<!-- Node1 -->
<g id="node1" class="node">
<title>Node1</title>
<g id="a_node1"><a xlink:title=" ">
<polygon fill="#bfbfbf" stroke="black" points="47,-0.5 47,-101.5 163,-101.5 163,-0.5 47,-0.5"/>
<text text-anchor="middle" x="105" y="-89.5" font-family="Helvetica,sans-Serif" font-size="10.00">AbstractTokenizer</text>
<polyline fill="none" stroke="black" points="47,-82.5 163,-82.5 "/>
<text text-anchor="middle" x="105" y="-70.5" font-family="Helvetica,sans-Serif" font-size="10.00"> </text>
<polyline fill="none" stroke="black" points="47,-63.5 163,-63.5 "/>
<text text-anchor="start" x="55" y="-51.5" font-family="Helvetica,sans-Serif" font-size="10.00">+ AbstractTokenizer()</text>
<text text-anchor="start" x="55" y="-40.5" font-family="Helvetica,sans-Serif" font-size="10.00">+ ~AbstractTokenizer()</text>
<text text-anchor="start" x="55" y="-29.5" font-family="Helvetica,sans-Serif" font-size="10.00"># IsDelim()</text>
<text text-anchor="start" x="55" y="-18.5" font-family="Helvetica,sans-Serif" font-size="10.00"># IsWord()</text>
<text text-anchor="start" x="55" y="-7.5" font-family="Helvetica,sans-Serif" font-size="10.00"># IsNumber()</text>
</a>
</g>
</g>
<!-- Node2 -->
<g id="node2" class="node">
<title>Node2</title>
<g id="a_node2"><a xlink:href="class_tokenizer_interface.html" target="_top" xlink:title=" ">
<polygon fill="none" stroke="black" points="0,-149.5 0,-228.5 116,-228.5 116,-149.5 0,-149.5"/>
<text text-anchor="middle" x="58" y="-216.5" font-family="Helvetica,sans-Serif" font-size="10.00">TokenizerInterface</text>
<polyline fill="none" stroke="black" points="0,-209.5 116,-209.5 "/>
<text text-anchor="middle" x="58" y="-197.5" font-family="Helvetica,sans-Serif" font-size="10.00"> </text>
<polyline fill="none" stroke="black" points="0,-190.5 116,-190.5 "/>
<text text-anchor="start" x="8" y="-178.5" font-family="Helvetica,sans-Serif" font-size="10.00">+ ~TokenizerInterface()</text>
<text text-anchor="start" x="8" y="-167.5" font-family="Helvetica,sans-Serif" font-size="10.00">+ HasNext()</text>
<text text-anchor="start" x="8" y="-156.5" font-family="Helvetica,sans-Serif" font-size="10.00">+ GetNext()</text>
</a>
</g>
</g>
<!-- Node2&#45;&gt;Node1 -->
<g id="edge1" class="edge">
<title>Node2&#45;&gt;Node1</title>
<path fill="none" stroke="midnightblue" d="M74.66,-139.78C78.91,-127.5 83.48,-114.27 87.75,-101.91"/>
<polygon fill="none" stroke="midnightblue" points="71.3,-138.8 71.34,-149.39 77.92,-141.08 71.3,-138.8"/>
</g>
<!-- Node3 -->
<g id="node3" class="node">
<title>Node3</title>
<g id="a_node3"><a xlink:title=" ">
<polygon fill="none" stroke="#bfbfbf" points="134.5,-160.5 134.5,-217.5 169.5,-217.5 169.5,-160.5 134.5,-160.5"/>
<text text-anchor="middle" x="152" y="-205.5" font-family="Helvetica,sans-Serif" font-size="10.00">char</text>
<polyline fill="none" stroke="#bfbfbf" points="134.5,-198.5 169.5,-198.5 "/>
<text text-anchor="middle" x="152" y="-186.5" font-family="Helvetica,sans-Serif" font-size="10.00"> </text>
<polyline fill="none" stroke="#bfbfbf" points="134.5,-179.5 169.5,-179.5 "/>
<text text-anchor="middle" x="152" y="-167.5" font-family="Helvetica,sans-Serif" font-size="10.00"> </text>
</a>
</g>
</g>
<!-- Node3&#45;&gt;Node1 -->
<g id="edge2" class="edge">
<title>Node3&#45;&gt;Node1</title>
<path fill="none" stroke="#404040" d="M142.49,-160.48C137.81,-146.93 131.96,-130 126.28,-113.58"/>
<polygon fill="none" stroke="#404040" points="126.12,-113.11 120.38,-108.74 122.2,-101.76 127.94,-106.13 126.12,-113.11"/>
<text text-anchor="middle" x="170.5" y="-123" font-family="Helvetica,sans-Serif" font-size="10.00"> #m_cCurrentChar</text>
</g>
</g>
</svg>
