<?xml version="1.0" encoding="UTF-8" standalone="no"?>
<!DOCTYPE svg PUBLIC "-//W3C//DTD SVG 1.1//EN"
 "http://www.w3.org/Graphics/SVG/1.1/DTD/svg11.dtd">
<!-- Generated by graphviz version 2.50.0 (20211204.2007)
 -->
<!-- Title: StatementInterface Pages: 1 -->
<svg width="248pt" height="276pt"
 viewBox="0.00 0.00 248.00 276.00" xmlns="http://www.w3.org/2000/svg" xmlns:xlink="http://www.w3.org/1999/xlink">
<g id="graph0" class="graph" transform="scale(1 1) rotate(0) translate(4 272)">
<title>StatementInterface</title>
<!-- Node1 -->
<g id="node1" class="node">
<title>Node1</title>
<g id="a_node1"><a xlink:title=" ">
<polygon fill="#bfbfbf" stroke="black" points="59.5,-199.5 59.5,-267.5 178.5,-267.5 178.5,-199.5 59.5,-199.5"/>
<text text-anchor="middle" x="119" y="-255.5" font-family="Helvetica,sans-Serif" font-size="10.00">StatementInterface</text>
<polyline fill="none" stroke="black" points="59.5,-248.5 178.5,-248.5 "/>
<text text-anchor="middle" x="119" y="-236.5" font-family="Helvetica,sans-Serif" font-size="10.00"> </text>
<polyline fill="none" stroke="black" points="59.5,-229.5 178.5,-229.5 "/>
<text text-anchor="start" x="67.5" y="-217.5" font-family="Helvetica,sans-Serif" font-size="10.00">+ ~StatementInterface()</text>
<text text-anchor="start" x="67.5" y="-206.5" font-family="Helvetica,sans-Serif" font-size="10.00">+ Interpret()</text>
</a>
</g>
</g>
<!-- Node2 -->
<g id="node2" class="node">
<title>Node2</title>
<g id="a_node2"><a xlink:href="class_abstract_statement.html" target="_top" xlink:title=" ">
<polygon fill="none" stroke="black" points="70,-105.5 70,-162.5 168,-162.5 168,-105.5 70,-105.5"/>
<text text-anchor="middle" x="119" y="-150.5" font-family="Helvetica,sans-Serif" font-size="10.00">AbstractStatement</text>
<polyline fill="none" stroke="black" points="70,-143.5 168,-143.5 "/>
<text text-anchor="middle" x="119" y="-131.5" font-family="Helvetica,sans-Serif" font-size="10.00"> </text>
<polyline fill="none" stroke="black" points="70,-124.5 168,-124.5 "/>
<text text-anchor="start" x="78" y="-112.5" font-family="Helvetica,sans-Serif" font-size="10.00"># Expect()</text>
</a>
</g>
</g>
<!-- Node1&#45;&gt;Node2 -->
<g id="edge1" class="edge">
<title>Node1&#45;&gt;Node2</title>
<path fill="none" stroke="midnightblue" d="M119,-189.45C119,-180.4 119,-171.09 119,-162.78"/>
<polygon fill="none" stroke="midnightblue" points="115.5,-189.49 119,-199.49 122.5,-189.49 115.5,-189.49"/>
</g>
<!-- Node3 -->
<g id="node3" class="node">
<title>Node3</title>
<g id="a_node3"><a xlink:href="class_printing_statement.html" target="_top" xlink:title=" ">
<polygon fill="none" stroke="black" points="0,-0.5 0,-68.5 110,-68.5 110,-0.5 0,-0.5"/>
<text text-anchor="middle" x="55" y="-56.5" font-family="Helvetica,sans-Serif" font-size="10.00">PrintingStatement</text>
<polyline fill="none" stroke="black" points="0,-49.5 110,-49.5 "/>
<text text-anchor="middle" x="55" y="-37.5" font-family="Helvetica,sans-Serif" font-size="10.00"> </text>
<polyline fill="none" stroke="black" points="0,-30.5 110,-30.5 "/>
<text text-anchor="start" x="8" y="-18.5" font-family="Helvetica,sans-Serif" font-size="10.00">+ PrintingStatement()</text>
<text text-anchor="start" x="8" y="-7.5" font-family="Helvetica,sans-Serif" font-size="10.00">+ Interpret()</text>
</a>
</g>
</g>
<!-- Node2&#45;&gt;Node3 -->
<g id="edge2" class="edge">
<title>Node2&#45;&gt;Node3</title>
<path fill="none" stroke="midnightblue" d="M95.22,-96.77C89.2,-87.6 82.77,-77.8 76.85,-68.79"/>
<polygon fill="none" stroke="midnightblue" points="92.42,-98.88 100.83,-105.32 98.27,-95.04 92.42,-98.88"/>
</g>
<!-- Node4 -->
<g id="node4" class="node">
<title>Node4</title>
<g id="a_node4"><a xlink:href="class_variable_statement.html" target="_top" xlink:title=" ">
<polygon fill="none" stroke="black" points="128,-0.5 128,-68.5 240,-68.5 240,-0.5 128,-0.5"/>
<text text-anchor="middle" x="184" y="-56.5" font-family="Helvetica,sans-Serif" font-size="10.00">VariableStatement</text>
<polyline fill="none" stroke="black" points="128,-49.5 240,-49.5 "/>
<text text-anchor="middle" x="184" y="-37.5" font-family="Helvetica,sans-Serif" font-size="10.00"> </text>
<polyline fill="none" stroke="black" points="128,-30.5 240,-30.5 "/>
<text text-anchor="start" x="136" y="-18.5" font-family="Helvetica,sans-Serif" font-size="10.00">+ VariableStatement()</text>
<text text-anchor="start" x="136" y="-7.5" font-family="Helvetica,sans-Serif" font-size="10.00">+ Interpret()</text>
</a>
</g>
</g>
<!-- Node2&#45;&gt;Node4 -->
<g id="edge3" class="edge">
<title>Node2&#45;&gt;Node4</title>
<path fill="none" stroke="midnightblue" d="M143.15,-96.77C149.26,-87.6 155.8,-77.8 161.81,-68.79"/>
<polygon fill="none" stroke="midnightblue" points="140.09,-95.06 137.45,-105.32 145.91,-98.94 140.09,-95.06"/>
</g>
</g>
</svg>
