<?xml version="1.0" encoding="UTF-8" standalone="no"?>
<!DOCTYPE svg PUBLIC "-//W3C//DTD SVG 1.1//EN"
 "http://www.w3.org/Graphics/SVG/1.1/DTD/svg11.dtd">
<!-- Generated by graphviz version 2.50.0 (20211204.2007)
 -->
<!-- Title: OperatorExpression Pages: 1 -->
<!--zoomable 557 -->
<svg id="main" version="1.1" xmlns="http://www.w3.org/2000/svg" xmlns:xlink="http://www.w3.org/1999/xlink" xml:space="preserve" onload="init(evt)">
<style type="text/css"><![CDATA[
.edge:hover path { stroke: red; }
.edge:hover polygon { stroke: red; fill: red; }
]]></style>
<script type="text/javascript"><![CDATA[
var edges = document.getElementsByTagName('g');
if (edges && edges.length) {
  for (var i=0;i<edges.length;i++) {
    if (edges[i].id.substr(0,4)=='edge') {
      edges[i].setAttribute('class','edge');
    }
  }
}
]]></script>
        <defs>
                <circle id="rim" cx="0" cy="0" r="7"/>
                <circle id="rim2" cx="0" cy="0" r="3.5"/>
                <g id="zoomPlus">
                        <use xlink:href="#rim" fill="#404040">
                                <set attributeName="fill" to="#808080" begin="zoomplus.mouseover" end="zoomplus.mouseout"/>
                        </use>
                        <path d="M-4,0h8M0,-4v8" fill="none" stroke="white" stroke-width="1.5" pointer-events="none"/>
                </g>
                <g id="zoomMin">
                        <use xlink:href="#rim" fill="#404040">
                                <set attributeName="fill" to="#808080" begin="zoomminus.mouseover" end="zoomminus.mouseout"/>
                        </use>
                        <path d="M-4,0h8" fill="none" stroke="white" stroke-width="1.5" pointer-events="none"/>
                </g>
                <g id="dirArrow">
                        <path fill="none" stroke="white" stroke-width="1.5" d="M0,-3.0v7 M-2.5,-0.5L0,-3.0L2.5,-0.5"/>
                </g>
               <g id="resetDef">
                       <use xlink:href="#rim2" fill="#404040">
                               <set attributeName="fill" to="#808080" begin="reset.mouseover" end="reset.mouseout"/>
                       </use>
               </g>
        </defs>

<script type="text/javascript">
var viewWidth = 690;
var viewHeight = 557;
var sectionId = 'dynsection-0';
</script>
<script xlink:href="svgpan.js"/>
<svg id="graph" class="graph">
<g id="viewport">
<title>OperatorExpression</title>
<!-- Node1 -->
<g id="node1" class="node">
<title>Node1</title>
<g id="a_node1"><a xlink:title=" ">
<polygon fill="#bfbfbf" stroke="black" points="260,-105.5 260,-206.5 384,-206.5 384,-105.5 260,-105.5"/>
<text text-anchor="middle" x="322" y="-194.5" font-family="Helvetica,sans-Serif" font-size="10.00">OperatorExpression</text>
<polyline fill="none" stroke="black" points="260,-187.5 384,-187.5 "/>
<text text-anchor="start" x="268" y="-175.5" font-family="Helvetica,sans-Serif" font-size="10.00"># m_leftExpression</text>
<text text-anchor="start" x="268" y="-164.5" font-family="Helvetica,sans-Serif" font-size="10.00"># m_rightExpression</text>
<polyline fill="none" stroke="black" points="260,-157.5 384,-157.5 "/>
<text text-anchor="start" x="268" y="-145.5" font-family="Helvetica,sans-Serif" font-size="10.00">+ OperatorExpression()</text>
<text text-anchor="start" x="268" y="-134.5" font-family="Helvetica,sans-Serif" font-size="10.00">+ ~OperatorExpression()</text>
<text text-anchor="start" x="268" y="-123.5" font-family="Helvetica,sans-Serif" font-size="10.00">+ Interpret()</text>
<text text-anchor="start" x="268" y="-112.5" font-family="Helvetica,sans-Serif" font-size="10.00">+ DoInterpret()</text>
</a>
</g>
</g>
<!-- Node4 -->
<g id="node4" class="node">
<title>Node4</title>
<g id="a_node4"><a xlink:href="class_addition_expression.html" target="_top" xlink:title=" ">
<polygon fill="none" stroke="black" points="0,-0.5 0,-68.5 116,-68.5 116,-0.5 0,-0.5"/>
<text text-anchor="middle" x="58" y="-56.5" font-family="Helvetica,sans-Serif" font-size="10.00">AdditionExpression</text>
<polyline fill="none" stroke="black" points="0,-49.5 116,-49.5 "/>
<text text-anchor="middle" x="58" y="-37.5" font-family="Helvetica,sans-Serif" font-size="10.00"> </text>
<polyline fill="none" stroke="black" points="0,-30.5 116,-30.5 "/>
<text text-anchor="start" x="8" y="-18.5" font-family="Helvetica,sans-Serif" font-size="10.00">+ AdditionExpression()</text>
<text text-anchor="start" x="8" y="-7.5" font-family="Helvetica,sans-Serif" font-size="10.00">+ DoInterpret()</text>
</a>
</g>
</g>
<!-- Node1&#45;&gt;Node4 -->
<g id="edge3" class="edge">
<title>Node1&#45;&gt;Node4</title>
<path fill="none" stroke="midnightblue" d="M250.61,-124.9C213.03,-108.78 166.29,-88.32 125,-69 122.06,-67.62 119.05,-66.19 116.01,-64.74"/>
<polygon fill="none" stroke="midnightblue" points="249.39,-128.18 259.96,-128.9 252.15,-121.75 249.39,-128.18"/>
</g>
<!-- Node5 -->
<g id="node5" class="node">
<title>Node5</title>
<g id="a_node5"><a xlink:href="class_division_expression.html" target="_top" xlink:title=" ">
<polygon fill="none" stroke="black" points="134.5,-0.5 134.5,-68.5 247.5,-68.5 247.5,-0.5 134.5,-0.5"/>
<text text-anchor="middle" x="191" y="-56.5" font-family="Helvetica,sans-Serif" font-size="10.00">DivisionExpression</text>
<polyline fill="none" stroke="black" points="134.5,-49.5 247.5,-49.5 "/>
<text text-anchor="middle" x="191" y="-37.5" font-family="Helvetica,sans-Serif" font-size="10.00"> </text>
<polyline fill="none" stroke="black" points="134.5,-30.5 247.5,-30.5 "/>
<text text-anchor="start" x="142.5" y="-18.5" font-family="Helvetica,sans-Serif" font-size="10.00">+ DivisionExpression()</text>
<text text-anchor="start" x="142.5" y="-7.5" font-family="Helvetica,sans-Serif" font-size="10.00">+ DoInterpret()</text>
</a>
</g>
</g>
<!-- Node1&#45;&gt;Node5 -->
<g id="edge4" class="edge">
<title>Node1&#45;&gt;Node5</title>
<path fill="none" stroke="midnightblue" d="M259.94,-98.39C248.84,-88.26 237.62,-78.02 227.53,-68.83"/>
<polygon fill="none" stroke="midnightblue" points="257.84,-101.21 267.58,-105.36 262.55,-96.03 257.84,-101.21"/>
</g>
<!-- Node6 -->
<g id="node6" class="node">
<title>Node6</title>
<g id="a_node6"><a xlink:href="class_modulo_expression.html" target="_top" xlink:title=" ">
<polygon fill="none" stroke="black" points="266,-0.5 266,-68.5 378,-68.5 378,-0.5 266,-0.5"/>
<text text-anchor="middle" x="322" y="-56.5" font-family="Helvetica,sans-Serif" font-size="10.00">ModuloExpression</text>
<polyline fill="none" stroke="black" points="266,-49.5 378,-49.5 "/>
<text text-anchor="middle" x="322" y="-37.5" font-family="Helvetica,sans-Serif" font-size="10.00"> </text>
<polyline fill="none" stroke="black" points="266,-30.5 378,-30.5 "/>
<text text-anchor="start" x="274" y="-18.5" font-family="Helvetica,sans-Serif" font-size="10.00">+ ModuloExpression()</text>
<text text-anchor="start" x="274" y="-7.5" font-family="Helvetica,sans-Serif" font-size="10.00">+ DoInterpret()</text>
</a>
</g>
</g>
<!-- Node1&#45;&gt;Node6 -->
<g id="edge5" class="edge">
<title>Node1&#45;&gt;Node6</title>
<path fill="none" stroke="midnightblue" d="M322,-95.17C322,-86.11 322,-77.05 322,-68.83"/>
<polygon fill="none" stroke="midnightblue" points="318.5,-95.36 322,-105.36 325.5,-95.36 318.5,-95.36"/>
</g>
<!-- Node7 -->
<g id="node7" class="node">
<title>Node7</title>
<g id="a_node7"><a xlink:href="class_multiplication_expression.html" target="_top" xlink:title=" ">
<polygon fill="none" stroke="black" points="396.5,-0.5 396.5,-68.5 533.5,-68.5 533.5,-0.5 396.5,-0.5"/>
<text text-anchor="middle" x="465" y="-56.5" font-family="Helvetica,sans-Serif" font-size="10.00">MultiplicationExpression</text>
<polyline fill="none" stroke="black" points="396.5,-49.5 533.5,-49.5 "/>
<text text-anchor="middle" x="465" y="-37.5" font-family="Helvetica,sans-Serif" font-size="10.00"> </text>
<polyline fill="none" stroke="black" points="396.5,-30.5 533.5,-30.5 "/>
<text text-anchor="start" x="404.5" y="-18.5" font-family="Helvetica,sans-Serif" font-size="10.00">+ MultiplicationExpression()</text>
<text text-anchor="start" x="404.5" y="-7.5" font-family="Helvetica,sans-Serif" font-size="10.00">+ DoInterpret()</text>
</a>
</g>
</g>
<!-- Node1&#45;&gt;Node7 -->
<g id="edge6" class="edge">
<title>Node1&#45;&gt;Node7</title>
<path fill="none" stroke="midnightblue" d="M389.4,-98.68C401.62,-88.46 414.01,-78.11 425.12,-68.83"/>
<polygon fill="none" stroke="midnightblue" points="386.83,-96.26 381.4,-105.36 391.32,-101.63 386.83,-96.26"/>
</g>
<!-- Node8 -->
<g id="node8" class="node">
<title>Node8</title>
<g id="a_node8"><a xlink:href="class_subtraction_expression.html" target="_top" xlink:title=" ">
<polygon fill="none" stroke="black" points="552,-0.5 552,-68.5 682,-68.5 682,-0.5 552,-0.5"/>
<text text-anchor="middle" x="617" y="-56.5" font-family="Helvetica,sans-Serif" font-size="10.00">SubtractionExpression</text>
<polyline fill="none" stroke="black" points="552,-49.5 682,-49.5 "/>
<text text-anchor="middle" x="617" y="-37.5" font-family="Helvetica,sans-Serif" font-size="10.00"> </text>
<polyline fill="none" stroke="black" points="552,-30.5 682,-30.5 "/>
<text text-anchor="start" x="560" y="-18.5" font-family="Helvetica,sans-Serif" font-size="10.00">+ SubtractionExpression()</text>
<text text-anchor="start" x="560" y="-7.5" font-family="Helvetica,sans-Serif" font-size="10.00">+ DoInterpret()</text>
</a>
</g>
</g>
<!-- Node1&#45;&gt;Node8 -->
<g id="edge7" class="edge">
<title>Node1&#45;&gt;Node8</title>
<path fill="none" stroke="midnightblue" d="M393.9,-128.15C437.31,-111.65 493.6,-89.77 543,-69 545.86,-67.8 548.77,-66.55 551.71,-65.29"/>
<polygon fill="none" stroke="midnightblue" points="392.39,-124.98 384.28,-131.79 394.87,-131.52 392.39,-124.98"/>
</g>
<!-- Node2 -->
<g id="node2" class="node">
<title>Node2</title>
<g id="a_node2"><a xlink:href="class_abstract_expression.html" target="_top" xlink:title=" ">
<polygon fill="none" stroke="black" points="263.5,-243.5 263.5,-388.5 380.5,-388.5 380.5,-243.5 263.5,-243.5"/>
<text text-anchor="middle" x="322" y="-376.5" font-family="Helvetica,sans-Serif" font-size="10.00">AbstractExpression</text>
<polyline fill="none" stroke="black" points="263.5,-369.5 380.5,-369.5 "/>
<text text-anchor="start" x="271.5" y="-357.5" font-family="Helvetica,sans-Serif" font-size="10.00"># m_iType</text>
<text text-anchor="start" x="271.5" y="-346.5" font-family="Helvetica,sans-Serif" font-size="10.00"># m_wsIdentifier</text>
<text text-anchor="start" x="271.5" y="-335.5" font-family="Helvetica,sans-Serif" font-size="10.00"># m_bBoolean</text>
<text text-anchor="start" x="271.5" y="-324.5" font-family="Helvetica,sans-Serif" font-size="10.00"># m_lNumber</text>
<polyline fill="none" stroke="black" points="263.5,-317.5 380.5,-317.5 "/>
<text text-anchor="start" x="271.5" y="-305.5" font-family="Helvetica,sans-Serif" font-size="10.00">+ AbstractExpression()</text>
<text text-anchor="start" x="271.5" y="-294.5" font-family="Helvetica,sans-Serif" font-size="10.00">+ SetType()</text>
<text text-anchor="start" x="271.5" y="-283.5" font-family="Helvetica,sans-Serif" font-size="10.00">+ GetType()</text>
<text text-anchor="start" x="271.5" y="-272.5" font-family="Helvetica,sans-Serif" font-size="10.00">+ GetIdentifier()</text>
<text text-anchor="start" x="271.5" y="-261.5" font-family="Helvetica,sans-Serif" font-size="10.00">+ GetBoolean()</text>
<text text-anchor="start" x="271.5" y="-250.5" font-family="Helvetica,sans-Serif" font-size="10.00">+ GetNumber()</text>
</a>
</g>
</g>
<!-- Node2&#45;&gt;Node1 -->
<g id="edge1" class="edge">
<title>Node2&#45;&gt;Node1</title>
<path fill="none" stroke="midnightblue" d="M322,-233.19C322,-224.14 322,-215.14 322,-206.67"/>
<polygon fill="none" stroke="midnightblue" points="318.5,-233.4 322,-243.4 325.5,-233.4 318.5,-233.4"/>
</g>
<!-- Node3 -->
<g id="node3" class="node">
<title>Node3</title>
<g id="a_node3"><a xlink:href="class_expression_interface.html" target="_top" xlink:title=" ">
<polygon fill="none" stroke="black" points="260.5,-425.5 260.5,-548.5 383.5,-548.5 383.5,-425.5 260.5,-425.5"/>
<text text-anchor="middle" x="322" y="-536.5" font-family="Helvetica,sans-Serif" font-size="10.00">ExpressionInterface</text>
<polyline fill="none" stroke="black" points="260.5,-529.5 383.5,-529.5 "/>
<text text-anchor="middle" x="322" y="-517.5" font-family="Helvetica,sans-Serif" font-size="10.00"> </text>
<polyline fill="none" stroke="black" points="260.5,-510.5 383.5,-510.5 "/>
<text text-anchor="start" x="268.5" y="-498.5" font-family="Helvetica,sans-Serif" font-size="10.00">+ ~ExpressionInterface()</text>
<text text-anchor="start" x="268.5" y="-487.5" font-family="Helvetica,sans-Serif" font-size="10.00">+ Interpret()</text>
<text text-anchor="start" x="268.5" y="-476.5" font-family="Helvetica,sans-Serif" font-size="10.00">+ SetType()</text>
<text text-anchor="start" x="268.5" y="-465.5" font-family="Helvetica,sans-Serif" font-size="10.00">+ GetType()</text>
<text text-anchor="start" x="268.5" y="-454.5" font-family="Helvetica,sans-Serif" font-size="10.00">+ GetIdentifier()</text>
<text text-anchor="start" x="268.5" y="-443.5" font-family="Helvetica,sans-Serif" font-size="10.00">+ GetBoolean()</text>
<text text-anchor="start" x="268.5" y="-432.5" font-family="Helvetica,sans-Serif" font-size="10.00">+ GetNumber()</text>
</a>
</g>
</g>
<!-- Node3&#45;&gt;Node2 -->
<g id="edge2" class="edge">
<title>Node3&#45;&gt;Node2</title>
<path fill="none" stroke="midnightblue" d="M322,-415.25C322,-406.46 322,-397.45 322,-388.64"/>
<polygon fill="none" stroke="midnightblue" points="318.5,-415.46 322,-425.46 325.5,-415.46 318.5,-415.46"/>
</g>
</g>
</svg>
        <g id="navigator" transform="translate(0 0)" fill="#404254">
                <rect fill="#f2f5e9" fill-opacity="0.5" stroke="#606060" stroke-width=".5" x="0" y="0" width="60" height="60"/>
                <use id="zoomplus" xlink:href="#zoomPlus" x="17" y="9" onmousedown="handleZoom(evt,'in')"/>
                <use id="zoomminus" xlink:href="#zoomMin" x="42" y="9" onmousedown="handleZoom(evt,'out')"/>
                <use id="reset" xlink:href="#resetDef" x="30" y="36" onmousedown="handleReset()"/>
                <g id="arrowUp" xlink:href="#dirArrow" transform="translate(30 24)" onmousedown="handlePan(0,-1)">
                  <use xlink:href="#rim" fill="#404040">
                        <set attributeName="fill" to="#808080" begin="arrowUp.mouseover" end="arrowUp.mouseout"/>
                  </use>
                  <path fill="none" stroke="white" stroke-width="1.5" d="M0,-3.0v7 M-2.5,-0.5L0,-3.0L2.5,-0.5"/>
                </g>
                <g id="arrowRight" xlink:href="#dirArrow" transform="rotate(90) translate(36 -43)" onmousedown="handlePan(1,0)">
                  <use xlink:href="#rim" fill="#404040">
                        <set attributeName="fill" to="#808080" begin="arrowRight.mouseover" end="arrowRight.mouseout"/>
                  </use>
                  <path fill="none" stroke="white" stroke-width="1.5" d="M0,-3.0v7 M-2.5,-0.5L0,-3.0L2.5,-0.5"/>
                </g>
                <g id="arrowDown" xlink:href="#dirArrow" transform="rotate(180) translate(-30 -48)" onmousedown="handlePan(0,1)">
                  <use xlink:href="#rim" fill="#404040">
                        <set attributeName="fill" to="#808080" begin="arrowDown.mouseover" end="arrowDown.mouseout"/>
                  </use>
                  <path fill="none" stroke="white" stroke-width="1.5" d="M0,-3.0v7 M-2.5,-0.5L0,-3.0L2.5,-0.5"/>
                </g>
                <g id="arrowLeft" xlink:href="#dirArrow" transform="rotate(270) translate(-36 17)" onmousedown="handlePan(-1,0)">
                  <use xlink:href="#rim" fill="#404040">
                        <set attributeName="fill" to="#808080" begin="arrowLeft.mouseover" end="arrowLeft.mouseout"/>
                  </use>
                  <path fill="none" stroke="white" stroke-width="1.5" d="M0,-3.0v7 M-2.5,-0.5L0,-3.0L2.5,-0.5"/>
                </g>
        </g>
        <svg viewBox="0 0 15 15" width="100%" height="30px" preserveAspectRatio="xMaxYMin meet">
         <g id="arrow_out" transform="scale(0.3 0.3)">
          <a xlink:href="class_operator_expression__inherit__graph_org.svg" target="_base">
           <rect id="button" ry="5" rx="5" y="6" x="6" height="38" width="38"
                fill="#f2f5e9" fill-opacity="0.5" stroke="#606060" stroke-width="1.0"/>
           <path id="arrow"
             d="M 11.500037,31.436501 C 11.940474,20.09759 22.043105,11.32322 32.158766,21.979434 L 37.068811,17.246167 C 37.068811,17.246167 37.088388,32 37.088388,32 L 22.160133,31.978069 C 22.160133,31.978069 26.997745,27.140456 26.997745,27.140456 C 18.528582,18.264221 13.291696,25.230495 11.500037,31.436501 z"
             style="fill:#404040;"/>
          </a>
         </g>
        </svg>
</svg>
