<?xml version="1.0" encoding="UTF-8" standalone="no"?>
<!DOCTYPE svg PUBLIC "-//W3C//DTD SVG 1.1//EN"
 "http://www.w3.org/Graphics/SVG/1.1/DTD/svg11.dtd">
<!-- Generated by graphviz version 2.50.0 (20211204.2007)
 -->
<!-- Title: ExpressionInterface Pages: 1 -->
<!--zoomable 557 -->
<svg id="main" version="1.1" xmlns="http://www.w3.org/2000/svg" xmlns:xlink="http://www.w3.org/1999/xlink" xml:space="preserve" onload="init(evt)">
<style type="text/css"><![CDATA[
.edge:hover path { stroke: red; }
.edge:hover polygon { stroke: red; fill: red; }
]]></style>
<script type="text/javascript"><![CDATA[
var edges = document.getElementsByTagName('g');
if (edges && edges.length) {
  for (var i=0;i<edges.length;i++) {
    if (edges[i].id.substr(0,4)=='edge') {
      edges[i].setAttribute('class','edge');
    }
  }
}
]]></script>
        <defs>
                <circle id="rim" cx="0" cy="0" r="7"/>
                <circle id="rim2" cx="0" cy="0" r="3.5"/>
                <g id="zoomPlus">
                        <use xlink:href="#rim" fill="#404040">
                                <set attributeName="fill" to="#808080" begin="zoomplus.mouseover" end="zoomplus.mouseout"/>
                        </use>
                        <path d="M-4,0h8M0,-4v8" fill="none" stroke="white" stroke-width="1.5" pointer-events="none"/>
                </g>
                <g id="zoomMin">
                        <use xlink:href="#rim" fill="#404040">
                                <set attributeName="fill" to="#808080" begin="zoomminus.mouseover" end="zoomminus.mouseout"/>
                        </use>
                        <path d="M-4,0h8" fill="none" stroke="white" stroke-width="1.5" pointer-events="none"/>
                </g>
                <g id="dirArrow">
                        <path fill="none" stroke="white" stroke-width="1.5" d="M0,-3.0v7 M-2.5,-0.5L0,-3.0L2.5,-0.5"/>
                </g>
               <g id="resetDef">
                       <use xlink:href="#rim2" fill="#404040">
                               <set attributeName="fill" to="#808080" begin="reset.mouseover" end="reset.mouseout"/>
                       </use>
               </g>
        </defs>

<script type="text/javascript">
var viewWidth = 696;
var viewHeight = 557;
var sectionId = 'dynsection-0';
</script>
<script xlink:href="svgpan.js"/>
<svg id="graph" class="graph">
<g id="viewport">
<title>ExpressionInterface</title>
<!-- Node1 -->
<g id="node1" class="node">
<title>Node1</title>
<g id="a_node1"><a xlink:title=" ">
<polygon fill="#bfbfbf" stroke="black" points="129.5,-425.5 129.5,-548.5 252.5,-548.5 252.5,-425.5 129.5,-425.5"/>
<text text-anchor="middle" x="191" y="-536.5" font-family="Helvetica,sans-Serif" font-size="10.00">ExpressionInterface</text>
<polyline fill="none" stroke="black" points="129.5,-529.5 252.5,-529.5 "/>
<text text-anchor="middle" x="191" y="-517.5" font-family="Helvetica,sans-Serif" font-size="10.00"> </text>
<polyline fill="none" stroke="black" points="129.5,-510.5 252.5,-510.5 "/>
<text text-anchor="start" x="137.5" y="-498.5" font-family="Helvetica,sans-Serif" font-size="10.00">+ ~ExpressionInterface()</text>
<text text-anchor="start" x="137.5" y="-487.5" font-family="Helvetica,sans-Serif" font-size="10.00">+ Interpret()</text>
<text text-anchor="start" x="137.5" y="-476.5" font-family="Helvetica,sans-Serif" font-size="10.00">+ SetType()</text>
<text text-anchor="start" x="137.5" y="-465.5" font-family="Helvetica,sans-Serif" font-size="10.00">+ GetType()</text>
<text text-anchor="start" x="137.5" y="-454.5" font-family="Helvetica,sans-Serif" font-size="10.00">+ GetIdentifier()</text>
<text text-anchor="start" x="137.5" y="-443.5" font-family="Helvetica,sans-Serif" font-size="10.00">+ GetBoolean()</text>
<text text-anchor="start" x="137.5" y="-432.5" font-family="Helvetica,sans-Serif" font-size="10.00">+ GetNumber()</text>
</a>
</g>
</g>
<!-- Node2 -->
<g id="node2" class="node">
<title>Node2</title>
<g id="a_node2"><a xlink:href="class_abstract_expression.html" target="_top" xlink:title=" ">
<polygon fill="none" stroke="black" points="132.5,-243.5 132.5,-388.5 249.5,-388.5 249.5,-243.5 132.5,-243.5"/>
<text text-anchor="middle" x="191" y="-376.5" font-family="Helvetica,sans-Serif" font-size="10.00">AbstractExpression</text>
<polyline fill="none" stroke="black" points="132.5,-369.5 249.5,-369.5 "/>
<text text-anchor="start" x="140.5" y="-357.5" font-family="Helvetica,sans-Serif" font-size="10.00"># m_iType</text>
<text text-anchor="start" x="140.5" y="-346.5" font-family="Helvetica,sans-Serif" font-size="10.00"># m_wsIdentifier</text>
<text text-anchor="start" x="140.5" y="-335.5" font-family="Helvetica,sans-Serif" font-size="10.00"># m_bBoolean</text>
<text text-anchor="start" x="140.5" y="-324.5" font-family="Helvetica,sans-Serif" font-size="10.00"># m_lNumber</text>
<polyline fill="none" stroke="black" points="132.5,-317.5 249.5,-317.5 "/>
<text text-anchor="start" x="140.5" y="-305.5" font-family="Helvetica,sans-Serif" font-size="10.00">+ AbstractExpression()</text>
<text text-anchor="start" x="140.5" y="-294.5" font-family="Helvetica,sans-Serif" font-size="10.00">+ SetType()</text>
<text text-anchor="start" x="140.5" y="-283.5" font-family="Helvetica,sans-Serif" font-size="10.00">+ GetType()</text>
<text text-anchor="start" x="140.5" y="-272.5" font-family="Helvetica,sans-Serif" font-size="10.00">+ GetIdentifier()</text>
<text text-anchor="start" x="140.5" y="-261.5" font-family="Helvetica,sans-Serif" font-size="10.00">+ GetBoolean()</text>
<text text-anchor="start" x="140.5" y="-250.5" font-family="Helvetica,sans-Serif" font-size="10.00">+ GetNumber()</text>
</a>
</g>
</g>
<!-- Node1&#45;&gt;Node2 -->
<g id="edge1" class="edge">
<title>Node1&#45;&gt;Node2</title>
<path fill="none" stroke="midnightblue" d="M191,-415.25C191,-406.46 191,-397.45 191,-388.64"/>
<polygon fill="none" stroke="midnightblue" points="187.5,-415.46 191,-425.46 194.5,-415.46 187.5,-415.46"/>
</g>
<!-- Node3 -->
<g id="node3" class="node">
<title>Node3</title>
<g id="a_node3"><a xlink:href="class_identifier_expression.html" target="_top" xlink:title=" ">
<polygon fill="none" stroke="black" points="0,-122 0,-190 116,-190 116,-122 0,-122"/>
<text text-anchor="middle" x="58" y="-178" font-family="Helvetica,sans-Serif" font-size="10.00">IdentifierExpression</text>
<polyline fill="none" stroke="black" points="0,-171 116,-171 "/>
<text text-anchor="middle" x="58" y="-159" font-family="Helvetica,sans-Serif" font-size="10.00"> </text>
<polyline fill="none" stroke="black" points="0,-152 116,-152 "/>
<text text-anchor="start" x="8" y="-140" font-family="Helvetica,sans-Serif" font-size="10.00">+ IdentifierExpression()</text>
<text text-anchor="start" x="8" y="-129" font-family="Helvetica,sans-Serif" font-size="10.00">+ Interpret()</text>
</a>
</g>
</g>
<!-- Node2&#45;&gt;Node3 -->
<g id="edge2" class="edge">
<title>Node2&#45;&gt;Node3</title>
<path fill="none" stroke="midnightblue" d="M125.82,-237.57C111.74,-220.84 97.57,-204.01 85.86,-190.1"/>
<polygon fill="none" stroke="midnightblue" points="123.16,-239.84 132.28,-245.24 128.51,-235.33 123.16,-239.84"/>
</g>
<!-- Node4 -->
<g id="node4" class="node">
<title>Node4</title>
<g id="a_node4"><a xlink:href="class_number_expression.html" target="_top" xlink:title=" ">
<polygon fill="none" stroke="black" points="134,-122 134,-190 248,-190 248,-122 134,-122"/>
<text text-anchor="middle" x="191" y="-178" font-family="Helvetica,sans-Serif" font-size="10.00">NumberExpression</text>
<polyline fill="none" stroke="black" points="134,-171 248,-171 "/>
<text text-anchor="middle" x="191" y="-159" font-family="Helvetica,sans-Serif" font-size="10.00"> </text>
<polyline fill="none" stroke="black" points="134,-152 248,-152 "/>
<text text-anchor="start" x="142" y="-140" font-family="Helvetica,sans-Serif" font-size="10.00">+ NumberExpression()</text>
<text text-anchor="start" x="142" y="-129" font-family="Helvetica,sans-Serif" font-size="10.00">+ Interpret()</text>
</a>
</g>
</g>
<!-- Node2&#45;&gt;Node4 -->
<g id="edge3" class="edge">
<title>Node2&#45;&gt;Node4</title>
<path fill="none" stroke="midnightblue" d="M191,-233.33C191,-218.01 191,-202.82 191,-190.07"/>
<polygon fill="none" stroke="midnightblue" points="187.5,-233.4 191,-243.4 194.5,-233.4 187.5,-233.4"/>
</g>
<!-- Node5 -->
<g id="node5" class="node">
<title>Node5</title>
<g id="a_node5"><a xlink:href="class_operator_expression.html" target="_top" xlink:title=" ">
<polygon fill="none" stroke="black" points="266,-105.5 266,-206.5 390,-206.5 390,-105.5 266,-105.5"/>
<text text-anchor="middle" x="328" y="-194.5" font-family="Helvetica,sans-Serif" font-size="10.00">OperatorExpression</text>
<polyline fill="none" stroke="black" points="266,-187.5 390,-187.5 "/>
<text text-anchor="start" x="274" y="-175.5" font-family="Helvetica,sans-Serif" font-size="10.00"># m_leftExpression</text>
<text text-anchor="start" x="274" y="-164.5" font-family="Helvetica,sans-Serif" font-size="10.00"># m_rightExpression</text>
<polyline fill="none" stroke="black" points="266,-157.5 390,-157.5 "/>
<text text-anchor="start" x="274" y="-145.5" font-family="Helvetica,sans-Serif" font-size="10.00">+ OperatorExpression()</text>
<text text-anchor="start" x="274" y="-134.5" font-family="Helvetica,sans-Serif" font-size="10.00">+ ~OperatorExpression()</text>
<text text-anchor="start" x="274" y="-123.5" font-family="Helvetica,sans-Serif" font-size="10.00">+ Interpret()</text>
<text text-anchor="start" x="274" y="-112.5" font-family="Helvetica,sans-Serif" font-size="10.00">+ DoInterpret()</text>
</a>
</g>
</g>
<!-- Node2&#45;&gt;Node5 -->
<g id="edge4" class="edge">
<title>Node2&#45;&gt;Node5</title>
<path fill="none" stroke="midnightblue" d="M256.54,-239.42C266.16,-228.32 275.86,-217.13 284.88,-206.73"/>
<polygon fill="none" stroke="midnightblue" points="253.8,-237.23 249.9,-247.08 259.09,-241.81 253.8,-237.23"/>
</g>
<!-- Node6 -->
<g id="node6" class="node">
<title>Node6</title>
<g id="a_node6"><a xlink:href="class_addition_expression.html" target="_top" xlink:title=" ">
<polygon fill="none" stroke="black" points="6,-0.5 6,-68.5 122,-68.5 122,-0.5 6,-0.5"/>
<text text-anchor="middle" x="64" y="-56.5" font-family="Helvetica,sans-Serif" font-size="10.00">AdditionExpression</text>
<polyline fill="none" stroke="black" points="6,-49.5 122,-49.5 "/>
<text text-anchor="middle" x="64" y="-37.5" font-family="Helvetica,sans-Serif" font-size="10.00"> </text>
<polyline fill="none" stroke="black" points="6,-30.5 122,-30.5 "/>
<text text-anchor="start" x="14" y="-18.5" font-family="Helvetica,sans-Serif" font-size="10.00">+ AdditionExpression()</text>
<text text-anchor="start" x="14" y="-7.5" font-family="Helvetica,sans-Serif" font-size="10.00">+ DoInterpret()</text>
</a>
</g>
</g>
<!-- Node5&#45;&gt;Node6 -->
<g id="edge5" class="edge">
<title>Node5&#45;&gt;Node6</title>
<path fill="none" stroke="midnightblue" d="M257.28,-105.13C257.19,-105.09 257.09,-105.04 257,-105 204.45,-79.88 185.28,-90.11 131,-69 128.09,-67.87 125.14,-66.65 122.18,-65.38"/>
<polygon fill="none" stroke="midnightblue" points="255.49,-108.15 265.98,-109.63 258.71,-101.93 255.49,-108.15"/>
</g>
<!-- Node7 -->
<g id="node7" class="node">
<title>Node7</title>
<g id="a_node7"><a xlink:href="class_division_expression.html" target="_top" xlink:title=" ">
<polygon fill="none" stroke="black" points="140.5,-0.5 140.5,-68.5 253.5,-68.5 253.5,-0.5 140.5,-0.5"/>
<text text-anchor="middle" x="197" y="-56.5" font-family="Helvetica,sans-Serif" font-size="10.00">DivisionExpression</text>
<polyline fill="none" stroke="black" points="140.5,-49.5 253.5,-49.5 "/>
<text text-anchor="middle" x="197" y="-37.5" font-family="Helvetica,sans-Serif" font-size="10.00"> </text>
<polyline fill="none" stroke="black" points="140.5,-30.5 253.5,-30.5 "/>
<text text-anchor="start" x="148.5" y="-18.5" font-family="Helvetica,sans-Serif" font-size="10.00">+ DivisionExpression()</text>
<text text-anchor="start" x="148.5" y="-7.5" font-family="Helvetica,sans-Serif" font-size="10.00">+ DoInterpret()</text>
</a>
</g>
</g>
<!-- Node5&#45;&gt;Node7 -->
<g id="edge6" class="edge">
<title>Node5&#45;&gt;Node7</title>
<path fill="none" stroke="midnightblue" d="M265.94,-98.39C254.84,-88.26 243.62,-78.02 233.53,-68.83"/>
<polygon fill="none" stroke="midnightblue" points="263.84,-101.21 273.58,-105.36 268.55,-96.03 263.84,-101.21"/>
</g>
<!-- Node8 -->
<g id="node8" class="node">
<title>Node8</title>
<g id="a_node8"><a xlink:href="class_modulo_expression.html" target="_top" xlink:title=" ">
<polygon fill="none" stroke="black" points="272,-0.5 272,-68.5 384,-68.5 384,-0.5 272,-0.5"/>
<text text-anchor="middle" x="328" y="-56.5" font-family="Helvetica,sans-Serif" font-size="10.00">ModuloExpression</text>
<polyline fill="none" stroke="black" points="272,-49.5 384,-49.5 "/>
<text text-anchor="middle" x="328" y="-37.5" font-family="Helvetica,sans-Serif" font-size="10.00"> </text>
<polyline fill="none" stroke="black" points="272,-30.5 384,-30.5 "/>
<text text-anchor="start" x="280" y="-18.5" font-family="Helvetica,sans-Serif" font-size="10.00">+ ModuloExpression()</text>
<text text-anchor="start" x="280" y="-7.5" font-family="Helvetica,sans-Serif" font-size="10.00">+ DoInterpret()</text>
</a>
</g>
</g>
<!-- Node5&#45;&gt;Node8 -->
<g id="edge7" class="edge">
<title>Node5&#45;&gt;Node8</title>
<path fill="none" stroke="midnightblue" d="M328,-95.17C328,-86.11 328,-77.05 328,-68.83"/>
<polygon fill="none" stroke="midnightblue" points="324.5,-95.36 328,-105.36 331.5,-95.36 324.5,-95.36"/>
</g>
<!-- Node9 -->
<g id="node9" class="node">
<title>Node9</title>
<g id="a_node9"><a xlink:href="class_multiplication_expression.html" target="_top" xlink:title=" ">
<polygon fill="none" stroke="black" points="402.5,-0.5 402.5,-68.5 539.5,-68.5 539.5,-0.5 402.5,-0.5"/>
<text text-anchor="middle" x="471" y="-56.5" font-family="Helvetica,sans-Serif" font-size="10.00">MultiplicationExpression</text>
<polyline fill="none" stroke="black" points="402.5,-49.5 539.5,-49.5 "/>
<text text-anchor="middle" x="471" y="-37.5" font-family="Helvetica,sans-Serif" font-size="10.00"> </text>
<polyline fill="none" stroke="black" points="402.5,-30.5 539.5,-30.5 "/>
<text text-anchor="start" x="410.5" y="-18.5" font-family="Helvetica,sans-Serif" font-size="10.00">+ MultiplicationExpression()</text>
<text text-anchor="start" x="410.5" y="-7.5" font-family="Helvetica,sans-Serif" font-size="10.00">+ DoInterpret()</text>
</a>
</g>
</g>
<!-- Node5&#45;&gt;Node9 -->
<g id="edge8" class="edge">
<title>Node5&#45;&gt;Node9</title>
<path fill="none" stroke="midnightblue" d="M395.4,-98.68C407.62,-88.46 420.01,-78.11 431.12,-68.83"/>
<polygon fill="none" stroke="midnightblue" points="392.83,-96.26 387.4,-105.36 397.32,-101.63 392.83,-96.26"/>
</g>
<!-- Node10 -->
<g id="node10" class="node">
<title>Node10</title>
<g id="a_node10"><a xlink:href="class_subtraction_expression.html" target="_top" xlink:title=" ">
<polygon fill="none" stroke="black" points="558,-0.5 558,-68.5 688,-68.5 688,-0.5 558,-0.5"/>
<text text-anchor="middle" x="623" y="-56.5" font-family="Helvetica,sans-Serif" font-size="10.00">SubtractionExpression</text>
<polyline fill="none" stroke="black" points="558,-49.5 688,-49.5 "/>
<text text-anchor="middle" x="623" y="-37.5" font-family="Helvetica,sans-Serif" font-size="10.00"> </text>
<polyline fill="none" stroke="black" points="558,-30.5 688,-30.5 "/>
<text text-anchor="start" x="566" y="-18.5" font-family="Helvetica,sans-Serif" font-size="10.00">+ SubtractionExpression()</text>
<text text-anchor="start" x="566" y="-7.5" font-family="Helvetica,sans-Serif" font-size="10.00">+ DoInterpret()</text>
</a>
</g>
</g>
<!-- Node5&#45;&gt;Node10 -->
<g id="edge9" class="edge">
<title>Node5&#45;&gt;Node10</title>
<path fill="none" stroke="midnightblue" d="M399.9,-128.15C443.31,-111.65 499.6,-89.77 549,-69 551.86,-67.8 554.77,-66.55 557.71,-65.29"/>
<polygon fill="none" stroke="midnightblue" points="398.39,-124.98 390.28,-131.79 400.87,-131.52 398.39,-124.98"/>
</g>
</g>
</svg>
        <g id="navigator" transform="translate(0 0)" fill="#404254">
                <rect fill="#f2f5e9" fill-opacity="0.5" stroke="#606060" stroke-width=".5" x="0" y="0" width="60" height="60"/>
                <use id="zoomplus" xlink:href="#zoomPlus" x="17" y="9" onmousedown="handleZoom(evt,'in')"/>
                <use id="zoomminus" xlink:href="#zoomMin" x="42" y="9" onmousedown="handleZoom(evt,'out')"/>
                <use id="reset" xlink:href="#resetDef" x="30" y="36" onmousedown="handleReset()"/>
                <g id="arrowUp" xlink:href="#dirArrow" transform="translate(30 24)" onmousedown="handlePan(0,-1)">
                  <use xlink:href="#rim" fill="#404040">
                        <set attributeName="fill" to="#808080" begin="arrowUp.mouseover" end="arrowUp.mouseout"/>
                  </use>
                  <path fill="none" stroke="white" stroke-width="1.5" d="M0,-3.0v7 M-2.5,-0.5L0,-3.0L2.5,-0.5"/>
                </g>
                <g id="arrowRight" xlink:href="#dirArrow" transform="rotate(90) translate(36 -43)" onmousedown="handlePan(1,0)">
                  <use xlink:href="#rim" fill="#404040">
                        <set attributeName="fill" to="#808080" begin="arrowRight.mouseover" end="arrowRight.mouseout"/>
                  </use>
                  <path fill="none" stroke="white" stroke-width="1.5" d="M0,-3.0v7 M-2.5,-0.5L0,-3.0L2.5,-0.5"/>
                </g>
                <g id="arrowDown" xlink:href="#dirArrow" transform="rotate(180) translate(-30 -48)" onmousedown="handlePan(0,1)">
                  <use xlink:href="#rim" fill="#404040">
                        <set attributeName="fill" to="#808080" begin="arrowDown.mouseover" end="arrowDown.mouseout"/>
                  </use>
                  <path fill="none" stroke="white" stroke-width="1.5" d="M0,-3.0v7 M-2.5,-0.5L0,-3.0L2.5,-0.5"/>
                </g>
                <g id="arrowLeft" xlink:href="#dirArrow" transform="rotate(270) translate(-36 17)" onmousedown="handlePan(-1,0)">
                  <use xlink:href="#rim" fill="#404040">
                        <set attributeName="fill" to="#808080" begin="arrowLeft.mouseover" end="arrowLeft.mouseout"/>
                  </use>
                  <path fill="none" stroke="white" stroke-width="1.5" d="M0,-3.0v7 M-2.5,-0.5L0,-3.0L2.5,-0.5"/>
                </g>
        </g>
        <svg viewBox="0 0 15 15" width="100%" height="30px" preserveAspectRatio="xMaxYMin meet">
         <g id="arrow_out" transform="scale(0.3 0.3)">
          <a xlink:href="class_expression_interface__inherit__graph_org.svg" target="_base">
           <rect id="button" ry="5" rx="5" y="6" x="6" height="38" width="38"
                fill="#f2f5e9" fill-opacity="0.5" stroke="#606060" stroke-width="1.0"/>
           <path id="arrow"
             d="M 11.500037,31.436501 C 11.940474,20.09759 22.043105,11.32322 32.158766,21.979434 L 37.068811,17.246167 C 37.068811,17.246167 37.088388,32 37.088388,32 L 22.160133,31.978069 C 22.160133,31.978069 26.997745,27.140456 26.997745,27.140456 C 18.528582,18.264221 13.291696,25.230495 11.500037,31.436501 z"
             style="fill:#404040;"/>
          </a>
         </g>
        </svg>
</svg>
