<?xml version="1.0" encoding="UTF-8" standalone="no"?>
<!DOCTYPE svg PUBLIC "-//W3C//DTD SVG 1.1//EN"
 "http://www.w3.org/Graphics/SVG/1.1/DTD/svg11.dtd">
<!-- Generated by graphviz version 2.50.0 (20211204.2007)
 -->
<!-- Title: C:/Users/themo/OneDrive/Documents/GitHub/interpreter/src/parser/include Pages: 1 -->
<svg width="114pt" height="303pt"
 viewBox="0.00 0.00 114.00 303.00" xmlns="http://www.w3.org/2000/svg" xmlns:xlink="http://www.w3.org/1999/xlink">
<g id="graph0" class="graph" transform="scale(1 1) rotate(0) translate(4 299)">
<title>C:/Users/themo/OneDrive/Documents/GitHub/interpreter/src/parser/include</title>
<g id="clust1" class="cluster">
<title>clusterdir_6cd8491d143eb218b70983dbdb3c58bc</title>
<g id="a_clust1"><a xlink:href="dir_6cd8491d143eb218b70983dbdb3c58bc.html" target="_top" xlink:title="parser">
<polygon fill="#ddddee" stroke="black" points="8,-128 8,-287 94,-287 94,-128 8,-128"/>
<text text-anchor="middle" x="51" y="-275" font-family="Helvetica,sans-Serif" font-size="10.00">parser</text>
</a>
</g>
</g>
<g id="clust2" class="cluster">
<title>clusterdir_11cf11b467f1f53d6eb02ef30c7d14c5</title>
<g id="a_clust2"><a xlink:href="dir_11cf11b467f1f53d6eb02ef30c7d14c5.html" target="_top">
<polygon fill="#eeeeff" stroke="black" points="16,-136 16,-260 86,-260 86,-136 16,-136"/>
</a>
</g>
</g>
<!-- dir_11cf11b467f1f53d6eb02ef30c7d14c5 -->
<g id="node1" class="node">
<title>dir_11cf11b467f1f53d6eb02ef30c7d14c5</title>
<text text-anchor="middle" x="51" y="-231.5" font-family="Helvetica,sans-Serif" font-size="10.00">include</text>
</g>
<!-- dir_1bfc36e6880e0024d8710c53e7e68b2e -->
<g id="node2" class="node">
<title>dir_1bfc36e6880e0024d8710c53e7e68b2e</title>
<g id="a_node2"><a xlink:href="dir_1bfc36e6880e0024d8710c53e7e68b2e.html" target="_top" xlink:title="Interface">
<polygon fill="white" stroke="black" points="78,-180 24,-180 24,-144 78,-144 78,-180"/>
<text text-anchor="middle" x="51" y="-159.5" font-family="Helvetica,sans-Serif" font-size="10.00">Interface</text>
</a>
</g>
</g>
<!-- dir_11cf11b467f1f53d6eb02ef30c7d14c5&#45;&gt;dir_1bfc36e6880e0024d8710c53e7e68b2e -->
<g id="edge1" class="edge">
<title>dir_11cf11b467f1f53d6eb02ef30c7d14c5&#45;&gt;dir_1bfc36e6880e0024d8710c53e7e68b2e</title>
<path fill="none" stroke="black" d="M51,-215.7C51,-207.98 51,-198.71 51,-190.11"/>
<polygon fill="black" stroke="black" points="54.5,-190.1 51,-180.1 47.5,-190.1 54.5,-190.1"/>
<g id="a_edge1&#45;headlabel"><a xlink:href="dir_000006_000007.html" target="_top" xlink:title="3">
<text text-anchor="middle" x="57.34" y="-191.2" font-family="Helvetica,sans-Serif" font-size="10.00">3</text>
</a>
</g>
</g>
<!-- dir_4aee0cf75b9ddffc23e5629384dbdb4a -->
<g id="node3" class="node">
<title>dir_4aee0cf75b9ddffc23e5629384dbdb4a</title>
<g id="a_node3"><a xlink:href="dir_4aee0cf75b9ddffc23e5629384dbdb4a.html" target="_top" xlink:title="tokenizer">
<polygon fill="none" stroke="red" points="106,-36 50,-36 50,0 106,0 106,-36"/>
<text text-anchor="middle" x="78" y="-15.5" font-family="Helvetica,sans-Serif" font-size="10.00">tokenizer</text>
</a>
</g>
</g>
<!-- dir_11cf11b467f1f53d6eb02ef30c7d14c5&#45;&gt;dir_4aee0cf75b9ddffc23e5629384dbdb4a -->
<g id="edge2" class="edge">
<title>dir_11cf11b467f1f53d6eb02ef30c7d14c5&#45;&gt;dir_4aee0cf75b9ddffc23e5629384dbdb4a</title>
<path fill="none" stroke="black" d="M66.61,-215.77C74.37,-206.03 82.95,-193.18 87,-180 100.9,-134.8 92.54,-79.16 85.24,-46.53"/>
<polygon fill="black" stroke="black" points="88.55,-45.32 82.84,-36.4 81.74,-46.93 88.55,-45.32"/>
<g id="a_edge2&#45;headlabel"><a xlink:href="dir_000006_000008.html" target="_top" xlink:title="3">
<text text-anchor="middle" x="92.14" y="-45.66" font-family="Helvetica,sans-Serif" font-size="10.00">3</text>
</a>
</g>
</g>
<!-- dir_6908ff505388a07996d238c763adbdab -->
<g id="node4" class="node">
<title>dir_6908ff505388a07996d238c763adbdab</title>
<g id="a_node4"><a xlink:href="dir_6908ff505388a07996d238c763adbdab.html" target="_top" xlink:title="client">
<polygon fill="none" stroke="red" points="78,-108 24,-108 24,-72 78,-72 78,-108"/>
<text text-anchor="middle" x="51" y="-87.5" font-family="Helvetica,sans-Serif" font-size="10.00">client</text>
</a>
</g>
</g>
<!-- dir_1bfc36e6880e0024d8710c53e7e68b2e&#45;&gt;dir_6908ff505388a07996d238c763adbdab -->
<g id="edge3" class="edge">
<title>dir_1bfc36e6880e0024d8710c53e7e68b2e&#45;&gt;dir_6908ff505388a07996d238c763adbdab</title>
<path fill="none" stroke="black" d="M51,-143.7C51,-135.98 51,-126.71 51,-118.11"/>
<polygon fill="black" stroke="black" points="54.5,-118.1 51,-108.1 47.5,-118.1 54.5,-118.1"/>
<g id="a_edge3&#45;headlabel"><a xlink:href="dir_000007_000003.html" target="_top" xlink:title="1">
<text text-anchor="middle" x="57.34" y="-119.2" font-family="Helvetica,sans-Serif" font-size="10.00">1</text>
</a>
</g>
</g>
<!-- dir_6908ff505388a07996d238c763adbdab&#45;&gt;dir_4aee0cf75b9ddffc23e5629384dbdb4a -->
<g id="edge4" class="edge">
<title>dir_6908ff505388a07996d238c763adbdab&#45;&gt;dir_4aee0cf75b9ddffc23e5629384dbdb4a</title>
<path fill="none" stroke="black" d="M57.67,-71.7C60.71,-63.81 64.38,-54.3 67.76,-45.55"/>
<polygon fill="black" stroke="black" points="71.07,-46.69 71.4,-36.1 64.54,-44.17 71.07,-46.69"/>
<g id="a_edge4&#45;headlabel"><a xlink:href="dir_000003_000008.html" target="_top" xlink:title="3">
<text text-anchor="middle" x="72.42" y="-48.57" font-family="Helvetica,sans-Serif" font-size="10.00">3</text>
</a>
</g>
</g>
</g>
</svg>
