<?xml version="1.0" encoding="UTF-8" standalone="no"?>
<!DOCTYPE svg PUBLIC "-//W3C//DTD SVG 1.1//EN"
 "http://www.w3.org/Graphics/SVG/1.1/DTD/svg11.dtd">
<!-- Generated by graphviz version 5.0.1 (20220820.1526)
 -->
<!-- Title: include Pages: 1 -->
<svg width="130pt" height="255pt"
 viewBox="0.00 0.00 130.00 255.00" xmlns="http://www.w3.org/2000/svg" xmlns:xlink="http://www.w3.org/1999/xlink">
<g id="graph0" class="graph" transform="scale(1 1) rotate(0) translate(4 251)">
<title>include</title>
<g id="clust1" class="cluster">
<title>clusterdir_542b4b798cd3818553708617d38011e9</title>
<g id="a_clust1"><a xlink:href="dir_542b4b798cd3818553708617d38011e9.html" target="_top" xlink:title="main">
<polygon fill="#edf0f7" stroke="#7f7f7f" stroke-dasharray="5,2" points="8,-8 8,-239 114,-239 114,-8 8,-8"/>
<text text-anchor="middle" x="61" y="-227" font-family="Helvetica,sans-Serif" font-size="10.00">main</text>
</a>
</g>
</g>
<g id="clust2" class="cluster">
<title>clusterdir_e3dead5091900a00e01615464106800b</title>
<g id="a_clust2"><a xlink:href="dir_e3dead5091900a00e01615464106800b.html" target="_top">
<polygon fill="#edf0f7" stroke="#404040" stroke-width="2" points="16,-16 16,-212 106,-212 106,-16 16,-16"/>
</a>
</g>
</g>
<!-- dir_e3dead5091900a00e01615464106800b -->
<g id="node1" class="node">
<title>dir_e3dead5091900a00e01615464106800b</title>
<text text-anchor="middle" x="61" y="-183.5" font-family="Helvetica,sans-Serif" font-size="10.00">include</text>
</g>
<!-- dir_7fd3b5f7a5e8db8376dab0a298f3f018 -->
<g id="node2" class="node">
<title>dir_7fd3b5f7a5e8db8376dab0a298f3f018</title>
<g id="a_node2"><a xlink:href="dir_7fd3b5f7a5e8db8376dab0a298f3f018.html" target="_top" xlink:title="Parser">
<polygon fill="#a2b4d6" stroke="#404040" points="78,-132 24,-132 24,-96 78,-96 78,-132"/>
<text text-anchor="middle" x="51" y="-111.5" font-family="Helvetica,sans-Serif" font-size="10.00">Parser</text>
</a>
</g>
</g>
<!-- dir_e3dead5091900a00e01615464106800b&#45;&gt;dir_7fd3b5f7a5e8db8376dab0a298f3f018 -->
<g id="edge2" class="edge">
<title>dir_e3dead5091900a00e01615464106800b&#45;&gt;dir_7fd3b5f7a5e8db8376dab0a298f3f018</title>
<path fill="none" stroke="black" d="M58.53,-167.7C57.43,-159.98 56.1,-150.71 54.87,-142.11"/>
<polygon fill="black" stroke="black" points="58.32,-141.51 53.44,-132.1 51.39,-142.5 58.32,-141.51"/>
<g id="a_edge2&#45;headlabel"><a xlink:href="dir_000006_000014.html" target="_top" xlink:title="8">
<text text-anchor="middle" x="61.64" y="-142.17" font-family="Helvetica,sans-Serif" font-size="10.00">8</text>
</a>
</g>
</g>
<!-- dir_105c0920e8abcee19bcbee6a126d7cfc -->
<g id="node3" class="node">
<title>dir_105c0920e8abcee19bcbee6a126d7cfc</title>
<g id="a_node3"><a xlink:href="dir_105c0920e8abcee19bcbee6a126d7cfc.html" target="_top" xlink:title="Tokenizer">
<polygon fill="#a2b4d6" stroke="#404040" points="90.5,-60 31.5,-60 31.5,-24 90.5,-24 90.5,-60"/>
<text text-anchor="middle" x="61" y="-39.5" font-family="Helvetica,sans-Serif" font-size="10.00">Tokenizer</text>
</a>
</g>
</g>
<!-- dir_e3dead5091900a00e01615464106800b&#45;&gt;dir_105c0920e8abcee19bcbee6a126d7cfc -->
<g id="edge1" class="edge">
<title>dir_e3dead5091900a00e01615464106800b&#45;&gt;dir_105c0920e8abcee19bcbee6a126d7cfc</title>
<path fill="none" stroke="black" d="M72.05,-167.61C77.74,-157.62 84.08,-144.58 87,-132 90.62,-116.41 90.62,-111.59 87,-96 84.9,-86.96 81.03,-77.68 76.91,-69.47"/>
<polygon fill="black" stroke="black" points="79.86,-67.55 72.05,-60.39 73.69,-70.86 79.86,-67.55"/>
<g id="a_edge1&#45;headlabel"><a xlink:href="dir_000006_000016.html" target="_top" xlink:title="9">
<text text-anchor="middle" x="84.06" y="-66.88" font-family="Helvetica,sans-Serif" font-size="10.00">9</text>
</a>
</g>
</g>
<!-- dir_7fd3b5f7a5e8db8376dab0a298f3f018&#45;&gt;dir_105c0920e8abcee19bcbee6a126d7cfc -->
<g id="edge3" class="edge">
<title>dir_7fd3b5f7a5e8db8376dab0a298f3f018&#45;&gt;dir_105c0920e8abcee19bcbee6a126d7cfc</title>
<path fill="none" stroke="black" d="M53.47,-95.7C54.57,-87.98 55.9,-78.71 57.13,-70.11"/>
<polygon fill="black" stroke="black" points="60.61,-70.5 58.56,-60.1 53.68,-69.51 60.61,-70.5"/>
<g id="a_edge3&#45;headlabel"><a xlink:href="dir_000014_000016.html" target="_top" xlink:title="7">
<text text-anchor="middle" x="62.91" y="-71.96" font-family="Helvetica,sans-Serif" font-size="10.00">7</text>
</a>
</g>
</g>
</g>
</svg>
