<?xml version="1.0" encoding="UTF-8" standalone="no"?>
<!DOCTYPE svg PUBLIC "-//W3C//DTD SVG 1.1//EN"
 "http://www.w3.org/Graphics/SVG/1.1/DTD/svg11.dtd">
<!-- Generated by graphviz version 2.50.0 (20211204.2007)
 -->
<!-- Title: Parser Pages: 1 -->
<svg width="117pt" height="276pt"
 viewBox="0.00 0.00 116.50 276.00" xmlns="http://www.w3.org/2000/svg" xmlns:xlink="http://www.w3.org/1999/xlink">
<g id="graph0" class="graph" transform="scale(1 1) rotate(0) translate(4 272)">
<title>Parser</title>
<g id="clust1" class="cluster">
<title>clusterdir_fb53cc43fd05fab54279929bc9fd20cb</title>
<g id="a_clust1"><a xlink:href="dir_fb53cc43fd05fab54279929bc9fd20cb.html" target="_top">
<polygon fill="#eeeeff" stroke="black" points="8,-64 8,-260 90,-260 90,-64 8,-64"/>
</a>
</g>
</g>
<!-- dir_fb53cc43fd05fab54279929bc9fd20cb -->
<g id="node1" class="node">
<title>dir_fb53cc43fd05fab54279929bc9fd20cb</title>
<text text-anchor="middle" x="50" y="-231.5" font-family="Helvetica,sans-Serif" font-size="10.00">Parser</text>
</g>
<!-- dir_9685f3663f5e893d433d37943736cc8f -->
<g id="node3" class="node">
<title>dir_9685f3663f5e893d433d37943736cc8f</title>
<g id="a_node3"><a xlink:href="dir_9685f3663f5e893d433d37943736cc8f.html" target="_top" xlink:title="Statement">
<polygon fill="white" stroke="red" points="81,-180 19,-180 19,-144 81,-144 81,-180"/>
<text text-anchor="middle" x="50" y="-159.5" font-family="Helvetica,sans-Serif" font-size="10.00">Statement</text>
</a>
</g>
</g>
<!-- dir_fb53cc43fd05fab54279929bc9fd20cb&#45;&gt;dir_9685f3663f5e893d433d37943736cc8f -->
<g id="edge4" class="edge">
<title>dir_fb53cc43fd05fab54279929bc9fd20cb&#45;&gt;dir_9685f3663f5e893d433d37943736cc8f</title>
<path fill="none" stroke="black" d="M50,-215.7C50,-207.98 50,-198.71 50,-190.11"/>
<polygon fill="black" stroke="black" points="53.5,-190.1 50,-180.1 46.5,-190.1 53.5,-190.1"/>
<g id="a_edge4&#45;headlabel"><a xlink:href="dir_000003_000008.html" target="_top" xlink:title="2">
<text text-anchor="middle" x="56.34" y="-191.2" font-family="Helvetica,sans-Serif" font-size="10.00">2</text>
</a>
</g>
</g>
<!-- dir_8a2e3b8ca152b99fd6d95af9664dbf8e -->
<g id="node2" class="node">
<title>dir_8a2e3b8ca152b99fd6d95af9664dbf8e</title>
<g id="a_node2"><a xlink:href="dir_8a2e3b8ca152b99fd6d95af9664dbf8e.html" target="_top" xlink:title="Expression">
<polygon fill="white" stroke="red" points="81.5,-108 16.5,-108 16.5,-72 81.5,-72 81.5,-108"/>
<text text-anchor="middle" x="49" y="-87.5" font-family="Helvetica,sans-Serif" font-size="10.00">Expression</text>
</a>
</g>
</g>
<!-- dir_cdb26a52970c2cf39de494d2ebe2609e -->
<g id="node4" class="node">
<title>dir_cdb26a52970c2cf39de494d2ebe2609e</title>
<g id="a_node4"><a xlink:href="dir_cdb26a52970c2cf39de494d2ebe2609e.html" target="_top" xlink:title="Tokenizer">
<polygon fill="none" stroke="red" points="108.5,-36 49.5,-36 49.5,0 108.5,0 108.5,-36"/>
<text text-anchor="middle" x="79" y="-15.5" font-family="Helvetica,sans-Serif" font-size="10.00">Tokenizer</text>
</a>
</g>
</g>
<!-- dir_8a2e3b8ca152b99fd6d95af9664dbf8e&#45;&gt;dir_cdb26a52970c2cf39de494d2ebe2609e -->
<g id="edge1" class="edge">
<title>dir_8a2e3b8ca152b99fd6d95af9664dbf8e&#45;&gt;dir_cdb26a52970c2cf39de494d2ebe2609e</title>
<path fill="none" stroke="black" d="M56.42,-71.7C59.79,-63.81 63.87,-54.3 67.62,-45.55"/>
<polygon fill="black" stroke="black" points="70.95,-46.67 71.67,-36.1 64.51,-43.92 70.95,-46.67"/>
<g id="a_edge1&#45;headlabel"><a xlink:href="dir_000004_000010.html" target="_top" xlink:title="3">
<text text-anchor="middle" x="72.14" y="-48.6" font-family="Helvetica,sans-Serif" font-size="10.00">3</text>
</a>
</g>
</g>
<!-- dir_9685f3663f5e893d433d37943736cc8f&#45;&gt;dir_8a2e3b8ca152b99fd6d95af9664dbf8e -->
<g id="edge2" class="edge">
<title>dir_9685f3663f5e893d433d37943736cc8f&#45;&gt;dir_8a2e3b8ca152b99fd6d95af9664dbf8e</title>
<path fill="none" stroke="black" d="M49.75,-143.7C49.64,-135.98 49.51,-126.71 49.39,-118.11"/>
<polygon fill="black" stroke="black" points="52.89,-118.05 49.24,-108.1 45.89,-118.15 52.89,-118.05"/>
<g id="a_edge2&#45;headlabel"><a xlink:href="dir_000008_000004.html" target="_top" xlink:title="2">
<text text-anchor="middle" x="55.78" y="-119.11" font-family="Helvetica,sans-Serif" font-size="10.00">2</text>
</a>
</g>
</g>
<!-- dir_9685f3663f5e893d433d37943736cc8f&#45;&gt;dir_cdb26a52970c2cf39de494d2ebe2609e -->
<g id="edge3" class="edge">
<title>dir_9685f3663f5e893d433d37943736cc8f&#45;&gt;dir_cdb26a52970c2cf39de494d2ebe2609e</title>
<path fill="none" stroke="black" d="M68.17,-143.68C76.88,-134.1 86.41,-121.43 91,-108 97.9,-87.8 93.99,-63.76 88.86,-45.75"/>
<polygon fill="black" stroke="black" points="92.19,-44.68 85.85,-36.18 85.51,-46.77 92.19,-44.68"/>
<g id="a_edge3&#45;headlabel"><a xlink:href="dir_000008_000010.html" target="_top" xlink:title="3">
<text text-anchor="middle" x="95.97" y="-44.75" font-family="Helvetica,sans-Serif" font-size="10.00">3</text>
</a>
</g>
</g>
</g>
</svg>
