<?xml version="1.0" encoding="UTF-8" standalone="no"?>
<!DOCTYPE svg PUBLIC "-//W3C//DTD SVG 1.1//EN"
 "http://www.w3.org/Graphics/SVG/1.1/DTD/svg11.dtd">
<!-- Generated by graphviz version 2.50.0 (20211204.2007)
 -->
<!-- Title: C:/Users/themo/OneDrive/Documents/GitHub/interpreter/src Pages: 1 -->
<svg width="166pt" height="220pt"
 viewBox="0.00 0.00 166.00 220.00" xmlns="http://www.w3.org/2000/svg" xmlns:xlink="http://www.w3.org/1999/xlink">
<g id="graph0" class="graph" transform="scale(1 1) rotate(0) translate(4 216)">
<title>C:/Users/themo/OneDrive/Documents/GitHub/interpreter/src</title>
<g id="clust1" class="cluster">
<title>clusterdir_68267d1309a1af8e8297ef4c3efbcdba</title>
<g id="a_clust1"><a xlink:href="dir_68267d1309a1af8e8297ef4c3efbcdba.html" target="_top">
<polygon fill="#eeeeff" stroke="black" points="8,-8 8,-204 150,-204 150,-8 8,-8"/>
</a>
</g>
</g>
<!-- dir_68267d1309a1af8e8297ef4c3efbcdba -->
<g id="node1" class="node">
<title>dir_68267d1309a1af8e8297ef4c3efbcdba</title>
<text text-anchor="middle" x="115" y="-175.5" font-family="Helvetica,sans-Serif" font-size="10.00">src</text>
</g>
<!-- dir_6908ff505388a07996d238c763adbdab -->
<g id="node2" class="node">
<title>dir_6908ff505388a07996d238c763adbdab</title>
<g id="a_node2"><a xlink:href="dir_6908ff505388a07996d238c763adbdab.html" target="_top" xlink:title="client">
<polygon fill="white" stroke="red" points="70,-196 16,-196 16,-160 70,-160 70,-196"/>
<text text-anchor="middle" x="43" y="-175.5" font-family="Helvetica,sans-Serif" font-size="10.00">client</text>
</a>
</g>
</g>
<!-- dir_6cd8491d143eb218b70983dbdb3c58bc -->
<g id="node3" class="node">
<title>dir_6cd8491d143eb218b70983dbdb3c58bc</title>
<g id="a_node3"><a xlink:href="dir_6cd8491d143eb218b70983dbdb3c58bc.html" target="_top" xlink:title="parser">
<polygon fill="white" stroke="red" points="70,-124 16,-124 16,-88 70,-88 70,-124"/>
<text text-anchor="middle" x="43" y="-103.5" font-family="Helvetica,sans-Serif" font-size="10.00">parser</text>
</a>
</g>
</g>
<!-- dir_6908ff505388a07996d238c763adbdab&#45;&gt;dir_6cd8491d143eb218b70983dbdb3c58bc -->
<g id="edge2" class="edge">
<title>dir_6908ff505388a07996d238c763adbdab&#45;&gt;dir_6cd8491d143eb218b70983dbdb3c58bc</title>
<path fill="none" stroke="black" d="M37.08,-159.7C36.29,-151.98 36.06,-142.71 36.4,-134.11"/>
<polygon fill="black" stroke="black" points="39.9,-134.32 37.1,-124.1 32.92,-133.84 39.9,-134.32"/>
<g id="a_edge2&#45;headlabel"><a xlink:href="dir_000003_000005.html" target="_top" xlink:title="1">
<text text-anchor="middle" x="42.48" y="-135.61" font-family="Helvetica,sans-Serif" font-size="10.00">1</text>
</a>
</g>
</g>
<!-- dir_4aee0cf75b9ddffc23e5629384dbdb4a -->
<g id="node4" class="node">
<title>dir_4aee0cf75b9ddffc23e5629384dbdb4a</title>
<g id="a_node4"><a xlink:href="dir_4aee0cf75b9ddffc23e5629384dbdb4a.html" target="_top" xlink:title="tokenizer">
<polygon fill="white" stroke="red" points="94,-52 38,-52 38,-16 94,-16 94,-52"/>
<text text-anchor="middle" x="66" y="-31.5" font-family="Helvetica,sans-Serif" font-size="10.00">tokenizer</text>
</a>
</g>
</g>
<!-- dir_6908ff505388a07996d238c763adbdab&#45;&gt;dir_4aee0cf75b9ddffc23e5629384dbdb4a -->
<g id="edge1" class="edge">
<title>dir_6908ff505388a07996d238c763adbdab&#45;&gt;dir_4aee0cf75b9ddffc23e5629384dbdb4a</title>
<path fill="none" stroke="black" d="M58.61,-159.77C66.37,-150.03 74.95,-137.18 79,-124 85.28,-103.57 81.13,-79.54 75.9,-61.6"/>
<polygon fill="black" stroke="black" points="79.24,-60.53 72.86,-52.07 72.57,-62.66 79.24,-60.53"/>
<g id="a_edge1&#45;headlabel"><a xlink:href="dir_000003_000008.html" target="_top" xlink:title="3">
<text text-anchor="middle" x="83.03" y="-60.59" font-family="Helvetica,sans-Serif" font-size="10.00">3</text>
</a>
</g>
</g>
<!-- dir_6cd8491d143eb218b70983dbdb3c58bc&#45;&gt;dir_6908ff505388a07996d238c763adbdab -->
<g id="edge4" class="edge">
<title>dir_6cd8491d143eb218b70983dbdb3c58bc&#45;&gt;dir_6908ff505388a07996d238c763adbdab</title>
<path fill="none" stroke="black" d="M48.9,-124.1C49.7,-131.79 49.94,-141.05 49.6,-149.67"/>
<polygon fill="black" stroke="black" points="46.11,-149.48 48.92,-159.7 53.09,-149.96 46.11,-149.48"/>
<g id="a_edge4&#45;headlabel"><a xlink:href="dir_000005_000003.html" target="_top" xlink:title="1">
<text text-anchor="middle" x="43.52" y="-143.2" font-family="Helvetica,sans-Serif" font-size="10.00">1</text>
</a>
</g>
</g>
<!-- dir_6cd8491d143eb218b70983dbdb3c58bc&#45;&gt;dir_4aee0cf75b9ddffc23e5629384dbdb4a -->
<g id="edge3" class="edge">
<title>dir_6cd8491d143eb218b70983dbdb3c58bc&#45;&gt;dir_4aee0cf75b9ddffc23e5629384dbdb4a</title>
<path fill="none" stroke="black" d="M48.69,-87.7C51.25,-79.9 54.33,-70.51 57.18,-61.83"/>
<polygon fill="black" stroke="black" points="60.58,-62.7 60.38,-52.1 53.93,-60.51 60.58,-62.7"/>
<g id="a_edge3&#45;headlabel"><a xlink:href="dir_000005_000008.html" target="_top" xlink:title="3">
<text text-anchor="middle" x="62.16" y="-64.5" font-family="Helvetica,sans-Serif" font-size="10.00">3</text>
</a>
</g>
</g>
</g>
</svg>
