<?xml version="1.0" encoding="UTF-8" standalone="no"?>
<!DOCTYPE svg PUBLIC "-//W3C//DTD SVG 1.1//EN"
 "http://www.w3.org/Graphics/SVG/1.1/DTD/svg11.dtd">
<!-- Generated by graphviz version 2.50.0 (20211204.2007)
 -->
<!-- Title: Statement Pages: 1 -->
<svg width="203pt" height="231pt"
 viewBox="0.00 0.00 202.50 231.00" xmlns="http://www.w3.org/2000/svg" xmlns:xlink="http://www.w3.org/1999/xlink">
<g id="graph0" class="graph" transform="scale(1 1) rotate(0) translate(4 227)">
<title>Statement</title>
<g id="clust1" class="cluster">
<title>clusterdir_fb53cc43fd05fab54279929bc9fd20cb</title>
<g id="a_clust1"><a xlink:href="dir_fb53cc43fd05fab54279929bc9fd20cb.html" target="_top" xlink:title="Parser">
<polygon fill="#ddddee" stroke="black" points="8,-56 8,-215 176,-215 176,-56 8,-56"/>
<text text-anchor="middle" x="92" y="-203" font-family="Helvetica,sans-Serif" font-size="10.00">Parser</text>
</a>
</g>
</g>
<g id="clust2" class="cluster">
<title>clusterdir_9685f3663f5e893d433d37943736cc8f</title>
<g id="a_clust2"><a xlink:href="dir_9685f3663f5e893d433d37943736cc8f.html" target="_top">
<polygon fill="#eeeeff" stroke="black" points="16,-64 16,-188 94,-188 94,-64 16,-64"/>
</a>
</g>
</g>
<!-- dir_8a2e3b8ca152b99fd6d95af9664dbf8e -->
<g id="node1" class="node">
<title>dir_8a2e3b8ca152b99fd6d95af9664dbf8e</title>
<g id="a_node1"><a xlink:href="dir_8a2e3b8ca152b99fd6d95af9664dbf8e.html" target="_top" xlink:title="Expression">
<polygon fill="none" stroke="red" points="167.5,-108 102.5,-108 102.5,-72 167.5,-72 167.5,-108"/>
<text text-anchor="middle" x="135" y="-87.5" font-family="Helvetica,sans-Serif" font-size="10.00">Expression</text>
</a>
</g>
</g>
<!-- dir_cdb26a52970c2cf39de494d2ebe2609e -->
<g id="node4" class="node">
<title>dir_cdb26a52970c2cf39de494d2ebe2609e</title>
<g id="a_node4"><a xlink:href="dir_cdb26a52970c2cf39de494d2ebe2609e.html" target="_top" xlink:title="Tokenizer">
<polygon fill="none" stroke="red" points="194.5,-36 135.5,-36 135.5,0 194.5,0 194.5,-36"/>
<text text-anchor="middle" x="165" y="-15.5" font-family="Helvetica,sans-Serif" font-size="10.00">Tokenizer</text>
</a>
</g>
</g>
<!-- dir_8a2e3b8ca152b99fd6d95af9664dbf8e&#45;&gt;dir_cdb26a52970c2cf39de494d2ebe2609e -->
<g id="edge1" class="edge">
<title>dir_8a2e3b8ca152b99fd6d95af9664dbf8e&#45;&gt;dir_cdb26a52970c2cf39de494d2ebe2609e</title>
<path fill="none" stroke="black" d="M142.42,-71.7C145.79,-63.81 149.87,-54.3 153.62,-45.55"/>
<polygon fill="black" stroke="black" points="156.95,-46.67 157.67,-36.1 150.51,-43.92 156.95,-46.67"/>
<g id="a_edge1&#45;headlabel"><a xlink:href="dir_000004_000010.html" target="_top" xlink:title="3">
<text text-anchor="middle" x="158.14" y="-48.6" font-family="Helvetica,sans-Serif" font-size="10.00">3</text>
</a>
</g>
</g>
<!-- dir_9685f3663f5e893d433d37943736cc8f -->
<g id="node2" class="node">
<title>dir_9685f3663f5e893d433d37943736cc8f</title>
<text text-anchor="middle" x="55" y="-159.5" font-family="Helvetica,sans-Serif" font-size="10.00">Statement</text>
</g>
<!-- dir_9685f3663f5e893d433d37943736cc8f&#45;&gt;dir_8a2e3b8ca152b99fd6d95af9664dbf8e -->
<g id="edge3" class="edge">
<title>dir_9685f3663f5e893d433d37943736cc8f&#45;&gt;dir_8a2e3b8ca152b99fd6d95af9664dbf8e</title>
<path fill="none" stroke="black" d="M74.78,-143.7C84.75,-134.97 97.01,-124.24 107.86,-114.75"/>
<polygon fill="black" stroke="black" points="110.23,-117.32 115.45,-108.1 105.62,-112.06 110.23,-117.32"/>
<g id="a_edge3&#45;headlabel"><a xlink:href="dir_000008_000004.html" target="_top" xlink:title="2">
<text text-anchor="middle" x="109.4" y="-119.33" font-family="Helvetica,sans-Serif" font-size="10.00">2</text>
</a>
</g>
</g>
<!-- dir_743b2fae107ca0fa0f4c0651cac436e0 -->
<g id="node3" class="node">
<title>dir_743b2fae107ca0fa0f4c0651cac436e0</title>
<g id="a_node3"><a xlink:href="dir_743b2fae107ca0fa0f4c0651cac436e0.html" target="_top" xlink:title="Interface">
<polygon fill="white" stroke="black" points="82,-108 28,-108 28,-72 82,-72 82,-108"/>
<text text-anchor="middle" x="55" y="-87.5" font-family="Helvetica,sans-Serif" font-size="10.00">Interface</text>
</a>
</g>
</g>
<!-- dir_9685f3663f5e893d433d37943736cc8f&#45;&gt;dir_743b2fae107ca0fa0f4c0651cac436e0 -->
<g id="edge2" class="edge">
<title>dir_9685f3663f5e893d433d37943736cc8f&#45;&gt;dir_743b2fae107ca0fa0f4c0651cac436e0</title>
<path fill="none" stroke="black" d="M55,-143.7C55,-135.98 55,-126.71 55,-118.11"/>
<polygon fill="black" stroke="black" points="58.5,-118.1 55,-108.1 51.5,-118.1 58.5,-118.1"/>
<g id="a_edge2&#45;headlabel"><a xlink:href="dir_000008_000009.html" target="_top" xlink:title="1">
<text text-anchor="middle" x="61.34" y="-119.2" font-family="Helvetica,sans-Serif" font-size="10.00">1</text>
</a>
</g>
</g>
<!-- dir_9685f3663f5e893d433d37943736cc8f&#45;&gt;dir_cdb26a52970c2cf39de494d2ebe2609e -->
<g id="edge4" class="edge">
<title>dir_9685f3663f5e893d433d37943736cc8f&#45;&gt;dir_cdb26a52970c2cf39de494d2ebe2609e</title>
<path fill="none" stroke="black" d="M86.05,-157.45C115.83,-152.21 159.24,-139.35 180,-108 192.23,-89.53 186.38,-64.32 178.69,-45.45"/>
<polygon fill="black" stroke="black" points="181.85,-43.94 174.58,-36.22 175.45,-46.78 181.85,-43.94"/>
<g id="a_edge4&#45;headlabel"><a xlink:href="dir_000008_000010.html" target="_top" xlink:title="3">
<text text-anchor="middle" x="185.9" y="-43.57" font-family="Helvetica,sans-Serif" font-size="10.00">3</text>
</a>
</g>
</g>
</g>
</svg>
