<?xml version="1.0" encoding="UTF-8" standalone="no"?>
<!DOCTYPE svg PUBLIC "-//W3C//DTD SVG 1.1//EN"
 "http://www.w3.org/Graphics/SVG/1.1/DTD/svg11.dtd">
<!-- Generated by graphviz version 2.50.0 (20211204.2007)
 -->
<!-- Title: C:/Users/themo/OneDrive/Documents/GitHub/interpreter/src/parser Pages: 1 -->
<svg width="246pt" height="175pt"
 viewBox="0.00 0.00 246.00 175.00" xmlns="http://www.w3.org/2000/svg" xmlns:xlink="http://www.w3.org/1999/xlink">
<g id="graph0" class="graph" transform="scale(1 1) rotate(0) translate(4 171)">
<title>C:/Users/themo/OneDrive/Documents/GitHub/interpreter/src/parser</title>
<g id="clust1" class="cluster">
<title>clusterdir_68267d1309a1af8e8297ef4c3efbcdba</title>
<g id="a_clust1"><a xlink:href="dir_68267d1309a1af8e8297ef4c3efbcdba.html" target="_top" xlink:title="src">
<polygon fill="#ddddee" stroke="black" points="8,-8 8,-159 230,-159 230,-8 8,-8"/>
<text text-anchor="middle" x="119" y="-147" font-family="Helvetica,sans-Serif" font-size="10.00">src</text>
</a>
</g>
</g>
<g id="clust2" class="cluster">
<title>clusterdir_6cd8491d143eb218b70983dbdb3c58bc</title>
<g id="a_clust2"><a xlink:href="dir_6cd8491d143eb218b70983dbdb3c58bc.html" target="_top">
<polygon fill="#eeeeff" stroke="black" points="80,-80 80,-132 222,-132 222,-80 80,-80"/>
</a>
</g>
</g>
<!-- dir_4aee0cf75b9ddffc23e5629384dbdb4a -->
<g id="node1" class="node">
<title>dir_4aee0cf75b9ddffc23e5629384dbdb4a</title>
<g id="a_node1"><a xlink:href="dir_4aee0cf75b9ddffc23e5629384dbdb4a.html" target="_top" xlink:title="tokenizer">
<polygon fill="none" stroke="red" points="107,-52 51,-52 51,-16 107,-16 107,-52"/>
<text text-anchor="middle" x="79" y="-31.5" font-family="Helvetica,sans-Serif" font-size="10.00">tokenizer</text>
</a>
</g>
</g>
<!-- dir_6908ff505388a07996d238c763adbdab -->
<g id="node2" class="node">
<title>dir_6908ff505388a07996d238c763adbdab</title>
<g id="a_node2"><a xlink:href="dir_6908ff505388a07996d238c763adbdab.html" target="_top" xlink:title="client">
<polygon fill="none" stroke="red" points="70,-124 16,-124 16,-88 70,-88 70,-124"/>
<text text-anchor="middle" x="43" y="-103.5" font-family="Helvetica,sans-Serif" font-size="10.00">client</text>
</a>
</g>
</g>
<!-- dir_6908ff505388a07996d238c763adbdab&#45;&gt;dir_4aee0cf75b9ddffc23e5629384dbdb4a -->
<g id="edge3" class="edge">
<title>dir_6908ff505388a07996d238c763adbdab&#45;&gt;dir_4aee0cf75b9ddffc23e5629384dbdb4a</title>
<path fill="none" stroke="black" d="M51.9,-87.7C56,-79.73 60.95,-70.1 65.49,-61.26"/>
<polygon fill="black" stroke="black" points="68.74,-62.6 70.2,-52.1 62.52,-59.4 68.74,-62.6"/>
<g id="a_edge3&#45;headlabel"><a xlink:href="dir_000003_000008.html" target="_top" xlink:title="3">
<text text-anchor="middle" x="69.62" y="-64.59" font-family="Helvetica,sans-Serif" font-size="10.00">3</text>
</a>
</g>
</g>
<!-- dir_11cf11b467f1f53d6eb02ef30c7d14c5 -->
<g id="node4" class="node">
<title>dir_11cf11b467f1f53d6eb02ef30c7d14c5</title>
<g id="a_node4"><a xlink:href="dir_11cf11b467f1f53d6eb02ef30c7d14c5.html" target="_top" xlink:title="include">
<polygon fill="white" stroke="red" points="142,-124 88,-124 88,-88 142,-88 142,-124"/>
<text text-anchor="middle" x="115" y="-103.5" font-family="Helvetica,sans-Serif" font-size="10.00">include</text>
</a>
</g>
</g>
<!-- dir_6908ff505388a07996d238c763adbdab&#45;&gt;dir_11cf11b467f1f53d6eb02ef30c7d14c5 -->
<g id="edge4" class="edge">
<title>dir_6908ff505388a07996d238c763adbdab&#45;&gt;dir_11cf11b467f1f53d6eb02ef30c7d14c5</title>
<path fill="none" stroke="black" d="M70.28,-106C72.74,-106 75.19,-106 77.65,-106"/>
<polygon fill="black" stroke="black" points="77.75,-109.5 87.75,-106 77.75,-102.5 77.75,-109.5"/>
<g id="a_edge4&#45;headlabel"><a xlink:href="dir_000003_000006.html" target="_top" xlink:title="1">
<text text-anchor="middle" x="74.15" y="-109.84" font-family="Helvetica,sans-Serif" font-size="10.00">1</text>
</a>
</g>
</g>
<!-- dir_6cd8491d143eb218b70983dbdb3c58bc -->
<g id="node3" class="node">
<title>dir_6cd8491d143eb218b70983dbdb3c58bc</title>
<text text-anchor="middle" x="187" y="-103.5" font-family="Helvetica,sans-Serif" font-size="10.00">parser</text>
</g>
<!-- dir_11cf11b467f1f53d6eb02ef30c7d14c5&#45;&gt;dir_4aee0cf75b9ddffc23e5629384dbdb4a -->
<g id="edge1" class="edge">
<title>dir_11cf11b467f1f53d6eb02ef30c7d14c5&#45;&gt;dir_4aee0cf75b9ddffc23e5629384dbdb4a</title>
<path fill="none" stroke="black" d="M106.1,-87.7C102,-79.73 97.05,-70.1 92.51,-61.26"/>
<polygon fill="black" stroke="black" points="95.48,-59.4 87.8,-52.1 89.26,-62.6 95.48,-59.4"/>
<g id="a_edge1&#45;headlabel"><a xlink:href="dir_000006_000008.html" target="_top" xlink:title="3">
<text text-anchor="middle" x="99.65" y="-58.79" font-family="Helvetica,sans-Serif" font-size="10.00">3</text>
</a>
</g>
</g>
<!-- dir_11cf11b467f1f53d6eb02ef30c7d14c5&#45;&gt;dir_6908ff505388a07996d238c763adbdab -->
<g id="edge2" class="edge">
<title>dir_11cf11b467f1f53d6eb02ef30c7d14c5&#45;&gt;dir_6908ff505388a07996d238c763adbdab</title>
<path fill="none" stroke="black" d="M87.75,-106C85.29,-106 82.84,-106 80.38,-106"/>
<polygon fill="black" stroke="black" points="80.28,-102.5 70.28,-106 80.28,-109.5 80.28,-102.5"/>
<g id="a_edge2&#45;headlabel"><a xlink:href="dir_000006_000003.html" target="_top" xlink:title="1">
<text text-anchor="middle" x="83.88" y="-97.16" font-family="Helvetica,sans-Serif" font-size="10.00">1</text>
</a>
</g>
</g>
</g>
</svg>
