<?xml version="1.0" encoding="UTF-8" standalone="no"?>
<!DOCTYPE svg PUBLIC "-//W3C//DTD SVG 1.1//EN"
 "http://www.w3.org/Graphics/SVG/1.1/DTD/svg11.dtd">
<!-- Generated by graphviz version 5.0.1 (20220820.1526)
 -->
<!-- Title: Statement Pages: 1 -->
<svg width="253pt" height="183pt"
 viewBox="0.00 0.00 252.50 183.00" xmlns="http://www.w3.org/2000/svg" xmlns:xlink="http://www.w3.org/1999/xlink">
<g id="graph0" class="graph" transform="scale(1 1) rotate(0) translate(4 179)">
<title>Statement</title>
<g id="clust1" class="cluster">
<title>clusterdir_7fd3b5f7a5e8db8376dab0a298f3f018</title>
<g id="a_clust1"><a xlink:href="dir_7fd3b5f7a5e8db8376dab0a298f3f018.html" target="_top" xlink:title="Parser">
<polygon fill="#edf0f7" stroke="#7f7f7f" stroke-dasharray="5,2" points="8,-8 8,-167 176,-167 176,-8 8,-8"/>
<text text-anchor="middle" x="92" y="-155" font-family="Helvetica,sans-Serif" font-size="10.00">Parser</text>
</a>
</g>
</g>
<g id="clust2" class="cluster">
<title>clusterdir_c6752ba92fcf5f3ba5825afab2900f73</title>
<g id="a_clust2"><a xlink:href="dir_c6752ba92fcf5f3ba5825afab2900f73.html" target="_top">
<polygon fill="#edf0f7" stroke="#404040" stroke-width="2" points="16,-16 16,-140 94,-140 94,-16 16,-16"/>
</a>
</g>
</g>
<!-- dir_ee65795b26170e41fde00b88d913e4c5 -->
<g id="node1" class="node">
<title>dir_ee65795b26170e41fde00b88d913e4c5</title>
<g id="a_node1"><a xlink:href="dir_ee65795b26170e41fde00b88d913e4c5.html" target="_top" xlink:title="Expression">
<polygon fill="#a2b4d6" stroke="red" points="167.5,-60 102.5,-60 102.5,-24 167.5,-24 167.5,-60"/>
<text text-anchor="middle" x="135" y="-39.5" font-family="Helvetica,sans-Serif" font-size="10.00">Expression</text>
</a>
</g>
</g>
<!-- dir_c6752ba92fcf5f3ba5825afab2900f73 -->
<g id="node2" class="node">
<title>dir_c6752ba92fcf5f3ba5825afab2900f73</title>
<text text-anchor="middle" x="55" y="-111.5" font-family="Helvetica,sans-Serif" font-size="10.00">Statement</text>
</g>
<!-- dir_c6752ba92fcf5f3ba5825afab2900f73&#45;&gt;dir_ee65795b26170e41fde00b88d913e4c5 -->
<g id="edge3" class="edge">
<title>dir_c6752ba92fcf5f3ba5825afab2900f73&#45;&gt;dir_ee65795b26170e41fde00b88d913e4c5</title>
<path fill="none" stroke="black" d="M74.78,-95.7C84.75,-86.97 97.01,-76.24 107.86,-66.75"/>
<polygon fill="black" stroke="black" points="110.23,-69.32 115.45,-60.1 105.62,-64.06 110.23,-69.32"/>
<g id="a_edge3&#45;headlabel"><a xlink:href="dir_000015_000004.html" target="_top" xlink:title="2">
<text text-anchor="middle" x="109.4" y="-71.33" font-family="Helvetica,sans-Serif" font-size="10.00">2</text>
</a>
</g>
</g>
<!-- dir_12c64d9aeb7f57a9d3df39fcfac8046b -->
<g id="node3" class="node">
<title>dir_12c64d9aeb7f57a9d3df39fcfac8046b</title>
<g id="a_node3"><a xlink:href="dir_12c64d9aeb7f57a9d3df39fcfac8046b.html" target="_top" xlink:title="Interface">
<polygon fill="#a2b4d6" stroke="#404040" points="82.5,-60 27.5,-60 27.5,-24 82.5,-24 82.5,-60"/>
<text text-anchor="middle" x="55" y="-39.5" font-family="Helvetica,sans-Serif" font-size="10.00">Interface</text>
</a>
</g>
</g>
<!-- dir_c6752ba92fcf5f3ba5825afab2900f73&#45;&gt;dir_12c64d9aeb7f57a9d3df39fcfac8046b -->
<g id="edge2" class="edge">
<title>dir_c6752ba92fcf5f3ba5825afab2900f73&#45;&gt;dir_12c64d9aeb7f57a9d3df39fcfac8046b</title>
<path fill="none" stroke="black" d="M55,-95.7C55,-87.98 55,-78.71 55,-70.11"/>
<polygon fill="black" stroke="black" points="58.5,-70.1 55,-60.1 51.5,-70.1 58.5,-70.1"/>
<g id="a_edge2&#45;headlabel"><a xlink:href="dir_000015_000008.html" target="_top" xlink:title="1">
<text text-anchor="middle" x="61.34" y="-71.2" font-family="Helvetica,sans-Serif" font-size="10.00">1</text>
</a>
</g>
</g>
<!-- dir_105c0920e8abcee19bcbee6a126d7cfc -->
<g id="node4" class="node">
<title>dir_105c0920e8abcee19bcbee6a126d7cfc</title>
<g id="a_node4"><a xlink:href="dir_105c0920e8abcee19bcbee6a126d7cfc.html" target="_top" xlink:title="Tokenizer">
<polygon fill="none" stroke="red" stroke-dasharray="5,2" points="244.5,-60 185.5,-60 185.5,-24 244.5,-24 244.5,-60"/>
<text text-anchor="middle" x="215" y="-39.5" font-family="Helvetica,sans-Serif" font-size="10.00">Tokenizer</text>
</a>
</g>
</g>
<!-- dir_c6752ba92fcf5f3ba5825afab2900f73&#45;&gt;dir_105c0920e8abcee19bcbee6a126d7cfc -->
<g id="edge1" class="edge">
<title>dir_c6752ba92fcf5f3ba5825afab2900f73&#45;&gt;dir_105c0920e8abcee19bcbee6a126d7cfc</title>
<path fill="none" stroke="black" d="M86.01,-100.37C109.24,-90.79 142,-77.05 175.73,-61.89"/>
<polygon fill="black" stroke="black" points="177.59,-64.88 185.26,-57.57 174.71,-58.51 177.59,-64.88"/>
<g id="a_edge1&#45;headlabel"><a xlink:href="dir_000015_000016.html" target="_top" xlink:title="3">
<text text-anchor="middle" x="175.49" y="-66.45" font-family="Helvetica,sans-Serif" font-size="10.00">3</text>
</a>
</g>
</g>
</g>
</svg>
