<?xml version="1.0" encoding="UTF-8" standalone="no"?>
<!DOCTYPE svg PUBLIC "-//W3C//DTD SVG 1.1//EN"
 "http://www.w3.org/Graphics/SVG/1.1/DTD/svg11.dtd">
<!-- Generated by graphviz version 5.0.1 (20220820.1526)
 -->
<!-- Title: Parser Pages: 1 -->
<svg width="154pt" height="319pt"
 viewBox="0.00 0.00 154.00 319.00" xmlns="http://www.w3.org/2000/svg" xmlns:xlink="http://www.w3.org/1999/xlink">
<g id="graph0" class="graph" transform="scale(1 1) rotate(0) translate(4 315)">
<title>Parser</title>
<g id="clust1" class="cluster">
<title>clusterdir_e3dead5091900a00e01615464106800b</title>
<g id="a_clust1"><a xlink:href="dir_e3dead5091900a00e01615464106800b.html" target="_top" xlink:title="include">
<polygon fill="#edf0f7" stroke="#7f7f7f" stroke-dasharray="5,2" points="8,-8 8,-303 138,-303 138,-8 8,-8"/>
<text text-anchor="middle" x="73" y="-291" font-family="Helvetica,sans-Serif" font-size="10.00">include</text>
</a>
</g>
</g>
<g id="clust2" class="cluster">
<title>clusterdir_7fd3b5f7a5e8db8376dab0a298f3f018</title>
<g id="a_clust2"><a xlink:href="dir_7fd3b5f7a5e8db8376dab0a298f3f018.html" target="_top">
<polygon fill="#edf0f7" stroke="#404040" stroke-width="2" points="16,-80 16,-276 114,-276 114,-80 16,-80"/>
</a>
</g>
</g>
<!-- dir_105c0920e8abcee19bcbee6a126d7cfc -->
<g id="node1" class="node">
<title>dir_105c0920e8abcee19bcbee6a126d7cfc</title>
<g id="a_node1"><a xlink:href="dir_105c0920e8abcee19bcbee6a126d7cfc.html" target="_top" xlink:title="Tokenizer">
<polygon fill="#a2b4d6" stroke="red" points="129.5,-52 70.5,-52 70.5,-16 129.5,-16 129.5,-52"/>
<text text-anchor="middle" x="100" y="-31.5" font-family="Helvetica,sans-Serif" font-size="10.00">Tokenizer</text>
</a>
</g>
</g>
<!-- dir_7fd3b5f7a5e8db8376dab0a298f3f018 -->
<g id="node2" class="node">
<title>dir_7fd3b5f7a5e8db8376dab0a298f3f018</title>
<text text-anchor="middle" x="75" y="-247.5" font-family="Helvetica,sans-Serif" font-size="10.00">Parser</text>
</g>
<!-- dir_7fd3b5f7a5e8db8376dab0a298f3f018&#45;&gt;dir_105c0920e8abcee19bcbee6a126d7cfc -->
<g id="edge1" class="edge">
<title>dir_7fd3b5f7a5e8db8376dab0a298f3f018&#45;&gt;dir_105c0920e8abcee19bcbee6a126d7cfc</title>
<path fill="none" stroke="black" d="M92.73,-231.6C101.24,-222 110.53,-209.34 115,-196 130.13,-150.84 118.62,-94.84 109.13,-62.19"/>
<polygon fill="black" stroke="black" points="112.43,-60.99 106.16,-52.45 105.73,-63.04 112.43,-60.99"/>
<g id="a_edge1&#45;headlabel"><a xlink:href="dir_000014_000016.html" target="_top" xlink:title="7">
<text text-anchor="middle" x="116.19" y="-61.1" font-family="Helvetica,sans-Serif" font-size="10.00">7</text>
</a>
</g>
</g>
<!-- dir_ee65795b26170e41fde00b88d913e4c5 -->
<g id="node3" class="node">
<title>dir_ee65795b26170e41fde00b88d913e4c5</title>
<g id="a_node3"><a xlink:href="dir_ee65795b26170e41fde00b88d913e4c5.html" target="_top" xlink:title="Expression">
<polygon fill="#a2b4d6" stroke="#404040" points="89.5,-124 24.5,-124 24.5,-88 89.5,-88 89.5,-124"/>
<text text-anchor="middle" x="57" y="-103.5" font-family="Helvetica,sans-Serif" font-size="10.00">Expression</text>
</a>
</g>
</g>
<!-- dir_7fd3b5f7a5e8db8376dab0a298f3f018&#45;&gt;dir_ee65795b26170e41fde00b88d913e4c5 -->
<g id="edge3" class="edge">
<title>dir_7fd3b5f7a5e8db8376dab0a298f3f018&#45;&gt;dir_ee65795b26170e41fde00b88d913e4c5</title>
<path fill="none" stroke="black" d="M57.27,-231.6C48.76,-222 39.47,-209.34 35,-196 28.09,-175.37 34.83,-151.4 42.61,-133.53"/>
<polygon fill="black" stroke="black" points="45.87,-134.84 46.97,-124.3 39.54,-131.85 45.87,-134.84"/>
<g id="a_edge3&#45;headlabel"><a xlink:href="dir_000014_000004.html" target="_top" xlink:title="5">
<text text-anchor="middle" x="46.91" y="-136.8" font-family="Helvetica,sans-Serif" font-size="10.00">5</text>
</a>
</g>
</g>
<!-- dir_c6752ba92fcf5f3ba5825afab2900f73 -->
<g id="node4" class="node">
<title>dir_c6752ba92fcf5f3ba5825afab2900f73</title>
<g id="a_node4"><a xlink:href="dir_c6752ba92fcf5f3ba5825afab2900f73.html" target="_top" xlink:title="Statement">
<polygon fill="#a2b4d6" stroke="#404040" points="106,-196 44,-196 44,-160 106,-160 106,-196"/>
<text text-anchor="middle" x="75" y="-175.5" font-family="Helvetica,sans-Serif" font-size="10.00">Statement</text>
</a>
</g>
</g>
<!-- dir_7fd3b5f7a5e8db8376dab0a298f3f018&#45;&gt;dir_c6752ba92fcf5f3ba5825afab2900f73 -->
<g id="edge2" class="edge">
<title>dir_7fd3b5f7a5e8db8376dab0a298f3f018&#45;&gt;dir_c6752ba92fcf5f3ba5825afab2900f73</title>
<path fill="none" stroke="black" d="M75,-231.7C75,-223.98 75,-214.71 75,-206.11"/>
<polygon fill="black" stroke="black" points="78.5,-206.1 75,-196.1 71.5,-206.1 78.5,-206.1"/>
<g id="a_edge2&#45;headlabel"><a xlink:href="dir_000014_000015.html" target="_top" xlink:title="2">
<text text-anchor="middle" x="81.34" y="-207.2" font-family="Helvetica,sans-Serif" font-size="10.00">2</text>
</a>
</g>
</g>
<!-- dir_ee65795b26170e41fde00b88d913e4c5&#45;&gt;dir_105c0920e8abcee19bcbee6a126d7cfc -->
<g id="edge4" class="edge">
<title>dir_ee65795b26170e41fde00b88d913e4c5&#45;&gt;dir_105c0920e8abcee19bcbee6a126d7cfc</title>
<path fill="none" stroke="black" d="M67.63,-87.7C72.63,-79.56 78.69,-69.69 84.21,-60.7"/>
<polygon fill="black" stroke="black" points="87.24,-62.46 89.49,-52.1 81.28,-58.79 87.24,-62.46"/>
<g id="a_edge4&#45;headlabel"><a xlink:href="dir_000004_000016.html" target="_top" xlink:title="3">
<text text-anchor="middle" x="87.78" y="-64.51" font-family="Helvetica,sans-Serif" font-size="10.00">3</text>
</a>
</g>
</g>
<!-- dir_c6752ba92fcf5f3ba5825afab2900f73&#45;&gt;dir_105c0920e8abcee19bcbee6a126d7cfc -->
<g id="edge5" class="edge">
<title>dir_c6752ba92fcf5f3ba5825afab2900f73&#45;&gt;dir_105c0920e8abcee19bcbee6a126d7cfc</title>
<path fill="none" stroke="black" d="M84.44,-159.91C89.5,-149.79 95.25,-136.54 98,-124 102.44,-103.75 102.78,-80.28 102.09,-62.53"/>
<polygon fill="black" stroke="black" points="105.57,-62.1 101.56,-52.29 98.58,-62.46 105.57,-62.1"/>
<g id="a_edge5&#45;headlabel"><a xlink:href="dir_000015_000016.html" target="_top" xlink:title="3">
<text text-anchor="middle" x="108.6" y="-63.04" font-family="Helvetica,sans-Serif" font-size="10.00">3</text>
</a>
</g>
</g>
<!-- dir_c6752ba92fcf5f3ba5825afab2900f73&#45;&gt;dir_ee65795b26170e41fde00b88d913e4c5 -->
<g id="edge6" class="edge">
<title>dir_c6752ba92fcf5f3ba5825afab2900f73&#45;&gt;dir_ee65795b26170e41fde00b88d913e4c5</title>
<path fill="none" stroke="black" d="M70.55,-159.7C68.55,-151.9 66.13,-142.51 63.9,-133.83"/>
<polygon fill="black" stroke="black" points="67.28,-132.92 61.4,-124.1 60.5,-134.66 67.28,-132.92"/>
<g id="a_edge6&#45;headlabel"><a xlink:href="dir_000015_000004.html" target="_top" xlink:title="2">
<text text-anchor="middle" x="70.92" y="-133.19" font-family="Helvetica,sans-Serif" font-size="10.00">2</text>
</a>
</g>
</g>
</g>
</svg>
