<?xml version="1.0" encoding="UTF-8" standalone="no"?>
<!DOCTYPE svg PUBLIC "-//W3C//DTD SVG 1.1//EN"
 "http://www.w3.org/Graphics/SVG/1.1/DTD/svg11.dtd">
<!-- Generated by graphviz version 2.50.0 (20211204.2007)
 -->
<!-- Title: Expression Pages: 1 -->
<svg width="242pt" height="183pt"
 viewBox="0.00 0.00 241.50 183.00" xmlns="http://www.w3.org/2000/svg" xmlns:xlink="http://www.w3.org/1999/xlink">
<g id="graph0" class="graph" transform="scale(1 1) rotate(0) translate(4 179)">
<title>Expression</title>
<g id="clust1" class="cluster">
<title>clusterdir_fb53cc43fd05fab54279929bc9fd20cb</title>
<g id="a_clust1"><a xlink:href="dir_fb53cc43fd05fab54279929bc9fd20cb.html" target="_top" xlink:title="Parser">
<polygon fill="#ddddee" stroke="black" points="8,-8 8,-167 166,-167 166,-8 8,-8"/>
<text text-anchor="middle" x="87" y="-155" font-family="Helvetica,sans-Serif" font-size="10.00">Parser</text>
</a>
</g>
</g>
<g id="clust2" class="cluster">
<title>clusterdir_8a2e3b8ca152b99fd6d95af9664dbf8e</title>
<g id="a_clust2"><a xlink:href="dir_8a2e3b8ca152b99fd6d95af9664dbf8e.html" target="_top">
<polygon fill="#eeeeff" stroke="black" points="16,-16 16,-140 158,-140 158,-16 16,-16"/>
</a>
</g>
</g>
<!-- dir_8a2e3b8ca152b99fd6d95af9664dbf8e -->
<g id="node1" class="node">
<title>dir_8a2e3b8ca152b99fd6d95af9664dbf8e</title>
<text text-anchor="middle" x="117" y="-111.5" font-family="Helvetica,sans-Serif" font-size="10.00">Expression</text>
</g>
<!-- dir_def5629048d85fdfe8a667a6f584f2d0 -->
<g id="node2" class="node">
<title>dir_def5629048d85fdfe8a667a6f584f2d0</title>
<g id="a_node2"><a xlink:href="dir_def5629048d85fdfe8a667a6f584f2d0.html" target="_top" xlink:title="Interface">
<polygon fill="white" stroke="black" points="78,-60 24,-60 24,-24 78,-24 78,-60"/>
<text text-anchor="middle" x="51" y="-39.5" font-family="Helvetica,sans-Serif" font-size="10.00">Interface</text>
</a>
</g>
</g>
<!-- dir_8a2e3b8ca152b99fd6d95af9664dbf8e&#45;&gt;dir_def5629048d85fdfe8a667a6f584f2d0 -->
<g id="edge2" class="edge">
<title>dir_8a2e3b8ca152b99fd6d95af9664dbf8e&#45;&gt;dir_def5629048d85fdfe8a667a6f584f2d0</title>
<path fill="none" stroke="black" d="M100.69,-95.7C92.69,-87.22 82.93,-76.86 74.18,-67.58"/>
<polygon fill="black" stroke="black" points="76.53,-64.98 67.13,-60.1 71.44,-69.78 76.53,-64.98"/>
<g id="a_edge2&#45;headlabel"><a xlink:href="dir_000004_000005.html" target="_top" xlink:title="1">
<text text-anchor="middle" x="81.07" y="-63.15" font-family="Helvetica,sans-Serif" font-size="10.00">1</text>
</a>
</g>
</g>
<!-- dir_e03b5256d4ab2e27da20612d49a2c6ca -->
<g id="node3" class="node">
<title>dir_e03b5256d4ab2e27da20612d49a2c6ca</title>
<g id="a_node3"><a xlink:href="dir_e03b5256d4ab2e27da20612d49a2c6ca.html" target="_top" xlink:title="Operator">
<polygon fill="white" stroke="red" points="150,-60 96,-60 96,-24 150,-24 150,-60"/>
<text text-anchor="middle" x="123" y="-39.5" font-family="Helvetica,sans-Serif" font-size="10.00">Operator</text>
</a>
</g>
</g>
<!-- dir_8a2e3b8ca152b99fd6d95af9664dbf8e&#45;&gt;dir_e03b5256d4ab2e27da20612d49a2c6ca -->
<g id="edge3" class="edge">
<title>dir_8a2e3b8ca152b99fd6d95af9664dbf8e&#45;&gt;dir_e03b5256d4ab2e27da20612d49a2c6ca</title>
<path fill="none" stroke="black" d="M118.48,-95.7C119.14,-87.98 119.94,-78.71 120.68,-70.11"/>
<polygon fill="black" stroke="black" points="124.17,-70.37 121.53,-60.1 117.19,-69.77 124.17,-70.37"/>
<g id="a_edge3&#45;headlabel"><a xlink:href="dir_000004_000006.html" target="_top" xlink:title="1">
<text text-anchor="middle" x="126.69" y="-71.69" font-family="Helvetica,sans-Serif" font-size="10.00">1</text>
</a>
</g>
</g>
<!-- dir_cdb26a52970c2cf39de494d2ebe2609e -->
<g id="node4" class="node">
<title>dir_cdb26a52970c2cf39de494d2ebe2609e</title>
<g id="a_node4"><a xlink:href="dir_cdb26a52970c2cf39de494d2ebe2609e.html" target="_top" xlink:title="Tokenizer">
<polygon fill="none" stroke="red" points="233.5,-60 174.5,-60 174.5,-24 233.5,-24 233.5,-60"/>
<text text-anchor="middle" x="204" y="-39.5" font-family="Helvetica,sans-Serif" font-size="10.00">Tokenizer</text>
</a>
</g>
</g>
<!-- dir_8a2e3b8ca152b99fd6d95af9664dbf8e&#45;&gt;dir_cdb26a52970c2cf39de494d2ebe2609e -->
<g id="edge1" class="edge">
<title>dir_8a2e3b8ca152b99fd6d95af9664dbf8e&#45;&gt;dir_cdb26a52970c2cf39de494d2ebe2609e</title>
<path fill="none" stroke="black" d="M138.51,-95.7C149.46,-86.88 162.95,-76.03 174.82,-66.47"/>
<polygon fill="black" stroke="black" points="177.14,-69.1 182.74,-60.1 172.76,-63.65 177.14,-69.1"/>
<g id="a_edge1&#45;headlabel"><a xlink:href="dir_000004_000010.html" target="_top" xlink:title="3">
<text text-anchor="middle" x="176.12" y="-71.07" font-family="Helvetica,sans-Serif" font-size="10.00">3</text>
</a>
</g>
</g>
</g>
</svg>
