<?xml version="1.0" encoding="UTF-8" standalone="no"?>
<!DOCTYPE svg PUBLIC "-//W3C//DTD SVG 1.1//EN"
 "http://www.w3.org/Graphics/SVG/1.1/DTD/svg11.dtd">
<!-- Generated by graphviz version 5.0.1 (20220820.1526)
 -->
<!-- Title: Expression Pages: 1 -->
<svg width="244pt" height="183pt"
 viewBox="0.00 0.00 243.50 183.00" xmlns="http://www.w3.org/2000/svg" xmlns:xlink="http://www.w3.org/1999/xlink">
<g id="graph0" class="graph" transform="scale(1 1) rotate(0) translate(4 179)">
<title>Expression</title>
<g id="clust1" class="cluster">
<title>clusterdir_7fd3b5f7a5e8db8376dab0a298f3f018</title>
<g id="a_clust1"><a xlink:href="dir_7fd3b5f7a5e8db8376dab0a298f3f018.html" target="_top" xlink:title="Parser">
<polygon fill="#edf0f7" stroke="#7f7f7f" stroke-dasharray="5,2" points="8,-8 8,-167 168,-167 168,-8 8,-8"/>
<text text-anchor="middle" x="88" y="-155" font-family="Helvetica,sans-Serif" font-size="10.00">Parser</text>
</a>
</g>
</g>
<g id="clust2" class="cluster">
<title>clusterdir_ee65795b26170e41fde00b88d913e4c5</title>
<g id="a_clust2"><a xlink:href="dir_ee65795b26170e41fde00b88d913e4c5.html" target="_top">
<polygon fill="#edf0f7" stroke="#404040" stroke-width="2" points="16,-16 16,-140 160,-140 160,-16 16,-16"/>
</a>
</g>
</g>
<!-- dir_ee65795b26170e41fde00b88d913e4c5 -->
<g id="node1" class="node">
<title>dir_ee65795b26170e41fde00b88d913e4c5</title>
<text text-anchor="middle" x="119" y="-111.5" font-family="Helvetica,sans-Serif" font-size="10.00">Expression</text>
</g>
<!-- dir_8b71cc723e2334237506ce938f073464 -->
<g id="node2" class="node">
<title>dir_8b71cc723e2334237506ce938f073464</title>
<g id="a_node2"><a xlink:href="dir_8b71cc723e2334237506ce938f073464.html" target="_top" xlink:title="Interface">
<polygon fill="#a2b4d6" stroke="#404040" points="79.5,-60 24.5,-60 24.5,-24 79.5,-24 79.5,-60"/>
<text text-anchor="middle" x="52" y="-39.5" font-family="Helvetica,sans-Serif" font-size="10.00">Interface</text>
</a>
</g>
</g>
<!-- dir_ee65795b26170e41fde00b88d913e4c5&#45;&gt;dir_8b71cc723e2334237506ce938f073464 -->
<g id="edge3" class="edge">
<title>dir_ee65795b26170e41fde00b88d913e4c5&#45;&gt;dir_8b71cc723e2334237506ce938f073464</title>
<path fill="none" stroke="black" d="M102.44,-95.7C94.32,-87.22 84.41,-76.86 75.53,-67.58"/>
<polygon fill="black" stroke="black" points="77.81,-64.91 68.37,-60.1 72.76,-69.75 77.81,-64.91"/>
<g id="a_edge3&#45;headlabel"><a xlink:href="dir_000004_000007.html" target="_top" xlink:title="1">
<text text-anchor="middle" x="82.35" y="-63.04" font-family="Helvetica,sans-Serif" font-size="10.00">1</text>
</a>
</g>
</g>
<!-- dir_06e7653a7034514b8a98f25a765f9ec6 -->
<g id="node3" class="node">
<title>dir_06e7653a7034514b8a98f25a765f9ec6</title>
<g id="a_node3"><a xlink:href="dir_06e7653a7034514b8a98f25a765f9ec6.html" target="_top" xlink:title="Operator">
<polygon fill="#a2b4d6" stroke="#404040" points="152,-60 98,-60 98,-24 152,-24 152,-60"/>
<text text-anchor="middle" x="125" y="-39.5" font-family="Helvetica,sans-Serif" font-size="10.00">Operator</text>
</a>
</g>
</g>
<!-- dir_ee65795b26170e41fde00b88d913e4c5&#45;&gt;dir_06e7653a7034514b8a98f25a765f9ec6 -->
<g id="edge1" class="edge">
<title>dir_ee65795b26170e41fde00b88d913e4c5&#45;&gt;dir_06e7653a7034514b8a98f25a765f9ec6</title>
<path fill="none" stroke="black" d="M120.48,-95.7C121.14,-87.98 121.94,-78.71 122.68,-70.11"/>
<polygon fill="black" stroke="black" points="126.17,-70.37 123.53,-60.1 119.19,-69.77 126.17,-70.37"/>
<g id="a_edge1&#45;headlabel"><a xlink:href="dir_000004_000012.html" target="_top" xlink:title="1">
<text text-anchor="middle" x="128.69" y="-71.69" font-family="Helvetica,sans-Serif" font-size="10.00">1</text>
</a>
</g>
</g>
<!-- dir_105c0920e8abcee19bcbee6a126d7cfc -->
<g id="node4" class="node">
<title>dir_105c0920e8abcee19bcbee6a126d7cfc</title>
<g id="a_node4"><a xlink:href="dir_105c0920e8abcee19bcbee6a126d7cfc.html" target="_top" xlink:title="Tokenizer">
<polygon fill="none" stroke="red" stroke-dasharray="5,2" points="235.5,-60 176.5,-60 176.5,-24 235.5,-24 235.5,-60"/>
<text text-anchor="middle" x="206" y="-39.5" font-family="Helvetica,sans-Serif" font-size="10.00">Tokenizer</text>
</a>
</g>
</g>
<!-- dir_ee65795b26170e41fde00b88d913e4c5&#45;&gt;dir_105c0920e8abcee19bcbee6a126d7cfc -->
<g id="edge2" class="edge">
<title>dir_ee65795b26170e41fde00b88d913e4c5&#45;&gt;dir_105c0920e8abcee19bcbee6a126d7cfc</title>
<path fill="none" stroke="black" d="M140.51,-95.7C151.46,-86.88 164.95,-76.03 176.82,-66.47"/>
<polygon fill="black" stroke="black" points="179.14,-69.1 184.74,-60.1 174.76,-63.65 179.14,-69.1"/>
<g id="a_edge2&#45;headlabel"><a xlink:href="dir_000004_000016.html" target="_top" xlink:title="3">
<text text-anchor="middle" x="178.12" y="-71.07" font-family="Helvetica,sans-Serif" font-size="10.00">3</text>
</a>
</g>
</g>
</g>
</svg>
