<?xml version="1.0" encoding="UTF-8" standalone="no"?>
<!DOCTYPE svg PUBLIC "-//W3C//DTD SVG 1.1//EN"
 "http://www.w3.org/Graphics/SVG/1.1/DTD/svg11.dtd">
<!-- Generated by graphviz version 2.50.0 (20211204.2007)
 -->
<!-- Title: Graphe hiérarchique des classes Pages: 1 -->
<svg width="360pt" height="66pt"
 viewBox="0.00 0.00 360.00 66.00" xmlns="http://www.w3.org/2000/svg" xmlns:xlink="http://www.w3.org/1999/xlink">
<g id="graph0" class="graph" transform="scale(1 1) rotate(0) translate(4 62)">
<title>Graphe hiérarchique des classes</title>
<!-- Node0 -->
<g id="node1" class="node">
<title>Node0</title>
<g id="a_node1"><a xlink:href="class_tokenizer_interface.html" target="_top" xlink:title=" ">
<polygon fill="none" stroke="black" points="0,-19.5 0,-38.5 95,-38.5 95,-19.5 0,-19.5"/>
<text text-anchor="middle" x="47.5" y="-26.5" font-family="Helvetica,sans-Serif" font-size="10.00">TokenizerInterface</text>
</a>
</g>
</g>
<!-- Node1 -->
<g id="node2" class="node">
<title>Node1</title>
<g id="a_node2"><a xlink:href="class_abstract_tokenizer.html" target="_top" xlink:title=" ">
<polygon fill="none" stroke="black" points="131,-19.5 131,-38.5 226,-38.5 226,-19.5 131,-19.5"/>
<text text-anchor="middle" x="178.5" y="-26.5" font-family="Helvetica,sans-Serif" font-size="10.00">AbstractTokenizer</text>
</a>
</g>
</g>
<!-- Node0&#45;&gt;Node1 -->
<g id="edge1" class="edge">
<title>Node0&#45;&gt;Node1</title>
<path fill="none" stroke="midnightblue" d="M105.1,-29C113.75,-29 122.6,-29 131,-29"/>
<polygon fill="midnightblue" stroke="midnightblue" points="105.07,-25.5 95.07,-29 105.07,-32.5 105.07,-25.5"/>
</g>
<!-- Node2 -->
<g id="node3" class="node">
<title>Node2</title>
<g id="a_node3"><a xlink:href="class_stream_tokenizer.html" target="_top" xlink:title=" ">
<polygon fill="none" stroke="black" points="262,-38.5 262,-57.5 352,-57.5 352,-38.5 262,-38.5"/>
<text text-anchor="middle" x="307" y="-45.5" font-family="Helvetica,sans-Serif" font-size="10.00">StreamTokenizer</text>
</a>
</g>
</g>
<!-- Node1&#45;&gt;Node2 -->
<g id="edge2" class="edge">
<title>Node1&#45;&gt;Node2</title>
<path fill="none" stroke="midnightblue" d="M236.26,-37.52C244.88,-38.82 253.67,-40.14 261.97,-41.39"/>
<polygon fill="midnightblue" stroke="midnightblue" points="236.65,-34.05 226.24,-36.02 235.61,-40.97 236.65,-34.05"/>
</g>
<!-- Node3 -->
<g id="node4" class="node">
<title>Node3</title>
<g id="a_node4"><a xlink:href="class_string_tokenizer.html" target="_top" xlink:title=" ">
<polygon fill="none" stroke="black" points="265,-0.5 265,-19.5 349,-19.5 349,-0.5 265,-0.5"/>
<text text-anchor="middle" x="307" y="-7.5" font-family="Helvetica,sans-Serif" font-size="10.00">StringTokenizer</text>
</a>
</g>
</g>
<!-- Node1&#45;&gt;Node3 -->
<g id="edge3" class="edge">
<title>Node1&#45;&gt;Node3</title>
<path fill="none" stroke="midnightblue" d="M236.19,-20.48C245.85,-19.03 255.71,-17.55 264.87,-16.18"/>
<polygon fill="midnightblue" stroke="midnightblue" points="235.61,-17.03 226.24,-21.98 236.65,-23.95 235.61,-17.03"/>
</g>
</g>
</svg>
