<?xml version="1.0" encoding="UTF-8" standalone="no"?>
<!DOCTYPE svg PUBLIC "-//W3C//DTD SVG 1.1//EN"
 "http://www.w3.org/Graphics/SVG/1.1/DTD/svg11.dtd">
<!-- Generated by graphviz version 2.50.0 (20211204.2007)
 -->
<!-- Title: Graphe hiérarchique des classes Pages: 1 -->
<svg width="545pt" height="180pt"
 viewBox="0.00 0.00 545.00 180.00" xmlns="http://www.w3.org/2000/svg" xmlns:xlink="http://www.w3.org/1999/xlink">
<g id="graph0" class="graph" transform="scale(1 1) rotate(0) translate(4 176)">
<title>Graphe hiérarchique des classes</title>
<!-- Node0 -->
<g id="node1" class="node">
<title>Node0</title>
<g id="a_node1"><a xlink:href="class_expression_interface.html" target="_top" xlink:title=" ">
<polygon fill="none" stroke="black" points="0,-114.5 0,-133.5 102,-133.5 102,-114.5 0,-114.5"/>
<text text-anchor="middle" x="51" y="-121.5" font-family="Helvetica,sans-Serif" font-size="10.00">ExpressionInterface</text>
</a>
</g>
</g>
<!-- Node1 -->
<g id="node2" class="node">
<title>Node1</title>
<g id="a_node2"><a xlink:href="class_abstract_expression.html" target="_top" xlink:title=" ">
<polygon fill="none" stroke="black" points="138,-114.5 138,-133.5 240,-133.5 240,-114.5 138,-114.5"/>
<text text-anchor="middle" x="189" y="-121.5" font-family="Helvetica,sans-Serif" font-size="10.00">AbstractExpression</text>
</a>
</g>
</g>
<!-- Node0&#45;&gt;Node1 -->
<g id="edge1" class="edge">
<title>Node0&#45;&gt;Node1</title>
<path fill="none" stroke="midnightblue" d="M112.51,-124C121.01,-124 129.67,-124 137.95,-124"/>
<polygon fill="midnightblue" stroke="midnightblue" points="112.26,-120.5 102.25,-124 112.25,-127.5 112.26,-120.5"/>
</g>
<!-- Node2 -->
<g id="node3" class="node">
<title>Node2</title>
<g id="a_node3"><a xlink:href="class_identifier_expression.html" target="_top" xlink:title=" ">
<polygon fill="none" stroke="black" points="277,-152.5 277,-171.5 378,-171.5 378,-152.5 277,-152.5"/>
<text text-anchor="middle" x="327.5" y="-159.5" font-family="Helvetica,sans-Serif" font-size="10.00">IdentifierExpression</text>
</a>
</g>
</g>
<!-- Node1&#45;&gt;Node2 -->
<g id="edge2" class="edge">
<title>Node1&#45;&gt;Node2</title>
<path fill="none" stroke="midnightblue" d="M234.25,-136.32C253,-141.54 274.53,-147.53 292.07,-152.41"/>
<polygon fill="midnightblue" stroke="midnightblue" points="235.02,-132.9 224.44,-133.59 233.14,-139.64 235.02,-132.9"/>
</g>
<!-- Node3 -->
<g id="node4" class="node">
<title>Node3</title>
<g id="a_node4"><a xlink:href="class_number_expression.html" target="_top" xlink:title=" ">
<polygon fill="none" stroke="black" points="278,-114.5 278,-133.5 377,-133.5 377,-114.5 278,-114.5"/>
<text text-anchor="middle" x="327.5" y="-121.5" font-family="Helvetica,sans-Serif" font-size="10.00">NumberExpression</text>
</a>
</g>
</g>
<!-- Node1&#45;&gt;Node3 -->
<g id="edge3" class="edge">
<title>Node1&#45;&gt;Node3</title>
<path fill="none" stroke="midnightblue" d="M250.32,-124C259.52,-124 268.91,-124 277.82,-124"/>
<polygon fill="midnightblue" stroke="midnightblue" points="250.05,-120.5 240.05,-124 250.05,-127.5 250.05,-120.5"/>
</g>
<!-- Node4 -->
<g id="node5" class="node">
<title>Node4</title>
<g id="a_node5"><a xlink:href="class_operator_expression.html" target="_top" xlink:title=" ">
<polygon fill="none" stroke="black" points="276,-76.5 276,-95.5 379,-95.5 379,-76.5 276,-76.5"/>
<text text-anchor="middle" x="327.5" y="-83.5" font-family="Helvetica,sans-Serif" font-size="10.00">OperatorExpression</text>
</a>
</g>
</g>
<!-- Node1&#45;&gt;Node4 -->
<g id="edge4" class="edge">
<title>Node1&#45;&gt;Node4</title>
<path fill="none" stroke="midnightblue" d="M234.25,-111.68C253,-106.46 274.53,-100.47 292.07,-95.59"/>
<polygon fill="midnightblue" stroke="midnightblue" points="233.14,-108.36 224.44,-114.41 235.02,-115.1 233.14,-108.36"/>
</g>
<!-- Node5 -->
<g id="node6" class="node">
<title>Node5</title>
<g id="a_node6"><a xlink:href="class_addition_expression.html" target="_top" xlink:title=" ">
<polygon fill="none" stroke="black" points="425.5,-152.5 425.5,-171.5 526.5,-171.5 526.5,-152.5 425.5,-152.5"/>
<text text-anchor="middle" x="476" y="-159.5" font-family="Helvetica,sans-Serif" font-size="10.00">AdditionExpression</text>
</a>
</g>
</g>
<!-- Node4&#45;&gt;Node5 -->
<g id="edge5" class="edge">
<title>Node4&#45;&gt;Node5</title>
<path fill="none" stroke="midnightblue" d="M369.77,-99.7C372.98,-101.31 376.1,-103.08 379,-105 398.38,-117.87 395.28,-130.65 415,-143 421.11,-146.83 428.06,-149.94 435.01,-152.46"/>
<polygon fill="midnightblue" stroke="midnightblue" points="371.11,-96.46 360.56,-95.55 368.24,-102.85 371.11,-96.46"/>
</g>
<!-- Node6 -->
<g id="node7" class="node">
<title>Node6</title>
<g id="a_node7"><a xlink:href="class_division_expression.html" target="_top" xlink:title=" ">
<polygon fill="none" stroke="black" points="427,-114.5 427,-133.5 525,-133.5 525,-114.5 427,-114.5"/>
<text text-anchor="middle" x="476" y="-121.5" font-family="Helvetica,sans-Serif" font-size="10.00">DivisionExpression</text>
</a>
</g>
</g>
<!-- Node4&#45;&gt;Node6 -->
<g id="edge6" class="edge">
<title>Node4&#45;&gt;Node6</title>
<path fill="none" stroke="midnightblue" d="M375.2,-98.11C395.6,-103.4 419.18,-109.52 438.3,-114.48"/>
<polygon fill="midnightblue" stroke="midnightblue" points="376.03,-94.71 365.47,-95.59 374.27,-101.49 376.03,-94.71"/>
</g>
<!-- Node7 -->
<g id="node8" class="node">
<title>Node7</title>
<g id="a_node8"><a xlink:href="class_modulo_expression.html" target="_top" xlink:title=" ">
<polygon fill="none" stroke="black" points="427.5,-76.5 427.5,-95.5 524.5,-95.5 524.5,-76.5 427.5,-76.5"/>
<text text-anchor="middle" x="476" y="-83.5" font-family="Helvetica,sans-Serif" font-size="10.00">ModuloExpression</text>
</a>
</g>
</g>
<!-- Node4&#45;&gt;Node7 -->
<g id="edge7" class="edge">
<title>Node4&#45;&gt;Node7</title>
<path fill="none" stroke="midnightblue" d="M389.33,-86C401.97,-86 415.12,-86 427.22,-86"/>
<polygon fill="midnightblue" stroke="midnightblue" points="389.33,-82.5 379.33,-86 389.33,-89.5 389.33,-82.5"/>
</g>
<!-- Node8 -->
<g id="node9" class="node">
<title>Node8</title>
<g id="a_node9"><a xlink:href="class_multiplication_expression.html" target="_top" xlink:title=" ">
<polygon fill="none" stroke="black" points="415,-38.5 415,-57.5 537,-57.5 537,-38.5 415,-38.5"/>
<text text-anchor="middle" x="476" y="-45.5" font-family="Helvetica,sans-Serif" font-size="10.00">MultiplicationExpression</text>
</a>
</g>
</g>
<!-- Node4&#45;&gt;Node8 -->
<g id="edge8" class="edge">
<title>Node4&#45;&gt;Node8</title>
<path fill="none" stroke="midnightblue" d="M375.2,-73.89C395.6,-68.6 419.18,-62.48 438.3,-57.52"/>
<polygon fill="midnightblue" stroke="midnightblue" points="374.27,-70.51 365.47,-76.41 376.03,-77.29 374.27,-70.51"/>
</g>
<!-- Node9 -->
<g id="node10" class="node">
<title>Node9</title>
<g id="a_node10"><a xlink:href="class_subtraction_expression.html" target="_top" xlink:title=" ">
<polygon fill="none" stroke="black" points="418.5,-0.5 418.5,-19.5 533.5,-19.5 533.5,-0.5 418.5,-0.5"/>
<text text-anchor="middle" x="476" y="-7.5" font-family="Helvetica,sans-Serif" font-size="10.00">SubtractionExpression</text>
</a>
</g>
</g>
<!-- Node4&#45;&gt;Node9 -->
<g id="edge9" class="edge">
<title>Node4&#45;&gt;Node9</title>
<path fill="none" stroke="midnightblue" d="M348.81,-70.28C365.76,-57.75 390.94,-40.46 415,-29 422.6,-25.38 431.05,-22.22 439.16,-19.57"/>
<polygon fill="midnightblue" stroke="midnightblue" points="346.63,-67.54 340.74,-76.35 350.84,-73.13 346.63,-67.54"/>
</g>
</g>
</svg>
