<?xml version="1.0" encoding="UTF-8" standalone="no"?><svg xmlns="http://www.w3.org/2000/svg" xmlns:xlink="http://www.w3.org/1999/xlink" contentScriptType="application/ecmascript" contentStyleType="text/css" height="341.1111px" preserveAspectRatio="none" style="width:834px;height:341px;background:#00000000;" version="1.1" viewBox="0 0 834 341" width="834.4444px" zoomAndPan="magnify"><defs><linearGradient id="gjrpn7af3blja0" x1="50%" x2="50%" y1="0%" y2="100%"><stop offset="0%" stop-color="#7C9AB9"/><stop offset="100%" stop-color="#304D6D"/></linearGradient></defs><g><!--MD5=[6754354365917abf8f1a56af1b7e344c]
class Context--><rect codeLine="6" fill="url(#gjrpn7af3blja0)" height="134.8264" id="Context" rx="4.4444" ry="4.4444" style="stroke:#304D6D;stroke-width:1.1111111111111112;" width="258.8889" x="227.7778" y="19.4444"/><rect fill="url(#gjrpn7af3blja0)" height="37.5955" rx="4.4444" ry="4.4444" style="stroke:url(#gjrpn7af3blja0);stroke-width:1.1111111111111112;" width="258.8889" x="227.7778" y="19.4444"/><rect fill="url(#gjrpn7af3blja0)" height="4.4444" style="stroke:url(#gjrpn7af3blja0);stroke-width:1.1111111111111112;" width="258.8889" x="227.7778" y="52.5955"/><rect codeLine="6" fill="none" height="134.8264" id="Context" rx="4.4444" ry="4.4444" style="stroke:#304D6D;stroke-width:1.1111111111111112;" width="258.8889" x="227.7778" y="19.4444"/><ellipse cx="326.6667" cy="38.2422" fill="#B8B8B8" rx="11.1111" ry="11.1111" style="stroke:#6B6B6B;stroke-width:1.1111111111111112;"/><path d="M328.316,35.1345 Q328.4375,34.9609 328.5851,34.8741 Q328.7326,34.7873 328.9063,34.7873 Q329.2014,34.7873 329.3837,34.9957 Q329.566,35.204 329.566,35.6727 L329.566,36.8186 Q329.566,37.2873 329.3837,37.4957 Q329.2014,37.704 328.9063,37.704 Q328.6285,37.704 328.4722,37.5477 Q328.316,37.4089 328.2292,36.9922 Q328.1944,36.7144 328.0556,36.5755 Q327.7778,36.2804 327.3003,36.1068 Q326.8229,35.9332 326.3368,35.9332 Q325.7465,35.9332 325.2431,36.1936 Q324.7396,36.454 324.3576,37.0356 Q323.9757,37.6172 323.9757,38.4332 L323.9757,39.3012 Q323.9757,40.2561 324.6788,40.8984 Q325.3819,41.5408 326.6146,41.5408 Q327.3611,41.5408 327.8819,41.3498 Q328.1771,41.2283 328.5069,40.8811 Q328.7153,40.6727 328.8368,40.612 Q328.9583,40.5512 329.0972,40.5512 Q329.375,40.5512 329.5747,40.7509 Q329.7743,40.9505 329.7743,41.2283 Q329.7743,41.5061 329.4965,41.8186 Q329.0972,42.27 328.4722,42.5304 Q327.6389,42.8776 326.6319,42.8776 Q325.434,42.8776 324.4965,42.3915 Q323.7153,42.0095 323.1771,41.1589 Q322.6389,40.3082 322.6389,39.3186 L322.6389,38.4158 Q322.6389,37.3741 323.125,36.4714 Q323.6111,35.5686 324.4705,35.0825 Q325.3299,34.5964 326.2847,34.5964 Q326.875,34.5964 327.3785,34.7266 Q327.8819,34.8568 328.316,35.1345 Z " fill="#000000"/><text fill="#EEEEEE" font-family="&quot;Verdana&quot;" font-size="12.2222" lengthAdjust="spacing" textLength="41.1111" x="353.3333" y="43.2433">Context</text><line style="stroke:#304D6D;stroke-width:1.1111111111111112;" x1="228.8889" x2="485.5556" y1="57.0399" y2="57.0399"/><rect fill="none" height="6.6667" style="stroke:#C82930;stroke-width:1.1111111111111112;" width="6.6667" x="236.6667" y="65.9288"/><text fill="#EEEEEE" font-family="&quot;Verdana&quot;" font-size="12.2222" lengthAdjust="spacing" textLength="165.5556" x="254.4444" y="79.7276">m_variables: map&lt;string, long&gt;</text><line style="stroke:#304D6D;stroke-width:1.1111111111111112;" x1="228.8889" x2="485.5556" y1="92.4132" y2="92.4132"/><ellipse cx="240" cy="104.6354" fill="#84BE84" rx="3.3333" ry="3.3333" style="stroke:#038048;stroke-width:1.1111111111111112;"/><text fill="#EEEEEE" font-family="&quot;Verdana&quot;" font-size="12.2222" lengthAdjust="spacing" textLength="220" x="254.4444" y="115.1009">void SetVariable(string name, long value)</text><ellipse cx="240" cy="131.1198" fill="#84BE84" rx="3.3333" ry="3.3333" style="stroke:#038048;stroke-width:1.1111111111111112;"/><text fill="#EEEEEE" font-family="&quot;Verdana&quot;" font-size="12.2222" lengthAdjust="spacing" textLength="160" x="254.4444" y="141.5853">long GetVariable(string name)</text><!--MD5=[ed6624c6556d5e7b1bd23032162d20b7]
class Client--><rect codeLine="12" fill="url(#gjrpn7af3blja0)" height="81.8576" id="Client" rx="4.4444" ry="4.4444" style="stroke:#304D6D;stroke-width:1.1111111111111112;" width="142.2222" x="18.8889" y="120"/><rect fill="url(#gjrpn7af3blja0)" height="37.5955" rx="4.4444" ry="4.4444" style="stroke:url(#gjrpn7af3blja0);stroke-width:1.1111111111111112;" width="142.2222" x="18.8889" y="120"/><rect fill="url(#gjrpn7af3blja0)" height="4.4444" style="stroke:url(#gjrpn7af3blja0);stroke-width:1.1111111111111112;" width="142.2222" x="18.8889" y="153.151"/><rect codeLine="12" fill="none" height="81.8576" id="Client" rx="4.4444" ry="4.4444" style="stroke:#304D6D;stroke-width:1.1111111111111112;" width="142.2222" x="18.8889" y="120"/><ellipse cx="65.5556" cy="138.7977" fill="#B8B8B8" rx="11.1111" ry="11.1111" style="stroke:#6B6B6B;stroke-width:1.1111111111111112;"/><path d="M67.2049,135.6901 Q67.3264,135.5165 67.474,135.4297 Q67.6215,135.3429 67.7951,135.3429 Q68.0903,135.3429 68.2726,135.5512 Q68.4549,135.7595 68.4549,136.2283 L68.4549,137.3741 Q68.4549,137.8429 68.2726,138.0512 Q68.0903,138.2595 67.7951,138.2595 Q67.5174,138.2595 67.3611,138.1033 Q67.2049,137.9644 67.1181,137.5477 Q67.0833,137.27 66.9444,137.1311 Q66.6667,136.8359 66.1892,136.6623 Q65.7118,136.4887 65.2257,136.4887 Q64.6354,136.4887 64.1319,136.7491 Q63.6285,137.0095 63.2465,137.5911 Q62.8646,138.1727 62.8646,138.9887 L62.8646,139.8568 Q62.8646,140.8116 63.5677,141.454 Q64.2708,142.0964 65.5035,142.0964 Q66.25,142.0964 66.7708,141.9054 Q67.066,141.7839 67.3958,141.4366 Q67.6042,141.2283 67.7257,141.1675 Q67.8472,141.1068 67.9861,141.1068 Q68.2639,141.1068 68.4635,141.3064 Q68.6632,141.5061 68.6632,141.7839 Q68.6632,142.0616 68.3854,142.3741 Q67.9861,142.8255 67.3611,143.0859 Q66.5278,143.4332 65.5208,143.4332 Q64.3229,143.4332 63.3854,142.947 Q62.6042,142.5651 62.066,141.7144 Q61.5278,140.8637 61.5278,139.8741 L61.5278,138.9714 Q61.5278,137.9297 62.0139,137.0269 Q62.5,136.1241 63.3594,135.638 Q64.2188,135.1519 65.1736,135.1519 Q65.7639,135.1519 66.2674,135.2821 Q66.7708,135.4123 67.2049,135.6901 Z " fill="#000000"/><text fill="#EEEEEE" font-family="&quot;Verdana&quot;" font-size="12.2222" lengthAdjust="spacing" textLength="28.8889" x="92.2222" y="143.7988">Client</text><line style="stroke:#304D6D;stroke-width:1.1111111111111112;" x1="20" x2="160" y1="157.5955" y2="157.5955"/><rect fill="none" height="6.6667" style="stroke:#C82930;stroke-width:1.1111111111111112;" width="6.6667" x="27.7778" y="166.4844"/><text fill="#EEEEEE" font-family="&quot;Verdana&quot;" font-size="12.2222" lengthAdjust="spacing" textLength="103.3333" x="45.5556" y="180.2832">m_context: Context</text><line style="stroke:#304D6D;stroke-width:1.1111111111111112;" x1="20" x2="160" y1="192.9688" y2="192.9688"/><!--MD5=[1753a10b402319728ed3c42157a5c31f]
class AbstractExpression--><rect codeLine="16" fill="url(#gjrpn7af3blja0)" height="81.8576" id="AbstractExpression" rx="4.4444" ry="4.4444" style="stroke:#304D6D;stroke-width:1.1111111111111112;" width="202.2222" x="256.1111" y="193.3333"/><rect fill="url(#gjrpn7af3blja0)" height="37.5955" rx="4.4444" ry="4.4444" style="stroke:url(#gjrpn7af3blja0);stroke-width:1.1111111111111112;" width="202.2222" x="256.1111" y="193.3333"/><rect fill="url(#gjrpn7af3blja0)" height="4.4444" style="stroke:url(#gjrpn7af3blja0);stroke-width:1.1111111111111112;" width="202.2222" x="256.1111" y="226.4844"/><rect codeLine="16" fill="none" height="81.8576" id="AbstractExpression" rx="4.4444" ry="4.4444" style="stroke:#304D6D;stroke-width:1.1111111111111112;" width="202.2222" x="256.1111" y="193.3333"/><ellipse cx="293.6667" cy="212.1311" fill="#4CBC5C" rx="11.1111" ry="11.1111" style="stroke:#32A243;stroke-width:1.1111111111111112;"/><path d="M295.4028,214.4227 L292.1736,214.4227 L291.8438,215.2387 L292.1736,215.2387 Q292.6424,215.2387 292.8507,215.421 Q293.059,215.6033 293.059,215.9158 Q293.059,216.2109 292.8507,216.3932 Q292.6424,216.5755 292.1736,216.5755 L290.3681,216.5755 Q289.8819,216.5755 289.6823,216.3932 Q289.4826,216.2109 289.4826,215.8984 Q289.4826,215.6033 289.6997,215.4123 Q289.9167,215.2214 290.4028,215.2387 L292.5035,210.013 L291.6354,210.013 Q291.1493,210.013 290.941,209.8307 Q290.7326,209.6484 290.7326,209.3533 Q290.7326,209.0408 290.941,208.8585 Q291.1493,208.6762 291.6354,208.6762 L294.5174,208.6762 L297.1736,215.2387 Q297.6424,215.2387 297.7813,215.3429 Q298.0938,215.5512 298.0938,215.9158 Q298.0938,216.2109 297.8854,216.3932 Q297.6771,216.5755 297.2083,216.5755 L295.4028,216.5755 Q294.9167,216.5755 294.717,216.3932 Q294.5174,216.2109 294.5174,215.8984 Q294.5174,215.6033 294.717,215.421 Q294.9167,215.2387 295.4028,215.2387 L295.7326,215.2387 L295.4028,214.4227 Z M294.8646,213.0859 L293.7882,210.447 L292.6944,213.0859 L294.8646,213.0859 Z " fill="#000000"/><text fill="#EEEEEE" font-family="&quot;Verdana&quot;" font-size="12.2222" font-style="italic" lengthAdjust="spacing" textLength="108.8889" x="318.5556" y="217.1322">AbstractExpression</text><line style="stroke:#304D6D;stroke-width:1.1111111111111112;" x1="257.2222" x2="457.2222" y1="230.9288" y2="230.9288"/><line style="stroke:#304D6D;stroke-width:1.1111111111111112;" x1="257.2222" x2="457.2222" y1="239.8177" y2="239.8177"/><ellipse cx="268.3333" cy="252.0399" fill="#84BE84" rx="3.3333" ry="3.3333" style="stroke:#038048;stroke-width:1.1111111111111112;"/><text fill="#EEEEEE" font-family="&quot;Verdana&quot;" font-size="12.2222" lengthAdjust="spacing" textLength="163.3333" x="282.7778" y="262.5054">void Interpret(Context context)</text><!--MD5=[78602e3cc428a36b26b27bd9510830dc]
class TerminalExpression--><rect codeLine="20" fill="url(#gjrpn7af3blja0)" height="81.8576" id="TerminalExpression" rx="4.4444" ry="4.4444" style="stroke:#304D6D;stroke-width:1.1111111111111112;" width="202.2222" x="586.1111" y="18.8889"/><rect fill="url(#gjrpn7af3blja0)" height="37.5955" rx="4.4444" ry="4.4444" style="stroke:url(#gjrpn7af3blja0);stroke-width:1.1111111111111112;" width="202.2222" x="586.1111" y="18.8889"/><rect fill="url(#gjrpn7af3blja0)" height="4.4444" style="stroke:url(#gjrpn7af3blja0);stroke-width:1.1111111111111112;" width="202.2222" x="586.1111" y="52.0399"/><rect codeLine="20" fill="none" height="81.8576" id="TerminalExpression" rx="4.4444" ry="4.4444" style="stroke:#304D6D;stroke-width:1.1111111111111112;" width="202.2222" x="586.1111" y="18.8889"/><ellipse cx="625.6667" cy="37.6866" fill="#B8B8B8" rx="11.1111" ry="11.1111" style="stroke:#6B6B6B;stroke-width:1.1111111111111112;"/><path d="M627.316,34.579 Q627.4375,34.4054 627.5851,34.3186 Q627.7326,34.2318 627.9063,34.2318 Q628.2014,34.2318 628.3837,34.4401 Q628.566,34.6484 628.566,35.1172 L628.566,36.263 Q628.566,36.7318 628.3837,36.9401 Q628.2014,37.1484 627.9063,37.1484 Q627.6285,37.1484 627.4722,36.9922 Q627.316,36.8533 627.2292,36.4366 Q627.1944,36.1589 627.0556,36.02 Q626.7778,35.7248 626.3003,35.5512 Q625.8229,35.3776 625.3368,35.3776 Q624.7465,35.3776 624.2431,35.638 Q623.7396,35.8984 623.3576,36.48 Q622.9757,37.0616 622.9757,37.8776 L622.9757,38.7457 Q622.9757,39.7005 623.6788,40.3429 Q624.3819,40.9852 625.6146,40.9852 Q626.3611,40.9852 626.8819,40.7943 Q627.1771,40.6727 627.5069,40.3255 Q627.7153,40.1172 627.8368,40.0564 Q627.9583,39.9957 628.0972,39.9957 Q628.375,39.9957 628.5747,40.1953 Q628.7743,40.395 628.7743,40.6727 Q628.7743,40.9505 628.4965,41.263 Q628.0972,41.7144 627.4722,41.9748 Q626.6389,42.322 625.6319,42.322 Q624.434,42.322 623.4965,41.8359 Q622.7153,41.454 622.1771,40.6033 Q621.6389,39.7526 621.6389,38.763 L621.6389,37.8602 Q621.6389,36.8186 622.125,35.9158 Q622.6111,35.013 623.4705,34.5269 Q624.3299,34.0408 625.2847,34.0408 Q625.875,34.0408 626.3785,34.171 Q626.8819,34.3012 627.316,34.579 Z " fill="#000000"/><text fill="#EEEEEE" font-family="&quot;Verdana&quot;" font-size="12.2222" lengthAdjust="spacing" textLength="104.4444" x="651" y="42.6877">TerminalExpression</text><line style="stroke:#304D6D;stroke-width:1.1111111111111112;" x1="587.2222" x2="787.2222" y1="56.4844" y2="56.4844"/><line style="stroke:#304D6D;stroke-width:1.1111111111111112;" x1="587.2222" x2="787.2222" y1="65.3733" y2="65.3733"/><ellipse cx="598.3333" cy="77.5955" fill="#84BE84" rx="3.3333" ry="3.3333" style="stroke:#038048;stroke-width:1.1111111111111112;"/><text fill="#EEEEEE" font-family="&quot;Verdana&quot;" font-size="12.2222" lengthAdjust="spacing" textLength="163.3333" x="612.7778" y="88.061">void Interpret(Context context)</text><!--MD5=[56a1d5c966ebeaab8e7d72bab2a46628]
class NonTerminalExpression--><rect codeLine="24" fill="url(#gjrpn7af3blja0)" height="187.7951" id="NonTerminalExpression" rx="4.4444" ry="4.4444" style="stroke:#304D6D;stroke-width:1.1111111111111112;" width="267.7778" x="553.3333" y="140.5556"/><rect fill="url(#gjrpn7af3blja0)" height="37.5955" rx="4.4444" ry="4.4444" style="stroke:url(#gjrpn7af3blja0);stroke-width:1.1111111111111112;" width="267.7778" x="553.3333" y="140.5556"/><rect fill="url(#gjrpn7af3blja0)" height="4.4444" style="stroke:url(#gjrpn7af3blja0);stroke-width:1.1111111111111112;" width="267.7778" x="553.3333" y="173.7066"/><rect codeLine="24" fill="none" height="187.7951" id="NonTerminalExpression" rx="4.4444" ry="4.4444" style="stroke:#304D6D;stroke-width:1.1111111111111112;" width="267.7778" x="553.3333" y="140.5556"/><ellipse cx="614.4444" cy="159.3533" fill="#B8B8B8" rx="11.1111" ry="11.1111" style="stroke:#6B6B6B;stroke-width:1.1111111111111112;"/><path d="M616.0938,156.2457 Q616.2153,156.072 616.3628,155.9852 Q616.5104,155.8984 616.684,155.8984 Q616.9792,155.8984 617.1615,156.1068 Q617.3438,156.3151 617.3438,156.7839 L617.3438,157.9297 Q617.3438,158.3984 617.1615,158.6068 Q616.9792,158.8151 616.684,158.8151 Q616.4063,158.8151 616.25,158.6589 Q616.0938,158.52 616.0069,158.1033 Q615.9722,157.8255 615.8333,157.6866 Q615.5556,157.3915 615.0781,157.2179 Q614.6007,157.0443 614.1146,157.0443 Q613.5243,157.0443 613.0208,157.3047 Q612.5174,157.5651 612.1354,158.1467 Q611.7535,158.7283 611.7535,159.5443 L611.7535,160.4123 Q611.7535,161.3672 612.4566,162.0095 Q613.1597,162.6519 614.3924,162.6519 Q615.1389,162.6519 615.6597,162.4609 Q615.9549,162.3394 616.2847,161.9922 Q616.4931,161.7839 616.6146,161.7231 Q616.7361,161.6623 616.875,161.6623 Q617.1528,161.6623 617.3524,161.862 Q617.5521,162.0616 617.5521,162.3394 Q617.5521,162.6172 617.2743,162.9297 Q616.875,163.3811 616.25,163.6415 Q615.4167,163.9887 614.4097,163.9887 Q613.2118,163.9887 612.2743,163.5026 Q611.4931,163.1207 610.9549,162.27 Q610.4167,161.4193 610.4167,160.4297 L610.4167,159.5269 Q610.4167,158.4852 610.9028,157.5825 Q611.3889,156.6797 612.2483,156.1936 Q613.1076,155.7075 614.0625,155.7075 Q614.6528,155.7075 615.1563,155.8377 Q615.6597,155.9679 616.0938,156.2457 Z " fill="#000000"/><text fill="#EEEEEE" font-family="&quot;Verdana&quot;" font-size="12.2222" lengthAdjust="spacing" textLength="125.5556" x="641.1111" y="164.3544">NonTerminalExpression</text><line style="stroke:#304D6D;stroke-width:1.1111111111111112;" x1="554.4444" x2="820" y1="178.151" y2="178.151"/><polygon fill="none" points="565.5556,184.8177,570,189.2622,565.5556,193.7066,561.1111,189.2622" style="stroke:#B38D22;stroke-width:1.1111111111111112;"/><text fill="#EEEEEE" font-family="&quot;Verdana&quot;" font-size="12.2222" lengthAdjust="spacing" textLength="205.5556" x="580" y="200.8388">m_leftExpression: AbstractExpression</text><polygon fill="none" points="565.5556,211.3021,570,215.7465,565.5556,220.191,561.1111,215.7465" style="stroke:#B38D22;stroke-width:1.1111111111111112;"/><text fill="#EEEEEE" font-family="&quot;Verdana&quot;" font-size="12.2222" lengthAdjust="spacing" textLength="212.2222" x="580" y="227.3231">m_rightExpression: AbstractExpression</text><line style="stroke:#304D6D;stroke-width:1.1111111111111112;" x1="554.4444" x2="820" y1="240.0087" y2="240.0087"/><ellipse cx="565.5556" cy="252.2309" fill="#84BE84" rx="3.3333" ry="3.3333" style="stroke:#038048;stroke-width:1.1111111111111112;"/><text fill="#EEEEEE" font-family="&quot;Verdana&quot;" font-size="12.2222" lengthAdjust="spacing" textLength="163.3333" x="580" y="262.6964">void Interpret(Context context)</text><ellipse cx="565.5556" cy="278.7153" fill="#84BE84" rx="3.3333" ry="3.3333" style="stroke:#038048;stroke-width:1.1111111111111112;"/><text fill="#EEEEEE" font-family="&quot;Verdana&quot;" font-size="12.2222" lengthAdjust="spacing" textLength="223.3333" x="580" y="289.1808">AbstractExpression* GetLeftExpression()</text><ellipse cx="565.5556" cy="305.1997" fill="#84BE84" rx="3.3333" ry="3.3333" style="stroke:#038048;stroke-width:1.1111111111111112;"/><text fill="#EEEEEE" font-family="&quot;Verdana&quot;" font-size="12.2222" lengthAdjust="spacing" textLength="228.8889" x="580" y="315.6651">AbstractExpression* GetRightExpression()</text><!--MD5=[492370facff7f1b47fc3ba5e5e43201f]
reverse link AbstractExpression to TerminalExpression--><path d="M465.3222,183.5 C478.0667,177.4333 486.6667,173.3333 486.6667,173.3333 C486.6667,173.3333 553.3333,121.1111 553.3333,121.1111 C553.3333,121.1111 572.5889,112.2444 596.4444,101.2667 " fill="none" id="AbstractExpression-backto-TerminalExpression" style="stroke:#446E9B;stroke-width:3.3333333333333335;"/><polygon fill="none" points="468.4111,190.6444,445,193.1778,461.7222,176.6,468.4111,190.6444" style="stroke:#446E9B;stroke-width:3.3333333333333335;"/><!--MD5=[bdd8b47ea3d3d09e0341cda6425bfb14]
reverse link AbstractExpression to NonTerminalExpression--><path d="M481.0222,248.2 C504.5333,248.6778 529.2556,248.7333 553.0778,248.3889 " fill="none" id="AbstractExpression-backto-NonTerminalExpression" style="stroke:#446E9B;stroke-width:3.3333333333333335;"/><polygon fill="none" points="480.4667,255.9667,458.4556,247.6111,480.8778,240.4222,480.4667,255.9667" style="stroke:#446E9B;stroke-width:3.3333333333333335;"/><!--MD5=[47ea230bf23a2b08218003683f836b26]
link NonTerminalExpression to AbstractExpression--><path codeLine="35" d="M539.7452,219.5313 C539.7452,219.5313 494.1444,219.5222 473.0333,220.0667 " fill="none" id="NonTerminalExpression-AbstractExpression" style="stroke:#446E9B;stroke-width:3.3333333333333335;"/><polygon fill="#446E9B" points="458.4556,220.5,468.583,224.6459,464.0087,220.3352,468.3193,215.7609,458.4556,220.5" style="stroke:#446E9B;stroke-width:3.3333333333333335;"/><line style="stroke:#446E9B;stroke-width:3.3333333333333335;" x1="464.0087" x2="472.8944" y1="220.3352" y2="220.0667"/><polygon fill="#446E9B" points="553.0778,219.6778,546.4604,215.1603,539.7452,219.5313,546.3627,224.0487,553.0778,219.6778" style="stroke:#446E9B;stroke-width:3.3333333333333335;"/><!--MD5=[b67765e92eb1888ae5b1de0c9c20f931]
link Client to Context--><path codeLine="32" d="M174.2712,137.7545 C174.2712,137.7545 200.5889,130.3556 213.5,126.7333 " fill="none" id="Client-Context" style="stroke:#446E9B;stroke-width:3.3333333333333335;"/><polygon fill="#446E9B" points="227.5444,122.7889,216.7152,121.2136,222.1958,124.2909,219.1185,129.7715,227.5444,122.7889" style="stroke:#446E9B;stroke-width:3.3333333333333335;"/><line style="stroke:#446E9B;stroke-width:3.3333333333333335;" x1="222.1958" x2="213.6333" y1="124.2909" y2="126.6889"/><polygon fill="#446E9B" points="161.4333,141.3556,169.0526,143.8343,174.2712,137.7545,166.6519,135.2758,161.4333,141.3556" style="stroke:#446E9B;stroke-width:3.3333333333333335;"/><!--MD5=[95de74a57f1e0182b52a49c608771d14]
link Client to AbstractExpression--><path codeLine="33" d="M161.4333,180.5667 C188.7111,188.1222 220.5444,196.9333 250.4667,205.2111 " fill="none" id="Client-to-AbstractExpression" style="stroke:#446E9B;stroke-width:3.3333333333333335;"/><polygon fill="#446E9B" points="256.0333,206.7444,247.5898,199.7831,250.6809,205.2559,245.2081,208.347,256.0333,206.7444" style="stroke:#446E9B;stroke-width:3.3333333333333335;"/><!--MD5=[bda4b80263e6abf357371ccbf72b6918]
@startuml inline_umlgraph_1.svg
!theme custom from themes
skinparam linetype polyline
left to right direction
scale 800*800

class Context {
    -m_variables: map<string, long>
    +void SetVariable(string name, long value)
    +long GetVariable(string name)
}

class Client {
    -m_context: Context
}

abstract class AbstractExpression {
    +void Interpret(Context context)
}

class TerminalExpression extends AbstractExpression {
    +void Interpret(Context context)
}

class NonTerminalExpression extends AbstractExpression {
    #m_leftExpression: AbstractExpression
    #m_rightExpression: AbstractExpression
    +void Interpret(Context context)
    +AbstractExpression* GetLeftExpression()
    +AbstractExpression* GetRightExpression()
}

Client *- -> Context
Client - -> AbstractExpression

NonTerminalExpression *- -> AbstractExpression
@enduml

@startuml inline_umlgraph_1.svg



skinparam backgroundColor transparent
skinparam useBetaStyle false






<style>
  root {
    BackgroundColor transparent
    FontColor #ffffff
    HyperLinkColor #fd7e14
    LineColor #304d6d
    LineThickness 1
    Margin 10
    Padding 6
    Shadowing 0.0
  }
  node {
   Padding 15
   roundcorner 20
   BackgroundColor #446e9b-#304d6d
  }
  caption {
    LineThickness 0
  }
  footer {
    LineThickness 0
  }
  groupHeader {
    BackgroundColor #999999
    FontColor #3399f3
    FontStyle bold
  }
  header {
    LineThickness 0
  }
  referenceHeader {
    BackgroundColor transparent
    FontColor #333333
    FontStyle bold
  }
  separator {
    BackgroundColor #ffffff
    FontColor transparent
    FontStyle bold
  }
  title {
	FontSize 20
	BorderRoundCorner            8
	BorderThickness 	         1
	BackgroundColor  #b8b8b8-#999999
	FontColor #446e9b
	BorderColor #999999
  }
  nwdiagDiagram {
	network {
			FontColor #ffffff
	BorderColor #304d6d
	BackgroundColor #7c9ab9-#304d6d    
		LineColor #446e9b
		LineThickness 1.0
		FontColor #304d6d
	}
	server {
			FontColor #ffffff
	BorderColor #304d6d
	BackgroundColor #7c9ab9-#304d6d
	}
	arrow {
		FontColor #304d6d
		LineColor #304d6d
	}
	group {
		BackGroundColor #eeeeee
		LineColor #a7a7a7
		LineThickness 2.0
		Margin 5
		Padding 5
	}
  }
  ganttDiagram {
	task {
			FontColor #ffffff
	BorderColor #304d6d
	BackgroundColor #7c9ab9-#304d6d
		LineColor #446e9b
		Margin 10
		Padding 6
	}
	note {
		FontColor #ffffff
		LineColor #246baa
		BackGroundColor #3399f3
	}
	separator {
		LineColor #999999
		BackGroundColor #999999-#6b6b6b
		FontColor #ffffff
	}
	milestone {
		FontColor #3399f3
		FontSize 16
		FontStyle italic
		BackGroundColor #999999
		LineColor #6b6b6b
	}
	timeline {
		BackgroundColor #999999
		FontColor #ffffff
	}
	closed {
		BackgroundColor #945200
		FontColor #ffffff
	}
  }
</style>
skinparam defaultFontName       "Verdana"
skinparam defaultFontSize       12
skinparam dpi                   100
skinparam shadowing             false
skinparam roundcorner           8
skinparam ParticipantPadding    40
skinparam BoxPadding            40
skinparam Padding               5
skinparam ArrowColor            #333333
skinparam stereotype {
    CBackgroundColor #b8b8b8
    CBorderColor #6b6b6b
    ABackgroundColor #4cbc5c
    ABorderColor #32a243
    IBackgroundColor #dc4e4d
    IBorderColor #900100
    EBackgroundColor #e19e4d
    EBorderColor #945200
    NBackgroundColor #70b8f7
    NBorderColor #246baa
}
skinparam title {
	FontColor	                 #304d6d
	BorderColor	                 #6b6b6b
	FontSize	    	         20
	BorderRoundCorner            8
	BorderThickness 	         1
	BackgroundColor              #b8b8b8-#999999
}

skinparam legend {
	BackgroundColor #999999
	BorderColor #6b6b6b
	FontColor #eeeeee
}

skinparam swimlane {
	BorderColor #3399f3
	BorderThickness 2
	TitleBackgroundColor  #b8b8b8-#999999
	TitleFontColor #304d6d
}


skinparam activity {
		FontColor #ffffff
	BorderColor #304d6d
	BackgroundColor #7c9ab9-#304d6d
	BarColor #3cb521
	StartColor #3399f3
	EndColor #3399f3
	DiamondBackgroundColor #b8b8b8-#6b6b6b
  	DiamondBorderColor #6b6b6b
  	DiamondFontColor #ffffff
}


skinparam participant {
		FontColor #ffffff
	BorderColor #304d6d
	BackgroundColor #7c9ab9-#304d6d
	ParticipantBorderThickness 2
}


skinparam actor {
		FontColor #ffffff
	BorderColor #304d6d
	BackgroundColor #7c9ab9-#304d6d
}


skinparam arrow {
	Thickness 3
	Color #446e9b
	FontColor #ffffff
}


skinparam sequence {
	BorderColor #446e9b
	TitleFontColor #446e9b
	BackgroundColor transparent
	StartColor #446e9b
	EndColor #446e9b
	BoxBackgroundColor transparent
	BoxBorderColor #333333
	BoxFontColor #333333
	DelayFontColor #333333
	LifeLineBorderColor #999999
	LifeLineBorderThickness 2
	LifeLineBackgroundColor #6b6b6b-#6b6b6b
	GroupBorderColor #333333
	GroupFontColor #333333
	GroupHeaderFontColor #3399f3
	GroupBackgroundColor #6b6b6b-#6b6b6b
	GroupHeaderBackgroundColor transparent
	DividerBackgroundColor #707070-#242424
    DividerBorderColor #333333
    DividerBorderThickness 2
    DividerFontColor #eeeeee
	ReferenceBackgroundColor transparent
	ReferenceBorderColor #333333
	ReferenceFontColor #333333
	ReferenceHeaderFontColor #3399f3
	ReferenceHeaderBackgroundColor #6b6b6b-#6b6b6b
	StereotypeFontColor #ffffff
}


skinparam partition {
	BorderColor #446e9b
	FontColor #446e9b
	BackgroundColor transparent
}


skinparam collections {
		FontColor #ffffff
	BorderColor #304d6d
	BackgroundColor #7c9ab9-#304d6d
}


skinparam control {
		FontColor #ffffff
	BorderColor #304d6d
	BackgroundColor #7c9ab9-#304d6d
}


skinparam entity {
		FontColor #ffffff
	BorderColor #304d6d
	BackgroundColor #7c9ab9-#304d6d
}


skinparam boundary {
		FontColor #ffffff
	BorderColor #304d6d
	BackgroundColor #7c9ab9-#304d6d
}


skinparam agent {
	BackgroundColor #d47500
	BorderColor #e19e4d
	FontColor #333333
}


skinparam note {
	BorderThickness 1
	BackgroundColor #70b8f7-#246baa
	BorderColor #246baa
	FontColor #ffffff
}


skinparam artifact {
	BackgroundColor #333333
	BorderColor #242424
	FontColor #eeeeee
}


skinparam component {
		FontColor #ffffff
	BorderColor #304d6d
	BackgroundColor #7c9ab9-#304d6d
}


skinparam interface {
	BackgroundColor  #900100
	BorderColor  #cd0200
	FontColor #333333
}


skinparam storage {
	BackgroundColor #d47500
  	BorderColor #945200
	FontColor #ffffff
}


skinparam node {
	BackgroundColor  #999999
	BorderColor #eeeeee
	FontColor #eeeeee
}


skinparam cloud {
	BackgroundColor #F2FCFE-#eeeeee
	BorderColor #F2FCFE
	FontColor #333333
}


skinparam database {
		FontColor #ffffff
	BorderColor #304d6d
	BackgroundColor #7c9ab9-#304d6d
}


skinparam class {
		FontColor #ffffff
	BorderColor #304d6d
	BackgroundColor #7c9ab9-#304d6d
	FontColor #ffffff
	HeaderBackgroundColor #7c9ab9-#446e9b
	StereotypeFontColor #eeeeee
	BorderThickness 1
	AttributeFontColor #eeeeee
	AttributeFontSize 11
}


skinparam object {
		FontColor #ffffff
	BorderColor #304d6d
	BackgroundColor #7c9ab9-#304d6d
	StereotypeFontColor #333333
	BorderThickness 1
	AttributeFontColor #ffffff
	AttributeFontSize 11
}


skinparam usecase {
		FontColor #ffffff
	BorderColor #304d6d
	BackgroundColor #7c9ab9-#304d6d
	BorderThickness 2
	StereotypeFontColor #446e9b
}


skinparam rectangle {
		FontColor #ffffff
	BorderColor #304d6d
	BackgroundColor #7c9ab9-#304d6d
	BackgroundColor #b8b8b8-#6b6b6b
	BorderThickness 2
	StereotypeFontColor #446e9b
}


skinparam package {
	BackgroundColor #b8b8b8-#6b6b6b
  	BorderColor #446e9b
	FontColor #446e9b
	BorderThickness 2
}


skinparam folder {
	BackgroundColor #b8b8b8-#6b6b6b
  	BorderColor #d47500
	FontColor #d47500
	BorderThickness 2
}


skinparam frame {
	BackgroundColor #b8b8b8-#6b6b6b
  	BorderColor #3399f3
	FontColor #3399f3
	BorderThickness 2
}


skinparam state {
		FontColor #ffffff
	BorderColor #304d6d
	BackgroundColor #7c9ab9-#304d6d
	StartColor #3399f3
	EndColor #3399f3
	AttributeFontColor #ffffff
	AttributeFontSize 11
}


skinparam queue {
		FontColor #ffffff
	BorderColor #304d6d
	BackgroundColor #7c9ab9-#304d6d
}


skinparam card {
	BackgroundColor #70b8f7-#246baa
	BorderColor #246baa
	FontColor #ffffff
}


skinparam file {
	BackgroundColor #6b6b6b-#6b6b6b
	BorderColor #eeeeee
	FontColor #eeeeee
}


skinparam stack {
		FontColor #ffffff
	BorderColor #304d6d
	BackgroundColor #7c9ab9-#304d6d
}
skinparam linetype polyline
left to right direction
scale 800*800

class Context {
    -m_variables: map<string, long>
    +void SetVariable(string name, long value)
    +long GetVariable(string name)
}

class Client {
    -m_context: Context
}

abstract class AbstractExpression {
    +void Interpret(Context context)
}

class TerminalExpression extends AbstractExpression {
    +void Interpret(Context context)
}

class NonTerminalExpression extends AbstractExpression {
    #m_leftExpression: AbstractExpression
    #m_rightExpression: AbstractExpression
    +void Interpret(Context context)
    +AbstractExpression* GetLeftExpression()
    +AbstractExpression* GetRightExpression()
}

Client *- -> Context
Client - -> AbstractExpression

NonTerminalExpression *- -> AbstractExpression
@enduml

PlantUML version 1.2021.16(Wed Dec 08 18:25:22 CET 2021)
(GPL source distribution)
Java Runtime: Java(TM) SE Runtime Environment
JVM: Java HotSpot(TM) 64-Bit Server VM
Default Encoding: Cp1252
Language: fr
Country: FR
--></g></svg>