<?xml version="1.0" encoding="UTF-8" standalone="no"?>
<!DOCTYPE svg PUBLIC "-//W3C//DTD SVG 1.1//EN"
 "http://www.w3.org/Graphics/SVG/1.1/DTD/svg11.dtd">
<!-- Generated by graphviz version 2.50.0 (20211204.2007)
 -->
<!-- Title: stdafx.h Pages: 1 -->
<svg width="1214pt" height="308pt"
 viewBox="0.00 0.00 1213.71 308.00" xmlns="http://www.w3.org/2000/svg" xmlns:xlink="http://www.w3.org/1999/xlink">
<g id="graph0" class="graph" transform="scale(1 1) rotate(0) translate(4 304)">
<title>stdafx.h</title>
<!-- Node1 -->
<g id="node1" class="node">
<title>Node1</title>
<g id="a_node1"><a xlink:title=" ">
<polygon fill="#bfbfbf" stroke="black" points="841.5,-280.5 841.5,-299.5 892.5,-299.5 892.5,-280.5 841.5,-280.5"/>
<text text-anchor="middle" x="867" y="-287.5" font-family="Helvetica,sans-Serif" font-size="10.00">stdafx.h</text>
</a>
</g>
</g>
<!-- Node2 -->
<g id="node2" class="node">
<title>Node2</title>
<g id="a_node2"><a xlink:href="_client_8h.html" target="_top" xlink:title=" ">
<polygon fill="none" stroke="black" points="396,-56.5 396,-75.5 446,-75.5 446,-56.5 396,-56.5"/>
<text text-anchor="middle" x="421" y="-63.5" font-family="Helvetica,sans-Serif" font-size="10.00">Client.h</text>
</a>
</g>
</g>
<!-- Node1&#45;&gt;Node2 -->
<g id="edge1" class="edge">
<title>Node1&#45;&gt;Node2</title>
<path fill="none" stroke="midnightblue" d="M831.48,-280.35C771.76,-265.24 648.04,-231.44 549,-188 503.06,-167.85 484.9,-168.98 451,-132 435.55,-115.14 426.81,-88.94 423.12,-75.53"/>
<polygon fill="midnightblue" stroke="midnightblue" points="830.63,-283.75 841.19,-282.79 832.34,-276.96 830.63,-283.75"/>
</g>
<!-- Node3 -->
<g id="node3" class="node">
<title>Node3</title>
<g id="a_node3"><a xlink:href="_context_8h.html" target="_top" xlink:title=" ">
<polygon fill="none" stroke="black" points="915.5,-224.5 915.5,-243.5 974.5,-243.5 974.5,-224.5 915.5,-224.5"/>
<text text-anchor="middle" x="945" y="-231.5" font-family="Helvetica,sans-Serif" font-size="10.00">Context.h</text>
</a>
</g>
</g>
<!-- Node1&#45;&gt;Node3 -->
<g id="edge2" class="edge">
<title>Node1&#45;&gt;Node3</title>
<path fill="none" stroke="midnightblue" d="M887.77,-274.62C902.02,-264.76 920.46,-251.99 932.5,-243.65"/>
<polygon fill="midnightblue" stroke="midnightblue" points="885.76,-271.75 879.53,-280.32 889.75,-277.51 885.76,-271.75"/>
</g>
<!-- Node19 -->
<g id="node19" class="node">
<title>Node19</title>
<g id="a_node19"><a xlink:href="_token_8h.html" target="_top" xlink:title=" ">
<polygon fill="none" stroke="black" points="841.5,-168.5 841.5,-187.5 892.5,-187.5 892.5,-168.5 841.5,-168.5"/>
<text text-anchor="middle" x="867" y="-175.5" font-family="Helvetica,sans-Serif" font-size="10.00">Token.h</text>
</a>
</g>
</g>
<!-- Node1&#45;&gt;Node19 -->
<g id="edge28" class="edge">
<title>Node1&#45;&gt;Node19</title>
<path fill="none" stroke="midnightblue" d="M867,-270.35C867,-246.25 867,-205.31 867,-187.59"/>
<polygon fill="midnightblue" stroke="midnightblue" points="863.5,-270.37 867,-280.37 870.5,-270.37 863.5,-270.37"/>
</g>
<!-- Node3&#45;&gt;Node2 -->
<g id="edge3" class="edge">
<title>Node3&#45;&gt;Node2</title>
<path fill="none" stroke="midnightblue" d="M905.17,-232.61C820.59,-230.1 619.23,-215.12 478,-132 453.94,-117.84 434.75,-89.94 426.06,-75.75"/>
<polygon fill="midnightblue" stroke="midnightblue" points="905.28,-236.11 915.37,-232.87 905.46,-229.11 905.28,-236.11"/>
</g>
<!-- Node4 -->
<g id="node4" class="node">
<title>Node4</title>
<g id="a_node4"><a xlink:href="_expression_interface_8h.html" target="_top" xlink:title=" ">
<polygon fill="none" stroke="black" points="911,-168.5 911,-187.5 1021,-187.5 1021,-168.5 911,-168.5"/>
<text text-anchor="middle" x="966" y="-175.5" font-family="Helvetica,sans-Serif" font-size="10.00">ExpressionInterface.h</text>
</a>
</g>
</g>
<!-- Node3&#45;&gt;Node4 -->
<g id="edge4" class="edge">
<title>Node3&#45;&gt;Node4</title>
<path fill="none" stroke="midnightblue" d="M952.12,-214.69C955.66,-205.59 959.77,-195.01 962.6,-187.75"/>
<polygon fill="midnightblue" stroke="midnightblue" points="948.83,-213.49 948.47,-224.08 955.35,-216.03 948.83,-213.49"/>
</g>
<!-- Node17 -->
<g id="node17" class="node">
<title>Node17</title>
<g id="a_node17"><a xlink:href="_statement_interface_8h.html" target="_top" xlink:title=" ">
<polygon fill="none" stroke="black" points="1039.5,-168.5 1039.5,-187.5 1146.5,-187.5 1146.5,-168.5 1039.5,-168.5"/>
<text text-anchor="middle" x="1093" y="-175.5" font-family="Helvetica,sans-Serif" font-size="10.00">StatementInterface.h</text>
</a>
</g>
</g>
<!-- Node3&#45;&gt;Node17 -->
<g id="edge23" class="edge">
<title>Node3&#45;&gt;Node17</title>
<path fill="none" stroke="midnightblue" d="M978.15,-220.91C1005.97,-210.75 1045.02,-196.51 1069.66,-187.52"/>
<polygon fill="midnightblue" stroke="midnightblue" points="976.65,-217.73 968.45,-224.44 979.04,-224.3 976.65,-217.73"/>
</g>
<!-- Node5 -->
<g id="node5" class="node">
<title>Node5</title>
<g id="a_node5"><a xlink:href="_abstract_expression_8h.html" target="_top" xlink:title=" ">
<polygon fill="none" stroke="black" points="732,-112.5 732,-131.5 842,-131.5 842,-112.5 732,-112.5"/>
<text text-anchor="middle" x="787" y="-119.5" font-family="Helvetica,sans-Serif" font-size="10.00">AbstractExpression.h</text>
</a>
</g>
</g>
<!-- Node4&#45;&gt;Node5 -->
<g id="edge5" class="edge">
<title>Node4&#45;&gt;Node5</title>
<path fill="none" stroke="midnightblue" d="M927.67,-165.44C893.92,-155.26 845.55,-140.66 815.23,-131.52"/>
<polygon fill="midnightblue" stroke="midnightblue" points="927.05,-168.91 937.64,-168.44 929.07,-162.2 927.05,-168.91"/>
</g>
<!-- Node14 -->
<g id="node14" class="node">
<title>Node14</title>
<g id="a_node14"><a xlink:href="_parser_8h.html" target="_top" xlink:title=" ">
<polygon fill="none" stroke="black" points="936.5,-112.5 936.5,-131.5 989.5,-131.5 989.5,-112.5 936.5,-112.5"/>
<text text-anchor="middle" x="963" y="-119.5" font-family="Helvetica,sans-Serif" font-size="10.00">Parser.h</text>
</a>
</g>
</g>
<!-- Node4&#45;&gt;Node14 -->
<g id="edge15" class="edge">
<title>Node4&#45;&gt;Node14</title>
<path fill="none" stroke="midnightblue" d="M964.93,-157.8C964.44,-148.91 963.88,-138.78 963.49,-131.75"/>
<polygon fill="midnightblue" stroke="midnightblue" points="961.46,-158.29 965.5,-168.08 968.44,-157.9 961.46,-158.29"/>
</g>
<!-- Node15 -->
<g id="node15" class="node">
<title>Node15</title>
<g id="a_node15"><a xlink:href="_printing_statement_8h.html" target="_top" xlink:title=" ">
<polygon fill="none" stroke="black" points="1096.5,-56.5 1096.5,-75.5 1199.5,-75.5 1199.5,-56.5 1096.5,-56.5"/>
<text text-anchor="middle" x="1148" y="-63.5" font-family="Helvetica,sans-Serif" font-size="10.00">PrintingStatement.h</text>
</a>
</g>
</g>
<!-- Node4&#45;&gt;Node15 -->
<g id="edge21" class="edge">
<title>Node4&#45;&gt;Node15</title>
<path fill="none" stroke="midnightblue" d="M1029.83,-166.83C1097.51,-155.73 1195.49,-138.67 1201,-132 1217.61,-111.91 1185.08,-88.14 1164.01,-75.65"/>
<polygon fill="midnightblue" stroke="midnightblue" points="1028.97,-163.42 1019.66,-168.49 1030.1,-170.33 1028.97,-163.42"/>
</g>
<!-- Node16 -->
<g id="node16" class="node">
<title>Node16</title>
<g id="a_node16"><a xlink:href="_variable_statement_8h.html" target="_top" xlink:title=" ">
<polygon fill="none" stroke="black" points="973.5,-56.5 973.5,-75.5 1078.5,-75.5 1078.5,-56.5 973.5,-56.5"/>
<text text-anchor="middle" x="1026" y="-63.5" font-family="Helvetica,sans-Serif" font-size="10.00">VariableStatement.h</text>
</a>
</g>
</g>
<!-- Node4&#45;&gt;Node16 -->
<g id="edge22" class="edge">
<title>Node4&#45;&gt;Node16</title>
<path fill="none" stroke="midnightblue" d="M979.62,-160.45C986,-152.21 993.41,-141.92 999,-132 1009.8,-112.84 1018.76,-88.49 1023.13,-75.72"/>
<polygon fill="midnightblue" stroke="midnightblue" points="976.73,-158.46 973.23,-168.46 982.2,-162.82 976.73,-158.46"/>
</g>
<!-- Node6 -->
<g id="node6" class="node">
<title>Node6</title>
<g id="a_node6"><a xlink:href="_identifier_expression_8h.html" target="_top" xlink:title=" ">
<polygon fill="none" stroke="black" points="807,-56.5 807,-75.5 917,-75.5 917,-56.5 807,-56.5"/>
<text text-anchor="middle" x="862" y="-63.5" font-family="Helvetica,sans-Serif" font-size="10.00">IdentifierExpression.h</text>
</a>
</g>
</g>
<!-- Node5&#45;&gt;Node6 -->
<g id="edge6" class="edge">
<title>Node5&#45;&gt;Node6</title>
<path fill="none" stroke="midnightblue" d="M807.31,-106.38C820.86,-96.62 838.24,-84.11 849.73,-75.83"/>
<polygon fill="midnightblue" stroke="midnightblue" points="805.12,-103.64 799.05,-112.32 809.21,-109.32 805.12,-103.64"/>
</g>
<!-- Node7 -->
<g id="node7" class="node">
<title>Node7</title>
<g id="a_node7"><a xlink:href="_number_expression_8h.html" target="_top" xlink:title=" ">
<polygon fill="none" stroke="black" points="891.5,-0.5 891.5,-19.5 998.5,-19.5 998.5,-0.5 891.5,-0.5"/>
<text text-anchor="middle" x="945" y="-7.5" font-family="Helvetica,sans-Serif" font-size="10.00">NumberExpression.h</text>
</a>
</g>
</g>
<!-- Node5&#45;&gt;Node7 -->
<g id="edge7" class="edge">
<title>Node5&#45;&gt;Node7</title>
<path fill="none" stroke="midnightblue" d="M785.24,-102.02C784.97,-87.72 787.03,-68.49 798,-56 811.47,-40.66 861.35,-27.58 899.3,-19.54"/>
<polygon fill="midnightblue" stroke="midnightblue" points="781.75,-102.44 785.82,-112.22 788.74,-102.04 781.75,-102.44"/>
</g>
<!-- Node8 -->
<g id="node8" class="node">
<title>Node8</title>
<g id="a_node8"><a xlink:href="_operator_expression_8h.html" target="_top" xlink:title=" ">
<polygon fill="none" stroke="black" points="586.5,-56.5 586.5,-75.5 697.5,-75.5 697.5,-56.5 586.5,-56.5"/>
<text text-anchor="middle" x="642" y="-63.5" font-family="Helvetica,sans-Serif" font-size="10.00">OperatorExpression.h</text>
</a>
</g>
</g>
<!-- Node5&#45;&gt;Node8 -->
<g id="edge8" class="edge">
<title>Node5&#45;&gt;Node8</title>
<path fill="none" stroke="midnightblue" d="M754.52,-108.91C727.26,-98.75 689.01,-84.51 664.87,-75.52"/>
<polygon fill="midnightblue" stroke="midnightblue" points="753.43,-112.23 764.02,-112.44 755.87,-105.67 753.43,-112.23"/>
</g>
<!-- Node8&#45;&gt;Node7 -->
<g id="edge13" class="edge">
<title>Node8&#45;&gt;Node7</title>
<path fill="none" stroke="midnightblue" d="M700,-54.66C757.26,-44.46 843.78,-29.04 897.21,-19.52"/>
<polygon fill="midnightblue" stroke="midnightblue" points="699.24,-51.24 690.01,-56.44 700.47,-58.13 699.24,-51.24"/>
</g>
<!-- Node9 -->
<g id="node9" class="node">
<title>Node9</title>
<g id="a_node9"><a xlink:href="_addition_expression_8h.html" target="_top" xlink:title=" ">
<polygon fill="none" stroke="black" points="516.5,-0.5 516.5,-19.5 625.5,-19.5 625.5,-0.5 516.5,-0.5"/>
<text text-anchor="middle" x="571" y="-7.5" font-family="Helvetica,sans-Serif" font-size="10.00">AdditionExpression.h</text>
</a>
</g>
</g>
<!-- Node8&#45;&gt;Node9 -->
<g id="edge9" class="edge">
<title>Node8&#45;&gt;Node9</title>
<path fill="none" stroke="midnightblue" d="M622.41,-50.1C609.63,-40.38 593.39,-28.03 582.61,-19.83"/>
<polygon fill="midnightblue" stroke="midnightblue" points="620.51,-53.06 630.59,-56.32 624.75,-47.48 620.51,-53.06"/>
</g>
<!-- Node10 -->
<g id="node10" class="node">
<title>Node10</title>
<g id="a_node10"><a xlink:href="_division_expression_8h.html" target="_top" xlink:title=" ">
<polygon fill="none" stroke="black" points="643.5,-0.5 643.5,-19.5 750.5,-19.5 750.5,-0.5 643.5,-0.5"/>
<text text-anchor="middle" x="697" y="-7.5" font-family="Helvetica,sans-Serif" font-size="10.00">DivisionExpression.h</text>
</a>
</g>
</g>
<!-- Node8&#45;&gt;Node10 -->
<g id="edge10" class="edge">
<title>Node8&#45;&gt;Node10</title>
<path fill="none" stroke="midnightblue" d="M658.29,-49C668.04,-39.43 680.05,-27.64 688.09,-19.75"/>
<polygon fill="midnightblue" stroke="midnightblue" points="655.77,-46.58 651.08,-56.08 660.67,-51.57 655.77,-46.58"/>
</g>
<!-- Node11 -->
<g id="node11" class="node">
<title>Node11</title>
<g id="a_node11"><a xlink:href="_modulo_expression_8h.html" target="_top" xlink:title=" ">
<polygon fill="none" stroke="black" points="768.5,-0.5 768.5,-19.5 873.5,-19.5 873.5,-0.5 768.5,-0.5"/>
<text text-anchor="middle" x="821" y="-7.5" font-family="Helvetica,sans-Serif" font-size="10.00">ModuloExpression.h</text>
</a>
</g>
</g>
<!-- Node8&#45;&gt;Node11 -->
<g id="edge11" class="edge">
<title>Node8&#45;&gt;Node11</title>
<path fill="none" stroke="midnightblue" d="M680.33,-53.44C714.08,-43.26 762.45,-28.66 792.77,-19.52"/>
<polygon fill="midnightblue" stroke="midnightblue" points="678.93,-50.2 670.36,-56.44 680.95,-56.91 678.93,-50.2"/>
</g>
<!-- Node12 -->
<g id="node12" class="node">
<title>Node12</title>
<g id="a_node12"><a xlink:href="_multiplication_expression_8h.html" target="_top" xlink:title=" ">
<polygon fill="none" stroke="black" points="226.5,-0.5 226.5,-19.5 357.5,-19.5 357.5,-0.5 226.5,-0.5"/>
<text text-anchor="middle" x="292" y="-7.5" font-family="Helvetica,sans-Serif" font-size="10.00">MultiplicationExpression.h</text>
</a>
</g>
</g>
<!-- Node8&#45;&gt;Node12 -->
<g id="edge12" class="edge">
<title>Node8&#45;&gt;Node12</title>
<path fill="none" stroke="midnightblue" d="M576.64,-54.92C510.52,-44.71 409.43,-29.12 347.2,-19.52"/>
<polygon fill="midnightblue" stroke="midnightblue" points="576.12,-58.38 586.54,-56.44 577.19,-51.46 576.12,-58.38"/>
</g>
<!-- Node13 -->
<g id="node13" class="node">
<title>Node13</title>
<g id="a_node13"><a xlink:href="_subtraction_expression_8h.html" target="_top" xlink:title=" ">
<polygon fill="none" stroke="black" points="375.5,-0.5 375.5,-19.5 498.5,-19.5 498.5,-0.5 375.5,-0.5"/>
<text text-anchor="middle" x="437" y="-7.5" font-family="Helvetica,sans-Serif" font-size="10.00">SubtractionExpression.h</text>
</a>
</g>
</g>
<!-- Node8&#45;&gt;Node13 -->
<g id="edge14" class="edge">
<title>Node8&#45;&gt;Node13</title>
<path fill="none" stroke="midnightblue" d="M599.59,-53.83C560.89,-43.63 504.51,-28.78 469.33,-19.52"/>
<polygon fill="midnightblue" stroke="midnightblue" points="598.96,-57.28 609.52,-56.44 600.74,-50.51 598.96,-57.28"/>
</g>
<!-- Node14&#45;&gt;Node2 -->
<g id="edge16" class="edge">
<title>Node14&#45;&gt;Node2</title>
<path fill="none" stroke="midnightblue" d="M926.21,-117.91C813.34,-108.42 478.18,-80.06 455,-76 452.11,-75.49 449.11,-74.86 446.14,-74.17"/>
<polygon fill="midnightblue" stroke="midnightblue" points="926.17,-121.42 936.42,-118.77 926.75,-114.45 926.17,-121.42"/>
</g>
<!-- Node14&#45;&gt;Node6 -->
<g id="edge17" class="edge">
<title>Node14&#45;&gt;Node6</title>
<path fill="none" stroke="midnightblue" d="M937.92,-107.59C919.24,-97.61 894.3,-84.27 878.19,-75.65"/>
<polygon fill="midnightblue" stroke="midnightblue" points="936.3,-110.7 946.77,-112.32 939.6,-104.52 936.3,-110.7"/>
</g>
<!-- Node14&#45;&gt;Node7 -->
<g id="edge18" class="edge">
<title>Node14&#45;&gt;Node7</title>
<path fill="none" stroke="midnightblue" d="M959.95,-102.35C956.01,-78.25 949.3,-37.31 946.41,-19.59"/>
<polygon fill="midnightblue" stroke="midnightblue" points="956.52,-103.06 961.59,-112.37 963.43,-101.93 956.52,-103.06"/>
</g>
<!-- Node14&#45;&gt;Node15 -->
<g id="edge19" class="edge">
<title>Node14&#45;&gt;Node15</title>
<path fill="none" stroke="midnightblue" d="M999.32,-110.4C1034.27,-100.2 1086.45,-84.97 1118.8,-75.52"/>
<polygon fill="midnightblue" stroke="midnightblue" points="998.12,-107.1 989.51,-113.26 1000.09,-113.82 998.12,-107.1"/>
</g>
<!-- Node14&#45;&gt;Node16 -->
<g id="edge20" class="edge">
<title>Node14&#45;&gt;Node16</title>
<path fill="none" stroke="midnightblue" d="M981.04,-105.54C992.27,-95.91 1006.32,-83.87 1015.69,-75.83"/>
<polygon fill="midnightblue" stroke="midnightblue" points="978.44,-103.16 973.12,-112.32 982.99,-108.47 978.44,-103.16"/>
</g>
<!-- Node17&#45;&gt;Node14 -->
<g id="edge27" class="edge">
<title>Node17&#45;&gt;Node14</title>
<path fill="none" stroke="midnightblue" d="M1062.91,-164.5C1038.54,-154.38 1004.86,-140.39 983.5,-131.52"/>
<polygon fill="midnightblue" stroke="midnightblue" points="1061.82,-167.84 1072.4,-168.44 1064.51,-161.38 1061.82,-167.84"/>
</g>
<!-- Node18 -->
<g id="node18" class="node">
<title>Node18</title>
<g id="a_node18"><a xlink:href="_abstract_statement_8h.html" target="_top" xlink:title=" ">
<polygon fill="none" stroke="black" points="1084.5,-112.5 1084.5,-131.5 1191.5,-131.5 1191.5,-112.5 1084.5,-112.5"/>
<text text-anchor="middle" x="1138" y="-119.5" font-family="Helvetica,sans-Serif" font-size="10.00">AbstractStatement.h</text>
</a>
</g>
</g>
<!-- Node17&#45;&gt;Node18 -->
<g id="edge24" class="edge">
<title>Node17&#45;&gt;Node18</title>
<path fill="none" stroke="midnightblue" d="M1107.05,-160.14C1114.89,-150.74 1124.33,-139.4 1130.71,-131.75"/>
<polygon fill="midnightblue" stroke="midnightblue" points="1104.14,-158.16 1100.43,-168.08 1109.52,-162.64 1104.14,-158.16"/>
</g>
<!-- Node18&#45;&gt;Node15 -->
<g id="edge25" class="edge">
<title>Node18&#45;&gt;Node15</title>
<path fill="none" stroke="midnightblue" d="M1141.5,-102.1C1143.16,-93.14 1145.06,-82.86 1146.38,-75.75"/>
<polygon fill="midnightblue" stroke="midnightblue" points="1138.03,-101.61 1139.65,-112.08 1144.91,-102.89 1138.03,-101.61"/>
</g>
<!-- Node18&#45;&gt;Node16 -->
<g id="edge26" class="edge">
<title>Node18&#45;&gt;Node16</title>
<path fill="none" stroke="midnightblue" d="M1110.75,-107.86C1089.98,-97.85 1061.98,-84.35 1043.95,-75.65"/>
<polygon fill="midnightblue" stroke="midnightblue" points="1109.48,-111.13 1120.01,-112.32 1112.52,-104.83 1109.48,-111.13"/>
</g>
<!-- Node19&#45;&gt;Node5 -->
<g id="edge29" class="edge">
<title>Node19&#45;&gt;Node5</title>
<path fill="none" stroke="midnightblue" d="M845.7,-162.62C831.08,-152.76 812.17,-139.99 799.82,-131.65"/>
<polygon fill="midnightblue" stroke="midnightblue" points="843.9,-165.63 854.15,-168.32 847.82,-159.83 843.9,-165.63"/>
</g>
<!-- Node19&#45;&gt;Node6 -->
<g id="edge31" class="edge">
<title>Node19&#45;&gt;Node6</title>
<path fill="none" stroke="midnightblue" d="M866.15,-158.35C865.06,-134.25 863.2,-93.31 862.39,-75.59"/>
<polygon fill="midnightblue" stroke="midnightblue" points="862.66,-158.54 866.61,-168.37 869.65,-158.22 862.66,-158.54"/>
</g>
<!-- Node19&#45;&gt;Node7 -->
<g id="edge32" class="edge">
<title>Node19&#45;&gt;Node7</title>
<path fill="none" stroke="midnightblue" d="M831,-175.13C782.12,-170.89 702.98,-157.07 723,-112 738.08,-78.07 752.49,-73.94 785,-56 818.22,-37.66 859.53,-26.29 891.85,-19.57"/>
<polygon fill="midnightblue" stroke="midnightblue" points="830.99,-178.64 841.22,-175.92 831.52,-171.66 830.99,-178.64"/>
</g>
<!-- Node19&#45;&gt;Node14 -->
<g id="edge33" class="edge">
<title>Node19&#45;&gt;Node14</title>
<path fill="none" stroke="midnightblue" d="M891.57,-163.18C909.24,-153.24 932.51,-140.15 947.61,-131.65"/>
<polygon fill="midnightblue" stroke="midnightblue" points="889.42,-160.37 882.42,-168.32 892.86,-166.47 889.42,-160.37"/>
</g>
<!-- Node19&#45;&gt;Node15 -->
<g id="edge34" class="edge">
<title>Node19&#45;&gt;Node15</title>
<path fill="none" stroke="midnightblue" d="M902.22,-165.87C928.98,-157.21 966.57,-144.58 999,-132 1046.63,-113.53 1101.39,-88.68 1129.39,-75.71"/>
<polygon fill="midnightblue" stroke="midnightblue" points="900.98,-162.6 892.53,-168.99 903.12,-169.26 900.98,-162.6"/>
</g>
<!-- Node19&#45;&gt;Node16 -->
<g id="edge40" class="edge">
<title>Node19&#45;&gt;Node16</title>
<path fill="none" stroke="midnightblue" d="M879.48,-160.44C890.89,-146.18 908.86,-125.77 928,-112 950.49,-95.81 979.73,-83.3 1000.4,-75.63"/>
<polygon fill="midnightblue" stroke="midnightblue" points="876.66,-158.37 873.28,-168.41 882.18,-162.67 876.66,-158.37"/>
</g>
<!-- Node19&#45;&gt;Node18 -->
<g id="edge30" class="edge">
<title>Node19&#45;&gt;Node18</title>
<path fill="none" stroke="midnightblue" d="M902.46,-168.02C972.53,-152.49 1042.34,-139.64 1088.09,-131.57"/>
<polygon fill="midnightblue" stroke="midnightblue" points="901.57,-164.63 892.57,-170.23 903.09,-171.46 901.57,-164.63"/>
</g>
<!-- Node20 -->
<g id="node20" class="node">
<title>Node20</title>
<g id="a_node20"><a xlink:href="_tokenizer_interface_8h.html" target="_top" xlink:title=" ">
<polygon fill="none" stroke="black" points="487,-112.5 487,-131.5 591,-131.5 591,-112.5 487,-112.5"/>
<text text-anchor="middle" x="539" y="-119.5" font-family="Helvetica,sans-Serif" font-size="10.00">TokenizerInterface.h</text>
</a>
</g>
</g>
<!-- Node19&#45;&gt;Node20 -->
<g id="edge35" class="edge">
<title>Node19&#45;&gt;Node20</title>
<path fill="none" stroke="midnightblue" d="M831.09,-171.09C772.91,-161.51 657.84,-142.57 590.81,-131.53"/>
<polygon fill="midnightblue" stroke="midnightblue" points="830.83,-174.59 841.26,-172.76 831.96,-167.68 830.83,-174.59"/>
</g>
<!-- Node20&#45;&gt;Node2 -->
<g id="edge39" class="edge">
<title>Node20&#45;&gt;Node2</title>
<path fill="none" stroke="midnightblue" d="M511.1,-108.23C489.03,-98.13 458.82,-84.31 439.61,-75.52"/>
<polygon fill="midnightblue" stroke="midnightblue" points="509.75,-111.46 520.3,-112.44 512.67,-105.1 509.75,-111.46"/>
</g>
<!-- Node21 -->
<g id="node21" class="node">
<title>Node21</title>
<g id="a_node21"><a xlink:href="_abstract_tokenizer_8h.html" target="_top" xlink:title=" ">
<polygon fill="none" stroke="black" points="464,-56.5 464,-75.5 568,-75.5 568,-56.5 464,-56.5"/>
<text text-anchor="middle" x="516" y="-63.5" font-family="Helvetica,sans-Serif" font-size="10.00">AbstractTokenizer.h</text>
</a>
</g>
</g>
<!-- Node20&#45;&gt;Node21 -->
<g id="edge36" class="edge">
<title>Node20&#45;&gt;Node21</title>
<path fill="none" stroke="midnightblue" d="M531.2,-102.69C527.32,-93.59 522.82,-83.01 519.73,-75.75"/>
<polygon fill="midnightblue" stroke="midnightblue" points="528.06,-104.25 535.2,-112.08 534.5,-101.51 528.06,-104.25"/>
</g>
<!-- Node22 -->
<g id="node22" class="node">
<title>Node22</title>
<g id="a_node22"><a xlink:href="_stream_tokenizer_8h.html" target="_top" xlink:title=" ">
<polygon fill="none" stroke="black" points="0,-0.5 0,-19.5 98,-19.5 98,-0.5 0,-0.5"/>
<text text-anchor="middle" x="49" y="-7.5" font-family="Helvetica,sans-Serif" font-size="10.00">StreamTokenizer.h</text>
</a>
</g>
</g>
<!-- Node21&#45;&gt;Node22 -->
<g id="edge37" class="edge">
<title>Node21&#45;&gt;Node22</title>
<path fill="none" stroke="midnightblue" d="M453.44,-55.85C298.97,-36.78 257.9,-39.5 107,-20 104.07,-19.62 101.06,-19.21 98.02,-18.79"/>
<polygon fill="midnightblue" stroke="midnightblue" points="453.42,-59.38 463.78,-57.14 454.29,-52.43 453.42,-59.38"/>
</g>
<!-- Node23 -->
<g id="node23" class="node">
<title>Node23</title>
<g id="a_node23"><a xlink:href="_string_tokenizer_8h.html" target="_top" xlink:title=" ">
<polygon fill="none" stroke="black" points="116,-0.5 116,-19.5 208,-19.5 208,-0.5 116,-0.5"/>
<text text-anchor="middle" x="162" y="-7.5" font-family="Helvetica,sans-Serif" font-size="10.00">StringTokenizer.h</text>
</a>
</g>
</g>
<!-- Node21&#45;&gt;Node23 -->
<g id="edge38" class="edge">
<title>Node21&#45;&gt;Node23</title>
<path fill="none" stroke="midnightblue" d="M453.61,-55.71C379.8,-44.69 261.33,-26.96 217,-20 214.13,-19.55 211.18,-19.08 208.21,-18.61"/>
<polygon fill="midnightblue" stroke="midnightblue" points="453.31,-59.2 463.72,-57.21 454.34,-52.28 453.31,-59.2"/>
</g>
</g>
</svg>
